<svg width="847" height="631" viewBox="0 0 847 631" fill="none" xmlns="http://www.w3.org/2000/svg">
<g clip-path="url(#clip0_287_413)">
<path d="M846.55 554.405H0V554.829H846.55V554.405Z" fill="#EBEBEB"/>
<path d="M761.726 581.647H671.873V582.07H761.726V581.647Z" fill="#EBEBEB"/>
<path d="M560.788 576.348H461.471V576.771H560.788V576.348Z" fill="#EBEBEB"/>
<path d="M676.207 573.893H643.716V574.316H676.207V573.893Z" fill="#EBEBEB"/>
<path d="M243.231 568.78H170.106V569.203H243.231V568.78Z" fill="#EBEBEB"/>
<path d="M160.675 568.78H134.534V569.203H160.675V568.78Z" fill="#EBEBEB"/>
<path d="M314.358 575.924H222.592V576.348H314.358V575.924Z" fill="#EBEBEB"/>
<path d="M401.264 478.893H74.3439C71.7828 478.889 69.3282 477.868 67.5188 476.056C65.7095 474.243 64.6932 471.787 64.6932 469.226V9.66766C64.7155 7.12128 65.7416 4.68653 67.5486 2.89225C69.3555 1.09797 71.7974 0.0890789 74.3439 0.0847168H401.264C403.828 0.0847168 406.287 1.10326 408.1 2.91629C409.914 4.72932 410.932 7.18831 410.932 9.75231V469.226C410.932 470.495 410.682 471.752 410.196 472.925C409.71 474.098 408.998 475.164 408.1 476.062C407.203 476.959 406.137 477.671 404.964 478.157C403.791 478.643 402.534 478.893 401.264 478.893ZM74.3439 0.423337C71.8951 0.427822 69.5481 1.40375 67.8181 3.13691C66.0881 4.87008 65.1165 7.21884 65.1165 9.66766V469.226C65.1165 471.674 66.0881 474.023 67.8181 475.756C69.5481 477.49 71.8951 478.465 74.3439 478.47H401.264C403.713 478.461 406.06 477.484 407.791 475.753C409.523 474.021 410.5 471.675 410.509 469.226V9.66766C410.5 7.21866 409.523 4.87251 407.791 3.14079C406.06 1.40908 403.713 0.432258 401.264 0.423337H74.3439Z" fill="#EBEBEB"/>
<path d="M767.499 478.893H440.561C438 478.884 435.546 477.863 433.735 476.052C431.924 474.241 430.903 471.787 430.894 469.226V9.66766C430.921 7.11974 431.95 4.685 433.76 2.89119C435.57 1.09738 438.013 0.0890313 440.561 0.0847168H767.499C770.042 0.0935285 772.48 1.10438 774.283 2.89819C776.087 4.69199 777.11 7.1242 777.133 9.66766V469.226C777.135 470.493 776.887 471.748 776.404 472.92C775.922 474.092 775.213 475.157 774.318 476.055C773.423 476.952 772.361 477.665 771.191 478.152C770.021 478.639 768.766 478.891 767.499 478.893ZM440.561 0.423337C438.112 0.432258 435.766 1.40908 434.035 3.14079C432.303 4.87251 431.326 7.21866 431.317 9.66766V469.226C431.326 471.675 432.303 474.021 434.035 475.753C435.766 477.484 438.112 478.461 440.561 478.47H767.499C769.948 478.461 772.294 477.484 774.026 475.753C775.757 474.021 776.734 471.675 776.743 469.226V9.66766C776.734 7.21866 775.757 4.87251 774.026 3.14079C772.294 1.40908 769.948 0.432258 767.499 0.423337H440.561Z" fill="#EBEBEB"/>
<path d="M703.449 36.0293H629.24V252.628H703.449V36.0293Z" fill="#F0F0F0"/>
<path d="M698.657 36.0293H613.291V252.628H698.657V36.0293Z" fill="#F5F5F5"/>
<path d="M691.512 44.5455H620.453V244.128H691.512V44.5455Z" fill="white"/>
<path d="M674.277 66.5897H637.672V222.067H674.277V66.5897Z" fill="#F5F5F5"/>
<path d="M596.767 82.691H522.558V299.289H596.767V82.691Z" fill="#F0F0F0"/>
<path d="M591.992 82.691H506.626V299.289H591.992V82.691Z" fill="#F5F5F5"/>
<path d="M584.83 91.2073H513.771V290.79H584.83V91.2073Z" fill="white"/>
<path d="M552.983 113.251H545.635C537.556 113.251 531.006 119.801 531.006 127.88V254.1C531.006 262.179 537.556 268.729 545.635 268.729H552.983C561.062 268.729 567.611 262.179 567.611 254.1V127.88C567.611 119.801 561.062 113.251 552.983 113.251Z" fill="#F5F5F5"/>
<path d="M469.547 390.225H455.139V554.405H469.547V390.225Z" fill="#E6E6E6"/>
<path d="M460.608 390.225H450.602V554.405H460.608V390.225Z" fill="#F0F0F0"/>
<path d="M618.845 390.209H447.503V406.412H618.845V390.209Z" fill="#F0F0F0"/>
<path d="M639.704 406.412H625.296V554.389H639.704V406.412Z" fill="#E6E6E6"/>
<path d="M630.747 406.412H620.741V554.389H630.747V406.412Z" fill="#F0F0F0"/>
<path d="M730.843 406.412H716.435V554.389H730.843V406.412Z" fill="#E6E6E6"/>
<path d="M721.904 406.412H711.897V554.389H721.904V406.412Z" fill="#F0F0F0"/>
<path d="M560.704 406.412H546.295V554.389H560.704V406.412Z" fill="#E6E6E6"/>
<path d="M551.747 406.412H541.741V554.389H551.747V406.412Z" fill="#F0F0F0"/>
<path d="M730.86 390.225H618.862V406.428H730.86V390.225Z" fill="#E6E6E6"/>
<path d="M611.632 389.87H685.164L694.256 289.977H620.724L611.632 389.87Z" fill="#E6E6E6"/>
<path d="M607.823 389.87H681.354L690.446 289.977H616.915L607.823 389.87Z" fill="#F0F0F0"/>
<path d="M671.297 378.814L678.374 301.033H626.971L619.894 378.814H671.297Z" fill="white"/>
<path d="M348.559 51.9952H226.994V554.389H348.559V51.9952Z" fill="#EBEBEB"/>
<path d="M336.927 62.1538H238.625V544.23H336.927V62.1538Z" fill="#FAFAFA"/>
<path d="M221.83 51.9952H100.265V554.389H221.83V51.9952Z" fill="#EBEBEB"/>
<path d="M226.994 53.9761H221.83V552.424H226.994V53.9761Z" fill="#E0E0E0"/>
<path d="M210.198 62.1538H111.897V544.23H210.198V62.1538Z" fill="#FAFAFA"/>
<path d="M362.357 43.7329H86.4665C85.438 43.7329 84.6041 44.5667 84.6041 45.5953V46.3911C84.6041 47.4197 85.438 48.2535 86.4665 48.2535H362.357C363.386 48.2535 364.219 47.4197 364.219 46.3911V45.5953C364.219 44.5667 363.386 43.7329 362.357 43.7329Z" fill="#E0E0E0"/>
<path d="M336.927 62.1708H238.625V71.7706H336.927V62.1708Z" fill="#E0E0E0"/>
<path d="M336.91 62.1538H238.608V78.3398H336.91V62.1538Z" fill="#E0E0E0"/>
<path d="M210.198 62.1538H111.897V97.5227H210.198V62.1538Z" fill="#E0E0E0"/>
<g opacity="0.8">
<path d="M341.701 33.1849H322.942V548.209H341.701V33.1849Z" fill="#F5F5F5"/>
<path d="M336.757 33.1849H327.903V548.209H336.757V33.1849Z" fill="#F0F0F0"/>
<path d="M351.775 33.1849H333.016V548.209H351.775V33.1849Z" fill="#F5F5F5"/>
<path d="M346.814 33.1849H337.959V548.209H346.814V33.1849Z" fill="#F0F0F0"/>
<path d="M361.155 33.1849H342.395V548.209H361.155V33.1849Z" fill="#F5F5F5"/>
</g>
<g opacity="0.8">
<path d="M127.372 33.1849H87.9565V548.209H127.372V33.1849Z" fill="#F5F5F5"/>
<path d="M116.976 33.1849H98.369V548.209H116.976V33.1849Z" fill="#F0F0F0"/>
<path d="M148.519 33.1849H109.103V548.209H148.519V33.1849Z" fill="#F5F5F5"/>
<path d="M138.123 33.1849H119.516V548.209H138.123V33.1849Z" fill="#F0F0F0"/>
<path d="M168.243 33.1849H128.828V548.209H168.243V33.1849Z" fill="#F5F5F5"/>
</g>
<path d="M423.275 630.866C604.576 630.866 751.55 622.285 751.55 611.7C751.55 601.115 604.576 592.534 423.275 592.534C241.974 592.534 94.9999 601.115 94.9999 611.7C94.9999 622.285 241.974 630.866 423.275 630.866Z" fill="#F5F5F5"/>
<path d="M135.14 195.871L133.453 196.004L135.924 227.331L137.611 227.198L135.14 195.871Z" fill="#FF725E"/>
<path d="M138.553 239.054L136.865 239.187L137.667 249.331L139.355 249.198L138.553 239.054Z" fill="#FF725E"/>
<path d="M201.665 139.004H268.424H335.2H401.959H468.718H535.477L538.372 175.761L541.284 212.501L544.179 249.258L547.091 285.998L549.986 322.739L552.898 359.496H486.14H419.364H352.605H285.846H219.087H152.328L149.433 322.739L146.521 285.998L143.626 249.258L140.713 212.501L137.818 175.761L134.906 139.004H201.665Z" fill="#FF725E"/>
<path d="M206.592 133.924H273.351H340.11H406.869H473.628H540.387L543.299 170.681L546.194 207.422L549.106 244.179L552.001 280.919L554.913 317.659L557.809 354.416H491.05H424.291H357.532H290.773H224.014H157.238L154.343 317.659L151.431 280.919L148.536 244.179L145.64 207.422L142.728 170.681L139.833 133.924H206.592Z" fill="white"/>
<path d="M476.54 170.681H543.299L540.386 133.924H473.627L476.54 170.681Z" fill="white"/>
<path d="M409.781 170.681H476.54L473.628 133.924H406.869L409.781 170.681Z" fill="white"/>
<path d="M343.005 170.681H409.781L406.869 133.924H340.11L343.005 170.681Z" fill="white"/>
<path d="M276.246 170.681H343.005L340.11 133.924H273.351L276.246 170.681Z" fill="white"/>
<path d="M209.487 170.681H276.246L273.351 133.924H206.592L209.487 170.681Z" fill="white"/>
<path d="M142.728 170.681H209.487L206.592 133.924H139.833L142.728 170.681Z" fill="#F5F5F5"/>
<path d="M479.435 207.422H546.194L543.298 170.681H476.54L479.435 207.422Z" fill="#FF725E"/>
<path opacity="0.3" d="M412.676 207.422H479.435L476.54 170.681H409.781L412.676 207.422Z" fill="#FF725E"/>
<path opacity="0.6" d="M345.917 207.422H412.676L409.781 170.681H343.005L345.917 207.422Z" fill="#FF725E"/>
<path opacity="0.6" d="M279.158 207.422H345.917L343.005 170.681H276.246L279.158 207.422Z" fill="#FF725E"/>
<path d="M212.399 207.422H279.158L276.246 170.681H209.487L212.399 207.422Z" fill="#FF725E"/>
<path d="M145.641 207.422H212.399L209.487 170.681H142.728L145.641 207.422Z" fill="#F5F5F5"/>
<path d="M549.563 244.602H481.941V244.213L478.995 206.964H546.6V207.354L549.563 244.602ZM482.736 243.755H548.649L545.804 207.845H479.892L482.736 243.755Z" fill="#E0E0E0"/>
<path opacity="0.1" d="M415.588 244.179H482.347L479.435 207.422H412.676L415.588 244.179Z" fill="#FF725E"/>
<path opacity="0.6" d="M348.812 244.179H415.588L412.676 207.422H345.917L348.812 244.179Z" fill="#FF725E"/>
<path opacity="0.6" d="M282.053 244.179H348.812L345.917 207.422H279.158L282.053 244.179Z" fill="#FF725E"/>
<path opacity="0.6" d="M215.295 244.179H282.053L279.158 207.422H212.399L215.295 244.179Z" fill="#FF725E"/>
<path d="M148.536 244.179H215.294L212.399 207.422H145.64L148.536 244.179Z" fill="#F5F5F5"/>
<path d="M552.459 281.342H484.853V280.953L481.924 243.705H549.53V244.094L552.459 281.342ZM485.632 280.496H551.544L548.717 244.602H482.804L485.632 280.496Z" fill="#E0E0E0"/>
<path d="M418.483 280.919H485.242L482.347 244.179H415.588L418.483 280.919Z" fill="white"/>
<path opacity="0.1" d="M351.725 280.919H418.483L415.588 244.179H348.812L351.725 280.919Z" fill="#FF725E"/>
<path opacity="0.8" d="M284.965 280.919H351.724L348.812 244.179H282.053L284.965 280.919Z" fill="#FF725E"/>
<path opacity="0.8" d="M218.207 280.919H284.966L282.053 244.179H215.295L218.207 280.919Z" fill="#FF725E"/>
<path d="M151.431 280.919H218.207L215.294 244.179H148.536L151.431 280.919Z" fill="#F5F5F5"/>
<path d="M555.337 318.082H487.748V317.693L484.802 280.445H552.408V280.834L555.337 318.082ZM488.51 317.236H554.422L551.578 281.342H485.7L488.51 317.236Z" fill="#E0E0E0"/>
<path d="M421.378 317.659H488.137L485.242 280.919H418.483L421.378 317.659Z" fill="white"/>
<path d="M354.62 317.659H421.378L418.483 280.919H351.724L354.62 317.659Z" fill="white"/>
<path opacity="0.1" d="M287.861 317.659H354.62L351.724 280.919H284.966L287.861 317.659Z" fill="#FF725E"/>
<path d="M221.102 317.659H287.861L284.965 280.919H218.207L221.102 317.659Z" fill="#FF725E"/>
<path d="M154.343 317.659H221.102L218.206 280.919H151.431L154.343 317.659Z" fill="#F5F5F5"/>
<path d="M558.266 354.84H490.66V354.45L487.714 317.202H555.337V317.591L558.266 354.84ZM491.439 353.993H557.352L554.507 318.082H488.612L491.439 353.993Z" fill="#E0E0E0"/>
<path d="M424.29 354.417H491.049L488.137 317.659H421.378L424.29 354.417Z" fill="white"/>
<path d="M357.532 354.417H424.291L421.378 317.659H354.62L357.532 354.417Z" fill="white"/>
<path d="M290.773 354.417H357.532L354.62 317.659H287.861L290.773 354.417Z" fill="white"/>
<path opacity="0.1" d="M224.014 354.417H290.773L287.861 317.659H221.102L224.014 354.417Z" fill="#FF725E"/>
<path d="M157.238 354.417H224.014L221.102 317.659H154.343L157.238 354.417Z" fill="#F5F5F5"/>
<path d="M543.756 171.088H476.15V170.698L473.204 133.45H540.827V133.839L543.756 171.088ZM476.929 170.241H542.842L539.997 134.347H474.068L476.929 170.241Z" fill="#E0E0E0"/>
<path d="M476.997 171.088H409.375V170.698L406.429 133.45H474.068V133.839L476.997 171.088ZM410.17 170.241H476.083L473.238 134.347H407.326L410.17 170.241Z" fill="#E0E0E0"/>
<path d="M410.238 171.088H342.616V170.698L339.67 133.45H407.275V133.839L410.238 171.088ZM343.411 170.241H409.324L406.479 134.347H340.567L343.411 170.241Z" fill="#E0E0E0"/>
<path d="M343.479 171.088H275.856V170.698L272.927 133.45H340.533V133.839L343.479 171.088ZM276.635 170.241H342.548L339.72 134.347H273.808L276.635 170.241Z" fill="#E0E0E0"/>
<path d="M276.703 171.088H209.098V170.698L206.169 133.45H273.774V133.839L276.703 171.088ZM209.877 170.241H275.789L272.961 134.347H207.049L209.877 170.241Z" fill="#E0E0E0"/>
<path d="M209.944 171.088H142.339V170.698L139.41 133.45H207.015V133.839L209.944 171.088ZM143.118 170.241H209.03L206.203 134.347H140.29L143.118 170.241Z" fill="#E0E0E0"/>
<path opacity="0.1" d="M479.435 207.422H546.194L543.298 170.681H476.54L479.435 207.422Z" fill="#FF725E"/>
<path d="M479.892 207.845H412.286V207.455L409.357 170.207H476.963V170.596L479.892 207.845ZM413.065 206.998H478.978L476.15 171.087H410.238L413.065 206.998Z" fill="#E0E0E0"/>
<path d="M413.116 207.845H345.528V207.455L342.582 170.207H410.204V170.596L413.116 207.845ZM346.289 206.998H412.202L409.374 171.087H343.479L346.289 206.998Z" fill="#E0E0E0"/>
<path d="M346.374 207.845H278.769V207.455L275.823 170.207H343.445V170.596L346.374 207.845ZM279.548 206.998H345.392L342.616 171.087H276.703L279.548 206.998Z" fill="#E0E0E0"/>
<path d="M279.615 207.845H211.993V207.455L209.047 170.207H276.652V170.596L279.615 207.845ZM212.789 206.998H278.701L275.857 171.087H209.944L212.789 206.998Z" fill="#E0E0E0"/>
<path d="M212.857 207.845H145.234V207.455L142.288 170.207H210.012V170.596L212.857 207.845ZM146.03 206.998H211.942L209.098 171.087H143.186L146.03 206.998Z" fill="#E0E0E0"/>
<path d="M549.563 244.602H481.941V244.213L478.995 206.964H546.6V207.354L549.563 244.602ZM482.736 243.755H548.649L545.804 207.845H479.892L482.736 243.755Z" fill="#E0E0E0"/>
<path d="M482.804 244.602H415.182V244.213L412.236 206.964H479.824V207.354L482.804 244.602ZM415.978 243.755H481.89L479.046 207.845H413.116L415.978 243.755Z" fill="#E0E0E0"/>
<path d="M416.045 244.602H348.423V244.213L345.494 206.964H413.116V207.354L416.045 244.602ZM349.219 243.755H415.114L412.287 207.845H346.374L349.219 243.755Z" fill="#E0E0E0"/>
<path d="M349.269 244.602H281.664V244.213L278.735 206.964H346.34V207.354L349.269 244.602ZM282.443 243.755H348.355L345.528 207.845H279.615L282.443 243.755Z" fill="#E0E0E0"/>
<path d="M282.51 244.602H214.905V244.213L211.976 206.964H279.581V207.354L282.51 244.602ZM215.684 243.755H281.596L278.769 207.845H212.856L215.684 243.755Z" fill="#E0E0E0"/>
<path d="M215.752 244.602H148.146V244.213L145.217 206.964H212.823V207.354L215.752 244.602ZM148.993 243.806H214.905L212.061 207.896H146.03L148.993 243.806Z" fill="#E0E0E0"/>
<path d="M552.459 281.342H484.853V280.953L481.924 243.705H549.53V244.094L552.459 281.342ZM485.632 280.496H551.544L548.717 244.602H482.804L485.632 280.496Z" fill="#E0E0E0"/>
<path d="M485.699 281.342H418.094V280.953L415.148 243.705H482.77V244.094L485.699 281.342ZM418.873 280.496H484.785L481.94 244.602H416.045L418.873 280.496Z" fill="#E0E0E0"/>
<path d="M418.94 281.342H351.335V280.953L348.389 243.705H416.011V244.094L418.94 281.342ZM352.114 280.496H418.026L415.182 244.602H349.269L352.114 280.496Z" fill="#E0E0E0"/>
<path d="M352.165 281.342H284.576V280.953L281.63 243.705H349.252V244.094L352.165 281.342ZM285.338 280.496H351.25L348.406 244.602H282.51L285.338 280.496Z" fill="#E0E0E0"/>
<path d="M285.423 281.342H217.8V280.953L214.854 243.705H282.46V244.094L285.423 281.342ZM218.596 280.496H284.441L281.596 244.602H215.752L218.596 280.496Z" fill="#E0E0E0"/>
<path d="M218.664 281.342H151.041V280.953L148.095 243.705H215.701V244.094L218.664 281.342ZM151.837 280.496H217.749L214.905 244.602H148.993L151.837 280.496Z" fill="#E0E0E0"/>
<path d="M555.337 318.082H487.748V317.693L484.802 280.445H552.408V280.834L555.337 318.082ZM488.51 317.236H554.422L551.578 281.342H485.7L488.51 317.236Z" fill="#E0E0E0"/>
<path d="M488.611 318.082H420.989V317.693L418.06 280.445H485.665V280.834L488.611 318.082ZM421.785 317.236H487.612L484.785 281.342H418.94L421.785 317.236Z" fill="#E0E0E0"/>
<path d="M421.836 318.082H354.23V317.693L351.301 280.445H418.873V280.834L421.836 318.082ZM355.009 317.236H420.921L418.094 281.342H352.164L355.009 317.236Z" fill="#E0E0E0"/>
<path d="M355.077 318.082H287.471V317.693L284.542 280.445H352.165V280.834L355.077 318.082ZM288.25 317.236H354.163L351.335 281.342H285.423L288.25 317.236Z" fill="#E0E0E0"/>
<path d="M288.318 318.082H220.713V317.693L217.783 280.445H285.389V280.834L288.318 318.082ZM221.491 317.236H287.404L284.576 281.342H218.664L221.491 317.236Z" fill="#E0E0E0"/>
<path d="M221.559 318.082H153.953V317.693L151.007 280.445H218.63V280.834L221.559 318.082ZM154.732 317.236H220.645L217.8 281.342H151.888L154.732 317.236Z" fill="#E0E0E0"/>
<path d="M558.266 354.84H490.66V354.45L487.714 317.202H555.337V317.591L558.266 354.84ZM491.439 353.993H557.352L554.507 318.082H488.612L491.439 353.993Z" fill="#E0E0E0"/>
<path d="M491.507 354.84H423.901V354.45L420.955 317.202H488.577V317.591L491.507 354.84ZM424.68 353.993H490.592L487.748 318.082H421.835L424.68 353.993Z" fill="#E0E0E0"/>
<path d="M424.748 354.84H357.142V354.45L354.196 317.202H421.819V317.591L424.748 354.84ZM357.921 353.942H423.833L420.989 318.032H355.077L357.921 353.942Z" fill="#E0E0E0"/>
<path d="M357.989 354.84H290.367V354.45L287.421 317.202H355.026V317.591L357.989 354.84ZM291.213 353.942H357.075L354.23 318.032H288.318L291.213 353.942Z" fill="#E0E0E0"/>
<path d="M291.213 354.84H223.608V354.45L220.661 317.202H288.267V317.591L291.213 354.84ZM224.386 353.993H290.282L287.454 318.082H221.559L224.386 353.993Z" fill="#E0E0E0"/>
<path d="M224.471 354.84H156.849V354.45L153.92 317.202H221.525V317.591L224.471 354.84ZM157.628 353.942H223.489L220.662 318.032H154.8L157.628 353.942Z" fill="#E0E0E0"/>
<path d="M658.362 169.191C662.255 176.998 665.731 185.007 668.774 193.183C671.871 201.474 674.428 209.957 676.427 218.579L677.138 221.965L677.731 225.351L678.018 227.045C678.16 228.032 678.233 229.027 678.239 230.024C678.255 230.941 678.204 231.858 678.086 232.767L677.917 234.071L677.663 235.273C676.98 238.086 675.938 240.801 674.565 243.349C673.378 245.558 672.019 247.669 670.501 249.664C667.719 253.327 664.607 256.727 661.206 259.823C657.936 262.917 654.426 265.748 650.709 268.288C649.643 269.02 648.355 269.353 647.068 269.229C645.782 269.106 644.58 268.533 643.674 267.613C642.767 266.692 642.213 265.481 642.11 264.193C642.006 262.905 642.359 261.622 643.107 260.568L643.276 260.314C647.936 254.007 652.113 247.357 655.771 240.42C657.224 237.742 658.177 234.822 658.582 231.802V231.176C658.598 231.041 658.598 230.904 658.582 230.769C658.582 230.634 658.48 230.668 658.48 230.617L658.124 229.263L657.396 226.503L656.55 223.709C656.008 221.847 655.348 219.967 654.755 218.088C654.163 216.209 653.452 214.329 652.723 212.45C651.335 208.691 649.845 204.916 648.305 201.174C645.257 193.69 641.888 186.055 638.654 178.825V178.639C637.504 176.018 637.42 173.051 638.421 170.37C639.422 167.688 641.428 165.501 644.014 164.274C646.601 163.047 649.563 162.876 652.273 163.798C654.983 164.719 657.228 166.66 658.531 169.208L658.362 169.191Z" fill="#CE7A63"/>
<path d="M638.62 261.516L634.201 268.678C633.958 269.08 633.797 269.526 633.727 269.991C633.657 270.456 633.679 270.93 633.792 271.386C633.905 271.842 634.107 272.271 634.387 272.649C634.666 273.027 635.017 273.346 635.42 273.588L635.759 273.757L642.819 276.957C643.643 277.329 644.578 277.374 645.433 277.081C646.289 276.789 647.001 276.181 647.424 275.382L649.338 271.793L654.282 263.649L649.202 255.793C643.039 255.743 638.62 261.516 638.62 261.516Z" fill="#CE7A63"/>
<path d="M687.195 592.906C686.676 593.083 686.126 593.153 685.58 593.112C685.033 593.071 684.5 592.921 684.012 592.669C683.815 592.496 683.679 592.265 683.624 592.009C683.57 591.752 683.599 591.485 683.707 591.247C683.766 591.048 683.867 590.864 684.005 590.709C684.142 590.554 684.313 590.431 684.503 590.35C686.196 589.52 690.226 591.145 690.395 591.23C690.452 591.249 690.5 591.285 690.534 591.334C690.568 591.383 690.584 591.442 690.581 591.501C690.592 591.559 690.581 591.619 690.549 591.669C690.518 591.719 690.469 591.756 690.412 591.772C689.388 592.275 688.308 592.656 687.195 592.906ZM685.096 590.891C684.973 590.915 684.853 590.955 684.74 591.01C684.631 591.059 684.533 591.132 684.454 591.222C684.375 591.313 684.317 591.419 684.283 591.535C684.114 592.077 684.283 592.246 684.385 592.297C685.079 592.889 687.652 592.297 689.464 591.619C688.079 591.059 686.588 590.81 685.096 590.891Z" fill="#FF725E"/>
<path d="M690.328 591.874H690.175C688.719 591.45 685.604 589.249 685.57 587.793C685.571 587.564 685.647 587.341 685.788 587.161C685.929 586.98 686.127 586.851 686.349 586.794C686.571 586.72 686.805 586.691 687.039 586.712C687.272 586.732 687.498 586.801 687.703 586.913C689.396 587.793 690.514 591.349 690.565 591.501C690.576 591.555 690.575 591.611 690.56 591.664C690.545 591.717 690.518 591.766 690.48 591.806L690.328 591.874ZM686.687 587.319H686.552C686.18 587.455 686.18 587.641 686.18 587.726C686.18 588.589 688.262 590.316 689.769 591.027C689.38 589.609 688.564 588.344 687.432 587.404C687.203 587.283 686.938 587.253 686.687 587.319Z" fill="#FF725E"/>
<path d="M594.515 599.222C592.822 599.222 591.281 598.985 590.739 598.24C590.599 598.048 590.523 597.817 590.523 597.579C590.523 597.342 590.599 597.111 590.739 596.919C590.841 596.739 590.98 596.583 591.146 596.461C591.313 596.338 591.503 596.252 591.704 596.208C593.838 595.615 598.341 598.189 598.477 598.29C598.53 598.325 598.572 598.373 598.599 598.43C598.626 598.486 598.636 598.55 598.629 598.612C598.619 598.671 598.591 598.726 598.549 598.769C598.506 598.811 598.452 598.839 598.392 598.849C597.113 599.083 595.816 599.207 594.515 599.222ZM592.483 596.716H591.891C591.766 596.742 591.648 596.795 591.546 596.871C591.444 596.947 591.359 597.044 591.298 597.156C591.078 597.529 591.163 597.715 591.298 597.816C591.908 598.646 595.158 598.68 597.546 598.341C595.984 597.44 594.256 596.864 592.466 596.648L592.483 596.716Z" fill="#FF725E"/>
<path d="M598.409 598.866H598.29C596.733 598.172 593.651 595.378 593.888 593.939C593.888 593.584 594.193 593.16 595.023 593.076C595.326 593.042 595.633 593.071 595.924 593.162C596.215 593.252 596.485 593.401 596.716 593.601C598.409 594.955 598.697 598.409 598.714 598.561C598.722 598.613 598.716 598.666 598.695 598.714C598.674 598.762 598.639 598.803 598.595 598.832C598.568 598.85 598.538 598.863 598.506 598.869C598.474 598.874 598.441 598.873 598.409 598.866ZM595.277 593.634H595.091C594.532 593.634 594.498 593.905 594.498 593.973C594.346 594.853 596.445 597.037 598.02 597.986C597.884 596.52 597.292 595.135 596.326 594.024C596.031 593.779 595.661 593.641 595.277 593.634Z" fill="#FF725E"/>
<path d="M612.563 598.544H599.696L598.409 568.746H611.277L612.563 598.544Z" fill="#CE7A63"/>
<path d="M704.668 588.453L692.088 591.179L679.475 563.413L692.055 560.687L704.668 588.453Z" fill="#CE7A63"/>
<path d="M690.886 589.91L705.023 586.845C705.274 586.798 705.533 586.836 705.759 586.953C705.986 587.069 706.168 587.258 706.276 587.488L711.186 598.121C711.29 598.348 711.349 598.593 711.357 598.842C711.366 599.091 711.325 599.339 711.237 599.573C711.149 599.806 711.015 600.019 710.843 600.2C710.672 600.381 710.466 600.526 710.238 600.627C710.108 600.687 709.972 600.733 709.832 600.762C704.871 601.744 702.416 601.964 696.202 603.319C692.376 604.149 683.741 606.248 678.458 607.399C673.176 608.551 671.364 603.454 673.379 602.523C682.607 598.307 686.467 594.583 688.956 591.129C689.426 590.498 690.114 590.063 690.886 589.91Z" fill="#263238"/>
<path d="M599.781 597.071H613.833C614.09 597.069 614.34 597.156 614.54 597.316C614.74 597.477 614.879 597.701 614.934 597.952L617.474 609.38C617.58 609.865 617.49 610.372 617.223 610.791C616.957 611.21 616.535 611.506 616.051 611.615C615.905 611.632 615.757 611.632 615.611 611.615C610.532 611.615 603.218 611.243 596.852 611.243C589.402 611.243 582.968 611.649 574.232 611.649C568.932 611.649 567.459 606.299 569.677 605.825C579.751 603.624 587.98 603.387 596.682 598.019C597.604 597.416 598.679 597.087 599.781 597.071Z" fill="#263238"/>
<path opacity="0.2" d="M598.409 568.763L599.069 584.119H611.954L611.293 568.763H598.409Z" fill="black"/>
<path opacity="0.2" d="M692.055 560.687L679.475 563.413L685.993 577.719L698.573 575.01L692.055 560.687Z" fill="black"/>
<path d="M603.353 271.167C603.353 271.167 617.981 369.536 625.973 406.428C634.76 446.792 679.492 576.145 679.492 576.145L702.535 571.065C702.535 571.065 669.604 449.958 664.592 410.001C659.141 366.64 647.763 271.167 647.763 271.167H603.353Z" fill="#FF725E"/>
<path d="M673.972 568.407C673.871 568.407 678.273 576.737 678.273 576.737L704.194 571.116L702.01 563.328L673.972 568.407Z" fill="#263238"/>
<path opacity="0.3" d="M612.58 306.214C629.511 309.6 627.683 372.516 625.651 404.905C620.775 382.014 613.647 337.943 608.72 306.705C609.91 306.097 611.276 305.923 612.58 306.214Z" fill="black"/>
<path d="M578.939 271.167C578.939 271.167 577.161 367.403 578.566 406.615C580.022 447.435 594.278 581.106 594.278 581.106H616.085C616.085 581.106 616.881 449.823 617.778 409.73C618.845 366.031 624.11 271.133 624.11 271.133L578.939 271.167Z" fill="#FF725E"/>
<path d="M590.079 572.454C589.977 572.454 591.315 581.512 591.315 581.512H617.829L618.54 573.436L590.079 572.454Z" fill="#263238"/>
<path d="M469.869 121.598C492.811 115.808 518.139 129.217 526.436 151.532C534.732 173.847 522.829 196.636 499.888 202.427C476.946 208.217 451.617 194.825 443.321 172.493C435.025 150.161 446.978 127.389 469.869 121.598ZM497.517 196.095C516.819 191.219 526.825 172.036 519.849 153.259C512.874 134.483 491.558 123.19 472.239 128.066C452.921 132.942 442.915 152.125 449.891 170.901C453.499 180.103 460.293 187.702 469.035 192.314C477.777 196.926 487.885 198.244 497.517 196.027V196.095Z" fill="#263238"/>
<path opacity="0.2" d="M496.451 193.182C514.161 188.713 523.32 171.172 516.937 153.919C513.645 145.477 507.425 138.501 499.415 134.264C491.405 130.027 482.138 128.813 473.306 130.842C455.613 135.312 446.42 152.853 452.82 170.105C456.118 178.543 462.339 185.515 470.347 189.751C478.356 193.987 487.62 195.205 496.451 193.182Z" fill="#FF725E"/>
<path d="M495.486 201.919C496.238 205.267 497.165 208.573 498.262 211.824C499.346 215.091 500.463 218.342 501.649 221.559C502.834 224.776 504.171 227.993 505.509 231.176C507.202 234.291 507.202 237.83 512.4 240.031C513.196 240.318 514.051 240.402 514.888 240.275C515.725 240.148 516.517 239.814 517.191 239.303C517.418 239.115 517.612 238.892 517.767 238.642C520.171 234.477 517.361 231.667 516.175 228.484C514.702 225.335 513.162 222.185 511.587 219.053C510.013 215.921 508.303 212.823 506.508 209.741C504.713 206.66 502.885 203.595 500.802 200.598C500.321 200.153 499.721 199.856 499.075 199.745C498.429 199.634 497.764 199.713 497.162 199.972C496.078 200.344 495.316 201.174 495.486 201.919Z" fill="#263238"/>
<path d="M588.454 121.615C588.725 122.614 588.454 123.562 587.726 123.732C586.998 123.901 586.337 123.224 586.033 122.208C585.728 121.192 586.033 120.261 586.761 120.091C587.489 119.922 588.2 120.599 588.454 121.615Z" fill="#263238"/>
<path d="M588.487 123.596C588.067 126.975 587.184 130.279 585.863 133.416C586.681 133.742 587.56 133.882 588.439 133.827C589.317 133.771 590.172 133.521 590.942 133.095L588.487 123.596Z" fill="#BA4D3C"/>
<path d="M590.722 115.131C590.795 115.105 590.86 115.062 590.913 115.006C590.966 114.95 591.005 114.883 591.027 114.809C591.083 114.661 591.079 114.496 591.016 114.351C590.953 114.206 590.835 114.091 590.689 114.03C589.797 113.649 588.827 113.488 587.86 113.562C586.893 113.636 585.959 113.941 585.135 114.454C585.005 114.551 584.917 114.695 584.889 114.855C584.861 115.015 584.894 115.18 584.983 115.317C585.081 115.448 585.226 115.535 585.387 115.56C585.548 115.585 585.713 115.547 585.846 115.452C586.501 115.057 587.241 114.824 588.004 114.774C588.767 114.724 589.531 114.858 590.231 115.165C590.311 115.193 590.396 115.205 590.481 115.199C590.565 115.194 590.647 115.17 590.722 115.131Z" fill="#263238"/>
<path d="M621.943 126.474C623.162 136.261 624.042 146.792 629.528 154.935C629.528 154.935 629.697 164.501 612.275 166.076C593.11 167.769 600.424 157.611 600.424 157.611C607.433 155.917 607.67 146.622 603.81 139.613L621.943 126.474Z" fill="#CE7A63"/>
<path d="M633.033 160.929C634.117 156.629 635.285 151.702 632.017 150.415C628.428 149.01 609.313 148.722 602.98 152.277C596.648 155.833 599.12 164.231 599.12 164.231L633.033 160.929Z" fill="#FF725E"/>
<path d="M651.843 159.236C663.695 162.622 672.855 194.199 672.855 194.199L645.206 207.743C641.356 199.534 637.921 191.137 634.912 182.584C629.342 166.855 639.636 155.85 651.843 159.236Z" fill="#263238"/>
<g opacity="0.4">
<path d="M642.543 165.007L637.891 175.65L639.442 176.328L644.094 165.686L642.543 165.007Z" fill="white"/>
<path d="M658.379 164.01L656.483 168.362L658.023 169.039L659.581 165.483C659.192 164.976 658.785 164.485 658.379 164.01Z" fill="white"/>
<path d="M649.806 183.585L645.154 194.228L646.706 194.906L651.357 184.263L649.806 183.585Z" fill="white"/>
<path d="M668.131 181.246C667.843 180.552 667.538 179.824 667.217 179.113L663.831 187.02L665.388 187.697L668.131 181.246Z" fill="white"/>
</g>
<path d="M576.551 167.701C573.47 179.553 570.371 207.743 578.938 271.116C608.212 274.113 635.031 275.924 647.763 271.116C648.339 258.502 641.905 207.557 651.792 159.219C644.183 157.749 636.485 156.776 628.749 156.307C619.006 155.731 609.236 155.731 599.493 156.307C595.085 156.733 590.704 157.406 586.371 158.322C584.019 158.807 581.851 159.943 580.115 161.602C578.378 163.261 577.143 165.374 576.551 167.701Z" fill="#263238"/>
<g opacity="0.4">
<path d="M589.368 159.236L590.841 160.082L592.416 157.306L590.266 157.678L589.368 159.236Z" fill="white"/>
<path d="M581.164 173.632L575.424 183.729L576.896 184.566L582.636 174.469L581.164 173.632Z" fill="white"/>
<path d="M600.419 168.35L594.677 178.446L596.148 179.283L601.89 169.187L600.419 168.35Z" fill="white"/>
<path d="M617.12 161.443L611.428 171.548L612.903 172.379L618.595 162.274L617.12 161.443Z" fill="white"/>
<path d="M638.9 157.725L633.16 167.822L634.632 168.659L640.372 158.562L638.9 157.725Z" fill="white"/>
<path d="M586.476 192.904L580.734 203L582.206 203.837L587.948 193.741L586.476 192.904Z" fill="white"/>
<path d="M603.257 185.895L597.565 196L599.041 196.831L604.732 186.726L603.257 185.895Z" fill="white"/>
<path d="M622.417 180.623L616.726 190.728L618.201 191.559L623.893 181.453L622.417 180.623Z" fill="white"/>
<path d="M644.231 177.012L638.49 187.109L639.962 187.945L645.703 177.849L644.231 177.012Z" fill="white"/>
<path d="M573.792 218.19C573.808 218.302 573.808 218.416 573.792 218.528L573.944 218.274L573.792 218.19Z" fill="white"/>
<path d="M591.742 212.126L586.001 222.223L587.473 223.06L593.214 212.963L591.742 212.126Z" fill="white"/>
<path d="M610.967 206.814L605.226 216.911L606.698 217.748L612.439 207.651L610.967 206.814Z" fill="white"/>
<path d="M630.215 201.513L624.475 211.609L625.946 212.446L631.687 202.349L630.215 201.513Z" fill="white"/>
<path d="M643.75 206.355L645.223 207.201L646.561 204.848C646.561 203.612 646.68 202.359 646.747 201.123L643.75 206.355Z" fill="white"/>
<path d="M579.243 237.525L577.787 236.695L575.434 240.826C575.518 241.792 575.603 242.757 575.705 243.756L579.243 237.525Z" fill="white"/>
<path d="M597.041 231.399L591.3 241.496L592.772 242.333L598.513 232.236L597.041 231.399Z" fill="white"/>
<path d="M616.289 226.098L610.549 236.195L612.021 237.032L617.761 226.935L616.289 226.098Z" fill="white"/>
<path d="M635.516 220.761L629.776 230.858L631.248 231.694L636.988 221.598L635.516 220.761Z" fill="white"/>
<path d="M583.07 255.946L578.092 264.716C578.129 265.347 578.208 265.975 578.329 266.595L578.803 266.866L584.543 256.708L583.07 255.946Z" fill="white"/>
<path d="M602.361 250.692L596.62 260.789L598.092 261.626L603.833 251.529L602.361 250.692Z" fill="white"/>
<path d="M621.609 245.39L615.869 255.487L617.341 256.324L623.081 246.227L621.609 245.39Z" fill="white"/>
<path d="M640.841 240.036L635.1 250.133L636.572 250.97L642.312 240.873L640.841 240.036Z" fill="white"/>
<path d="M609.093 270.743L607.62 269.897L605.588 273.486L607.467 273.588L609.093 270.743Z" fill="white"/>
<path d="M628.343 265.444L626.87 264.614L621.469 274.113H623.399L628.343 265.444Z" fill="white"/>
<path d="M647.509 260.314V260.094L646.138 259.315L640.398 269.474L641.871 270.32L647.509 260.314Z" fill="white"/>
</g>
<path opacity="0.3" d="M576.111 169.598C587.489 159.185 591.518 178.74 590.824 187.528C588.86 211.891 574.757 219.9 573.893 220.628C572.471 193.538 574.181 178.114 576.111 169.598Z" fill="black"/>
<path d="M593.838 180.874C590.926 184.7 587.912 188.544 584.915 192.336L575.857 203.714L566.782 215.108C563.802 218.901 560.771 222.643 557.876 226.401L557.216 227.248C555.882 228.975 553.925 230.112 551.764 230.414C548.378 230.871 544.992 231.193 541.758 231.328C538.524 231.464 535.155 231.464 531.887 231.328C528.62 231.193 525.369 230.922 522.135 230.499C518.86 230.12 515.61 229.554 512.4 228.805C511.163 228.499 510.07 227.776 509.304 226.758C508.539 225.739 508.148 224.488 508.198 223.215C508.248 221.942 508.735 220.725 509.577 219.77C510.42 218.814 511.566 218.178 512.823 217.97H513.094L521.949 216.497C524.917 216 527.858 215.475 530.77 214.922C533.682 214.397 536.56 213.754 539.405 213.229C542.249 212.704 545.009 211.841 547.735 211.129L541.623 215.024C547.057 206.558 552.712 198.516 558.554 190.575C561.449 186.596 564.429 182.685 567.425 178.724C570.422 174.762 573.47 170.986 576.636 167.194C577.534 166.061 578.647 165.116 579.91 164.413C581.173 163.71 582.563 163.263 583.999 163.097C585.435 162.931 586.89 163.05 588.28 163.446C589.671 163.843 590.969 164.509 592.102 165.407C593.235 166.306 594.18 167.418 594.883 168.682C595.586 169.945 596.033 171.334 596.199 172.771C596.364 174.207 596.246 175.662 595.849 177.052C595.453 178.442 594.787 179.741 593.888 180.874H593.838Z" fill="#CE7A63"/>
<path d="M507.32 216.801L499.346 219.493C498.452 219.794 497.715 220.438 497.296 221.282C496.877 222.127 496.81 223.103 497.111 223.997C497.16 224.141 497.217 224.282 497.28 224.42L500.667 231.396C501.069 232.203 501.764 232.827 502.609 233.142C503.455 233.456 504.389 233.437 505.221 233.089L508.98 231.548L517.987 228.45L519.138 219.205C514.415 215.108 507.32 216.801 507.32 216.801Z" fill="#CE7A63"/>
<path d="M599.713 169.395C604.674 186.427 578.651 210.029 578.651 210.029L555.337 187.088C555.337 187.088 563.04 177.488 568.458 171.155C583.578 153.429 595.768 155.765 599.713 169.395Z" fill="#263238"/>
<g opacity="0.4">
<path d="M584.339 159.151C583.679 159.355 583.019 159.592 582.375 159.862L581.613 162.538L583.306 162.978L584.339 159.151Z" fill="white"/>
<path d="M560.5 192.201L561.432 188.865L559.806 188.408L559.129 190.846L560.5 192.201Z" fill="white"/>
<path d="M577.177 178.531L574.067 189.722L575.698 190.175L578.808 178.984L577.177 178.531Z" fill="white"/>
<path d="M595.447 171.832L592.311 182.98L593.941 183.438L597.077 172.29L595.447 171.832Z" fill="white"/>
<path d="M588.64 196.484L586.947 196.044L584.83 203.646C585.666 202.72 586.529 201.721 587.421 200.649L588.64 196.484Z" fill="white"/>
</g>
<path d="M621.486 110.949C623.857 123.511 625.889 130.724 621.266 138.648C614.291 150.499 597.563 148.806 591.519 137.209C586.05 126.779 583.053 108.003 593.923 99.9605C596.308 98.1797 599.111 97.0405 602.062 96.6517C605.013 96.263 608.015 96.6377 610.78 97.74C613.545 98.8424 615.981 100.635 617.856 102.948C619.73 105.261 620.98 108.015 621.486 110.949Z" fill="#CE7A63"/>
<path d="M596.632 122.36C590.232 121.886 590.74 112.201 594.397 108.815C585.152 108.443 573.572 108.07 576.399 97.9964C578.482 90.6653 597.851 90.479 588.826 85.3997C597.478 80.0326 602.608 88.9722 598.359 90.9531C611.903 85.6876 627.48 81.9119 621.926 94.898C631.239 93.3912 637.638 108.849 632.847 115.52C628.056 122.191 636.403 123.393 637.74 120.295C638.4 129.319 629.173 129.048 627.852 127.355C633.406 135.82 622.214 146.436 610.837 140.713C599.459 134.991 596.632 122.36 596.632 122.36Z" fill="#263238"/>
<path d="M618.252 95.7448C625.448 91.6475 626.718 86.5005 623.823 81.6244C635.742 85.7217 628.225 96.5914 618.252 95.7448Z" fill="#263238"/>
<path d="M601.965 120.295C602.606 122.908 602.356 125.661 601.254 128.117C599.781 131.351 596.919 130.538 595.548 127.626C594.312 125.001 593.584 120.176 595.92 117.907C598.257 115.639 601.169 117.162 601.965 120.295Z" fill="#CE7A63"/>
<path d="M236.594 445.708C236.626 446.152 236.571 446.598 236.431 447.02C236.291 447.442 236.069 447.832 235.778 448.169C235.487 448.505 235.133 448.781 234.736 448.981C234.338 449.18 233.905 449.3 233.462 449.332C232.948 449.364 232.434 449.283 231.955 449.095C223.693 445.708 211.638 442.508 207.456 437.971C202.376 432.367 196.044 432.468 191.439 429.709C186.834 426.949 183.617 423.089 187.443 418.89C191.27 414.691 191.168 414.674 191.168 408.376C191.168 402.077 195.452 401.163 200.886 401.468C206.321 401.773 203.274 390.344 211.587 396.778C219.9 403.212 217.919 415.554 222.694 421.836C227.468 428.117 232.547 420.989 234.647 430.217C235.785 435.307 236.437 440.494 236.594 445.708Z" fill="#FF725E"/>
<path d="M224.048 507.253C221.373 497.094 226.723 486.935 221.847 479.266C216.971 471.596 219.07 463.3 217.343 456.731C215.616 450.161 212.146 445.285 206.067 449.586C199.989 453.886 199.989 453.768 192.692 452.667C185.395 451.567 182.99 457.035 181.602 464.248C180.214 471.461 167.956 465.45 172.781 477.522C177.606 489.594 192.539 489.137 198.296 496.518C204.053 503.9 196.518 511.333 207.456 513.06C218.393 514.787 229.33 532.124 224.048 507.253Z" fill="#FF725E"/>
<path d="M239.76 470.885C246.532 462.944 257.995 461.522 261.499 453.124C265.004 444.727 273.063 441.764 277.465 436.6C281.867 431.436 283.916 425.798 276.906 423.258C269.897 420.718 270.016 420.651 266.748 414.031C263.48 407.411 257.622 408.528 250.9 411.508C244.179 414.488 242.147 400.977 234.985 411.813C227.823 422.649 236.678 434.653 233.902 443.609C231.125 452.566 220.712 450.585 225.538 460.54C230.363 470.496 222.338 489.391 239.76 470.885Z" fill="#FF725E"/>
<path d="M221.339 391.191C219.951 383.03 212.874 378.458 213.822 370.873C214.77 363.288 210.588 358.632 209.69 353.333C208.793 348.033 209.69 343.09 215.312 343.259C220.933 343.428 220.95 343.361 225.724 339.263C230.499 335.166 231.972 339.263 235.29 343.614C238.609 347.966 246.719 341.6 247.226 352.08C247.734 362.56 237.66 364.219 236.001 371.923C234.342 379.627 242.046 381.303 234.901 387.5C227.756 393.696 225.673 410.644 221.339 391.191Z" fill="#263238"/>
<path d="M223.963 572.352C223.579 572.364 223.202 572.245 222.894 572.015C222.586 571.784 222.366 571.455 222.27 571.082C218.122 555.303 221.068 536.255 224.505 514.211C227.248 496.569 230.346 476.574 230.346 454.631C230.346 441.493 228.281 428.405 226.452 416.858C224.573 405.006 222.964 394.729 224.065 387.5C224.134 387.051 224.38 386.648 224.746 386.379C225.113 386.111 225.571 385.999 226.02 386.069C226.469 386.139 226.872 386.384 227.141 386.751C227.409 387.117 227.521 387.576 227.451 388.025C226.418 394.712 227.993 404.735 229.838 416.333C231.684 427.931 233.766 441.222 233.766 454.631C233.766 476.828 230.634 496.959 227.874 514.736C224.488 536.408 221.61 555.134 225.572 570.219C225.685 570.652 225.623 571.113 225.397 571.5C225.172 571.887 224.802 572.169 224.37 572.285C224.239 572.332 224.102 572.355 223.963 572.352Z" fill="#263238"/>
<path d="M224.285 530.6C226.317 519.155 226.842 509.217 234.19 501.53C241.538 493.843 240.776 485.022 244.196 478.284C247.616 471.545 252.661 466.686 258.943 471.63C265.224 476.574 265.224 476.438 274.045 475.812C282.866 475.185 284.559 481.094 284.678 488.747C284.796 496.4 300.491 490.999 292.297 503.274C284.102 515.549 266.629 513.974 258.316 521.288C250.003 528.603 260.009 538.914 246.702 539.913C233.394 540.911 225.419 534.766 224.285 530.6Z" fill="#263238"/>
<path d="M188.324 547.04H265.461C271.709 547.04 257.978 611.7 246.989 611.7H206.795C195.807 611.7 182.076 547.04 188.324 547.04Z" fill="#FF725E"/>
<path opacity="0.3" d="M188.324 547.04H265.461C271.709 547.04 257.978 611.7 246.989 611.7H206.795C195.807 611.7 182.076 547.04 188.324 547.04Z" fill="white"/>
</g>
<defs>
<clipPath id="clip0_287_413">
<rect width="846.55" height="630.866" fill="white"/>
</clipPath>
</defs>
</svg>
