<svg width="683" height="681" viewBox="0 0 683 681" fill="none" xmlns="http://www.w3.org/2000/svg">
<path d="M207.638 35.4434H166.536C157.693 35.4434 150.524 42.6122 150.524 51.4555V92.5576C150.524 101.401 157.693 108.57 166.536 108.57H207.638C216.481 108.57 223.65 101.401 223.65 92.5576V51.4555C223.65 42.6122 216.481 35.4434 207.638 35.4434Z" fill="#E0E0E0"/>
<path d="M170.098 89.7372L172.761 79.8084C170.598 75.9223 169.909 71.3861 170.822 67.033C171.735 62.6799 174.187 58.8024 177.73 56.1127C181.272 53.4231 185.666 52.1021 190.104 52.3923C194.543 52.6825 198.727 54.5645 201.889 57.6925C205.051 60.8205 206.978 64.9844 207.317 69.4193C207.655 73.8542 206.381 78.2622 203.73 81.8334C201.079 85.4047 197.228 87.8994 192.885 88.8592C188.542 89.819 183.999 89.1794 180.089 87.058L170.098 89.7372ZM180.578 83.3387L181.208 83.7169C184.339 85.5831 188.045 86.2393 191.626 85.5615C195.207 84.8837 198.416 82.9189 200.649 80.0376C202.881 77.1564 203.982 73.5579 203.743 69.9209C203.505 66.284 201.944 62.86 199.355 60.2947C196.765 57.7295 193.327 56.2004 189.688 55.9959C186.049 55.7913 182.461 56.9255 179.601 59.1844C176.74 61.4433 174.805 64.6709 174.161 68.2582C173.516 71.8455 174.207 75.5447 176.102 78.658L176.496 79.2883L174.92 84.8359L180.578 83.3387Z" fill="white"/>
<path fill-rule="evenodd" clip-rule="evenodd" d="M195.314 73.5996C194.947 73.3111 194.52 73.1078 194.065 73.0042C193.61 72.9006 193.137 72.8995 192.682 73.0007C192.004 73.2844 191.563 74.3561 191.106 74.8919C191.016 75.0229 190.88 75.1151 190.725 75.1501C190.57 75.1852 190.408 75.1605 190.27 75.0811C187.769 74.1079 185.674 72.3127 184.329 69.9906C184.213 69.8463 184.156 69.6631 184.171 69.4785C184.185 69.2938 184.27 69.1218 184.408 68.9977C185 68.5789 185.402 67.9423 185.526 67.2275C185.65 66.5126 185.486 65.7778 185.07 65.1838C184.781 64.2787 184.233 63.4785 183.494 62.8828C183.124 62.7095 182.713 62.6485 182.309 62.7073C181.906 62.7662 181.528 62.9423 181.224 63.2138C180.703 63.6688 180.291 64.2349 180.018 64.8705C179.746 65.5061 179.619 66.1948 179.648 66.8859C179.648 67.2789 179.695 67.6706 179.79 68.0521C180.041 68.9566 180.417 69.8214 180.909 70.621C182.436 73.2375 184.565 75.4525 187.118 77.0826C188.11 77.6979 189.167 78.2001 190.27 78.5798C191.418 79.1049 192.69 79.3013 193.942 79.1471C194.655 79.0375 195.329 78.7565 195.909 78.3282C196.488 77.8999 196.954 77.3372 197.268 76.6886C197.438 76.2915 197.488 75.8528 197.41 75.4278C197.236 74.5295 196.07 74.0251 195.314 73.5996Z" fill="white"/>
<path d="M578.502 552.688C582.033 550.542 585.84 548.888 589.818 547.771L592.151 536.565L611.063 536.234L613.789 547.345C617.796 548.333 621.654 549.848 625.262 551.852L634.829 545.548L648.43 558.692L642.504 568.464C644.649 571.995 646.304 575.801 647.421 579.779L658.658 582.112L658.989 601.024L647.878 603.75C646.89 607.757 645.375 611.616 643.371 615.223L649.675 624.79L636.531 638.391L626.76 632.465C623.222 634.598 619.417 636.251 615.444 637.382L613.111 648.587L594.199 648.918L591.473 637.808C587.418 636.842 583.512 635.336 579.858 633.332L570.291 639.636L556.691 626.492L562.616 616.721C560.471 613.19 558.816 609.383 557.699 605.405L546.494 603.072L546.163 584.16L557.195 581.434C558.177 577.423 559.699 573.563 561.718 569.961L555.414 560.394L568.558 546.778L578.329 552.719L578.502 552.688ZM588.589 577.904C585.8 580.792 583.93 584.442 583.215 588.393C582.501 592.344 582.974 596.418 584.576 600.1C586.177 603.782 588.834 606.906 592.211 609.078C595.588 611.249 599.533 612.371 603.547 612.3C607.561 612.23 611.465 610.97 614.763 608.681C618.062 606.392 620.607 603.177 622.078 599.441C623.549 595.705 623.879 591.617 623.026 587.694C622.174 583.77 620.177 580.188 617.288 577.399C613.417 573.659 608.219 571.609 602.837 571.701C597.455 571.793 592.33 574.018 588.589 577.888V577.904Z" fill="#EBEBEB"/>
<path d="M588.589 577.888C589.657 576.578 590.935 575.454 592.371 574.563C596.285 572.008 600.965 570.894 605.609 571.411C608.815 571.739 611.898 572.819 614.608 574.563C617.722 576.604 620.235 579.438 621.89 582.774C622.792 584.565 623.414 586.484 623.733 588.463C624.107 590.545 624.144 592.674 623.844 594.767C623.268 599.183 621.285 603.296 618.188 606.495C615.09 609.695 611.044 611.81 606.65 612.529C604.568 612.901 602.439 612.938 600.346 612.639C598.355 612.384 596.415 611.826 594.593 610.984C591.423 609.563 588.663 607.362 586.572 604.587C584.48 601.812 583.125 598.553 582.631 595.114C581.947 590.495 582.888 585.782 585.295 581.781C586.119 580.315 587.184 578.999 588.447 577.888C587.448 579.211 586.517 580.584 585.657 582.002C583.477 585.957 582.689 590.531 583.419 594.988C583.943 598.259 585.277 601.348 587.3 603.971C589.324 606.595 591.972 608.67 595.003 610.007C596.737 610.802 598.58 611.333 600.472 611.583C602.436 611.856 604.431 611.813 606.382 611.457C610.519 610.756 614.323 608.748 617.235 605.727C620.148 602.707 622.017 598.833 622.567 594.673C623.094 590.808 622.475 586.873 620.786 583.357C619.342 580.378 617.174 577.808 614.482 575.882C611.79 573.955 608.659 572.732 605.373 572.325C600.888 571.758 596.343 572.713 592.466 575.036C591.125 575.919 589.831 576.871 588.589 577.888Z" fill="#EBEBEB"/>
<path d="M578.502 552.687L577.872 552.34L575.996 551.268L568.637 546.919H568.857L555.792 560.598V560.236C557.699 563.12 559.811 566.335 562.096 569.692L562.206 569.865L562.096 570.039C560.129 573.633 558.64 577.469 557.668 581.449V581.67H557.447L546.415 584.412L546.746 584.002C546.856 589.959 546.982 596.295 547.108 602.914L546.746 602.473L557.951 604.774H558.235V605.057C559.36 608.983 561.003 612.74 563.121 616.231L563.278 616.499L563.121 616.767C561.292 619.793 559.259 623.071 557.211 626.538L557.132 625.892L570.748 639.02H570.071L579.637 632.716L579.921 632.527L580.204 632.7C583.771 634.682 587.588 636.176 591.552 637.145L591.883 637.224L591.961 637.554C592.812 641.037 593.742 644.836 594.688 648.665L594.12 648.24L613.032 647.893L612.465 648.35C613.206 644.82 614.041 641.006 614.798 637.16L614.876 636.814L615.207 636.719C619.127 635.608 622.88 633.975 626.365 631.865L626.665 631.676L626.964 631.865L636.735 637.791L636.026 637.885L649.17 624.269V624.994L642.866 615.427L642.677 615.128L642.85 614.829C644.834 611.267 646.334 607.456 647.31 603.497L647.405 603.166H647.736L658.768 600.455L658.358 600.991C658.248 594.545 658.138 588.226 658.043 582.079L658.469 582.599L647.279 580.251H646.964L646.885 579.952C645.775 576.016 644.143 572.247 642.031 568.746L641.873 568.494L642.031 568.226L647.972 558.471L648.051 559.07L634.513 545.863H635.065C631.708 548.069 628.54 550.118 625.499 552.167L625.278 552.309L625.057 552.183C621.483 550.189 617.663 548.674 613.694 547.675H613.474V547.455C612.497 543.404 611.63 539.764 610.795 536.328L611.125 536.596L592.213 536.848L592.466 536.643L590.054 547.817V547.927H589.944C586.96 548.757 584.063 549.871 581.292 551.253L579.259 552.324C579.043 552.458 578.816 552.574 578.581 552.671C578.781 552.509 578.991 552.362 579.211 552.23C579.637 551.962 580.299 551.568 581.213 551.079C583.961 549.609 586.856 548.431 589.849 547.565L589.708 547.707L591.961 536.501V536.296H592.166L611.078 535.871H611.378V536.139C612.229 539.575 613.143 543.199 614.136 547.171L613.868 546.887C617.912 547.877 621.807 549.398 625.451 551.41H625.026L634.561 545.106L634.86 544.917L635.112 545.154L648.76 558.282L649.028 558.55L648.839 558.881C646.916 562.033 644.946 565.295 642.929 568.652V568.132C645.092 571.707 646.767 575.555 647.909 579.573L647.515 579.195L658.721 581.512L659.13 581.606V582.111C659.241 588.257 659.351 594.577 659.477 601.023V601.464L659.036 601.574L648.004 604.301L648.414 603.891C647.411 607.953 645.875 611.864 643.843 615.522V614.923L650.147 624.489L650.399 624.868L650.068 625.199L636.877 638.847L636.546 639.178L636.152 638.941L626.381 633.016H626.98C623.398 635.175 619.545 636.85 615.523 637.996L615.932 637.554C615.129 641.4 614.356 645.214 613.6 648.744L613.505 649.201H613.048L594.136 649.532H593.679L593.569 649.091C592.623 645.261 591.709 641.463 590.858 637.98L591.268 638.406C587.212 637.393 583.306 635.851 579.653 633.819H580.22L570.654 640.123L570.291 640.36L569.976 640.06L556.391 626.901L556.092 626.617L556.296 626.255C558.377 622.85 560.41 619.525 562.238 616.499V617.003C560.091 613.425 558.427 609.577 557.289 605.562L557.668 605.908L546.462 603.56L546.115 603.481V603.119C546.021 596.484 545.926 590.148 545.832 584.207V583.876L546.147 583.797L557.179 581.118L556.895 581.386C557.906 577.347 559.453 573.461 561.497 569.834V570.196L555.272 560.598L555.146 560.409L555.304 560.236L568.526 546.698L568.637 546.588H568.763L575.965 551.079L577.809 552.246C578.054 552.369 578.287 552.517 578.502 552.687Z" fill="#EBEBEB"/>
<path d="M32.6863 78.643C36.2288 76.5091 40.0394 74.8556 44.0177 73.7259L46.3502 62.5363L65.2622 62.2053L67.9887 73.2373C71.9945 74.2356 75.8482 75.7675 79.4462 77.792L89.0125 71.488L102.629 84.6318L96.7034 94.403C98.8332 97.9421 100.487 101.747 101.621 105.719L112.81 108.051L113.141 126.963L102.109 129.674C101.131 133.714 99.6151 137.605 97.6017 141.242L103.906 150.792L90.6515 164.472L80.8646 158.546C77.3325 160.679 73.5325 162.332 69.5647 163.463L67.2322 174.653L48.3202 174.984L45.6095 163.952C41.5957 162.962 37.732 161.441 34.1204 159.429L24.5699 165.733L10.9217 152.431L16.8475 142.66C14.7228 139.132 13.0747 135.337 11.9461 131.376L0.756496 129.043L0.425537 110.131L11.4575 107.405C12.4451 103.395 13.9664 99.5365 15.9807 95.9317L9.67665 86.3654L22.8205 72.7488L32.5917 78.6745L32.6863 78.643ZM42.7727 103.859C39.9836 106.747 38.1137 110.397 37.3993 114.348C36.685 118.299 37.1584 122.373 38.7595 126.055C40.3607 129.737 43.0177 132.861 46.3947 135.033C49.7716 137.205 53.7167 138.326 57.731 138.256C61.7453 138.185 65.6486 136.926 68.9471 134.637C72.2457 132.348 74.7913 129.132 76.2621 125.396C77.7329 121.66 78.0629 117.572 77.2102 113.649C76.3574 109.725 74.3604 106.143 71.4716 103.355C67.6008 99.6144 62.4028 97.5647 57.021 97.6563C51.6391 97.7479 46.514 99.9734 42.7727 103.843V103.859Z" fill="#EBEBEB"/>
<path d="M42.7725 103.843C43.8444 102.541 45.1221 101.423 46.5549 100.534C50.471 97.9849 55.1489 96.8711 59.7933 97.3816C63.2473 97.7551 66.5508 98.9956 69.397 100.988C72.2432 102.98 74.5398 105.659 76.0734 108.776C76.9805 110.571 77.6026 112.495 77.9173 114.481C78.2976 116.562 78.3401 118.691 78.0434 120.785C77.4699 125.192 75.4928 129.298 72.4046 132.494C69.3164 135.69 65.2813 137.806 60.8965 138.531C58.8154 138.913 56.6857 138.95 54.5925 138.641C52.6005 138.414 50.6552 137.882 48.8244 137.065C45.4401 135.527 42.525 133.118 40.377 130.084C38.5284 127.435 37.3249 124.391 36.8625 121.195C36.1842 116.528 37.1479 111.771 39.589 107.736C40.4255 106.279 41.4896 104.964 42.741 103.843C42.8513 103.938 41.5275 105.183 39.9515 107.972C37.7763 111.93 36.9885 116.501 37.7136 120.959C38.2369 124.23 39.5712 127.318 41.5945 129.942C43.6179 132.565 46.266 134.64 49.2972 135.978C52.873 137.542 56.829 138.024 60.6759 137.365C64.8136 136.667 68.6192 134.663 71.5348 131.645C74.4503 128.628 76.3226 124.755 76.8772 120.596C77.1668 118.629 77.1402 116.629 76.7984 114.67C76.5062 112.81 75.9378 111.004 75.1121 109.312C73.8899 106.813 72.1611 104.597 70.0357 102.803C67.9104 101.008 65.435 99.6762 62.7668 98.8906C60.0987 98.1049 57.2963 97.8831 54.5379 98.2393C51.7794 98.5954 49.1252 99.5216 46.7441 100.959C44.0176 102.582 42.8671 103.953 42.7725 103.843Z" fill="#EBEBEB"/>
<path d="M32.6862 78.6432L32.0558 78.3122L30.1804 77.2247L22.8205 72.875H23.0569L9.99184 86.5704V86.2079L16.2958 95.7427L16.4062 95.9161L16.3116 96.0895C14.3324 99.6798 12.8379 103.517 11.8673 107.5V107.72H11.6466L0.614639 110.478L0.92984 110.069C1.04016 116.026 1.16624 122.346 1.30808 128.981L0.945598 128.539L12.1352 130.856H12.4189V131.124C13.5069 135.084 15.1237 138.88 17.2257 142.408L17.3833 142.676L17.2257 142.928L11.3157 152.715V152.069C15.5866 156.198 20.2043 160.642 24.9481 165.197H24.2704L33.821 158.893L34.1046 158.704L34.3883 158.862C37.9588 160.839 41.7739 162.339 45.7355 163.322H46.0665V163.653C46.9333 167.136 47.8631 170.934 48.8087 174.763L48.2414 174.322L67.1534 173.991L66.6018 174.448C67.3267 170.902 68.1778 167.088 68.9342 163.243V162.912L69.281 162.802C73.1993 161.693 76.9518 160.066 80.439 157.963L80.7542 157.79L81.0537 157.963L90.8249 163.905H90.0999L103.244 150.304V151.013L96.9398 141.463L96.7506 141.163L96.9082 140.864C98.8973 137.302 100.403 133.492 101.384 129.532V129.201L101.715 129.122L112.747 126.396L112.322 126.948C112.206 120.486 112.101 114.182 112.006 108.036L112.432 108.556L101.242 106.207H100.927V105.892C99.8141 101.963 98.1816 98.1999 96.073 94.7026L95.9154 94.4347L96.073 94.1825C98.1218 90.8414 100.092 87.5948 102.03 84.4113V85.0102L88.4451 71.8506H89.0125L79.4304 78.1546L79.2255 78.2964L79.0049 78.1703C75.4287 76.1698 71.6022 74.6541 67.6262 73.663H67.4055V73.4423L64.7106 62.4103L65.0573 62.6783L46.1453 62.9147L46.3974 62.7098C45.4361 67.1856 44.6481 70.8419 44.0019 73.8994V74.0097H43.8916C40.9129 74.839 38.0208 75.9526 35.2551 77.3351L33.2063 78.391C32.9901 78.5246 32.7635 78.6405 32.5286 78.7377C32.7313 78.5851 32.9417 78.4431 33.159 78.3122C33.6003 78.0443 34.2465 77.6503 35.1606 77.1617C37.9763 75.6473 40.9454 74.4375 44.0177 73.5527L43.8916 73.6945C44.5062 70.6371 45.247 66.965 46.1453 62.4734V62.2843H46.3659L65.2779 61.8745H65.5459V62.1424C66.3969 65.5623 67.2952 69.2029 68.3038 73.1744L68.0202 72.8907C72.0671 73.8711 75.9633 75.3925 79.6038 77.4139H79.1782L88.7288 71.1099L89.0125 70.905L89.2804 71.1572L102.913 84.2695L103.196 84.5374L102.992 84.8683L97.1289 94.7341V94.214C99.2901 97.7861 100.97 101.628 102.125 105.64L101.715 105.278L112.92 107.594H113.346V108.036C113.461 114.182 113.577 120.486 113.693 126.948V127.389L113.267 127.499L102.235 130.226L102.645 129.816C101.651 133.873 100.12 137.78 98.0902 141.431V140.848L104.394 150.398L104.646 150.792L104.331 151.123L91.1874 164.74L90.8722 165.071L90.4782 164.835L80.6912 158.909H81.2901C77.7146 161.066 73.8666 162.736 69.8483 163.873L70.2581 163.432C69.4543 167.277 68.6821 171.091 67.9256 174.637L67.831 175.094H67.3582L48.4462 175.425H47.9892L47.8789 174.984C46.949 171.154 46.0192 167.356 45.1682 163.873L45.5779 164.283C41.5202 163.283 37.614 161.746 33.9628 159.713H34.5459L24.9796 166.017L24.6014 166.269L24.3019 165.954L10.701 152.81L10.4016 152.51L10.6222 152.164L16.4377 142.408V142.928C14.284 139.353 12.6196 135.504 11.489 131.486L11.8515 131.833L0.661923 129.469H0.299438V129.091C0.189118 122.456 0.09456 116.136 0 110.179V109.848L0.315201 109.769L11.4418 107.074L11.1581 107.358C12.1702 103.322 13.7123 99.4372 15.7442 95.8058V96.1525C13.4906 92.7011 11.3945 89.4703 9.44024 86.5704L9.34568 86.2867L9.51904 86.1292L22.7417 72.5913L22.8362 72.481L22.9623 72.5598L30.1646 77.0356L32.0243 78.2176C32.2548 78.3436 32.476 78.4858 32.6862 78.6432Z" fill="#EBEBEB"/>
<path d="M639.556 492.137C641.432 491.004 643.451 490.129 645.561 489.537L646.79 483.595L656.814 483.422L658.264 489.3C660.383 489.827 662.423 490.632 664.331 491.696L669.406 488.386L676.608 495.336L673.456 500.521C674.591 502.392 675.47 504.406 676.072 506.51L681.998 507.755L682.171 517.778L676.293 519.213C675.764 521.336 674.958 523.381 673.897 525.296L677.223 530.371L670.257 537.573L665.072 534.421C663.204 535.557 661.189 536.432 659.083 537.021L657.838 542.963L647.815 543.136L646.38 537.242C644.257 536.718 642.212 535.918 640.297 534.862L635.238 538.172L628.02 531.206L631.172 526.037C630.04 524.161 629.165 522.141 628.572 520.032L622.646 518.803L622.457 508.779L628.351 507.345C628.868 505.218 629.674 503.171 630.747 501.262L627.421 496.187L634.387 488.985L639.556 492.137ZM644.899 505.486C643.424 507.016 642.436 508.948 642.059 511.04C641.682 513.132 641.934 515.288 642.782 517.236C643.631 519.185 645.038 520.838 646.825 521.987C648.613 523.136 650.701 523.73 652.826 523.692C654.951 523.655 657.017 522.988 658.763 521.777C660.51 520.566 661.857 518.864 662.637 516.887C663.416 514.909 663.592 512.746 663.141 510.669C662.691 508.592 661.635 506.695 660.107 505.218C658.054 503.239 655.299 502.155 652.448 502.205C649.596 502.256 646.881 503.435 644.899 505.486Z" fill="#EBEBEB"/>
<path d="M78.1697 8.69964C80.0448 7.57697 82.0579 6.70285 84.1585 6.09924L85.4035 0.173483L95.4111 0.00012207L96.861 5.8786C98.9869 6.40109 101.033 7.20681 102.944 8.27412L108.003 4.94876L115.221 11.9147L112.069 17.0997C113.192 18.9749 114.066 20.988 114.67 23.0885L120.596 24.3178L120.785 34.3412L114.89 35.7911C114.368 37.917 113.562 39.9631 112.495 41.8744L115.82 46.9334L108.87 54.1515L103.701 50.9995C101.823 52.1313 99.804 53.0109 97.6963 53.6157L96.467 59.5414L86.4437 59.7148L84.9937 53.8363C82.8742 53.3096 80.8339 52.5041 78.9262 51.4408L73.8514 54.7661L66.6333 47.8475L69.7853 42.6624C68.6508 40.7914 67.771 38.7774 67.1692 36.6736L61.2434 35.4444L61.0701 25.421L66.9486 23.9711C67.4793 21.8528 68.2846 19.813 69.3441 17.9035L66.0817 12.7815L73.0477 5.5634L78.2327 8.7154L78.1697 8.69964ZM83.5123 22.0641C82.0373 23.5941 81.049 25.527 80.6722 27.6185C80.2955 29.7101 80.5472 31.8663 81.3956 33.8148C82.244 35.7634 83.651 37.4166 85.4387 38.5657C87.2265 39.7148 89.3147 40.3081 91.4396 40.2707C93.5645 40.2332 95.6306 39.5667 97.3767 38.3554C99.1229 37.1441 100.471 35.4423 101.25 33.4651C102.029 31.4879 102.205 29.3241 101.755 27.2471C101.304 25.1702 100.249 23.2733 98.7207 21.7962C97.705 20.8143 96.5057 20.0423 95.1913 19.5243C93.877 19.0063 92.4735 18.7525 91.061 18.7774C89.6485 18.8023 88.2547 19.1053 86.9595 19.6693C85.6642 20.2333 84.4928 21.0471 83.5123 22.0641Z" fill="#EBEBEB"/>
<path d="M644.899 505.487C645.468 504.799 646.144 504.209 646.901 503.737C648.655 502.596 650.702 501.989 652.795 501.989C654.887 501.989 656.935 502.596 658.689 503.737C660.348 504.809 661.683 506.313 662.55 508.087C663.033 509.033 663.362 510.049 663.528 511.097C663.701 512.193 663.701 513.31 663.528 514.407C663.224 516.746 662.179 518.927 660.545 520.629C658.911 522.331 656.775 523.464 654.45 523.863C653.354 524.044 652.236 524.044 651.14 523.863C650.082 523.733 649.051 523.44 648.083 522.996C646.287 522.183 644.741 520.905 643.607 519.292C642.408 517.581 641.727 515.561 641.646 513.473C641.565 511.385 642.087 509.318 643.15 507.52C643.598 506.746 644.167 506.048 644.836 505.455C644.836 505.455 644.19 506.164 643.37 507.646C642.211 509.737 641.79 512.157 642.173 514.517C642.449 516.252 643.157 517.89 644.231 519.28C645.305 520.671 646.71 521.77 648.319 522.476C649.238 522.892 650.217 523.163 651.219 523.28C652.263 523.448 653.327 523.448 654.371 523.28C656.562 522.904 658.576 521.84 660.121 520.242C661.666 518.643 662.66 516.594 662.96 514.391C663.128 513.347 663.128 512.283 662.96 511.239C662.81 510.242 662.507 509.275 662.062 508.371C661.239 506.685 659.983 505.249 658.421 504.21C657.063 503.297 655.507 502.719 653.882 502.524C651.511 502.219 649.106 502.724 647.058 503.958C645.593 504.888 644.962 505.55 644.899 505.487Z" fill="#EBEBEB"/>
<path d="M639.556 492.138L639.225 491.964L638.233 491.381L634.34 489.127H634.45L627.531 496.377V496.188L630.873 501.231V501.326V501.42C629.819 503.323 629.024 505.359 628.509 507.472V507.582H628.398L622.52 509.048L622.677 508.827C622.677 511.979 622.819 515.336 622.882 518.851L622.693 518.614L628.619 519.844H628.777V519.985C629.363 522.07 630.232 524.064 631.361 525.911L631.44 526.053L631.361 526.195C630.384 527.771 629.312 529.568 628.209 531.364V531.033L635.427 537.983H635.081L640.139 534.658L640.281 534.563L640.439 534.642C642.326 535.695 644.346 536.49 646.443 537.006H646.633V537.18L648.083 543.058L647.783 542.837L657.806 542.648L657.507 542.9L658.752 536.959V536.786H658.925C661.007 536.2 663 535.336 664.851 534.217L665.009 534.122L665.166 534.217L670.351 537.369H669.973C672.327 534.921 674.649 532.515 676.939 530.151V530.529L673.629 525.47L673.519 525.312L673.614 525.155C674.671 523.27 675.466 521.25 675.978 519.15V518.977H676.151L682.045 517.543L681.809 517.826C681.809 514.406 681.699 511.065 681.651 507.803L681.872 508.071L675.946 506.842H675.789V506.684C675.199 504.603 674.335 502.611 673.22 500.758L673.125 500.616L673.22 500.475L676.372 495.305V495.62L669.169 488.639H669.469L664.394 491.948L664.284 492.027H664.173C662.284 490.961 660.259 490.156 658.153 489.632H658.027V489.521C657.507 487.378 657.05 485.44 656.609 483.627L656.782 483.769L646.759 483.895L646.901 483.785C646.38 486.149 645.971 488.087 645.624 489.71C644.044 490.141 642.512 490.732 641.054 491.476L639.966 492.027C639.851 492.1 639.729 492.163 639.604 492.216C639.712 492.127 639.828 492.048 639.95 491.98C640.171 491.854 640.518 491.633 641.006 491.381C642.455 490.592 643.989 489.968 645.577 489.521C645.892 487.945 646.286 485.96 646.759 483.58V483.485H646.869L656.892 483.265H657.034V483.406C657.491 485.235 657.964 487.157 658.5 489.285L658.358 489.143C660.5 489.663 662.562 490.469 664.489 491.539H664.268L669.327 488.198L669.485 488.103L669.611 488.229L676.845 495.179L676.986 495.321L676.876 495.494L673.724 500.679V500.396C674.87 502.291 675.755 504.332 676.356 506.463L676.151 506.258L682.093 507.488H682.313V507.708C682.376 510.965 682.439 514.307 682.502 517.732V517.968H682.282L676.387 519.418L676.608 519.197C676.081 521.344 675.27 523.411 674.197 525.344V525.044C675.284 526.715 676.403 528.401 677.522 530.103L677.648 530.308L677.475 530.482L670.525 537.7L670.351 537.873L670.147 537.747L664.961 534.595H665.277C663.383 535.744 661.342 536.63 659.209 537.227L659.43 536.99C659.004 539.024 658.579 541.057 658.2 542.932V543.168H657.964L647.941 543.342H647.625V543.105C647.121 541.072 646.633 539.071 646.191 537.227L646.396 537.448C644.25 536.91 642.184 536.094 640.25 535.02H640.549L635.49 538.33L635.285 538.456L635.128 538.299L627.925 531.333L627.768 531.175L627.878 530.986L631.03 525.817V526.1C629.894 524.2 629.009 522.161 628.398 520.033L628.603 520.206L622.662 518.961H622.473V518.756C622.473 515.247 622.42 511.906 622.315 508.733V508.559H622.488L628.383 507.125L628.225 507.267C628.759 505.128 629.581 503.071 630.668 501.152V501.341L627.374 496.267L627.295 496.156L627.39 496.062L634.387 488.891L638.201 491.271L639.178 491.885C639.31 491.961 639.436 492.045 639.556 492.138Z" fill="#EBEBEB"/>
<path d="M461.437 575.365C469.553 571.567 479.104 571.079 488.119 572.434C492.957 573.159 498 574.467 501.31 577.761C504.619 581.055 505.218 586.854 501.436 589.676C499.182 591.362 496.046 591.614 493.13 591.582C486.07 591.582 478.253 590.385 472.642 594.23C469.49 596.421 467.284 600.061 463.439 601.149C461.56 601.574 459.597 601.415 457.812 600.694C456.026 599.973 454.503 598.724 453.447 597.114C452.545 595.56 451.979 593.835 451.784 592.049C451.588 590.263 451.768 588.456 452.312 586.744C452.804 584.253 453.89 581.917 455.479 579.936C457.068 577.954 459.112 576.387 461.437 575.365Z" fill="#EBEBEB"/>
<path d="M442.84 542.854C447.805 549.284 457.45 547.157 461.926 543.232C466.401 539.308 468.229 533.634 470.01 528.229C473.935 515.857 477.89 502.871 474.975 490.279C474.239 486.39 472.382 482.802 469.632 479.956C468.133 478.487 466.301 477.404 464.292 476.797C462.283 476.191 460.157 476.079 458.096 476.473C453.242 477.639 450.216 481.957 448.025 486.055C441.635 498.007 438.249 511.335 438.159 524.888C438.159 531.192 438.947 537.701 442.887 542.854" fill="#EBEBEB"/>
<path d="M429.223 552.072C434.613 546.272 435.622 537.888 433.226 530.575C430.831 523.263 425.346 517.148 419.168 512.105C411.668 506.101 403.117 501.543 393.952 498.661C390.333 497.337 386.487 496.743 382.637 496.912C378.791 497.243 374.93 499.024 373.181 502.129C370.533 506.699 373.07 512.247 375.813 516.77C380.69 524.798 386.209 532.419 392.313 539.559C397.278 545.343 402.951 551.048 410.5 553.664C418.049 556.28 425.898 555.981 429.901 551.237" fill="#EBEBEB"/>
<path d="M442.509 639.698C442.766 638.741 442.914 637.757 442.951 636.767C443.187 634.655 443.471 632.039 443.817 628.808C444.255 624.887 444.913 620.993 445.787 617.145C446.959 612.42 448.541 607.806 450.515 603.355C452.471 598.837 455.09 594.635 458.285 590.889C460.981 587.74 464.332 585.218 468.104 583.498C470.729 582.311 473.518 581.524 476.378 581.165C477.439 581.114 478.493 580.972 479.53 580.74C478.445 580.637 477.352 580.637 476.267 580.74C473.302 580.939 470.389 581.626 467.647 582.773C463.677 584.453 460.134 587 457.277 590.227C453.952 594.032 451.235 598.327 449.223 602.961C447.236 607.47 445.679 612.155 444.574 616.956C443.743 620.854 443.169 624.803 442.856 628.776C442.588 632.165 442.478 634.907 442.431 636.798C442.343 637.765 442.37 638.738 442.509 639.698Z" fill="#E0E0E0"/>
<path d="M443.108 633.568C443.2 633.122 443.232 632.667 443.203 632.213C443.203 631.188 443.203 629.912 443.203 628.336C443.203 624.979 443.203 620.125 443.392 614.152C443.723 602.143 444.873 589.235 447.064 571.017C449.16 553.885 451.965 533.949 454.944 520.994C455.574 518.047 456.22 515.4 456.819 513.114C457.418 510.829 457.891 508.78 458.395 507.157C458.9 505.534 459.12 504.383 459.388 503.406C459.53 502.972 459.615 502.522 459.64 502.067C459.423 502.465 459.254 502.889 459.136 503.327L457.891 507.047C457.339 508.623 456.772 510.64 456.126 512.957C455.48 515.273 454.755 517.921 454.061 520.837C450.402 536.132 447.649 551.63 445.819 567.25C443.863 582.812 442.764 598.469 442.525 614.152C442.446 620.172 442.525 625.042 442.746 628.336C442.856 629.912 442.95 631.188 443.014 632.213C443.001 632.666 443.033 633.12 443.108 633.568Z" fill="#E0E0E0"/>
<path d="M443.203 601.512C443.323 600.17 443.323 598.819 443.203 597.477C442.954 593.803 442.496 590.146 441.832 586.524C440.856 581.126 439.545 575.794 437.907 570.559C435.977 564.062 433.51 557.736 430.532 551.647C425.298 540.204 417.957 529.848 408.893 521.12C407.287 519.587 405.587 518.156 403.803 516.833C403.031 516.234 402.337 515.651 401.628 515.178L399.658 513.933C398.455 513.121 397.196 512.394 395.891 511.759C395.686 512.026 401.218 514.911 408.216 521.719C416.984 530.543 424.118 540.852 429.287 552.167C432.197 558.219 434.673 564.47 436.694 570.874C438.377 576.047 439.776 581.309 440.886 586.634C441.8 591.189 442.336 594.908 442.651 597.477C442.716 598.836 442.901 600.186 443.203 601.512Z" fill="#E0E0E0"/>
<path d="M405.709 625.309L409.255 669.311H471.665L475.227 625.309H405.709Z" fill="#E0E0E0"/>
<path d="M482.666 607.958H399.674V625.31H482.666V607.958Z" fill="#E0E0E0"/>
<path d="M399.674 667.625V672.431H403.582H481.295V667.625H399.674Z" fill="#EBEBEB"/>
<path d="M407.396 680.896L403.582 672.432H478.316L473.872 680.896H407.396Z" fill="#E0E0E0"/>
<path d="M474.061 639.682C474.061 639.682 473.982 639.839 473.761 640.091L472.832 641.21L469.207 645.418L469.033 645.607L468.876 645.418L459.956 634.229H460.46L451.666 645.513L451.398 645.86L451.083 645.529L440.65 634.292H441.248L440.681 634.954L431.351 645.544L431.036 645.891L430.752 645.529L421.958 634.244H422.463L411.635 645.418L411.431 645.623L411.289 645.403L407.9 640.233L407.034 638.862C406.92 638.714 406.829 638.549 406.766 638.374C406.766 638.374 406.907 638.5 407.128 638.799L408.089 640.123L411.651 645.198H411.304L421.974 633.882L422.242 633.598L422.494 633.914L431.367 645.135H430.768L440.066 634.528L440.65 633.866L440.949 633.535L441.248 633.866L451.65 645.135H451.067L459.956 633.914L460.208 633.583L460.46 633.914L469.207 645.229H468.892L472.674 641.116L473.683 640.06C473.796 639.922 473.923 639.795 474.061 639.682Z" fill="#F5F5F5"/>
<path d="M476.094 625.01C476.094 625.215 460.444 625.372 441.154 625.372C421.864 625.372 406.23 625.215 406.23 625.01C406.23 624.805 421.864 624.663 441.17 624.663C460.476 624.663 476.094 624.821 476.094 625.01Z" fill="#F5F5F5"/>
<path d="M479.246 672.906C479.246 673.095 462.241 673.253 441.28 673.253C420.319 673.253 403.314 673.095 403.314 672.906C403.314 672.717 420.303 672.559 441.28 672.559C462.256 672.559 479.246 672.717 479.246 672.906Z" fill="#F5F5F5"/>
<path d="M355.514 381.093H311.102C302.738 381.093 295.957 387.874 295.957 396.238V440.65C295.957 449.015 302.738 455.796 311.102 455.796H355.514C363.879 455.796 370.659 449.015 370.659 440.65V396.238C370.659 387.874 363.879 381.093 355.514 381.093Z" fill="#E0E0E0"/>
<path d="M316.776 436.63C316.559 436.636 316.344 436.597 316.144 436.515C315.943 436.434 315.761 436.312 315.61 436.157C315.301 435.845 315.127 435.423 315.127 434.983C315.127 434.544 315.301 434.122 315.61 433.809L324.483 424.92C322.168 421.996 321.003 418.326 321.206 414.602C321.409 410.877 322.967 407.356 325.586 404.7C327.658 402.629 330.286 401.202 333.152 400.592C336.018 399.981 338.999 400.213 341.736 401.26C344.473 402.307 346.848 404.123 348.575 406.491C350.302 408.858 351.307 411.674 351.468 414.6C351.629 417.526 350.94 420.435 349.484 422.978C348.028 425.521 345.866 427.588 343.261 428.929C340.656 430.27 337.718 430.829 334.803 430.537C331.887 430.245 329.118 429.115 326.831 427.284L317.942 436.157C317.791 436.312 317.609 436.434 317.408 436.515C317.208 436.597 316.992 436.636 316.776 436.63ZM336.318 403.534C333.564 403.528 330.893 404.477 328.761 406.22C326.628 407.963 325.166 410.392 324.625 413.092C324.083 415.793 324.495 418.597 325.79 421.028C327.085 423.459 329.183 425.365 331.726 426.421C334.27 427.478 337.101 427.619 339.737 426.822C342.373 426.024 344.651 424.337 346.182 422.047C347.713 419.758 348.402 417.008 348.133 414.267C347.863 411.527 346.651 408.964 344.703 407.017C343.602 405.917 342.295 405.045 340.856 404.453C339.417 403.861 337.874 403.559 336.318 403.566V403.534Z" fill="white"/>
<path d="M663.37 52.6704H625.199C616.164 52.6704 608.84 59.9945 608.84 69.0293V107.2C608.84 116.235 616.164 123.559 625.199 123.559H663.37C672.405 123.559 679.729 116.235 679.729 107.2V69.0293C679.729 59.9945 672.405 52.6704 663.37 52.6704Z" fill="#E0E0E0"/>
<path d="M647.2 100.392C647.2 100.985 647.024 101.564 646.694 102.057C646.365 102.55 645.896 102.934 645.348 103.16C644.8 103.386 644.197 103.444 643.616 103.328C643.035 103.211 642.501 102.924 642.083 102.504C641.665 102.083 641.381 101.548 641.267 100.966C641.153 100.384 641.215 99.7819 641.444 99.235C641.673 98.6882 642.059 98.2216 642.554 97.8945C643.048 97.5673 643.629 97.3944 644.222 97.3975C645.013 97.4017 645.771 97.719 646.329 98.2801C646.887 98.8412 647.2 99.6005 647.2 100.392Z" fill="white"/>
<path d="M638.17 96.5454C638.934 95.7261 639.857 95.07 640.881 94.6166C641.906 94.1632 643.012 93.9219 644.133 93.9072C645.253 93.8925 646.365 94.1046 647.401 94.531C648.438 94.9573 649.377 95.5889 650.163 96.3878C650.476 96.7034 650.902 96.8815 651.347 96.883C651.792 96.8844 652.219 96.7092 652.535 96.3957C652.85 96.0822 653.028 95.6562 653.03 95.2114C653.031 94.7666 652.856 94.3394 652.543 94.0238C651.444 92.9169 650.135 92.041 648.693 91.4476C647.25 90.8542 645.704 90.5553 644.144 90.5685C642.585 90.5818 641.043 90.9068 639.611 91.5246C638.179 92.1423 636.885 93.0403 635.806 94.1656C634.324 95.7416 636.688 98.1214 638.17 96.5454Z" fill="white"/>
<path d="M628.099 82.6457C632.482 78.6248 638.18 76.3388 644.127 76.2156C650.189 76.1546 656.045 78.4093 660.501 82.5196C662.077 84.001 664.473 81.637 662.881 80.1556C657.79 75.4348 651.085 72.841 644.143 72.906C637.309 73.0449 630.76 75.6667 625.719 80.2817C624.143 81.7001 626.46 84.0798 628.099 82.6772V82.6457Z" fill="white"/>
<path d="M632.102 90.3995C633.617 88.7118 635.465 87.3558 637.53 86.4169C639.594 85.478 641.831 84.9764 644.098 84.9439C646.366 84.9113 648.616 85.3484 650.707 86.2276C652.797 87.1069 654.683 88.4092 656.246 90.0528C656.566 90.3376 656.983 90.4899 657.411 90.4789C657.839 90.4678 658.247 90.2942 658.552 89.9934C658.857 89.6925 659.036 89.2869 659.052 88.8589C659.069 88.4309 658.922 88.0125 658.642 87.6888C656.77 85.7285 654.515 84.1738 652.017 83.1213C649.519 82.0688 646.832 81.541 644.121 81.5705C641.411 81.6001 638.736 82.1864 636.261 83.2931C633.787 84.3998 631.567 86.0033 629.738 88.004C628.272 89.58 630.621 91.9913 632.102 90.3995Z" fill="white"/>
</svg>
