<svg width="200" height="187" viewBox="0 0 200 187" fill="none" xmlns="http://www.w3.org/2000/svg">
<path d="M123.38 25.6765C122.627 27.6588 122.636 29.8498 123.406 31.8256C124.175 33.8014 125.651 35.4215 127.546 36.3723C129.513 37.2875 131.808 37.3968 133.72 38.4349C134.755 39.0188 135.629 39.8518 136.261 40.8584C136.893 41.865 137.264 43.0133 137.34 44.1995C137.463 46.3578 136.589 48.6526 137.477 50.6333C138.569 53.0921 141.67 53.7342 143.979 55.0728C145.476 55.988 146.734 57.2453 147.651 58.7413C148.567 60.2373 149.116 61.9294 149.252 63.6786C149.361 65.4256 149.124 67.177 148.555 68.8321C147.985 70.4871 147.094 72.0133 145.932 73.3226C143.772 75.7124 140.902 77.3449 137.744 77.9795C134.586 78.614 131.308 78.217 128.393 76.8469C124.42 74.6856 121.342 71.1864 119.705 66.9707C118.1 62.7786 117.146 58.3653 116.877 53.8844C116.124 45.9264 116.087 37.9167 116.768 29.9521" fill="#263238"/>
<path d="M96.8245 0.582964C92.1528 -0.304936 87.2626 2.03093 84.1754 5.92403C81.1789 10.0259 79.6751 15.029 79.9135 20.1031C80.1541 25.1628 81.3353 30.1333 83.3968 34.7603C83.9985 36.6289 85.139 38.278 86.6752 39.5003C89.2842 41.1941 92.7129 40.0057 95.3083 38.2709C98.858 35.7691 101.767 32.4647 103.799 28.6265C105.831 24.7884 106.928 20.5248 107.001 16.1827C107.182 12.4551 106.281 8.75474 104.406 5.52789C103.512 3.98241 102.242 2.68836 100.713 1.76636C99.1846 0.844374 97.4473 0.324467 95.6634 0.255127" fill="#263238"/>
<path d="M181.954 153.616L113.408 149.613C112.984 148.63 112.684 148.056 112.684 148.056L94.0925 148.48L88.0412 148.124L87.8089 148.616L25.4647 149.982C13.0341 149.982 -0.0248696 157.645 0.00245041 167.33C-0.12049 176.551 4.37365 186.55 15.5065 186.291L100.458 185.785H185.41C196.543 185.976 199.466 179.256 199.466 171.292C200.75 156.539 191.447 153.711 181.954 153.616Z" fill="#263238"/>
<path d="M23.3337 186.318H23.7435H24.9456H29.5627L46.665 186.195L103.696 185.963L103.463 186.223C103.34 184.351 103.204 182.357 103.081 180.349C102.808 176.251 102.548 172.153 102.302 168.355L102.507 168.574L49.9571 162.878L34.371 161.129L30.1774 160.637L29.0983 160.501H28.7294H29.0983L30.1911 160.596L34.3983 161.006L49.9844 162.604L102.562 168.15H102.767V168.355C103.013 172.207 103.272 176.237 103.545 180.349C103.668 182.357 103.805 184.351 103.928 186.209V186.468H103.655L46.624 186.55H29.5217H24.9046H23.7435L23.3337 186.318Z" fill="#455A64"/>
<path d="M40.8184 161.908C40.8184 161.976 39.9168 161.279 38.4142 160.378C36.463 159.196 34.3639 158.277 32.1716 157.646C29.9739 157.031 27.7055 156.704 25.4235 156.676C23.6751 156.676 22.5823 156.799 22.5686 156.676C22.807 156.574 23.0611 156.514 23.3199 156.498C24.0157 156.383 24.7185 156.315 25.4235 156.293C30.095 156.16 34.6936 157.472 38.5918 160.05C39.1826 160.431 39.7442 160.856 40.272 161.32C40.5998 161.689 40.8184 161.88 40.8184 161.908Z" fill="#455A64"/>
<path d="M176.64 157.891C176.64 158.028 163.171 161.334 146.479 165.282C129.786 169.229 116.235 172.316 116.194 172.194C116.153 172.071 129.677 168.751 146.369 164.803C163.062 160.856 176.613 157.769 176.64 157.891Z" fill="#455A64"/>
<path d="M165.22 156.608C163.363 157.257 161.585 158.113 159.92 159.162C158.346 160.333 156.908 161.675 155.631 163.164C155.839 162.611 156.15 162.101 156.546 161.662C157.433 160.545 158.483 159.569 159.661 158.766C160.832 157.956 162.122 157.333 163.485 156.922C164.038 156.706 164.627 156.6 165.22 156.608Z" fill="#455A64"/>
<path d="M102.876 170.172L115.675 171.92L115.703 185.84L103.941 185.566L102.876 170.172Z" fill="#B78876"/>
<path d="M115.676 171.92H121.413C122.53 171.917 123.628 172.209 124.596 172.767L127.642 174.516C129.356 175.46 131.126 176.3 132.942 177.029C136.452 178.149 142.34 179.638 143.583 180.594C147.121 183.326 146.055 186.536 144.116 186.878C142.408 187.178 115.689 185.853 115.689 185.853L115.676 171.92Z" fill="#4680FF"/>
<path d="M125.155 184.665C124.699 183.514 124.485 182.282 124.527 181.045C124.412 179.815 124.547 178.575 124.923 177.398C125.018 178.607 125.045 179.82 125.005 181.031C125.121 182.239 125.171 183.452 125.155 184.665Z" fill="#263238"/>
<path d="M127.887 184.57C127.652 183.48 127.578 182.361 127.669 181.25C127.594 180.142 127.677 179.029 127.915 177.945C128.151 179.034 128.229 180.152 128.147 181.264C128.213 182.373 128.126 183.485 127.887 184.57Z" fill="#263238"/>
<path d="M131.111 185.116C130.603 182.877 130.419 180.577 130.565 178.286C130.882 179.392 131.052 180.536 131.07 181.687C131.241 182.823 131.255 183.977 131.111 185.116Z" fill="#263238"/>
<path d="M122.656 180.964C122.246 180.909 121.848 180.784 121.481 180.595C120.081 180.018 118.82 179.153 117.779 178.054C117.461 177.765 117.209 177.411 117.041 177.016C116.944 176.795 116.906 176.552 116.932 176.313C116.959 176.073 117.048 175.844 117.192 175.65C117.277 175.539 117.384 175.447 117.506 175.379C117.628 175.311 117.763 175.268 117.902 175.254C118.164 175.225 118.43 175.253 118.681 175.336C119.684 175.694 120.568 176.326 121.233 177.158C121.898 177.991 122.318 178.993 122.445 180.051C122.573 181.109 122.403 182.181 121.955 183.149C121.508 184.116 120.799 184.939 119.91 185.526C119.5 185.817 119.035 186.021 118.544 186.127C118.297 186.188 118.039 186.188 117.793 186.127C117.675 186.059 117.573 185.969 117.491 185.861C117.409 185.753 117.349 185.63 117.315 185.499C117.228 185.275 117.197 185.033 117.226 184.795C117.254 184.557 117.341 184.329 117.479 184.133C117.681 183.803 117.93 183.504 118.216 183.245C119.03 182.445 119.99 181.81 121.044 181.373C121.419 181.199 121.821 181.089 122.232 181.045C122.232 181.045 121.822 181.209 121.126 181.551C120.132 182.031 119.23 182.683 118.462 183.477C118.206 183.723 117.985 184.003 117.806 184.31C117.713 184.452 117.653 184.612 117.629 184.78C117.606 184.948 117.62 185.118 117.67 185.28C117.764 185.424 117.905 185.533 118.068 185.587C118.232 185.642 118.409 185.639 118.571 185.581C118.989 185.484 119.381 185.298 119.719 185.034C120.532 184.489 121.179 183.729 121.587 182.84C121.996 181.95 122.151 180.965 122.035 179.992C121.919 179.02 121.537 178.099 120.931 177.33C120.324 176.561 119.517 175.975 118.599 175.636C118.433 175.553 118.246 175.523 118.063 175.549C117.879 175.576 117.709 175.659 117.574 175.786C117.47 175.933 117.405 176.105 117.385 176.284C117.366 176.464 117.394 176.645 117.465 176.811C117.806 177.459 118.27 178.034 118.831 178.505C119.979 179.507 121.267 180.336 122.656 180.964Z" fill="#263238"/>
<path d="M144.129 186.864C144.412 186.617 144.648 186.321 144.826 185.99C144.991 185.511 145.043 185 144.976 184.497C144.91 183.994 144.727 183.514 144.443 183.094C143.618 181.788 142.354 180.819 140.878 180.362C139.252 179.788 137.313 179.515 135.414 178.901C132.045 177.91 128.828 176.462 125.852 174.598C124.955 174.039 124.088 173.433 123.257 172.781C122.938 172.559 122.644 172.303 122.382 172.016C122.727 172.192 123.057 172.397 123.366 172.631C123.981 173.04 124.882 173.641 126.098 174.311C129.08 176.057 132.263 177.433 135.578 178.409C137.504 178.996 139.416 179.283 141.11 179.911C142.663 180.401 143.984 181.441 144.826 182.835C145.116 183.3 145.29 183.829 145.333 184.375C145.376 184.922 145.286 185.471 145.072 185.976C144.934 186.241 144.732 186.466 144.484 186.632C144.238 186.864 144.143 186.864 144.129 186.864Z" fill="#263238"/>
<path d="M139.485 78.2402L161.341 115.969C162.665 118.263 163.402 120.849 163.486 123.497C163.569 126.145 162.997 128.773 161.819 131.145C160.459 133.887 158.344 136.182 155.723 137.76C153.102 139.338 150.084 140.133 147.025 140.052L113.695 139.205L112.779 127.088L142.121 121.392L122.246 87.2422L139.485 78.2402Z" fill="#B78876"/>
<path d="M58.7677 143.153L89.4344 151.185L90.0765 141.991L61.7866 125.668L82.2766 87.3241L64.9284 78.4724L43.3319 116.311C42.1154 118.606 41.4175 121.141 41.2874 123.736C41.1573 126.331 41.5983 128.923 42.5792 131.329C43.5601 133.735 45.057 135.897 46.9643 137.661C48.8717 139.425 51.143 140.75 53.6179 141.541L58.7677 143.153Z" fill="#B78876"/>
<path d="M130.332 102.528L151.26 91.4356C148.666 86.2172 145.651 81.2192 142.244 76.4916C135.397 67.3713 125.408 61.1165 114.214 58.9385L90.1174 59.2936C87.1786 59.5534 84.2909 60.2248 81.5389 61.288V61.1924C68.4663 64.1156 54.0277 92.6787 54.0277 92.6787L73.1517 102.664L73.5752 105.656C74.1613 109.625 75.8997 113.334 78.5747 116.324L73.1107 152.851L134.977 153.971L127.04 127.839L130.332 102.528Z" fill="#4680FF"/>
<path d="M105.321 73.3908C108.373 73.3238 111.28 72.0742 113.428 69.9055C115.576 67.7368 116.798 64.8185 116.836 61.7662L117.383 14.967C117.399 14.0344 117.066 13.1295 116.449 12.4296C115.833 11.7297 114.977 11.2852 114.05 11.1832L94.2702 6.18362C87.9456 5.51428 83.7383 13.3141 83.3422 19.666C82.8914 26.7283 82.6318 35.3614 83.4651 40.6341C85.1453 51.2206 93.2593 52.573 93.2593 52.573C93.2593 52.573 93.2593 56.671 93.2593 61.6842C93.268 63.2468 93.5876 64.7921 94.1996 66.23C94.8115 67.6678 95.7036 68.9695 96.8237 70.0591C97.9438 71.1487 99.2696 72.0044 100.724 72.5764C102.178 73.1485 103.732 73.4253 105.294 73.3908H105.321Z" fill="#B78876"/>
<path d="M86.5249 25.4169C86.5249 25.7792 86.6688 26.1266 86.925 26.3828C87.1812 26.639 87.5286 26.7829 87.8909 26.7829C88.2307 26.7846 88.559 26.6596 88.8115 26.4323C89.0641 26.2049 89.2229 25.8916 89.2569 25.5535C89.2569 25.1912 89.113 24.8438 88.8568 24.5876C88.6006 24.3314 88.2532 24.1875 87.8909 24.1875C87.5511 24.1858 87.2228 24.3108 86.9702 24.5382C86.7177 24.7655 86.5589 25.0788 86.5249 25.4169Z" fill="#263238"/>
<path d="M85.2134 24.1602C85.3773 24.3378 86.4018 23.5728 87.8634 23.5728C89.3251 23.5728 90.4042 24.3105 90.5954 24.1329C90.7867 23.9553 90.4998 23.7367 90.0354 23.3952C89.4071 22.9553 88.6577 22.7215 87.8908 22.7259C87.1309 22.7266 86.3905 22.9654 85.7735 23.4089C85.2817 23.7641 85.1314 24.0782 85.2134 24.1602Z" fill="#263238"/>
<path d="M100.923 25.6764C100.923 26.0387 101.067 26.3862 101.323 26.6423C101.579 26.8985 101.926 27.0424 102.289 27.0424C102.628 27.0441 102.957 26.9191 103.209 26.6918C103.462 26.4645 103.621 26.1512 103.655 25.813C103.655 25.4508 103.511 25.1033 103.255 24.8471C102.998 24.591 102.651 24.447 102.289 24.447C101.949 24.4453 101.621 24.5704 101.368 24.7977C101.115 25.025 100.957 25.3383 100.923 25.6764Z" fill="#263238"/>
<path d="M99.5565 24.4331C99.7341 24.6107 100.759 23.8458 102.289 23.8458C103.818 23.8458 104.816 24.5834 105.021 24.4058C105.225 24.2282 104.925 24.0097 104.46 23.6682C103.827 23.228 103.073 22.9943 102.302 22.9988C101.543 23.004 100.804 23.2425 100.185 23.6818C99.6521 24.037 99.5565 24.3102 99.5565 24.4331Z" fill="#263238"/>
<path d="M94.2699 35.2382C93.4976 35.0016 92.6995 34.8594 91.8931 34.8147C91.5242 34.8147 91.1691 34.7055 91.1145 34.4459C91.0792 34.0605 91.1651 33.6737 91.3603 33.3395C91.7018 32.4379 92.0706 31.4954 92.4668 30.4982C93.4887 28.0914 94.3155 25.6064 94.9392 23.0671C93.7227 25.3848 92.6948 27.7968 91.8657 30.2796C91.4969 31.2768 91.1418 32.233 90.8139 33.1482C90.5748 33.596 90.5068 34.1156 90.6227 34.6098C90.6772 34.7415 90.7608 34.859 90.8673 34.9536C90.9738 35.0483 91.1003 35.1175 91.2374 35.1562C91.443 35.2078 91.6538 35.2353 91.8657 35.2382C92.6632 35.3507 93.4725 35.3507 94.2699 35.2382Z" fill="#263238"/>
<path d="M93.2592 52.5729C98.2442 52.6446 103.152 51.335 107.438 48.7891C107.438 48.7891 104.01 56.0562 93.4094 55.0727L93.2592 52.5729Z" fill="#AA6550"/>
<path d="M94.8847 38.7901C95.1624 38.4394 95.5256 38.166 95.9395 37.9962C96.3533 37.8263 96.8039 37.7657 97.2479 37.8202C97.5716 37.8465 97.8865 37.9388 98.1731 38.0916C98.4597 38.2443 98.712 38.4541 98.9144 38.7081C99.1101 38.9503 99.2258 39.2473 99.2453 39.5581C99.2649 39.8689 99.1875 40.1781 99.0237 40.4429C98.7905 40.7065 98.4837 40.8942 98.1428 40.9818C97.802 41.0695 97.4427 41.0531 97.1113 40.9347C96.4201 40.6876 95.7842 40.307 95.2399 39.8146C95.0799 39.698 94.9413 39.5548 94.83 39.3911C94.7723 39.3117 94.7412 39.2161 94.7412 39.1179C94.7412 39.0197 94.7723 38.9241 94.83 38.8447" fill="#AA6550"/>
<path d="M98.5728 36.2766C98.3406 36.2766 98.327 37.8612 96.9746 39.0086C95.6223 40.1561 93.9284 39.9648 93.9148 40.1834C93.9011 40.4019 94.2973 40.4839 95.0076 40.5112C95.9367 40.5229 96.8405 40.2087 97.562 39.6233C98.248 39.0535 98.6882 38.2415 98.7914 37.3558C98.8597 36.6728 98.6821 36.2766 98.5728 36.2766Z" fill="#263238"/>
<path d="M98.9143 21.8787C99.0646 22.2748 100.526 22.0836 102.234 22.2885C103.941 22.4934 105.334 22.9578 105.567 22.6027C105.799 22.2475 105.43 22.0563 104.87 21.6738C104.126 21.1951 103.278 20.9002 102.398 20.8132C101.521 20.7119 100.633 20.8148 99.8022 21.1137C99.1738 21.3733 98.8597 21.6874 98.9143 21.8787Z" fill="#263238"/>
<path d="M85.4184 21.4691C85.6643 21.7969 86.6752 21.4691 87.8909 21.4691C89.1067 21.4691 90.1175 21.7013 90.3634 21.3461C90.6093 20.991 90.2951 20.8544 89.8579 20.5402C89.256 20.1623 88.5552 19.9722 87.8449 19.9941C87.1345 20.016 86.4467 20.2489 85.8692 20.6631C85.4458 20.9637 85.2955 21.3051 85.4184 21.4691Z" fill="#263238"/>
<path d="M90.5272 2.78225C90.7282 5.09288 91.5715 7.30122 92.962 9.15756C94.3524 11.0139 96.2345 12.4442 98.3954 13.2868C100.335 14.0108 102.425 14.2293 104.365 14.926C105.372 15.2011 106.297 15.7182 107.059 16.4325C107.821 17.1467 108.397 18.0364 108.736 19.024C108.951 20.7809 108.711 22.5636 108.039 24.2011C107.589 25.9086 107.411 27.9303 108.599 29.2417C109.788 30.553 111.495 30.7169 112.206 32.0966C112.916 33.4763 112.096 35.1428 111.495 36.6181C110.549 38.7996 110.329 41.2275 110.867 43.5437C111.15 44.693 111.696 45.7611 112.462 46.6641C113.227 47.567 114.192 48.2804 115.279 48.7481C115.665 48.9534 116.104 49.0396 116.539 48.9958C116.974 48.952 117.387 48.7803 117.724 48.5023C118.161 47.9969 117.806 47.1363 118.093 46.5762C122.71 36.5907 124.814 32.9162 124.828 22.6712C125.012 17.8141 123.633 13.026 120.893 9.01121C119.749 7.0681 118.017 5.53777 115.949 4.64001C111.827 2.75099 107.465 1.44089 102.985 0.746908C100.784 0.19557 98.5187 -0.0526046 96.2508 0.00926697C95.1162 0.0482767 94.0012 0.316484 92.973 0.797735C91.9447 1.27899 91.0245 1.96333 90.2677 2.80957" fill="#263238"/>
<path d="M93.2729 5.28201C92.4702 5.65933 91.7654 6.21678 91.2134 6.91097C90.6614 7.60516 90.277 8.41737 90.0901 9.28439C89.7508 11.0273 89.1376 12.7055 88.2733 14.2566C87.2825 15.3861 86.2096 16.4408 85.0632 17.4121C83.9546 18.6132 83.1836 20.0862 82.8286 21.6817C82.4735 23.2771 82.547 24.9381 83.0415 26.496C81.8611 24.4468 81.1863 22.1456 81.073 19.7835C80.9597 17.4213 81.4112 15.0661 82.3902 12.9134C83.3691 10.7606 84.8471 8.87221 86.7017 7.40487C88.5563 5.93753 90.7341 4.9335 93.0543 4.47607" fill="#263238"/>
<path d="M112.861 23.1767C112.592 21.7088 112.02 20.3132 111.181 19.0787C110.238 17.7564 108.92 16.7476 107.397 16.1827C105.449 15.6546 103.431 15.4334 101.414 15.5271C100.324 15.4992 99.2417 15.3386 98.1905 15.049C97.2179 14.7297 96.2975 14.2695 95.4585 13.683C94.0345 12.7106 92.8674 11.4076 92.0572 9.88548C91.5126 8.86953 91.1563 7.76349 91.0054 6.62074C90.9222 6.20596 90.9222 5.77879 91.0054 5.36401C91.2872 6.85698 91.7938 8.29857 92.508 9.6396C93.337 11.0448 94.4772 12.2411 95.841 13.1366C96.6374 13.666 97.5073 14.0756 98.4227 14.3523C99.4227 14.6142 100.449 14.7609 101.483 14.7894C103.568 14.6985 105.654 14.9524 107.657 15.5407C109.287 16.1659 110.675 17.2954 111.618 18.7645C112.264 19.7261 112.693 20.8168 112.875 21.9609C112.948 22.3633 112.944 22.776 112.861 23.1767Z" fill="#263238"/>
<path d="M124.145 31.2498C124.183 32.3231 124.554 33.3579 125.205 34.2118C125.857 35.0656 126.757 35.6963 127.782 36.017C128.807 36.3377 129.906 36.3325 130.928 36.0023C131.95 35.672 132.845 35.0329 133.488 34.173C134.433 32.7658 134.88 31.0828 134.758 29.392C134.776 28.0341 134.447 26.6941 133.802 25.4989C133.205 24.4852 132.306 23.684 131.231 23.2078C130.155 22.7317 128.957 22.6045 127.806 22.8441C126.654 23.0838 125.606 23.6783 124.81 24.544C124.014 25.4098 123.509 26.5033 123.366 27.6708" fill="#263238"/>
<path d="M123.981 23.928C124.774 25.3744 125.112 27.0264 124.951 28.668C125.03 30.3145 124.601 31.9455 123.721 33.3397C123.53 33.3397 124.186 31.2361 124.24 28.6407C124.295 26.0453 123.776 23.9826 123.981 23.928Z" fill="#4680FF"/>
<path d="M124.909 22.9444C124.909 22.9444 124.814 23.0673 124.595 23.2449C124.246 23.4807 123.864 23.6648 123.462 23.7913C121.951 24.1892 120.347 24.019 118.954 23.3132C116.958 22.1879 115.316 20.5272 114.214 18.5185C112.848 16.4149 111.55 13.8878 109.241 12.2895C106.933 10.6913 104.023 10.5821 101.606 9.77611C99.4471 9.09342 97.4328 8.01914 95.6634 6.60699C94.4785 5.65495 93.4224 4.55291 92.5216 3.32859C92.1695 2.89771 91.8883 2.41356 91.6884 1.89429C92.9429 3.4972 94.3827 4.94612 95.9776 6.21085C97.7328 7.5304 99.7074 8.52929 101.81 9.16142C104.133 9.91272 107.056 10.0083 109.638 11.7022C112.219 13.396 113.449 16.087 114.76 18.1634C115.787 20.0942 117.31 21.7163 119.172 22.8624C120.461 23.5617 121.953 23.7933 123.393 23.5181C123.916 23.3753 124.423 23.1832 124.909 22.9444Z" fill="#455A64"/>
<path d="M124.145 19.9119C124.052 20.0143 123.941 20.0978 123.817 20.1577C123.477 20.333 123.105 20.4397 122.724 20.4719C122.017 20.5013 121.311 20.3801 120.654 20.1164C119.997 19.8526 119.404 19.4523 118.913 18.942C117.619 17.388 116.424 15.7547 115.334 14.0517C113.851 12.123 111.992 10.5151 109.87 9.32536C107.688 8.19456 105.4 7.27955 103.04 6.59336C101.102 6.01906 99.1999 5.3303 97.3437 4.5307C96.088 3.97494 94.9045 3.26855 93.8194 2.42707C93.4158 2.12921 93.0569 1.77499 92.7539 1.37524C94.2505 2.45371 95.8578 3.36956 97.5486 4.10724C99.1195 4.76292 101.059 5.36397 103.231 6.01965C105.635 6.68144 107.961 7.59727 110.17 8.75165C112.36 9.99975 114.267 11.6881 115.771 13.7102C116.821 15.4102 117.956 17.056 119.172 18.6415C119.631 19.14 120.189 19.5373 120.81 19.8078C121.431 20.0784 122.101 20.2161 122.779 20.2124C123.243 20.1592 123.701 20.0585 124.145 19.9119Z" fill="#455A64"/>
<path d="M145.768 72.0248C145.716 71.3747 145.716 70.7215 145.768 70.0715C145.826 68.317 145.581 66.5657 145.044 64.8943C144.626 63.7813 143.93 62.7937 143.023 62.0257C141.918 61.1799 140.749 60.4217 139.526 59.7581C138.12 58.9735 136.913 57.875 136.001 56.5481C135.028 55.105 134.444 53.4343 134.308 51.6988C134.24 50.8217 134.291 49.9397 134.458 49.076C134.635 48.2291 134.895 47.4368 135.1 46.6582C135.364 45.9721 135.486 45.2398 135.461 44.5051C135.435 43.7704 135.261 43.0485 134.95 42.3826C134.237 41.2311 133.201 40.3143 131.972 39.7463C130.811 39.1589 129.649 38.7627 128.611 38.312C126.869 37.7326 125.366 36.5946 124.336 35.0745C124.088 34.6512 123.913 34.1895 123.817 33.7085C123.817 33.3807 123.817 33.1895 123.817 33.1895C123.986 33.8085 124.248 34.3982 124.595 34.9379C125.659 36.3273 127.13 37.3494 128.803 37.8612C129.841 38.271 131.029 38.6398 132.245 39.2272C133.581 39.8332 134.708 40.822 135.482 42.0685C135.892 42.7839 136.108 43.5936 136.111 44.418C136.087 45.2414 135.958 46.0585 135.728 46.8495C135.167 48.3881 134.912 50.0214 134.977 51.6578C135.105 53.2725 135.64 54.8283 136.534 56.1792C137.39 57.424 138.515 58.4604 139.826 59.2118C141.076 59.9063 142.264 60.706 143.378 61.6023C144.335 62.4447 145.056 63.5232 145.468 64.7304C145.988 66.4644 146.169 68.2825 146 70.0851C145.993 70.7381 145.915 71.3885 145.768 72.0248Z" fill="#455A64"/>
<path d="M134.785 30.1842C134.676 30.1842 134.553 29.5968 133.747 29.1187C132.662 28.5441 131.482 28.1693 130.264 28.0123C128.502 27.8704 126.729 27.9623 124.991 28.2855C124.991 28.2035 125.483 27.862 126.453 27.5615C127.729 27.2091 129.064 27.1254 130.373 27.3156C131.693 27.4554 132.957 27.9251 134.048 28.6816C134.922 29.4056 134.881 30.2252 134.785 30.1842Z" fill="#455A64"/>
<path d="M134.13 33.1485C134.13 33.2304 133.707 33.6266 132.764 33.9817C131.565 34.4467 130.266 34.5926 128.994 34.4052C127.72 34.2321 126.515 33.7281 125.497 32.9436C124.718 32.3425 124.39 31.8234 124.459 31.7688C125.877 32.6811 127.444 33.3376 129.089 33.7085C130.79 33.8324 132.498 33.6425 134.13 33.1485Z" fill="#455A64"/>
<path d="M85.1862 151.157C84.5715 150.065 81.9215 97.3643 82.9186 97.3643H123.421L121.003 149.409L85.1862 151.157Z" fill="#263238"/>
<path d="M69.9689 161.675L66.3627 120.969L141.739 120.764L136.848 162.003L69.9689 161.675Z" fill="#E0E0E0"/>
<path d="M108.914 142.565C108.919 143.516 108.642 144.448 108.118 145.242C107.593 146.036 106.845 146.657 105.968 147.025C105.09 147.394 104.123 147.494 103.189 147.312C102.255 147.131 101.396 146.677 100.72 146.007C100.044 145.337 99.5825 144.481 99.3932 143.549C99.2039 142.616 99.2956 141.648 99.6566 140.768C100.018 139.888 100.632 139.134 101.421 138.603C102.211 138.072 103.14 137.787 104.092 137.784C105.364 137.784 106.584 138.286 107.487 139.182C108.39 140.077 108.903 141.293 108.914 142.565Z" fill="#FAFAFA"/>
<path d="M86.2378 59.8947C86.2378 59.8947 88.6284 84.1002 89.9124 97.1455C90.0097 97.5502 90.0211 97.9708 89.9458 98.3802C89.8705 98.7896 89.7102 99.1787 89.4753 99.5223C89.0594 99.8634 88.5268 100.029 87.991 99.9827C87.4551 99.9367 86.9584 99.6833 86.6067 99.2765C85.8992 98.4477 85.4777 97.4131 85.4046 96.3259C84.5303 87.8977 82.6726 71.9018 81.9486 61.1241C81.9486 61.1924 84.8172 59.5258 86.2378 59.8947Z" fill="#263238"/>
<path d="M120.046 59.8947C120.046 59.8947 117.656 84.1002 116.372 97.1455C116.275 97.5502 116.263 97.9708 116.338 98.3802C116.414 98.7896 116.574 99.1787 116.809 99.5223C117.225 99.8634 117.757 100.029 118.293 99.9827C118.829 99.9367 119.326 99.6833 119.678 99.2765C120.389 98.449 120.815 97.4144 120.893 96.3259C121.754 87.8977 123.625 71.9018 124.336 61.1241C124.295 61.1924 121.412 59.5258 120.046 59.8947Z" fill="#263238"/>
<path d="M89.8032 97.9514C89.8032 97.9514 90.3359 98.3339 90.1584 99.2355C90.0503 99.7522 89.7469 100.207 89.3115 100.506C89.0375 100.678 88.7305 100.789 88.4103 100.834C88.0902 100.879 87.7642 100.855 87.4537 100.765C86.8396 100.598 86.3033 100.221 85.9374 99.6999C85.6575 99.294 85.4837 98.8243 85.432 98.3339C85.3501 97.5143 85.5686 96.9679 85.6506 97.0499C85.7325 97.1318 85.7325 97.5416 85.9238 98.2383C86.0219 98.6698 86.2311 99.0683 86.5306 99.3941C86.8301 99.72 87.2095 99.9619 87.6313 100.096C87.8568 100.164 88.0935 100.187 88.3279 100.164C88.5623 100.141 88.7898 100.071 88.9973 99.9595C89.3268 99.7601 89.5813 99.4576 89.7213 99.0989C89.9945 98.4568 89.6939 98.0744 89.8032 97.9514Z" fill="#455A64"/>
<path d="M87.6176 97.1591C87.6176 97.2547 87.522 97.4323 87.6176 97.7191C87.7132 98.006 87.8908 98.2655 88.2323 98.088C88.5738 97.9104 88.5192 97.6099 88.2323 97.3776C87.9455 97.1454 87.7952 97.1727 87.7542 97.0771C87.7132 96.9815 88.0001 96.7356 88.4919 96.9542C88.6386 97.0217 88.7665 97.1243 88.8642 97.2529C88.9618 97.3816 89.0263 97.5323 89.0519 97.6918C89.0779 97.9032 89.0364 98.1175 88.9333 98.3039C88.8303 98.4903 88.671 98.6394 88.4782 98.73C88.2904 98.8277 88.0773 98.8657 87.8673 98.8388C87.6573 98.8119 87.4606 98.7215 87.3034 98.5797C87.1886 98.4658 87.1046 98.3245 87.0592 98.1692C87.0138 98.014 87.0085 97.8497 87.0439 97.6918C87.2625 97.1591 87.5903 97.0771 87.6176 97.1591Z" fill="#455A64"/>
<path d="M120.579 97.1457C120.661 97.1457 120.894 97.7058 120.798 98.6893C120.737 99.2857 120.52 99.8556 120.17 100.342C119.936 100.644 119.641 100.894 119.305 101.075C118.968 101.256 118.597 101.365 118.216 101.394C117.818 101.42 117.421 101.331 117.072 101.137C116.723 100.943 116.437 100.653 116.249 100.301C115.961 99.7711 115.837 99.1671 115.894 98.5663C115.99 97.5965 116.222 97.0637 116.304 97.0774C116.386 97.0911 116.304 97.6784 116.4 98.5663C116.419 99.0489 116.56 99.5188 116.809 99.9323C116.948 100.168 117.149 100.36 117.39 100.488C117.631 100.615 117.903 100.674 118.175 100.656C118.75 100.607 119.283 100.338 119.664 99.905C119.976 99.5021 120.195 99.0358 120.306 98.539C120.511 97.7467 120.47 97.1594 120.579 97.1457Z" fill="#455A64"/>
<path d="M118.175 98.0745C118.175 98.1701 118.079 98.3067 118.175 98.5252C118.27 98.7438 118.298 98.8531 118.516 98.7848C118.735 98.7165 118.749 98.5662 118.626 98.3613C118.503 98.1564 118.325 98.1564 118.284 98.0608C118.243 97.9652 118.503 97.7466 118.912 97.9515C119.038 98.0143 119.145 98.1094 119.222 98.227C119.298 98.3446 119.343 98.4806 119.35 98.6209C119.358 98.8052 119.305 98.987 119.198 99.1378C119.092 99.2886 118.939 99.3999 118.762 99.4541C118.589 99.5228 118.398 99.5332 118.218 99.484C118.038 99.4347 117.879 99.3283 117.765 99.1809C117.687 99.0657 117.639 98.9332 117.625 98.795C117.611 98.6569 117.631 98.5173 117.683 98.3886C117.806 97.9379 118.161 97.9515 118.175 98.0745Z" fill="#455A64"/>
<path d="M117.984 113.414C117.984 113.414 117.643 113.66 116.96 113.961C116.004 114.383 115.024 114.743 114.023 115.04C107.324 117.034 100.178 116.943 93.5326 114.78C92.54 114.458 91.5683 114.075 90.6231 113.633C89.9537 113.305 89.5985 113.114 89.6259 113.073C89.6532 113.032 91.1694 113.592 93.7239 114.302C100.302 116.15 107.251 116.235 113.872 114.548C116.413 113.906 117.929 113.305 117.984 113.414Z" fill="#455A64"/>
<path d="M76.6349 92.1597C75.7132 94.0147 74.9102 95.9264 74.2307 97.8832C73.7799 99.9054 73.4559 101.954 73.2609 104.017C72.7416 101.925 72.8413 99.7278 73.5477 97.692C74.0259 95.5903 75.0974 93.6702 76.6349 92.1597Z" fill="#263238"/>
<path d="M61.1856 104.904C61.1378 105.242 61.0363 105.569 60.8851 105.874C60.5011 106.723 60.0441 107.536 59.5191 108.306C57.7795 110.861 55.3949 112.911 52.6072 114.248C51.0788 114.962 49.4685 115.485 47.8125 115.805C46.5074 116.084 45.2476 116.544 44.0697 117.171C43.0013 117.777 42.111 118.653 41.4879 119.712C41.4879 119.712 41.4879 119.329 41.8158 118.742C42.3049 117.927 42.9845 117.242 43.7965 116.748C44.9899 116.019 46.2895 115.479 47.6486 115.149C49.2539 114.797 50.8158 114.27 52.3066 113.579C54.9944 112.285 57.3356 110.369 59.1366 107.992C60.5026 106.161 61.0627 104.822 61.1856 104.904Z" fill="#263238"/>
<path d="M50.7493 115.054C51.2431 114.43 51.6992 113.778 52.1153 113.1C52.5375 112.269 52.7655 111.353 52.782 110.42C52.7986 109.488 52.6033 108.564 52.2109 107.718L52.088 107.472L52.6344 107.554C51.3178 108.83 50.5363 110.559 50.4488 112.39C50.3668 113.756 50.6673 114.658 50.5444 114.685C50.1057 113.998 49.8953 113.19 49.9434 112.376C49.9231 111.382 50.1092 110.393 50.4901 109.474C50.871 108.555 51.4383 107.724 52.1563 107.035L52.4978 106.708L52.7027 107.117L52.8393 107.391C53.2884 108.329 53.4974 109.365 53.4473 110.405C53.3972 111.444 53.0897 112.455 52.5524 113.346C51.7465 114.699 50.763 115.108 50.7493 115.054Z" fill="#263238"/>
<path d="M55.1342 112.39C55.7927 111.895 56.607 111.653 57.429 111.707C58.4265 111.683 59.4154 111.897 60.3134 112.332C61.2115 112.766 61.9928 113.409 62.5925 114.207L62.7428 114.398L63.0433 114.808L62.5379 114.944C61.6065 115.188 60.6358 115.242 59.6832 115.103C58.7306 114.965 57.8155 114.637 56.9919 114.138C55.7488 113.373 55.2707 112.568 55.339 112.527C55.4073 112.486 56.0084 113.1 57.2378 113.701C58.8174 114.499 60.634 114.694 62.3466 114.248L62.1554 114.794L62.0188 114.617C61.473 113.908 60.78 113.326 59.9877 112.911C59.1953 112.496 58.3224 112.258 57.429 112.212C56.6615 112.231 55.8955 112.291 55.1342 112.39Z" fill="#263238"/>
<path d="M58.795 108.702C58.795 108.702 59.1639 107.787 60.4616 106.994C61.3197 106.486 62.2866 106.19 63.282 106.131C64.2774 106.072 65.2727 106.25 66.1851 106.653L66.4173 106.762L66.8681 106.967L66.4993 107.322C65.8067 107.991 64.9865 108.513 64.0876 108.858C63.1888 109.203 62.2297 109.364 61.2675 109.33C60.476 109.371 59.6919 109.161 59.0273 108.729C59.0273 108.62 59.9015 108.907 61.2675 108.838C63.0352 108.757 64.7138 108.039 65.9939 106.817L66.0895 107.39L65.8982 107.308C65.0746 106.955 64.184 106.784 63.2879 106.807C62.3917 106.831 61.5114 107.049 60.7074 107.445C60.0477 107.829 59.4093 108.249 58.795 108.702Z" fill="#263238"/>
<path d="M46.2826 115.832C46.9807 115.391 47.8184 115.225 48.6321 115.368C49.625 115.435 50.5876 115.738 51.4404 116.251C52.2931 116.764 53.0115 117.473 53.536 118.319L53.6727 118.537L53.9322 118.961L53.4131 119.056C52.4573 119.204 51.4815 119.16 50.5431 118.925C49.6048 118.691 48.7228 118.271 47.9491 117.69C46.788 116.802 46.3919 115.969 46.4465 115.928C46.5012 115.887 47.0749 116.556 48.236 117.294C49.7406 118.225 51.5295 118.583 53.2765 118.305L53.0306 118.824L52.9214 118.646C52.4413 117.889 51.8034 117.245 51.0514 116.757C50.2994 116.269 49.4508 115.949 48.5638 115.819C47.8037 115.783 47.0422 115.787 46.2826 115.832Z" fill="#263238"/>
</svg>
