<svg width="340" height="283" viewBox="0 0 340 283" fill="none" xmlns="http://www.w3.org/2000/svg">
<path d="M306.853 41.1189H18.1139C8.10988 41.1189 0 49.2288 0 59.2328V264.353C0 274.358 8.10988 282.467 18.1139 282.467H306.853C316.857 282.467 324.967 274.358 324.967 264.353V59.2328C324.967 49.2288 316.857 41.1189 306.853 41.1189Z" fill="white"/>
<path d="M15.3631 41.1188H307.718C312.48 41.1188 317.047 43.0106 320.414 46.3779C323.782 49.7453 325.674 54.3123 325.674 59.0745V83.4212H0.64559V55.7755C0.639097 53.8438 1.01579 51.93 1.75387 50.1449C2.49196 48.3597 3.57676 46.7387 4.94552 45.3756C6.31427 44.0125 7.93978 42.9345 9.72796 42.2038C11.5161 41.4731 13.4315 41.1043 15.3631 41.1188Z" fill="#E0E0E0"/>
<path d="M24.9559 60.9489C24.9559 61.8951 24.6754 62.8201 24.1497 63.6068C23.624 64.3936 22.8768 65.0068 22.0026 65.3689C21.1284 65.731 20.1665 65.8257 19.2385 65.6411C18.3105 65.4565 17.458 65.0009 16.7889 64.3318C16.1199 63.6627 15.6642 62.8103 15.4796 61.8823C15.295 60.9542 15.3898 59.9923 15.7519 59.1181C16.114 58.2439 16.7272 57.4967 17.5139 56.9711C18.3006 56.4454 19.2256 56.1648 20.1718 56.1648C21.4407 56.1648 22.6575 56.6688 23.5547 57.566C24.4519 58.4632 24.9559 59.6801 24.9559 60.9489Z" fill="white"/>
<path d="M39.3568 60.9489C39.3568 61.8951 39.0762 62.8201 38.5505 63.6068C38.0249 64.3936 37.2777 65.0068 36.4035 65.3689C35.5293 65.731 34.5674 65.8257 33.6394 65.6411C32.7113 65.4565 31.8589 65.0009 31.1898 64.3318C30.5207 63.6627 30.0651 62.8103 29.8805 61.8823C29.6959 60.9542 29.7906 59.9923 30.1527 59.1181C30.5148 58.2439 31.128 57.4967 31.9148 56.9711C32.7015 56.4454 33.6265 56.1648 34.5727 56.1648C35.8415 56.1648 37.0584 56.6688 37.9556 57.566C38.8528 58.4632 39.3568 59.6801 39.3568 60.9489Z" fill="white"/>
<path d="M53.7699 60.9489C53.7699 61.8951 53.4893 62.8201 52.9636 63.6068C52.4379 64.3936 51.6908 65.0068 50.8166 65.3689C49.9424 65.731 48.9805 65.8257 48.0524 65.6411C47.1244 65.4565 46.272 65.0009 45.6029 64.3318C44.9338 63.6627 44.4782 62.8103 44.2936 61.8823C44.109 60.9542 44.2037 59.9923 44.5658 59.1181C44.9279 58.2439 45.5411 57.4967 46.3279 56.9711C47.1146 56.4454 48.0396 56.1648 48.9858 56.1648C50.2546 56.1648 51.4715 56.6688 52.3687 57.566C53.2659 58.4632 53.7699 59.6801 53.7699 60.9489Z" fill="white"/>
<path d="M307.621 282.479L308.339 282.418C309.046 282.402 309.75 282.329 310.445 282.199C314.068 281.613 317.428 279.94 320.078 277.4C322.728 274.861 324.544 271.576 325.284 267.981C325.65 265.124 325.764 262.24 325.625 259.362C325.625 256.27 325.625 252.971 325.625 249.49C325.625 221.588 325.625 181.222 325.528 131.347C325.528 118.882 325.528 105.836 325.528 92.2101C325.528 85.4093 325.528 78.4665 325.528 71.3816V60.669C325.585 58.8803 325.434 57.0909 325.077 55.3371C324.27 51.7882 322.407 48.5669 319.733 46.0976C318.392 44.8498 316.859 43.8262 315.192 43.0664C313.519 42.2788 311.732 41.7612 309.897 41.5326C308.026 41.3858 306.149 41.337 304.273 41.3865H281.144H232.962H18.4187H16.5927C16.0084 41.3865 15.3754 41.3865 14.8397 41.4839C13.6825 41.6247 12.5437 41.89 11.4434 42.2751C9.24536 43.0377 7.24778 44.2864 5.59951 45.9284C3.95124 47.5703 2.6948 49.5631 1.92384 51.7582C1.53301 52.8485 1.26755 53.9798 1.13257 55.1302C1.02452 56.2874 0.983879 57.4499 1.01084 58.6118V86.6104C1.01084 105.154 1.01084 123.414 1.01084 141.39C1.01084 177.277 1.01084 211.898 1.01084 244.864V263.221C1.01084 264.244 1.01084 265.23 1.10822 266.216L1.32734 267.689C1.41256 268.176 1.57081 268.65 1.68037 269.125C2.74385 272.945 5.05329 276.3 8.2418 278.657C9.81033 279.813 11.5525 280.713 13.4033 281.323C15.2556 281.88 17.1784 282.167 19.1126 282.175H64.5556H146.117L264.198 282.272H296.312H304.662H307.511H304.662H296.312H264.198L146.117 282.37H64.5556L19.1126 282.698C17.1206 282.692 15.1401 282.397 13.2329 281.822C10.3465 280.882 7.73387 279.25 5.62268 277.069C3.51149 274.888 1.96583 272.223 1.1204 269.308C1.01084 268.809 0.852586 268.322 0.767372 267.81L0.536081 266.301C0.475214 265.278 0.414347 264.256 0.426521 263.245V244.888C0.426521 211.911 0.426521 177.29 0.426521 141.415V58.7091C0.400593 57.5229 0.441233 56.3362 0.548252 55.1545C0.688313 53.9619 0.966094 52.7895 1.37604 51.6608C2.17477 49.3756 3.47987 47.3006 5.19372 45.5909C6.90757 43.8813 8.98579 42.5813 11.273 41.7882C12.4179 41.3935 13.6012 41.1201 14.8032 40.9726C15.3997 40.9117 16.0206 40.9117 16.6049 40.8752H18.3944H232.937H304.2C306.096 40.8247 307.994 40.8775 309.885 41.0335C311.77 41.2652 313.607 41.7952 315.326 42.6038C317.045 43.3901 318.624 44.4509 320.001 45.7445C321.384 46.9998 322.559 48.4667 323.482 50.0904C324.413 51.6931 325.091 53.43 325.491 55.2397C325.858 57.0291 326.009 58.8559 325.941 60.6812V71.3938C325.941 78.4624 325.941 85.4053 325.941 92.2223C325.941 105.832 325.941 118.878 325.941 131.36C325.941 181.27 325.868 221.601 325.844 249.502C325.844 252.983 325.844 256.282 325.844 259.374C325.973 262.265 325.843 265.162 325.455 268.03C324.516 272.533 321.906 276.513 318.151 279.168C315.865 280.793 313.23 281.856 310.457 282.272C309.757 282.391 309.049 282.456 308.339 282.467L307.621 282.479Z" fill="#263238"/>
<path d="M120.833 20.5581C116.816 18.0016 115.842 12.0367 118.021 7.82473C120.2 3.61276 124.838 1.00767 129.537 0.25292C132.961 -0.271913 136.461 0.0226537 139.749 1.11244C143.038 2.20223 146.021 4.0562 148.454 6.5222C151.047 9.18816 153.153 12.6819 156.683 13.9114C159.775 14.9827 163.208 14.0088 166.422 14.4349C170.78 15.007 174.517 18.0869 176.757 21.8849C178.829 25.7754 180.073 30.0529 180.409 34.4478C180.884 38.4529 181.2 42.8596 183.976 45.7812C186.751 48.7028 190.976 49.2384 194.348 51.2592C197.443 53.2983 199.617 56.4683 200.404 60.0905C201.192 63.7127 200.529 67.4991 198.56 70.6391C197.22 72.5869 195.309 74.3642 195.151 76.7258C195.005 78.8683 196.368 80.7917 197.05 82.8125C198.73 88.0957 194.396 94.3771 188.857 94.6936C186.058 94.8519 183.063 93.7685 180.567 95.0223C178.072 96.2762 177.147 99.2586 175.552 101.547C173.917 103.754 171.574 105.331 168.914 106.016C166.255 106.701 163.441 106.451 160.944 105.309C158.887 104.298 156.939 102.643 154.663 102.789C152.386 102.935 150.584 104.895 148.332 105.333C145.399 105.893 142.611 103.726 140.858 101.304C139.105 98.8813 137.9 96.0083 135.66 93.9997C132.738 91.3947 128.624 90.7495 124.923 89.4713C120.818 88.059 117.064 85.7814 113.916 82.7927C110.767 79.804 108.298 76.1739 106.674 72.148C105.05 68.1221 104.309 63.7943 104.503 59.4575C104.696 55.1207 105.819 50.876 107.795 47.0107" fill="#263238"/>
<path d="M163.439 73.2077C164.345 72.2402 165.467 71.5017 166.714 71.053H166.41C166.641 70.9938 166.877 70.9531 167.116 70.9313C167.539 70.8081 167.983 70.7726 168.42 70.827C168.858 70.8814 169.28 71.0246 169.66 71.2478C171.086 71.7547 172.268 72.7806 172.971 74.1207C173.518 75.3099 173.728 76.626 173.58 77.9264C173.432 79.2268 172.931 80.4619 172.131 81.4977C171.55 82.4375 170.697 83.1794 169.687 83.6261C168.676 84.0728 167.554 84.2033 166.467 84.0005C165.381 83.7977 164.381 83.2711 163.6 82.4899C162.818 81.7086 162.291 80.7093 162.088 79.623C161.756 78.5263 161.706 77.3636 161.942 76.2423C162.178 75.121 162.693 74.0773 163.439 73.2077Z" fill="#455A64"/>
<path d="M110.059 111.383L106.029 37.4789C105.948 35.8111 106.495 34.1735 107.564 32.8906C108.633 31.6077 110.145 30.7731 111.8 30.5523L146.932 20.6066C158.229 19.085 166.154 32.78 167.188 44.1742C168.406 56.7736 169.258 72.1729 168.028 81.6803C165.594 100.719 149.963 103.592 149.963 103.592C149.963 103.592 149.854 108.389 149.963 115.279L142.793 138.688L110.059 111.383Z" fill="#FFBF9D"/>
<path d="M162.282 60.2916C162.306 60.9254 162.081 61.5433 161.656 62.0139C161.231 62.4845 160.639 62.7707 160.006 62.8115C159.697 62.845 159.385 62.816 159.088 62.7262C158.79 62.6364 158.514 62.4877 158.276 62.2889C158.037 62.0901 157.841 61.8453 157.699 61.5691C157.557 61.2928 157.472 60.9908 157.449 60.6811C157.426 60.0493 157.649 59.4331 158.071 58.9628C158.494 58.4925 159.083 58.2051 159.714 58.1612C160.023 58.1277 160.336 58.1566 160.634 58.2463C160.932 58.3359 161.209 58.4845 161.449 58.6832C161.688 58.8818 161.885 59.1265 162.029 59.4028C162.172 59.6791 162.258 59.9813 162.282 60.2916Z" fill="#263238"/>
<path d="M164.06 52.3058C163.768 52.6223 161.881 51.3198 159.264 51.3928C156.647 51.4658 154.772 52.8415 154.48 52.5249C154.188 52.2084 154.626 51.8067 155.442 51.1737C156.554 50.3636 157.888 49.9133 159.264 49.8833C160.623 49.8406 161.961 50.2283 163.086 50.9911C163.975 51.5876 164.194 52.1597 164.06 52.3058Z" fill="#263238"/>
<path d="M139.117 60.6569C139.141 61.2907 138.916 61.9086 138.491 62.3793C138.066 62.8499 137.474 63.1361 136.841 63.1768C136.532 63.2104 136.22 63.1819 135.923 63.093C135.626 63.0041 135.349 62.8566 135.11 62.6592C134.871 62.4618 134.673 62.2185 134.529 61.9436C134.385 61.6687 134.298 61.3678 134.272 61.0587C134.249 60.4249 134.473 59.807 134.899 59.3363C135.324 58.8657 135.916 58.5796 136.549 58.5388C136.857 58.5069 137.168 58.5366 137.465 58.6262C137.761 58.7157 138.037 58.8633 138.276 59.0604C138.515 59.2575 138.713 59.5001 138.857 59.7742C139.001 60.0483 139.09 60.3484 139.117 60.6569Z" fill="#263238"/>
<path d="M138.411 53.5233C138.119 53.8398 136.232 52.5373 133.627 52.6225C131.022 52.7077 129.135 54.059 128.843 53.7425C128.551 53.426 128.977 53.0242 129.805 52.4034C130.912 51.5819 132.248 51.1265 133.627 51.1008C134.986 51.0581 136.324 51.4458 137.45 52.2086C138.216 52.8051 138.509 53.3772 138.411 53.5233Z" fill="#263238"/>
<path d="M148.406 72.6477C149.772 72.1781 151.191 71.8796 152.63 71.759C153.299 71.6738 153.92 71.5155 154.03 71.0651C154.061 70.3713 153.883 69.6841 153.519 69.093L151.4 64.0654C148.454 56.9075 146.3 51.0034 146.592 50.8939C146.884 50.7843 149.501 56.4815 152.447 63.6516C153.166 65.4167 153.847 67.0966 154.492 68.7035C154.932 69.5007 155.078 70.4268 154.906 71.3207C154.815 71.559 154.672 71.7736 154.486 71.9486C154.301 72.1236 154.078 72.2543 153.835 72.3311C153.471 72.4386 153.095 72.4999 152.715 72.5137C151.29 72.7377 149.842 72.7827 148.406 72.6477Z" fill="#263238"/>
<path d="M149.951 103.592C141.396 103.903 132.928 101.793 125.519 97.5054C125.519 97.5054 131.009 111.602 149.866 109.289L149.951 103.592Z" fill="#FF9A6C"/>
<path d="M148.15 78.8681C147.537 78.0215 146.726 77.3374 145.788 76.8749C144.851 76.4125 143.814 76.1857 142.769 76.2143C142.087 76.2391 141.42 76.4321 140.83 76.7761C140.24 77.1201 139.743 77.6045 139.385 78.1864C138.983 78.8557 138.794 79.632 138.845 80.4113C138.896 81.1907 139.183 81.936 139.669 82.5475C140.155 83.159 140.816 83.6077 141.563 83.8334C142.311 84.059 143.11 84.0511 143.853 83.8105C145.292 83.3141 146.59 82.4791 147.639 81.3758C147.971 81.0983 148.24 80.7541 148.43 80.3654C148.523 80.1534 148.56 79.9208 148.537 79.6904C148.513 79.4599 148.43 79.2395 148.296 79.0507" fill="#FF9A6C"/>
<path d="M140.76 74.6684C141.186 74.6684 141.271 77.4683 143.755 79.416C146.238 81.3637 149.257 80.962 149.294 81.3637C149.294 81.5463 148.636 81.9359 147.358 82.0089C145.697 82.0734 144.065 81.5568 142.744 80.5481C141.476 79.5714 140.638 78.1394 140.407 76.5553C140.273 75.3744 140.565 74.6562 140.76 74.6684Z" fill="#263238"/>
<path d="M139.214 42.7257C138.971 43.4439 136.353 43.1761 133.298 43.6387C130.242 44.1012 127.783 45.0021 127.357 44.3691C127.163 44.0769 127.577 43.3952 128.575 42.677C129.879 41.7801 131.376 41.2045 132.945 40.9971C134.51 40.7722 136.106 40.9139 137.607 41.411C138.727 41.837 139.312 42.3848 139.214 42.7257Z" fill="#263238"/>
<path d="M162.879 43.3343C162.441 43.9308 160.615 43.3343 158.448 43.4073C156.281 43.4804 154.455 43.9186 154.017 43.31C153.822 43.0056 154.102 42.4091 154.881 41.8248C155.933 41.1015 157.184 40.7229 158.46 40.7414C159.733 40.7338 160.978 41.1161 162.027 41.837C162.757 42.4335 163.074 43.03 162.879 43.3343Z" fill="#263238"/>
<path d="M179.958 40.1936C179.167 37.2949 177.4 34.758 174.955 33.0113C173.592 32.1226 172.009 31.587 170.731 30.5766C167.992 28.3611 167.359 24.4899 165.667 21.4344C164.565 19.4362 163.001 17.7306 161.106 16.4599C159.21 15.1893 157.039 14.3906 154.772 14.1304C151.01 13.7531 147.151 14.873 143.487 13.96C140.785 13.2783 138.411 11.5253 135.672 10.9897C130.34 9.97933 125.373 13.8139 121.502 17.6242C121.502 21.4466 124.533 24.003 127.467 26.4499C128.943 27.6706 130.666 28.5565 132.518 29.0462C134.369 29.5359 136.305 29.6178 138.192 29.2862C141.113 28.7506 144.278 27.2776 146.835 28.8358C149.391 30.394 149.598 34.4721 151.947 36.5172C155.319 39.4388 160.664 36.6876 164.936 37.9658C168.235 38.9397 170.293 42.0926 172.484 44.7464C174.675 47.4002 177.962 49.9201 181.261 48.9462C181.162 45.9885 180.725 43.0519 179.958 40.1936Z" fill="#263238"/>
<path d="M139.872 24.0395C137.437 23.3578 132.568 21.7996 131.351 19.7302C128.563 15.2138 123.645 12.1462 118.629 12.4262C116.029 12.6282 113.565 13.6674 111.605 15.388C109.645 17.1086 108.296 19.418 107.759 21.9701C104.637 22.0814 101.604 23.0323 98.9772 24.7226C96.3508 26.4129 94.2286 28.78 92.8341 31.5748C92.468 32.2952 92.1508 33.0395 91.8846 33.8025C90.9415 35.4763 90.3745 37.3356 90.2231 39.2508C90.0718 41.1661 90.3396 43.0913 91.0081 44.8924C91.8359 47.0471 93.2359 49.4574 92.1281 51.4904C91.0203 53.5233 88.1352 53.6207 85.9075 54.3876C83.9957 55.1115 82.3976 56.4816 81.3904 58.2604C80.3831 60.0393 80.0303 62.1146 80.393 64.1263C80.6973 65.5628 81.379 66.9992 81.0869 68.4478C80.7947 69.8965 79.4922 71.0042 78.5061 72.1729C77.28 73.6364 76.4576 75.3949 76.1204 77.2742C75.7833 79.1534 75.9431 81.0882 76.584 82.8867C77.2249 84.6851 78.3246 86.2849 79.7743 87.5274C81.2239 88.7699 82.9731 89.612 84.8484 89.9703C86.5405 90.2868 88.3909 90.2137 89.8638 91.1146C91.5559 92.1615 92.2985 94.1945 93.5158 95.777C94.6909 97.282 96.2965 98.3933 98.1189 98.9631C99.9413 99.5329 101.894 99.534 103.717 98.9664C104.44 98.7147 105.127 98.371 105.762 97.9438C106.907 99.5264 108.696 100.585 111.752 100.585L111.045 60.6325C111.268 61.1219 111.606 61.5501 112.03 61.8807C112.454 62.2114 112.951 62.4347 113.48 62.5316C119.895 63.9802 120.784 50.7722 119.409 47.181C121.826 45.2076 123.986 42.9377 125.836 40.4248C127.613 37.8076 129.172 30.6862 128.794 27.4481C131.107 27.5941 140.919 24.3439 139.872 24.0395Z" fill="#263238"/>
<path d="M112.847 63.8829C112.652 59.8292 107.673 58.9527 104.155 60.9856C102.232 62.1056 100.747 64.3576 100.929 68.667C101.404 80.1586 112.847 77.3101 112.847 76.9814C112.847 76.6527 113.042 68.6427 112.847 63.8829Z" fill="#FFBF9D"/>
<path d="M109.11 72.7693C109.11 72.7693 108.915 72.9276 108.586 73.0858C108.118 73.3105 107.582 73.3454 107.089 73.1833C105.872 72.7815 104.752 70.9068 104.654 68.8252C104.581 67.8428 104.731 66.8566 105.092 65.9401C105.186 65.5784 105.366 65.2447 105.616 64.9671C105.866 64.6895 106.179 64.4763 106.529 64.3454C106.758 64.2695 107.007 64.2781 107.23 64.3697C107.453 64.4612 107.636 64.6297 107.746 64.8445C107.917 65.161 107.856 65.3923 107.917 65.4045C107.978 65.4167 108.16 65.1975 108.038 64.735C107.97 64.4502 107.802 64.1995 107.564 64.0289C107.235 63.8084 106.834 63.7214 106.444 63.7854C105.958 63.8819 105.506 64.1049 105.134 64.4319C104.762 64.759 104.483 65.1785 104.326 65.648C103.88 66.6661 103.687 67.7772 103.766 68.886C103.936 71.199 105.202 73.3171 106.894 73.7554C107.205 73.8322 107.53 73.8382 107.844 73.7729C108.158 73.7076 108.453 73.5726 108.708 73.378C109.097 73.0493 109.195 72.7937 109.11 72.7693Z" fill="#FF9A6C"/>
<path d="M124.046 20.972C123.143 21.4298 122.356 22.0876 121.745 22.8954C120.613 24.4536 120.175 27.4604 120.906 30.8446V31.1367L120.613 31.1976C118.961 31.6436 117.434 32.4642 116.151 33.5958C114.867 34.7274 113.862 36.1395 113.212 37.7225C112.855 38.6193 112.654 39.5702 112.615 40.5345C112.645 41.5539 112.767 42.5686 112.981 43.5657C113.199 44.6464 113.345 45.7403 113.419 46.8403C113.496 48.042 113.175 49.2357 112.506 50.2367C111.069 52.4157 108.769 53.487 106.797 54.5217C104.837 55.3808 103.035 56.5617 101.465 58.0154C98.8596 60.5667 97.3232 64.0138 97.1675 67.6567C97.0802 70.1105 97.5986 72.5479 98.677 74.7538C99.4439 76.3241 100.089 77.0789 100.016 77.1884C99.8334 77.0341 99.6699 76.8584 99.5291 76.665C99.0994 76.1335 98.7204 75.5629 98.397 74.9607C97.1643 72.727 96.5428 70.2075 96.5954 67.6567C96.6762 63.8438 98.2292 60.21 100.929 57.5163C102.545 55.998 104.405 54.7633 106.431 53.8643C108.416 52.8296 110.583 51.7583 111.824 49.8471C113.066 47.9359 112.53 45.8178 112.189 43.7605C111.974 42.7105 111.856 41.6428 111.836 40.5711C111.879 39.5172 112.105 38.4789 112.506 37.5034C113.206 35.8182 114.293 34.3211 115.678 33.1328C117.063 31.9445 118.707 31.0981 120.479 30.662L120.26 31.0272C119.579 27.4847 120.114 24.3683 121.478 22.7371C121.952 22.1122 122.57 21.611 123.279 21.2763C123.803 20.972 124.034 20.8989 124.046 20.972Z" fill="#455A64"/>
<path d="M104.812 77.0788C105.718 76.1113 106.84 75.3728 108.087 74.9241H107.831C108.064 74.8708 108.3 74.8301 108.537 74.8024C108.963 74.6824 109.409 74.6486 109.848 74.7029C110.287 74.7573 110.71 74.8987 111.094 75.1189C112.512 75.6346 113.687 76.6584 114.393 77.9918C114.942 79.1804 115.154 80.497 115.006 81.798C114.858 83.0989 114.355 84.3342 113.553 85.3689C112.974 86.3101 112.123 87.0538 111.113 87.5016C110.102 87.9495 108.98 88.0805 107.893 87.8775C106.807 87.6745 105.808 87.1469 105.027 86.3644C104.247 85.5818 103.722 84.5811 103.522 83.4941C103.178 82.4028 103.117 81.2422 103.342 80.1205C103.568 78.9988 104.074 77.9524 104.812 77.0788Z" fill="#455A64"/>
<path d="M280.62 123.618C280.62 123.618 289.64 111.237 292.793 110.86C295.946 110.483 315.922 111.237 318.71 110.86C321.498 110.483 337.262 103.556 337.262 103.556C337.262 103.556 340.062 104.542 339.697 107.208C339.332 109.874 321.875 119.71 319.793 120.075C317.712 120.44 300.888 121.743 300.888 121.743L290.699 137.751L280.62 123.618Z" fill="#FFBF9D"/>
<path d="M281.728 119.673L243.637 157.216L189.539 123.362C186.496 121.466 183.053 120.308 179.484 119.977L158.253 117.798L149.732 109.849L142.805 132.699L108.72 106.465L102.426 118.358L79.7476 129.229L101.489 236.075C101.489 236.075 101.355 237.742 96.6928 250.877C95.3051 254.809 90.034 274.177 90.947 282.151L149.769 282.65L210.891 282.345L199.935 245.424L193.447 216.889C195.09 181.928 195.881 176.328 194.226 167.733C194.226 167.733 229.711 188.55 247.228 190.546C249.967 190.863 257.576 187.211 261.167 182.987C275.568 166.054 300.316 135.669 300.316 135.669L281.728 119.673Z" fill="#FF725E"/>
<path d="M92.3715 182.658L83.1563 216.658L145.24 249.672L133.335 274.177L59.8809 244.961C55.773 243.396 52.2225 240.646 49.6796 237.061C46.758 232.812 44.5668 227.699 47.4641 218.253L63.2894 158.944C64.2998 155.183 66.0163 149.206 67.7692 144.336C69.3512 139.714 72.0725 135.565 75.6819 132.273C76.9494 131.135 78.3185 130.116 79.7721 129.229" fill="#FF725E"/>
<path d="M79.7475 129.193L79.0171 129.692C78.5301 130.02 77.7997 130.52 76.9354 131.226C74.3596 133.304 72.1819 135.833 70.5079 138.688C68.2558 142.34 66.8559 147.416 65.0542 153.211C63.2526 159.005 61.7188 165.737 59.7102 173.138L53.307 197.29C52.1627 201.624 50.9738 206.108 49.7402 210.742C49.1315 213.055 48.5107 215.4 47.8777 217.778C47.1106 220.148 46.6244 222.599 46.429 225.082C46.2341 227.601 46.5957 230.132 47.4881 232.496C48.4683 234.902 49.8561 237.122 51.5905 239.057C53.4125 241.024 55.5784 242.641 57.9815 243.829C59.1989 244.45 60.4162 244.925 61.7674 245.448L65.6507 246.994L97.9101 259.813L133.444 273.946L133.067 274.092C137.181 265.57 141.15 257.439 144.948 249.636L145.07 249.989L83.0708 216.889L82.949 216.828V216.682L89.8148 191.642L91.6652 185.007C91.8843 184.265 92.0425 183.705 92.1521 183.303C92.2616 182.901 92.3347 182.731 92.3347 182.731C92.3347 182.731 92.3347 182.926 92.2008 183.315C92.0669 183.705 91.9573 184.289 91.7625 185.032C91.3608 186.553 90.7765 188.793 90.0096 191.691L83.3021 216.78L83.2169 216.573L145.301 249.514L145.532 249.636L145.423 249.867L133.566 274.335L133.444 274.579L133.188 274.481L97.6544 260.36L65.3951 247.53L61.4996 245.984C60.2823 245.46 58.9067 244.985 57.665 244.34C55.2084 243.122 52.9902 241.472 51.1158 239.471C50.2059 238.478 49.3908 237.402 48.6811 236.257C47.9704 235.14 47.3672 233.958 46.8795 232.727C45.9678 230.287 45.5981 227.679 45.796 225.082C46.004 222.579 46.4982 220.108 47.269 217.717C47.902 215.343 48.4863 212.994 49.1559 210.693C50.3894 206.067 51.6068 201.583 52.8079 197.242C55.133 188.574 57.2998 180.491 59.2841 173.114C61.2683 165.737 62.9361 159.054 64.7134 153.223C66.4907 147.392 67.988 142.352 70.2888 138.676C71.9989 135.817 74.2235 133.299 76.8502 131.25C77.7536 130.48 78.7231 129.792 79.7475 129.193Z" fill="#263238"/>
<path d="M208.42 268.091L190.756 259.57L156.269 256.831L144.68 250.805L136.719 267.847C136.719 267.847 154.236 278.402 158.972 278.803L187.968 277.927L203.124 279.522L208.42 268.091Z" fill="#FFBF9D"/>
<path d="M95.5002 177.691C95.3785 177.691 95.902 175.403 96.1211 171.702C96.2432 169.528 96.2107 167.347 96.0237 165.177C95.7706 162.528 95.3107 159.903 94.6481 157.325C93.9337 154.755 93.0221 152.244 91.9213 149.814C90.9929 147.832 89.9356 145.913 88.7562 144.069C86.7111 140.94 85.1042 139.199 85.2138 139.126C85.6324 139.495 86.0156 139.903 86.3581 140.344C86.7923 140.815 87.1988 141.31 87.5754 141.829C88.0258 142.425 88.5736 143.046 89.0849 143.886C90.3421 145.707 91.4534 147.624 92.4082 149.62C94.7409 154.505 96.1484 159.779 96.5593 165.177C96.7322 167.369 96.7322 169.571 96.5593 171.763C96.5593 172.7 96.3646 173.54 96.2672 174.271C96.1859 174.905 96.0721 175.535 95.9263 176.158C95.8302 176.68 95.6876 177.194 95.5002 177.691Z" fill="#263238"/>
<path d="M83.7035 216.963C83.7035 217.06 82.6931 216.865 81.0984 216.841C79.0295 216.824 76.9723 217.154 75.0118 217.815C73.0539 218.495 71.2261 219.503 69.6068 220.797C68.3895 221.795 67.6956 222.55 67.6226 222.477C68.0617 221.708 68.6396 221.027 69.3268 220.469C70.9155 219.027 72.7845 217.929 74.817 217.243C76.8451 216.541 78.9946 216.259 81.135 216.415C82.0185 216.43 82.8908 216.616 83.7035 216.963Z" fill="#263238"/>
<path d="M185.57 143.265C185.998 143.755 186.377 144.285 186.702 144.848L187.275 145.712L187.871 146.808C188.381 147.677 188.84 148.575 189.247 149.498L189.977 151.093C190.196 151.677 190.427 152.31 190.671 152.882C191.17 154.099 191.547 155.463 192.01 156.863C192.875 159.959 193.55 163.106 194.031 166.285C194.836 172.063 195.178 177.897 195.053 183.729C195.053 185.969 194.944 187.771 194.859 189.025C194.852 189.67 194.787 190.314 194.664 190.948C194.611 190.304 194.611 189.657 194.664 189.013C194.664 187.795 194.664 185.957 194.664 183.729C194.65 177.926 194.243 172.131 193.446 166.382C192.979 163.231 192.328 160.109 191.499 157.033C191.048 155.633 190.707 154.27 190.281 153.065C190.062 152.444 189.843 151.847 189.636 151.287C189.429 150.727 189.174 150.192 188.942 149.681C188.528 148.646 188.066 147.757 187.725 146.966L187.177 145.87C186.995 145.542 186.824 145.249 186.654 144.969C186.243 144.435 185.88 143.864 185.57 143.265Z" fill="#263238"/>
<path d="M141.954 134.549C141.787 134.506 141.628 134.44 141.479 134.354C141.187 134.208 140.748 133.989 140.188 133.685C138.583 132.82 137.062 131.805 135.648 130.654H135.964C133.034 135.205 130.609 140.062 128.733 145.14L128.563 145.59L128.222 145.249L123.584 140.599C117.68 134.683 112.36 129.29 108.538 125.37L104.021 120.708L102.804 119.405C102.655 119.264 102.524 119.104 102.415 118.931C102.594 119.038 102.758 119.169 102.901 119.32C103.242 119.649 103.668 120.051 104.192 120.538L108.842 125.066C112.75 128.901 118.118 134.245 124.01 140.161L128.648 144.823L128.137 144.933C130.036 139.806 132.546 134.926 135.611 130.398L135.745 130.191L135.916 130.349C137.287 131.51 138.748 132.56 140.286 133.49C140.861 133.811 141.418 134.165 141.954 134.549Z" fill="#263238"/>
<path d="M157.888 118.152C157.986 118.661 158.023 119.18 157.998 119.698C158.003 121.111 157.905 122.523 157.706 123.922C157.045 128.573 155.384 133.025 152.836 136.972L152.471 137.544L152.216 137.934L151.948 137.556C149.604 134.337 147.666 130.842 146.178 127.148H146.616C145.788 129.059 145.082 130.666 144.534 131.92C144.306 132.52 144.016 133.095 143.67 133.636C143.81 133.009 144.014 132.397 144.279 131.81C144.778 130.532 145.411 128.901 146.178 126.941L146.385 126.393L146.616 126.941C148.187 130.551 150.146 133.98 152.459 137.167H151.948C152.057 136.984 152.179 136.789 152.313 136.607C154.799 132.723 156.484 128.381 157.268 123.837C157.888 120.367 157.754 118.152 157.888 118.152Z" fill="#263238"/>
<path d="M166.325 237.949C166.234 237.602 166.173 237.248 166.142 236.89C166.045 236.135 165.923 235.113 165.753 233.835C165.436 231.12 164.986 227.298 164.426 222.587C163.282 213.103 161.723 199.981 158.96 185.665C157.56 178.507 155.941 171.751 154.249 165.676C153.324 162.657 152.52 159.76 151.583 157.155C151.133 155.828 150.719 154.525 150.28 153.308L148.954 149.802C148.15 147.55 147.274 145.578 146.519 143.825L145.496 141.39L144.559 139.37L143.342 136.57C143.18 136.247 143.042 135.914 142.928 135.572C143.129 135.868 143.304 136.182 143.451 136.509C143.792 137.191 144.255 138.116 144.839 139.26L145.825 141.256C146.178 141.999 146.519 142.815 146.908 143.691C147.663 145.432 148.576 147.404 149.416 149.644C149.842 150.764 150.305 151.932 150.78 153.15C151.254 154.367 151.656 155.67 152.119 156.997C153.08 159.638 153.908 162.535 154.845 165.518C156.574 171.605 158.217 178.373 159.617 185.543C162.393 199.883 163.878 213.03 164.913 222.538C165.412 227.298 165.789 231.144 166.045 233.81C166.159 235.101 166.244 236.123 166.301 236.878C166.33 237.234 166.338 237.592 166.325 237.949Z" fill="#263238"/>
<path d="M183.513 223.219C182.878 223.282 182.238 223.282 181.602 223.219C180.385 223.219 178.595 223.146 176.404 223.049C172.01 222.842 165.959 222.404 159.288 221.673C152.618 220.943 146.616 220.018 142.246 219.239C140.079 218.861 138.326 218.533 137.133 218.277C136.502 218.172 135.88 218.021 135.271 217.827C135.909 217.831 136.545 217.9 137.17 218.034L142.319 218.801C146.653 219.446 152.654 220.286 159.362 221.028C166.069 221.771 172.058 222.246 176.404 222.586L181.59 222.964C182.238 222.986 182.882 223.071 183.513 223.219Z" fill="#263238"/>
<path d="M177.792 240.323C177.258 240.205 176.737 240.038 176.234 239.824L172.095 238.302C168.601 237.085 163.756 235.284 158.351 233.518C152.946 231.753 148.016 230.353 144.498 229.27L140.249 228.053C139.723 227.93 139.21 227.759 138.715 227.541C139.254 227.585 139.788 227.679 140.31 227.821C141.333 228.04 142.806 228.381 144.607 228.844C148.259 229.757 153.189 231.157 158.607 232.922C164.024 234.687 168.844 236.44 172.253 237.889C173.981 238.582 175.381 239.167 176.331 239.593C176.843 239.782 177.333 240.027 177.792 240.323Z" fill="#263238"/>
<path d="M246.486 172.834C245.968 172.213 245.556 171.509 245.269 170.753C244.468 168.982 243.879 167.123 243.516 165.214C243.158 163.3 243.023 161.352 243.114 159.407C243.093 158.58 243.216 157.756 243.479 156.972C243.526 159.67 243.746 162.362 244.137 165.031C244.75 167.68 245.535 170.287 246.486 172.834Z" fill="#263238"/>
<path d="M303.968 198.556L204.561 199.36C201.335 199.36 198.255 200.918 197.768 204.107L186.934 276.612H135.733C134.942 276.612 134.183 276.926 133.624 277.485C133.065 278.045 132.75 278.803 132.75 279.594C132.75 280.385 133.065 281.144 133.624 281.703C134.183 282.263 134.942 282.577 135.733 282.577H299.257L310.445 206.006C310.577 205.079 310.509 204.135 310.244 203.236C309.98 202.338 309.524 201.507 308.91 200.801C308.296 200.094 307.536 199.528 306.684 199.14C305.831 198.753 304.905 198.554 303.968 198.556Z" fill="#E0E0E0"/>
<path d="M304.139 198.557C304.667 198.524 305.197 198.573 305.709 198.703C307.235 199.064 308.582 199.957 309.508 201.223C310.189 202.154 310.61 203.251 310.725 204.4C310.765 205.769 310.643 207.138 310.36 208.478L308.935 218.57C306.744 233.762 303.591 255.65 299.708 282.565V282.833H299.452L140.797 282.918H136.524C135.748 283 134.965 282.852 134.272 282.492C133.742 282.201 133.299 281.773 132.99 281.253C132.682 280.733 132.519 280.139 132.519 279.534C132.519 278.929 132.682 278.335 132.99 277.814C133.299 277.294 133.742 276.866 134.272 276.576C134.964 276.227 135.741 276.079 136.512 276.149H187.105L186.727 276.478C190.635 250.537 194.287 226.336 197.549 204.655C197.658 203.205 198.315 201.851 199.388 200.87C200.472 199.958 201.794 199.375 203.198 199.19C204.529 199.061 205.866 199.016 207.203 199.056H211.11L226.072 198.958L252.67 198.788L290.529 198.593H303.275C303.859 198.593 304.163 198.593 304.163 198.593H303.275H300.658L290.529 198.739L252.67 199.165L226.072 199.421L211.11 199.567H207.203C205.899 199.536 204.594 199.585 203.295 199.713C202.016 199.876 200.812 200.404 199.826 201.235C199.328 201.687 198.926 202.235 198.644 202.845C198.361 203.456 198.205 204.117 198.182 204.789C194.944 226.507 191.341 250.719 187.47 276.673V277.002H136.488C135.854 276.93 135.212 277.04 134.638 277.318C134.093 277.613 133.671 278.093 133.448 278.67C133.225 279.248 133.215 279.887 133.42 280.471C133.648 281.06 134.08 281.548 134.638 281.847C135.215 282.13 135.861 282.244 136.5 282.175H140.773L299.428 282.26L299.124 282.528C303.104 255.625 306.355 233.75 308.607 218.57C309.167 214.784 309.678 211.424 310.116 208.49C310.395 207.165 310.53 205.814 310.518 204.461C310.415 203.351 310.02 202.289 309.374 201.381C308.495 200.128 307.201 199.227 305.722 198.837C305.2 198.714 304.671 198.62 304.139 198.557Z" fill="#263238"/>
<path d="M191.109 281.859C191.255 281.859 194.421 263.428 198.17 240.652C201.919 217.876 204.877 199.384 204.731 199.36C204.585 199.336 201.432 217.79 197.671 240.567C193.909 263.343 190.975 281.834 191.109 281.859Z" fill="#263238"/>
<path d="M250.965 248.175C254.401 248.175 257.186 245.39 257.186 241.954C257.186 238.519 254.401 235.734 250.965 235.734C247.53 235.734 244.745 238.519 244.745 241.954C244.745 245.39 247.53 248.175 250.965 248.175Z" fill="white"/>
</svg>
