<svg width="719" height="550" viewBox="0 0 719 550" fill="none" xmlns="http://www.w3.org/2000/svg">
<path d="M719 484.742H0V485.101H719V484.742Z" fill="#EBEBEB"/>
<path d="M646.956 507.879H599.33V508.239H646.956V507.879Z" fill="#EBEBEB"/>
<path d="M476.294 511.791H463.798V512.15H476.294V511.791Z" fill="#EBEBEB"/>
<path d="M597.892 494.534H570.296V494.894H597.892V494.534Z" fill="#EBEBEB"/>
<path d="M137.545 496.951H75.4375V497.31H137.545V496.951Z" fill="#EBEBEB"/>
<path d="M159.46 496.951H150.357V497.31H159.46V496.951Z" fill="#EBEBEB"/>
<path d="M323.766 503.019H189.054V503.378H323.766V503.019Z" fill="#EBEBEB"/>
<path d="M340.806 420.607H63.1426C60.9674 420.603 58.8826 419.737 57.3458 418.197C55.8091 416.658 54.946 414.571 54.946 412.396V22.0798C54.9649 19.917 55.8364 17.8491 57.3711 16.3252C58.9058 14.8013 60.9798 13.9444 63.1426 13.9407H340.806C342.984 13.9407 345.072 14.8058 346.612 16.3456C348.152 17.8855 349.017 19.974 349.017 22.1517V412.396C349.017 414.574 348.152 416.662 346.612 418.202C345.072 419.742 342.984 420.607 340.806 420.607ZM63.1426 14.2283C61.0627 14.2321 59.0694 15.061 57.6 16.533C56.1307 18.005 55.3055 19.9999 55.3055 22.0798V412.396C55.3055 414.476 56.1307 416.471 57.6 417.943C59.0694 419.415 61.0627 420.244 63.1426 420.248H340.806C342.887 420.244 344.882 419.415 346.354 417.944C347.825 416.472 348.654 414.477 348.658 412.396V22.0798C348.654 19.9986 347.825 18.0037 346.354 16.5321C344.882 15.0605 342.887 14.2321 340.806 14.2283H63.1426Z" fill="#EBEBEB"/>
<path d="M651.86 420.607H374.182C372.005 420.603 369.919 419.737 368.38 418.198C366.841 416.659 365.975 414.573 365.971 412.396V22.0798C365.994 19.9157 366.868 17.8478 368.405 16.3243C369.942 14.8008 372.018 13.9443 374.182 13.9407H651.86C654.02 13.9482 656.09 14.8067 657.622 16.3302C659.154 17.8538 660.023 19.9195 660.042 22.0798V412.396C660.042 414.569 659.181 416.653 657.647 418.192C656.114 419.731 654.033 420.599 651.86 420.607ZM374.182 14.2283C372.101 14.2321 370.106 15.0605 368.634 16.5321C367.163 18.0037 366.334 19.9986 366.331 22.0798V412.396C366.334 414.477 367.163 416.472 368.634 417.944C370.106 419.415 372.101 420.244 374.182 420.248H651.86C653.941 420.244 655.936 419.415 657.407 417.944C658.879 416.472 659.707 414.477 659.711 412.396V22.0798C659.707 19.9986 658.879 18.0037 657.407 16.5321C655.936 15.0605 653.941 14.2321 651.86 14.2283H374.182Z" fill="#EBEBEB"/>
<path d="M197.236 65.5359H126.702V151.787H197.236V65.5359Z" fill="#F0F0F0"/>
<path d="M212.378 65.5359H131.246V151.787H212.378V65.5359Z" fill="#F5F5F5"/>
<path d="M205.577 145V72.3379H138.034V145H205.577Z" fill="white"/>
<path d="M189.212 127.37V89.939H154.412V127.37H189.212Z" fill="#F5F5F5"/>
<path d="M316.245 105.627H245.711V191.879H316.245V105.627Z" fill="#F0F0F0"/>
<path d="M331.401 105.627H250.269V191.879H331.401V105.627Z" fill="#F5F5F5"/>
<path d="M324.6 185.091V112.429H257.057V185.091H324.6Z" fill="white"/>
<path d="M308.235 153.542V143.95C308.235 136.262 302.003 130.03 294.315 130.03H287.355C279.668 130.03 273.436 136.262 273.436 143.95V153.542C273.436 161.229 279.668 167.461 287.355 167.461H294.315C302.003 167.461 308.235 161.229 308.235 153.542Z" fill="#F5F5F5"/>
<path d="M639.033 411.519H599.934V484.742H639.033V411.519Z" fill="#E6E6E6"/>
<path d="M631.598 484.742H639.033V457.204H623.819L631.598 484.742Z" fill="#F0F0F0"/>
<path d="M415.956 411.519H376.857V484.742H415.956V411.519Z" fill="#E6E6E6"/>
<path d="M639.018 411.519H409.47V477.221H639.018V411.519Z" fill="#F0F0F0"/>
<path d="M416.905 484.742H409.47V457.204H424.684L416.905 484.742Z" fill="#F0F0F0"/>
<path d="M417.106 422.893V464.869H485.152V422.893H417.106Z" fill="#E6E6E6"/>
<path d="M457.859 437.388H444.342C438.489 437.388 432.838 431.492 428.884 421.081H473.26C469.306 431.492 463.712 437.388 457.859 437.388Z" fill="#F0F0F0"/>
<path d="M490.229 422.879V464.854H558.275V422.879H490.229Z" fill="#E6E6E6"/>
<path d="M531.672 437.388H518.212C512.359 437.388 506.708 431.492 502.754 421.081H547.13C543.104 431.492 537.524 437.388 531.672 437.388Z" fill="#F0F0F0"/>
<path d="M563.336 422.893V464.869H631.383V422.893H563.336Z" fill="#E6E6E6"/>
<path d="M604.794 437.388H591.334C585.482 437.388 579.83 431.492 575.876 421.081H620.253C616.226 431.492 610.632 437.388 604.794 437.388Z" fill="#F0F0F0"/>
<path d="M627.615 55.9014H403.833V246.379H627.615V55.9014Z" fill="#E6E6E6"/>
<path d="M634.934 55.9014H407.256V246.379H634.934V55.9014Z" fill="#F0F0F0"/>
<path d="M627.615 246.379H403.833V259.953H627.615V246.379Z" fill="#E6E6E6"/>
<path d="M647.1 246.379H419.422V259.953H647.1V246.379Z" fill="#F0F0F0"/>
<path d="M624.696 236.155V66.1257L417.466 66.1257V236.155H624.696Z" fill="#FAFAFA"/>
<path d="M549.402 236.155L565.767 66.1401H594.11L577.731 236.155H549.402Z" fill="white"/>
<path d="M422.211 178.52C422.004 178.52 421.805 178.439 421.657 178.293C421.509 178.148 421.424 177.951 421.42 177.743V72.7694C421.424 72.5622 421.509 72.3647 421.657 72.2195C421.805 72.0742 422.004 71.9929 422.211 71.9929C422.417 71.9929 422.615 72.0747 422.76 72.2204C422.906 72.366 422.988 72.5635 422.988 72.7694V177.743C422.988 177.949 422.906 178.147 422.76 178.293C422.615 178.438 422.417 178.52 422.211 178.52Z" fill="#F0F0F0"/>
<path d="M583.814 236.155L600.192 66.1401H611.236L594.857 236.155H583.814Z" fill="white"/>
<path d="M624.71 236.155V66.1257H623.416V236.155H624.71Z" fill="#E6E6E6"/>
<path opacity="0.5" d="M637.35 84.6758H413.554L412.62 70.1089H636.401L637.35 84.6758Z" fill="#E0E0E0"/>
<path opacity="0.5" d="M637.35 108.618H413.554L412.62 94.0515H636.401L637.35 108.618Z" fill="#E0E0E0"/>
<path opacity="0.5" d="M637.35 132.561H413.554L412.62 117.994H636.401L637.35 132.561Z" fill="#E0E0E0"/>
<path opacity="0.5" d="M637.35 156.504H413.554L412.62 141.937H636.401L637.35 156.504Z" fill="#E0E0E0"/>
<path opacity="0.5" d="M637.35 180.447H413.554L412.62 165.88H636.401L637.35 180.447Z" fill="#E0E0E0"/>
<path opacity="0.5" d="M637.35 204.389H413.554L412.62 189.823H636.401L637.35 204.389Z" fill="#E0E0E0"/>
<path d="M348.844 310.384H280.654V484.742H348.844V310.384Z" fill="#E6E6E6"/>
<path d="M341.985 484.742H348.844V461H334.795L341.985 484.742Z" fill="#F0F0F0"/>
<path d="M241.972 310.384H173.782V484.742H241.972V310.384Z" fill="#E6E6E6"/>
<path d="M348.844 310.384H235.99V470.175H348.844V310.384Z" fill="#F0F0F0"/>
<path d="M343.524 317.459H241.311V361.275H343.524V317.459Z" fill="#E6E6E6"/>
<path d="M302.426 331.077H287.01C280.324 331.077 273.925 325.67 269.323 316.136H320.113C315.512 325.67 309.17 331.077 302.426 331.077Z" fill="#F0F0F0"/>
<path d="M242.849 484.742H235.99V461H250.039L242.849 484.742Z" fill="#F0F0F0"/>
<path d="M343.524 368.365H241.311V412.18H343.524V368.365Z" fill="#E6E6E6"/>
<path d="M302.426 381.982H287.01C280.324 381.982 273.925 376.575 269.323 367.027H320.113C315.512 376.575 309.17 381.982 302.426 381.982Z" fill="#F0F0F0"/>
<path d="M343.524 419.27H241.311V463.086H343.524V419.27Z" fill="#E6E6E6"/>
<path d="M302.426 432.887H287.01C280.324 432.887 273.925 427.48 269.323 417.932H320.113C315.512 427.48 309.17 432.887 302.426 432.887Z" fill="#F0F0F0"/>
<path d="M431.357 411.346H471.678C476.69 411.346 480.752 407.284 480.752 402.273V335.593C480.752 330.581 476.69 326.519 471.678 326.519H431.357C426.346 326.519 422.283 330.581 422.283 335.593V402.273C422.283 407.284 426.346 411.346 431.357 411.346Z" fill="#F5F5F5"/>
<path d="M574.021 364.151C574.021 364.151 572.583 411.346 517.306 411.346C462.029 411.346 460.591 364.151 460.591 364.151H574.021Z" fill="#F0F0F0"/>
<path d="M130.858 446.894H133.734C133.734 434.886 133.734 430.86 134.036 361.031C134.539 234.487 135.474 226.765 135.474 226.765L128.759 285.191C124.545 349.886 130.038 388.453 130.858 446.894Z" fill="#F0F0F0"/>
<path d="M130.283 484.742C121.52 484.747 113.019 481.754 106.192 476.261C99.3645 470.768 94.6217 463.105 92.751 454.544C91.8492 449.931 90.5403 445.408 88.8397 441.027L88.5521 440.322H171.956L171.668 441.027C169.968 445.408 168.659 449.931 167.757 454.544C165.888 463.095 161.154 470.751 154.339 476.243C147.523 481.735 139.036 484.734 130.283 484.742Z" fill="#FAFAFA"/>
<path d="M177.406 444.507H83.1452L80.4561 424.101H180.11L177.406 444.507Z" fill="#F0F0F0"/>
<path d="M128.5 333.464C144.965 304.776 102.271 294.509 88.4226 268.941C71.7993 289.131 109.202 367.07 128.5 333.464Z" fill="#F0F0F0"/>
<path d="M131.678 309.895C125.322 295.443 155.894 277.9 162.494 254.403C174.688 267.963 150.472 352.705 131.678 309.895Z" fill="#F0F0F0"/>
<path d="M131.433 353.496C136.61 335.276 166.204 348.419 181.303 314.195C197.365 362.541 117.082 404.113 131.433 353.496Z" fill="#F0F0F0"/>
<path d="M132.742 375.267C132.397 358.011 113.588 373.311 79.5358 342.466C73.338 374.303 134.05 442.148 132.742 375.267Z" fill="#F0F0F0"/>
<path d="M359.5 549.682C513.485 549.682 638.314 542.394 638.314 533.404C638.314 524.413 513.485 517.125 359.5 517.125C205.515 517.125 80.6862 524.413 80.6862 533.404C80.6862 542.394 205.515 549.682 359.5 549.682Z" fill="#F5F5F5"/>
<path d="M390.1 126.289C394.076 99.9024 375.909 75.2882 349.522 71.3117C323.136 67.3352 298.522 85.5023 294.545 111.889C290.569 138.276 308.736 162.89 335.122 166.866C361.509 170.843 386.123 152.676 390.1 126.289Z" fill="#CB7CD2"/>
<path d="M379.92 132.432C376.382 142.399 369.03 150.553 359.481 155.1C349.932 159.647 338.967 160.214 329 156.676C319.033 153.139 310.879 145.787 306.332 136.238C301.785 126.688 301.218 115.724 304.755 105.757C308.293 95.7893 315.645 87.6354 325.194 83.0886C329.922 80.8373 335.048 79.5393 340.278 79.2688C345.508 78.9983 350.74 79.7606 355.675 81.5121C360.61 83.2636 365.152 85.97 369.042 89.4769C372.931 92.9837 376.092 97.2223 378.343 101.951C380.594 106.679 381.892 111.804 382.163 117.034C382.433 122.264 381.671 127.496 379.92 132.432Z" fill="white"/>
<path opacity="0.4" d="M369.02 148.724C363.684 153.549 357.142 156.841 350.088 158.25C343.033 159.66 335.729 159.135 328.949 156.731C322.169 154.327 316.165 150.133 311.574 144.595C306.983 139.056 303.976 132.379 302.872 125.27C314.981 122.195 327.73 122.783 339.505 126.958C351.28 131.133 361.552 138.708 369.02 148.724Z" fill="#CB7CD2"/>
<path opacity="0.4" d="M363.641 112.185C362.464 115.493 360.333 118.378 357.517 120.476C354.7 122.573 351.325 123.788 347.818 123.968C344.311 124.148 340.83 123.284 337.814 121.485C334.798 119.687 332.383 117.035 330.874 113.864C329.365 110.693 328.829 107.146 329.336 103.671C329.842 100.196 331.367 96.9495 333.718 94.3412C336.07 91.733 339.141 89.8803 342.545 89.0173C345.949 88.1543 349.532 88.3198 352.842 89.4929C355.043 90.271 357.069 91.4757 358.804 93.038C360.538 94.6004 361.948 96.4897 362.951 98.5976C363.954 100.706 364.531 102.991 364.65 105.322C364.768 107.654 364.426 109.986 363.641 112.185Z" fill="#CB7CD2"/>
<path d="M164.386 170.481C186.901 170.415 205.099 152.108 205.032 129.593C204.965 107.078 186.659 88.8804 164.144 88.9472C141.629 89.014 123.431 107.32 123.498 129.835C123.565 152.35 141.871 170.548 164.386 170.481Z" fill="#CB7CD2"/>
<path opacity="0.6" d="M164.386 170.481C186.901 170.415 205.099 152.108 205.032 129.593C204.965 107.078 186.659 88.8804 164.144 88.9472C141.629 89.014 123.431 107.32 123.498 129.835C123.565 152.35 141.871 170.548 164.386 170.481Z" fill="#FAFAFA"/>
<path d="M195.798 118.008C198.901 126.374 198.553 135.63 194.831 143.739C191.11 151.848 184.319 158.147 175.954 161.249C167.588 164.352 158.333 164.004 150.223 160.282C142.114 156.561 135.816 149.77 132.713 141.405C129.61 133.039 129.958 123.784 133.68 115.674C137.401 107.565 144.192 101.267 152.557 98.1641C160.923 95.0615 170.178 95.4093 178.288 99.1308C186.397 102.852 192.696 109.643 195.798 118.008Z" fill="white"/>
<path d="M197.567 134.445C196.711 140.443 194.252 146.098 190.449 150.815C186.646 155.531 181.64 159.133 175.959 161.241C170.279 163.348 164.135 163.883 158.176 162.789C152.217 161.694 146.664 159.011 142.103 155.022C148.281 146.497 156.847 139.993 166.718 136.331C176.589 132.669 187.323 132.012 197.567 134.445Z" fill="#263238"/>
<path d="M174.314 113.709C175.343 116.487 175.525 119.508 174.837 122.39C174.149 125.272 172.622 127.885 170.449 129.9C168.277 131.914 165.555 133.239 162.63 133.707C159.704 134.175 156.705 133.765 154.012 132.529C151.32 131.293 149.054 129.287 147.501 126.764C145.948 124.24 145.179 121.313 145.289 118.352C145.4 115.391 146.385 112.53 148.122 110.129C149.858 107.729 152.268 105.897 155.045 104.865C156.891 104.177 158.854 103.861 160.822 103.933C162.791 104.006 164.725 104.466 166.515 105.288C168.305 106.109 169.916 107.276 171.254 108.721C172.592 110.166 173.632 111.861 174.314 113.709Z" fill="#263238"/>
<path d="M273.404 98.6822C291.57 80.5153 291.57 51.0609 273.404 32.894C255.237 14.727 225.782 14.727 207.615 32.894C189.448 51.0609 189.448 80.5153 207.615 98.6822C225.782 116.849 255.237 116.849 273.404 98.6822Z" fill="#263238"/>
<path d="M278.541 60.618C279.566 68.1459 278.335 75.8088 275.003 82.6367C271.672 89.4647 266.39 95.1508 259.825 98.9753C253.26 102.8 245.709 104.591 238.126 104.121C230.543 103.652 223.27 100.944 217.227 96.339C211.184 91.7343 206.643 85.4403 204.179 78.2536C201.714 71.067 201.438 63.3108 203.383 55.9668C205.329 48.6228 209.41 42.0211 215.109 36.9974C220.809 31.9737 227.87 28.7539 235.401 27.7453C240.396 27.0417 245.481 27.3362 250.361 28.6115C255.242 29.8869 259.821 32.1179 263.833 35.1753C267.846 38.2327 271.212 42.0558 273.736 46.4231C276.261 50.7904 277.894 55.6152 278.541 60.618Z" fill="white"/>
<path d="M276.398 79.3692C273.952 85.836 269.805 91.5221 264.394 95.8265C258.983 100.131 252.511 102.894 245.659 103.823C238.808 104.753 231.833 103.814 225.471 101.107C219.11 98.3998 213.597 94.0244 209.517 88.443C218.522 80.4944 229.68 75.3908 241.583 73.776C253.486 72.1611 265.6 74.1074 276.398 79.3692Z" fill="#CB7CD2"/>
<path d="M252.331 63.1199C258.05 55.6054 256.594 44.878 249.079 39.1597C241.564 33.4414 230.837 34.8975 225.119 42.412C219.4 49.9266 220.857 60.6539 228.371 66.3723C235.886 72.0906 246.613 70.6345 252.331 63.1199Z" fill="#CB7CD2"/>
<path d="M299.219 520.691H225.939V533.403H299.219V520.691Z" fill="#CB7CD2"/>
<path opacity="0.2" d="M232.496 520.691H229.562V533.403H232.496V520.691Z" fill="black"/>
<path opacity="0.2" d="M240.376 520.691H237.443V533.403H240.376V520.691Z" fill="black"/>
<path opacity="0.2" d="M248.271 520.691H245.337V533.403H248.271V520.691Z" fill="black"/>
<path opacity="0.2" d="M256.165 520.691H253.232V533.403H256.165V520.691Z" fill="black"/>
<path opacity="0.2" d="M264.046 520.691H261.112V533.403H264.046V520.691Z" fill="black"/>
<path opacity="0.2" d="M271.94 520.691H269.007V533.403H271.94V520.691Z" fill="black"/>
<path opacity="0.2" d="M279.82 520.691H276.887V533.403H279.82V520.691Z" fill="black"/>
<path opacity="0.2" d="M287.715 520.691H284.781V533.403H287.715V520.691Z" fill="black"/>
<path opacity="0.2" d="M295.61 520.691H292.676V533.403H295.61V520.691Z" fill="black"/>
<path d="M296.631 507.98H223.35V520.692H296.631V507.98Z" fill="#CB7CD2"/>
<path opacity="0.2" d="M229.907 507.98H226.974V520.692H229.907V507.98Z" fill="black"/>
<path opacity="0.2" d="M237.788 507.98H234.854V520.692H237.788V507.98Z" fill="black"/>
<path opacity="0.2" d="M245.682 507.98H242.749V520.692H245.682V507.98Z" fill="black"/>
<path opacity="0.2" d="M253.577 507.98H250.643V520.692H253.577V507.98Z" fill="black"/>
<path opacity="0.2" d="M261.457 507.98H258.524V520.692H261.457V507.98Z" fill="black"/>
<path opacity="0.2" d="M269.352 507.98H266.418V520.692H269.352V507.98Z" fill="black"/>
<path opacity="0.2" d="M277.246 507.98H274.313V520.692H277.246V507.98Z" fill="black"/>
<path opacity="0.2" d="M285.127 507.98H282.193V520.692H285.127V507.98Z" fill="black"/>
<path opacity="0.2" d="M293.021 507.98H290.088V520.692H293.021V507.98Z" fill="black"/>
<path d="M298.687 495.268H225.406V507.979H298.687V495.268Z" fill="#CB7CD2"/>
<path opacity="0.2" d="M231.964 495.268H229.03V507.979H231.964V495.268Z" fill="black"/>
<path opacity="0.2" d="M239.858 495.268H236.925V507.979H239.858V495.268Z" fill="black"/>
<path opacity="0.2" d="M247.739 495.268H244.805V507.979H247.739V495.268Z" fill="black"/>
<path opacity="0.2" d="M255.633 495.268H252.7V507.979H255.633V495.268Z" fill="black"/>
<path opacity="0.2" d="M263.528 495.268H260.594V507.979H263.528V495.268Z" fill="black"/>
<path opacity="0.2" d="M271.408 495.268H268.475V507.979H271.408V495.268Z" fill="black"/>
<path opacity="0.2" d="M279.303 495.268H276.369V507.979H279.303V495.268Z" fill="black"/>
<path opacity="0.2" d="M287.183 495.268H284.249V507.979H287.183V495.268Z" fill="black"/>
<path opacity="0.2" d="M295.078 495.268H292.144V507.979H295.078V495.268Z" fill="black"/>
<path d="M266.808 488.326C286.689 483.74 299.088 463.906 294.501 444.025C289.915 424.145 270.081 411.746 250.201 416.332C230.32 420.918 217.922 440.752 222.508 460.633C227.094 480.513 246.928 492.912 266.808 488.326Z" fill="#CB7CD2"/>
<path opacity="0.2" d="M284.839 468.765C281.587 473.966 276.865 478.086 271.272 480.604C265.678 483.122 259.464 483.925 253.414 482.911C247.364 481.897 241.751 479.112 237.283 474.908C232.816 470.705 229.696 465.271 228.317 459.294C226.937 453.316 227.361 447.065 229.535 441.328C231.709 435.592 235.534 430.63 240.528 427.068C245.522 423.505 251.46 421.504 257.591 421.317C263.723 421.129 269.772 422.763 274.974 426.014C281.95 430.376 286.908 437.33 288.758 445.347C290.608 453.364 289.198 461.787 284.839 468.765Z" fill="black"/>
<path d="M265.87 483.281C282.275 479.496 292.507 463.129 288.722 446.723C284.938 430.317 268.57 420.085 252.164 423.87C235.759 427.655 225.527 444.022 229.312 460.428C233.096 476.834 249.464 487.066 265.87 483.281Z" fill="#CB7CD2"/>
<path d="M269.208 458.972L264.635 466.306C264.462 466.587 264.231 466.827 263.959 467.013C263.686 467.199 263.378 467.326 263.053 467.385C262.73 467.463 262.393 467.476 262.065 467.422C261.736 467.367 261.422 467.247 261.141 467.068L254.699 463.042L251.477 468.204C251.125 468.763 250.566 469.16 249.922 469.308C249.278 469.456 248.602 469.344 248.041 468.995C247.751 468.824 247.5 468.595 247.302 468.323C247.105 468.051 246.964 467.742 246.89 467.413C246.803 467.096 246.785 466.764 246.837 466.439C246.889 466.114 247.01 465.804 247.192 465.53L250.442 460.31L244.057 456.312C243.779 456.143 243.538 455.92 243.347 455.655C243.157 455.391 243.022 455.091 242.95 454.773C242.868 454.452 242.854 454.118 242.909 453.791C242.963 453.464 243.085 453.152 243.266 452.875C243.435 452.593 243.659 452.349 243.927 452.159C244.194 451.968 244.498 451.835 244.819 451.768C245.139 451.691 245.47 451.679 245.794 451.733C246.118 451.788 246.427 451.907 246.703 452.084L261.658 461.431L263.557 458.383L248.659 449.065C248.376 448.899 248.131 448.677 247.938 448.412C247.745 448.147 247.609 447.846 247.537 447.526C247.454 447.205 247.439 446.87 247.493 446.543C247.548 446.216 247.67 445.904 247.854 445.628L252.426 438.337C252.594 438.053 252.818 437.807 253.086 437.614C253.353 437.421 253.657 437.285 253.98 437.215C254.299 437.142 254.63 437.131 254.953 437.186C255.276 437.24 255.586 437.358 255.863 437.532L262.205 441.501L265.426 436.338C265.604 436.053 265.838 435.807 266.113 435.614C266.389 435.421 266.7 435.286 267.029 435.216C267.358 435.146 267.697 435.144 268.027 435.208C268.357 435.272 268.671 435.402 268.949 435.591C269.224 435.761 269.461 435.985 269.646 436.249C269.832 436.514 269.961 436.813 270.028 437.129C270.11 437.448 270.125 437.78 270.07 438.105C270.016 438.429 269.893 438.739 269.711 439.013L266.49 444.175L272.976 448.245C273.262 448.418 273.51 448.647 273.706 448.919C273.901 449.191 274.039 449.5 274.112 449.827C274.198 450.143 274.217 450.475 274.168 450.799C274.118 451.124 274.001 451.434 273.824 451.711C273.651 451.999 273.42 452.248 273.145 452.441C272.87 452.634 272.557 452.767 272.228 452.832C271.91 452.911 271.579 452.924 271.255 452.873C270.932 452.821 270.622 452.704 270.344 452.53L255.389 443.183L253.505 446.203L268.417 455.521C268.7 455.696 268.946 455.927 269.138 456.198C269.331 456.47 269.467 456.778 269.539 457.103C269.619 457.42 269.631 457.751 269.574 458.073C269.517 458.395 269.392 458.702 269.208 458.972Z" fill="#FAFAFA"/>
<path opacity="0.4" d="M278.109 420.995C272.777 417.669 266.684 415.756 260.407 415.439C254.13 415.122 247.876 416.411 242.236 419.183C236.595 421.955 231.754 426.119 228.17 431.282C224.587 436.445 222.378 442.437 221.754 448.691H295.293C294.743 443.066 292.907 437.643 289.928 432.841C286.948 428.039 282.905 423.986 278.109 420.995Z" fill="black"/>
<path opacity="0.2" d="M393.149 127.068H124.991C122.758 127.068 120.568 127.678 118.658 128.834C116.747 129.989 115.189 131.645 114.152 133.622C113.116 135.6 112.64 137.823 112.776 140.051C112.912 142.28 113.655 144.429 114.925 146.265L144.864 189.506C145.993 191.129 147.498 192.456 149.251 193.373C151.004 194.289 152.952 194.768 154.93 194.769H363.21C365.188 194.77 367.138 194.292 368.891 193.376C370.644 192.459 372.149 191.131 373.276 189.506L403.215 146.236C404.477 144.4 405.214 142.254 405.346 140.03C405.478 137.806 405 135.588 403.964 133.616C402.928 131.643 401.374 129.991 399.468 128.837C397.562 127.683 395.377 127.071 393.149 127.068Z" fill="#CB7CD2"/>
<path d="M394.659 180.202H123.495L211.674 370.161H306.467L394.659 180.202Z" fill="#CB7CD2"/>
<path d="M153.929 254.339L152.625 254.945L161.604 274.288L162.908 273.683L153.929 254.339Z" fill="#CB7CD2"/>
<path d="M165.564 279.428L164.259 280.034L168.461 289.086L169.766 288.481L165.564 279.428Z" fill="#CB7CD2"/>
<path opacity="0.3" d="M394.659 180.202H123.495L211.674 370.161H306.467L394.659 180.202Z" fill="black"/>
<path opacity="0.2" d="M202.643 180.202H151.335L229.045 370.161H245.639L202.643 180.202Z" fill="black"/>
<path d="M403.071 143.662H115.083C111.295 143.662 108.224 146.733 108.224 150.522V173.343C108.224 177.131 111.295 180.202 115.083 180.202H403.071C406.86 180.202 409.931 177.131 409.931 173.343V150.522C409.931 146.733 406.86 143.662 403.071 143.662Z" fill="#CB7CD2"/>
<path d="M292.547 439.056H225.608C223.205 439.056 220.892 438.147 219.132 436.512C217.372 434.877 216.295 432.637 216.117 430.241L211.674 370.162H306.467L301.98 430.241C301.806 432.628 300.738 434.862 298.99 436.496C297.241 438.13 294.94 439.044 292.547 439.056Z" fill="#CB7CD2"/>
<path opacity="0.2" d="M292.547 439.056H225.608C223.205 439.056 220.892 438.147 219.132 436.512C217.372 434.877 216.295 432.637 216.117 430.241L211.674 370.162H306.467L301.98 430.241C301.806 432.628 300.738 434.862 298.99 436.496C297.241 438.13 294.94 439.044 292.547 439.056Z" fill="black"/>
<path d="M475.92 521.382H464.143L463.367 494.117H475.144L475.92 521.382Z" fill="#FFB573"/>
<path opacity="0.2" d="M463.367 494.117L463.769 508.181H475.547L475.144 494.117H463.367Z" fill="black"/>
<path d="M566.946 478.587L556.635 484.267L540.185 462.194L550.495 456.528L566.946 478.587Z" fill="#FFB573"/>
<path opacity="0.2" d="M550.51 456.528L540.185 462.208L548.669 473.569L558.994 467.903L550.51 456.528Z" fill="black"/>
<path d="M522.138 187.536C511.612 180.346 506.852 172.94 505.932 164.01C507.7 173.472 513.352 180.979 525.977 187.32C526.078 187.378 526.192 187.407 526.308 187.407C526.471 187.407 526.629 187.353 526.757 187.251C526.885 187.15 526.975 187.009 527.011 186.85C527.048 186.691 527.03 186.524 526.96 186.377C526.889 186.23 526.771 186.112 526.624 186.04C508.865 177.125 505.428 166.21 507.053 149.961C507.513 147.818 508.089 145.647 508.779 143.289C514.531 123.646 482.492 119.706 472.469 123.789C447.836 133.855 455.4 161.825 462.403 172.365C469.406 182.906 445.981 189.981 459.067 220.135C472.153 250.29 515.681 249.543 528.091 233.868C540.501 218.194 539.768 199.687 522.138 187.536Z" fill="#263238"/>
<path d="M457.859 199.687C457.715 201.657 457.557 203.368 457.313 205.166C457.068 206.963 456.809 208.703 456.522 210.458C455.947 213.981 455.084 217.461 454.322 220.926C452.635 227.924 450.29 234.747 447.319 241.303L446.758 242.539C446.542 242.971 446.456 243.23 446.01 244.078C445.158 245.614 443.937 246.913 442.458 247.86C441.092 248.714 439.556 249.258 437.957 249.456C436.687 249.615 435.402 249.615 434.132 249.456C430.17 248.831 426.352 247.501 422.858 245.53C416.57 242.093 410.698 237.943 405.358 233.164L408.91 228.375C411.786 230 414.762 231.654 417.725 233.149C420.627 234.66 423.613 236.005 426.669 237.176C429.317 238.307 432.127 239.016 434.995 239.275C436.117 239.275 436.792 238.959 436.591 238.959C436.39 238.959 436.433 239.059 436.447 238.959L437.181 237.017C439.485 230.892 441.335 224.605 442.717 218.208C443.436 214.987 444.011 211.723 444.558 208.473C445.104 205.223 445.536 201.858 445.852 198.824L457.859 199.687Z" fill="#FFB573"/>
<path d="M449.677 185.293C444.817 186.5 441.466 206.489 441.466 206.489L454.839 215.577C454.839 215.577 467.666 195.445 463.928 190.11C460.002 184.545 456.752 183.481 449.677 185.293Z" fill="#CB7CD2"/>
<path opacity="0.2" d="M449.677 185.293C444.817 186.5 441.466 206.489 441.466 206.489L454.839 215.577C454.839 215.577 467.666 195.445 463.928 190.11C460.002 184.545 456.752 183.481 449.677 185.293Z" fill="black"/>
<path opacity="0.2" d="M450.108 189.75L446.384 209.868L453.89 214.973L450.108 189.75Z" fill="black"/>
<path d="M410.894 229.18L403.704 217.906L399.649 229.166C399.649 229.166 404.639 234.918 409.399 233.724L410.894 229.18Z" fill="#FFB573"/>
<path d="M396.025 213.679L391.237 222.494L399.635 229.166L403.69 217.906L396.025 213.679Z" fill="#FFB573"/>
<path d="M554.407 482.872L564.933 474.863C565.11 474.723 565.332 474.653 565.558 474.666C565.783 474.679 565.996 474.775 566.155 474.935L573.705 482.34C573.886 482.534 574.024 482.763 574.112 483.013C574.199 483.263 574.233 483.529 574.211 483.793C574.19 484.058 574.113 484.314 573.986 484.547C573.859 484.78 573.685 484.983 573.474 485.144C569.75 487.877 567.823 489.013 563.193 492.536C560.317 494.707 556.42 498.173 552.48 501.164C548.54 504.155 545.39 500.43 546.728 498.834C552.854 491.644 552.365 488.61 553.256 484.641C553.42 483.935 553.828 483.309 554.407 482.872Z" fill="#263238"/>
<path d="M463.741 520.016H476.97C477.2 520.01 477.423 520.089 477.598 520.237C477.773 520.386 477.888 520.594 477.919 520.821L479.357 531.29C479.386 531.553 479.358 531.82 479.276 532.072C479.194 532.325 479.06 532.557 478.882 532.754C478.704 532.951 478.487 533.108 478.244 533.215C478.001 533.322 477.739 533.376 477.474 533.375C472.858 533.303 470.643 533.03 464.819 533.03C461.253 533.03 450.971 533.403 446.025 533.403C441.078 533.403 440.819 528.514 442.875 528.068C452.107 526.084 458.607 523.352 461.727 520.735C462.293 520.265 463.006 520.011 463.741 520.016Z" fill="#263238"/>
<path d="M449.677 185.293C449.677 185.293 444.069 187.263 455.3 256.344H503.113C502.308 236.888 502.293 224.881 511.583 184.947C504.889 183.561 498.103 182.667 491.278 182.273C484.054 181.754 476.803 181.754 469.579 182.273C460.246 183.121 449.677 185.293 449.677 185.293Z" fill="#CB7CD2"/>
<path opacity="0.2" d="M449.677 185.293C449.677 185.293 444.069 187.263 455.3 256.344H503.113C502.308 236.888 502.293 224.881 511.583 184.947C504.889 183.561 498.103 182.667 491.278 182.273C484.054 181.754 476.803 181.754 469.579 182.273C460.246 183.121 449.677 185.293 449.677 185.293Z" fill="black"/>
<path d="M491.278 182.273C484.055 181.754 476.803 181.754 469.579 182.273C466.962 182.503 464.258 182.848 461.727 183.207C460.606 187.406 460.836 193.273 465.107 200.952L467.58 205.367L472.282 203.483C475.762 202.045 493.378 194.64 499.029 185.465L500.467 183.092C497.649 182.733 494.5 182.431 491.278 182.273Z" fill="white"/>
<path d="M491.278 182.273C486.404 177.614 487.77 164.801 489.136 157.827L475.806 169.245C477.157 174.68 477.359 180.447 469.579 182.316L468.141 182.46C466.401 185.738 465.97 190.8 470.125 198.278C470.125 198.278 489.165 190.599 494.126 182.575C493.234 182.388 492.242 182.316 491.278 182.273Z" fill="#FFB573"/>
<path opacity="0.2" d="M483.7 162.472L475.805 169.245C476.148 170.506 476.374 171.796 476.481 173.098C479.458 172.667 483.542 169.403 483.858 166.282C484.043 165.013 483.989 163.721 483.7 162.472Z" fill="black"/>
<path d="M497.936 146.668C494.442 157.827 493.205 162.615 486.058 167.016C475.302 173.645 462.36 166.915 462.446 154.951C462.518 144.18 468.198 127.744 480.407 125.975C483.094 125.573 485.838 125.864 488.381 126.82C490.923 127.777 493.18 129.366 494.935 131.439C496.691 133.512 497.888 135.999 498.414 138.664C498.939 141.329 498.775 144.084 497.936 146.668Z" fill="#FFB573"/>
<path d="M500.165 130.419C496.34 126.897 491.384 124.857 486.188 124.667C485.466 124.026 484.57 123.616 483.614 123.488C478.193 122.38 472.11 123.847 469.334 127.284C466.847 130.419 475.317 132.259 481.399 129.772C482.276 139.377 490.387 159.136 498.123 157.352C508.232 155.052 508.319 137.968 500.165 130.419Z" fill="#263238"/>
<path d="M455.3 256.344C455.3 256.344 446.01 347.039 446.787 382.888C447.592 420.276 461.267 505.391 461.267 505.391H477.186C477.186 505.391 474.67 422.404 476.079 385.735C477.617 345.745 490.315 256.315 490.315 256.315L455.3 256.344Z" fill="#263238"/>
<path d="M478.566 506.024H459.887L458.521 500.071L479.444 499.337L478.566 506.024Z" fill="#CB7CD2"/>
<path opacity="0.2" d="M475.978 278.906C464.23 302.533 473.62 345.63 477.775 361.663C479.904 337.591 483.528 308.141 486.288 286.528C484.462 274.305 481.342 268.021 475.978 278.906Z" fill="black"/>
<path d="M467.925 256.344C467.925 256.344 478.753 350.634 486.936 380.904C496.642 416.854 544.873 472.562 544.873 472.562L558.936 464.825C558.936 464.825 525.488 402.272 518.054 383.334C502.236 342.926 515.782 282.674 503.113 256.344H467.925Z" fill="#263238"/>
<path d="M560.964 464.667L543.507 474.259L538.632 469.801L558.649 457.592L560.964 464.667Z" fill="#CB7CD2"/>
<path d="M479.127 145.23C478.912 146.151 478.236 146.769 477.689 146.668C477.143 146.568 476.783 145.647 477.013 144.727C477.243 143.807 477.905 143.174 478.451 143.289C478.998 143.404 479.357 144.295 479.127 145.23Z" fill="#263238"/>
<path d="M468.788 142.656C468.558 143.576 467.882 144.209 467.278 144.094C466.674 143.979 466.372 143.087 466.602 142.167C466.832 141.247 467.494 140.614 468.04 140.729C468.587 140.844 468.932 141.736 468.788 142.656Z" fill="#263238"/>
<path d="M468.285 140.83L466.228 139.65C466.228 139.65 466.933 141.664 468.285 140.83Z" fill="#263238"/>
<path d="M471.52 145.115C470.18 147.014 468.583 148.717 466.775 150.177C467.161 150.63 467.642 150.993 468.184 151.242C468.725 151.49 469.314 151.617 469.91 151.615L471.52 145.115Z" fill="#ED893E"/>
<path d="M474.051 156.461C473.567 156.42 473.086 156.343 472.613 156.231C472.577 156.222 472.542 156.207 472.512 156.185C472.482 156.162 472.456 156.134 472.437 156.102C472.419 156.07 472.407 156.034 472.402 155.996C472.398 155.959 472.401 155.922 472.412 155.886C472.42 155.851 472.435 155.818 472.457 155.789C472.478 155.76 472.505 155.735 472.535 155.716C472.566 155.698 472.6 155.685 472.636 155.68C472.671 155.674 472.708 155.676 472.743 155.684C473.887 155.985 475.087 156.012 476.244 155.762C477.401 155.512 478.482 154.993 479.4 154.246C479.425 154.219 479.455 154.197 479.488 154.182C479.522 154.166 479.558 154.159 479.595 154.159C479.631 154.159 479.668 154.166 479.701 154.182C479.735 154.197 479.764 154.219 479.789 154.246C479.814 154.272 479.835 154.302 479.849 154.335C479.863 154.369 479.87 154.404 479.87 154.44C479.87 154.477 479.863 154.512 479.849 154.546C479.835 154.579 479.814 154.609 479.789 154.635C479 155.303 478.087 155.808 477.103 156.122C476.118 156.435 475.081 156.551 474.051 156.461Z" fill="#263238"/>
<path d="M498.44 157.812C497.162 159.677 495.197 160.96 492.975 161.379C490.027 161.896 488.834 159.193 489.898 156.561C490.847 154.189 493.522 151.068 496.369 151.73C496.986 151.888 497.555 152.198 498.023 152.631C498.491 153.065 498.843 153.608 499.049 154.211C499.254 154.815 499.306 155.46 499.2 156.089C499.093 156.718 498.832 157.31 498.44 157.812Z" fill="#FFB573"/>
<path d="M483.844 144.137C483.725 144.128 483.612 144.081 483.522 144.004C483.431 143.926 483.368 143.822 483.341 143.706C482.765 141.189 479.702 139.909 479.674 139.895C479.604 139.868 479.541 139.827 479.488 139.776C479.434 139.724 479.392 139.663 479.362 139.594C479.333 139.526 479.317 139.453 479.316 139.378C479.315 139.304 479.329 139.23 479.357 139.161C479.417 139.027 479.527 138.92 479.664 138.864C479.8 138.808 479.953 138.806 480.091 138.859C480.234 138.859 483.729 140.384 484.405 143.447C484.422 143.518 484.425 143.593 484.413 143.666C484.401 143.739 484.375 143.808 484.336 143.871C484.298 143.934 484.247 143.988 484.187 144.032C484.127 144.075 484.06 144.106 483.988 144.123L483.844 144.137Z" fill="#263238"/>
<path d="M466.76 137.077C466.666 137.063 466.577 137.027 466.5 136.972C466.422 136.917 466.359 136.844 466.315 136.76C466.25 136.627 466.241 136.473 466.29 136.333C466.338 136.193 466.44 136.078 466.573 136.012C467.36 135.604 468.233 135.391 469.119 135.391C470.005 135.391 470.878 135.604 471.664 136.012C471.789 136.09 471.878 136.213 471.913 136.355C471.948 136.498 471.926 136.648 471.851 136.775C471.814 136.838 471.765 136.893 471.706 136.937C471.647 136.98 471.581 137.012 471.509 137.029C471.438 137.047 471.364 137.05 471.292 137.038C471.22 137.026 471.151 137 471.089 136.962C470.465 136.643 469.776 136.478 469.076 136.478C468.376 136.478 467.686 136.643 467.062 136.962C466.971 137.021 466.868 137.061 466.76 137.077Z" fill="#263238"/>
<path d="M517.09 198.652C518.528 205.842 519.593 212.816 520.412 219.977C520.844 223.543 521.16 227.167 521.404 230.762C521.534 232.56 521.606 234.386 521.678 236.212L521.75 238.959V240.066C521.75 240.411 521.75 240.756 521.75 241.101C521.567 242.715 520.872 244.227 519.765 245.415C518.913 246.303 517.871 246.987 516.717 247.414C515.967 247.709 515.185 247.917 514.387 248.033C513.188 248.212 511.974 248.27 510.763 248.205C508.755 248.099 506.756 247.854 504.781 247.472C501.151 246.742 497.565 245.811 494.039 244.682C490.588 243.575 487.194 242.381 483.83 241.13C480.465 239.879 477.172 238.484 473.879 236.96L475.877 231.352C479.242 232.171 482.665 233.034 486.073 233.796C489.481 234.558 492.875 235.364 496.254 236.011C499.633 236.658 503.012 237.262 506.32 237.593C507.837 237.774 509.365 237.846 510.893 237.808C511.45 237.806 512.005 237.738 512.546 237.607C512.748 237.607 512.805 237.506 512.762 237.521C512.439 237.63 512.151 237.824 511.928 238.082C511.432 238.613 511.115 239.287 511.022 240.009C511.001 240.132 511.001 240.259 511.022 240.382C511.022 240.382 511.022 240.21 511.022 240.138V239.505L510.792 236.96L510.231 231.841C509.814 228.418 509.34 224.981 508.793 221.545C508.247 218.108 507.729 214.671 507.154 211.234C506.579 207.797 505.989 204.346 505.414 200.981L517.09 198.652Z" fill="#FFB573"/>
<path d="M511.583 184.947C516.386 186.385 522.138 202.894 522.138 202.894L503.544 216.181C503.544 216.181 496.771 202.419 498.785 196.221C500.884 189.779 506.176 183.279 511.583 184.947Z" fill="#CB7CD2"/>
<path opacity="0.2" d="M511.583 184.947C516.386 186.385 522.138 202.894 522.138 202.894L503.544 216.181C503.544 216.181 496.771 202.419 498.785 196.221C500.884 189.779 506.176 183.279 511.583 184.947Z" fill="black"/>
<path d="M550.438 487.833H550.294C550.024 487.801 549.766 487.702 549.544 487.543C549.323 487.385 549.146 487.173 549.028 486.927C548.948 486.779 548.906 486.614 548.906 486.446C548.906 486.277 548.948 486.112 549.028 485.964C549.747 484.641 553.99 484.31 554.478 484.281C554.531 484.274 554.585 484.284 554.632 484.31C554.679 484.336 554.716 484.376 554.737 484.425C554.768 484.472 554.785 484.527 554.785 484.583C554.785 484.64 554.768 484.695 554.737 484.741C553.702 485.906 551.904 487.833 550.438 487.833ZM553.788 484.957C552.106 485.13 549.862 485.59 549.474 486.295C549.433 486.356 549.411 486.429 549.411 486.503C549.411 486.577 549.433 486.65 549.474 486.712C549.544 486.878 549.657 487.023 549.801 487.131C549.945 487.24 550.115 487.308 550.294 487.33C551.142 487.344 552.408 486.467 553.788 484.9V484.957Z" fill="#CB7CD2"/>
<path d="M554.047 484.857C552.609 484.857 549.906 484.166 549.374 483.073C549.276 482.873 549.251 482.646 549.3 482.429C549.35 482.212 549.472 482.018 549.647 481.88C549.798 481.728 549.98 481.612 550.182 481.54C550.384 481.468 550.599 481.441 550.812 481.463C552.523 481.592 554.579 484.339 554.665 484.339C554.689 484.383 554.702 484.432 554.702 484.483C554.702 484.533 554.689 484.582 554.665 484.626C554.646 484.669 554.616 484.706 554.578 484.734C554.54 484.761 554.496 484.779 554.45 484.785C554.318 484.821 554.183 484.845 554.047 484.857ZM550.682 481.981C550.439 481.984 550.207 482.082 550.035 482.254C549.776 482.498 549.819 482.671 549.877 482.8C550.236 483.534 552.451 484.238 553.889 484.238C553.155 483.375 551.789 482.024 550.768 481.952L550.682 481.981Z" fill="#CB7CD2"/>
<path d="M459.326 522.072C458.313 522.174 457.296 521.919 456.45 521.353C456.259 521.186 456.113 520.973 456.025 520.734C455.937 520.496 455.91 520.239 455.947 519.987C455.953 519.836 455.999 519.688 456.08 519.56C456.161 519.431 456.273 519.326 456.407 519.254C457.845 518.463 462.547 520.85 463.079 521.138C463.13 521.164 463.172 521.206 463.198 521.258C463.224 521.31 463.232 521.368 463.223 521.425C463.215 521.481 463.19 521.533 463.152 521.574C463.113 521.616 463.063 521.644 463.007 521.655C461.796 521.908 460.563 522.047 459.326 522.072ZM457.284 519.642C457.106 519.632 456.928 519.666 456.766 519.743C456.711 519.771 456.664 519.815 456.631 519.868C456.598 519.921 456.58 519.982 456.579 520.045C456.558 520.208 456.575 520.374 456.63 520.529C456.685 520.684 456.776 520.823 456.896 520.936C457.615 521.583 459.556 521.684 462.159 521.253C460.639 520.44 458.989 519.895 457.284 519.642Z" fill="#CB7CD2"/>
<path d="M463.036 521.655H462.921C461.483 521.008 458.736 518.477 458.966 517.14C458.966 516.824 459.24 516.436 460.002 516.349C460.28 516.322 460.561 516.351 460.828 516.435C461.095 516.519 461.342 516.656 461.555 516.838C462.993 518.075 463.309 521.238 463.309 521.368C463.317 521.418 463.311 521.468 463.29 521.514C463.27 521.56 463.236 521.599 463.194 521.627C463.145 521.651 463.09 521.661 463.036 521.655ZM460.16 516.881H459.987C459.484 516.881 459.455 517.14 459.441 517.198C459.312 518.003 461.195 520.002 462.619 520.865C462.526 519.537 462.024 518.271 461.181 517.241C460.9 516.993 460.534 516.864 460.16 516.881Z" fill="#CB7CD2"/>
<path d="M478.71 143.361L476.654 142.181C476.654 142.181 477.416 144.223 478.71 143.361Z" fill="#263238"/>
<path d="M503.832 253.54L505.054 257.854C505.213 258.199 504.824 258.53 504.278 258.53H455.055C454.624 258.53 454.279 258.314 454.25 258.055L453.818 253.741C453.818 253.439 454.164 253.195 454.624 253.195H503.056C503.204 253.182 503.353 253.207 503.488 253.267C503.624 253.328 503.742 253.422 503.832 253.54Z" fill="#CB7CD2"/>
<path d="M497.332 258.947H498.626C498.885 258.947 499.072 258.817 499.058 258.659L498.454 253.094C498.454 252.936 498.209 252.792 497.951 252.792H496.656C496.398 252.792 496.196 252.936 496.211 253.094L496.829 258.659C496.843 258.817 497.073 258.947 497.332 258.947Z" fill="#263238"/>
<path d="M458.722 258.947H460.016C460.275 258.947 460.476 258.817 460.448 258.659L459.844 253.094C459.844 252.936 459.599 252.792 459.34 252.792H458.046C457.787 252.792 457.586 252.936 457.615 253.094L458.219 258.659C458.219 258.817 458.449 258.947 458.722 258.947Z" fill="#263238"/>
<path d="M478.02 258.947H479.314C479.573 258.947 479.774 258.817 479.746 258.659L479.142 253.094C479.142 252.936 478.897 252.792 478.638 252.792H477.416C477.157 252.792 476.956 252.936 476.985 253.094L477.589 258.659C477.531 258.817 477.761 258.947 478.02 258.947Z" fill="#263238"/>
<path d="M432.637 272.594C454.024 272.594 471.362 255.256 471.362 233.868C471.362 212.481 454.024 195.143 432.637 195.143C411.249 195.143 393.911 212.481 393.911 233.868C393.911 255.256 411.249 272.594 432.637 272.594Z" fill="#CB7CD2"/>
<path opacity="0.4" d="M432.637 272.594C454.024 272.594 471.362 255.256 471.362 233.868C471.362 212.481 454.024 195.143 432.637 195.143C411.249 195.143 393.911 212.481 393.911 233.868C393.911 255.256 411.249 272.594 432.637 272.594Z" fill="black"/>
<path d="M400.972 229.64C400.242 234.908 400.855 240.275 402.755 245.243C405.514 252.527 410.839 258.552 417.728 262.186C424.618 265.82 432.597 266.813 440.167 264.977C447.736 263.141 454.375 258.603 458.834 252.217C463.293 245.831 465.266 238.035 464.381 230.297C463.497 222.558 459.816 215.409 454.031 210.193C448.246 204.978 440.755 202.055 432.966 201.974C425.178 201.894 417.628 204.661 411.736 209.755C405.844 214.85 402.016 221.922 400.972 229.64Z" fill="#CB7CD2"/>
<path d="M402.755 245.171C404.79 250.555 408.242 255.29 412.746 258.874C417.25 262.458 422.638 264.76 428.342 265.534C434.046 266.309 439.853 265.529 445.15 263.276C450.447 261.023 455.036 257.381 458.434 252.735C450.941 246.111 441.652 241.858 431.741 240.511C421.831 239.165 411.744 240.787 402.755 245.171Z" fill="white"/>
<path d="M447.539 227.765C450.152 220.35 446.259 212.22 438.843 209.607C431.428 206.994 423.298 210.888 420.685 218.303C418.072 225.719 421.965 233.849 429.381 236.462C436.797 239.074 444.926 235.181 447.539 227.765Z" fill="white"/>
<path d="M477.215 231.596L468.314 222.522L467.177 234.443C467.177 234.443 473.433 238.757 477.776 236.428L477.215 231.596Z" fill="#FFB573"/>
<path d="M458.492 221.228L458.089 231.265L467.177 234.443L468.313 222.522L458.492 221.228Z" fill="#FFB573"/>
</svg>
