<svg width="619" height="598" viewBox="0 0 619 598" fill="none" xmlns="http://www.w3.org/2000/svg">
<path d="M567.676 0H44.9833V347.645H567.676V0Z" fill="#E0E0E0"/>
<path d="M551.833 15.546H29.1409V363.191H551.833V15.546Z" fill="#EBEBEB"/>
<path d="M61.1085 469.068C66.2457 466.659 72.0185 465.956 77.5835 467.062C80.5851 467.56 83.6944 468.408 85.6595 470.696C87.6247 472.985 88.0823 476.888 85.7403 478.772C84.2417 479.809 82.4264 480.285 80.612 480.118C76.251 480.118 71.4188 479.311 67.9462 481.922C65.9541 483.416 64.635 485.96 62.266 486.646C61.0836 486.925 59.8429 486.813 58.7293 486.328C57.6157 485.843 56.6891 485.01 56.0879 483.954C54.9507 481.773 54.7 479.236 55.388 476.874C55.6661 475.217 56.3284 473.648 57.3217 472.292C58.315 470.937 59.6119 469.832 61.1085 469.068Z" fill="#EBEBEB"/>
<path d="M49.6271 446.953C52.696 451.327 58.6453 449.874 61.4046 447.209C64.1639 444.544 65.3349 440.654 66.3983 436.966C68.8345 428.526 71.2843 419.683 69.4672 411.082C69.0339 408.478 67.8932 406.042 66.1694 404.042C65.292 403.061 64.1734 402.326 62.9244 401.911C61.6754 401.495 60.3395 401.413 59.0491 401.673C56.0475 402.468 54.1766 405.415 52.8306 408.215C48.8511 416.476 46.7678 425.522 46.7332 434.691C46.7332 438.958 47.2178 443.426 49.6271 446.953Z" fill="#EBEBEB"/>
<path d="M41.2146 453.171C44.5392 449.227 45.1718 443.467 43.6912 438.513C42.0084 433.6 39.0046 429.246 35.0095 425.928C30.475 421.885 25.1939 418.766 19.4632 416.749C17.2438 415.85 14.8554 415.446 12.464 415.564C11.2709 415.635 10.113 415.996 9.09057 416.615C8.0681 417.235 7.21174 418.093 6.59547 419.117C4.96681 422.24 6.52817 426.022 8.22413 429.105C11.2139 434.548 14.63 439.747 18.4403 444.651C21.4957 448.595 25.0087 452.498 29.6659 454.275C34.3231 456.052 39.1821 455.85 41.6588 452.619" fill="#EBEBEB"/>
<path d="M49.4118 512.907C49.5862 512.257 49.6811 511.588 49.6944 510.915C49.8425 509.461 50.0175 507.644 50.2194 505.531C50.4932 502.856 50.902 500.196 51.4442 497.562C52.1584 494.35 53.1261 491.2 54.3381 488.14C55.5265 485.09 57.1446 482.226 59.1433 479.634C60.7618 477.522 62.8311 475.797 65.2003 474.586C66.8129 473.795 68.5383 473.26 70.3151 472.998C70.9822 472.967 71.6448 472.872 72.2938 472.715C71.6226 472.645 70.946 472.645 70.2748 472.715C68.4144 472.841 66.5913 473.296 64.8908 474.061C62.392 475.241 60.1995 476.983 58.4838 479.149C56.4071 481.781 54.7333 484.707 53.5171 487.831C52.2749 490.924 51.3109 494.123 50.6366 497.387C50.1215 500.056 49.7664 502.753 49.5733 505.463C49.4118 507.765 49.3445 509.636 49.3041 510.847C49.2685 511.536 49.3046 512.226 49.4118 512.907Z" fill="#E0E0E0"/>
<path d="M49.7886 508.747C49.8297 508.444 49.8297 508.136 49.7886 507.832V505.14C49.7886 502.838 49.7886 499.527 49.8963 495.435C50.1117 487.252 50.8116 478.435 52.1711 466.012C53.5171 454.342 55.1861 440.747 57.0167 431.904C57.407 429.899 57.7974 428.095 58.1742 426.52C58.5511 424.945 58.8338 423.559 59.1164 422.482C59.3991 421.405 59.5741 420.598 59.7356 419.911C59.826 419.619 59.8803 419.316 59.8971 419.01C59.7545 419.282 59.646 419.572 59.5741 419.871C59.3722 420.531 59.1299 421.379 58.8203 422.401C58.5107 423.424 58.1204 424.865 57.73 426.439C57.3397 428.014 56.8821 429.818 56.384 431.823C54.1269 442.279 52.4241 452.846 51.2827 463.481C49.9367 475.932 49.3041 487.265 49.2502 495.462C49.2502 499.568 49.2502 502.892 49.3983 505.18C49.3983 506.257 49.5194 507.132 49.5598 507.872C49.6006 508.172 49.6774 508.466 49.7886 508.747Z" fill="#E0E0E0"/>
<path d="M49.8424 486.888C49.9245 485.97 49.9245 485.047 49.8424 484.129C49.7348 482.366 49.4925 479.808 48.9945 476.672C48.3943 472.999 47.5854 469.364 46.5717 465.783C45.3771 461.382 43.8564 457.077 42.0222 452.902C38.8606 445.237 34.3419 438.206 28.6833 432.147C27.6938 431.11 26.642 430.134 25.5337 429.226C25.0491 428.822 24.6319 428.405 24.1877 428.082L22.9763 427.247C22.2453 426.686 21.4661 426.19 20.6477 425.766C23.3253 427.843 25.8656 430.091 28.2526 432.496C33.7432 438.617 38.1536 445.626 41.2953 453.225C43.1 457.373 44.6288 461.636 45.8717 465.985C47.0562 470.023 47.8504 473.671 48.4561 476.753C49.0618 479.835 49.3444 482.393 49.5463 484.142C49.5742 485.064 49.6732 485.982 49.8424 486.888Z" fill="#E0E0E0"/>
<path d="M28.7237 525.451L30.9042 555.467H69.4671L71.6476 525.451H28.7237Z" fill="#E0E0E0"/>
<path d="M76.251 513.62H24.9953V525.451H76.251V513.62Z" fill="#E0E0E0"/>
<path d="M24.9953 554.31V557.594H27.4046H75.403V554.31H24.9953Z" fill="#EBEBEB"/>
<path d="M29.7602 563.369L27.4047 557.594H73.5725L70.8132 563.369H29.7602Z" fill="#E0E0E0"/>
<path d="M70.9342 535.264C70.886 535.359 70.8273 535.45 70.7592 535.533L70.1804 536.3L67.9326 539.167L67.8384 539.302L67.7307 539.167L62.2256 531.535H62.5352C60.893 533.864 59.0625 536.448 57.1512 539.234L56.9762 539.463L56.7877 539.248L50.3404 531.576H50.7173L50.3539 532.02L44.593 539.234L44.4045 539.477L44.2296 539.234L38.8456 531.535H39.1686L32.4386 539.154L32.3309 539.288L32.2367 539.14L30.0293 535.64L29.4909 534.712C29.4203 534.608 29.3659 534.495 29.3293 534.375C29.3293 534.375 29.4101 534.469 29.5582 534.671L30.1504 535.573C30.6888 536.408 31.4964 537.579 32.3444 539.032H32.1425L38.7244 531.32L38.8859 531.118L39.0475 531.333C40.703 533.662 42.5471 536.233 44.5257 538.992H44.1623C45.9794 536.69 47.9041 534.268 49.9097 531.764L50.2596 531.32L50.4346 531.091L50.6231 531.306L57.0569 538.992H56.6935L62.1852 531.333L62.3333 531.118L62.4948 531.333L67.8788 539.046H67.7173L70.0458 536.246L70.6785 535.519C70.8534 535.331 70.9207 535.25 70.9342 535.264Z" fill="#F5F5F5"/>
<path d="M72.1861 525.25C72.1861 525.384 62.5219 525.492 50.6501 525.492C38.7784 525.492 29.1141 525.384 29.1141 525.25C29.1141 525.115 38.765 525.021 50.6501 525.021C62.5353 525.021 72.1861 525.129 72.1861 525.25Z" fill="#F5F5F5"/>
<path d="M74.1378 557.917C74.1378 558.051 63.639 558.159 50.6905 558.159C37.742 558.159 27.2432 558.051 27.2432 557.917C27.2432 557.782 37.742 557.674 50.6905 557.674C63.639 557.674 74.1378 557.782 74.1378 557.917Z" fill="#F5F5F5"/>
<path d="M576.922 563.355C576.922 563.557 447.707 563.719 288.475 563.719C129.243 563.719 0 563.557 0 563.355C0 563.153 129.135 563.005 288.475 563.005C447.814 563.005 576.922 563.167 576.922 563.355Z" fill="#263238"/>
<path d="M533.972 378.738C533.972 376.463 533.864 244.138 533.689 33.5829L533.972 33.8656H11.3199L11.6699 33.5156C11.6699 156.338 11.6699 273.184 11.6699 378.67L11.3468 378.347L534.039 378.67L11.3468 378.993H11.0238V378.67C11.0238 273.184 11.0238 156.338 11.0238 33.5156V33.1656H11.4141H534.066H534.349V33.4483C534.079 244.084 533.972 376.463 533.972 378.738Z" fill="#263238"/>
<path d="M61.418 188.279L61.8487 187.417C62.807 188.286 64.0549 188.766 65.3483 188.763C67.3269 188.763 68.1883 187.929 68.1883 186.892C68.1883 183.985 61.6737 185.762 61.6737 181.858C61.6737 180.297 62.8851 178.951 65.5637 178.951C66.7269 178.938 67.8685 179.265 68.8479 179.893L68.471 180.781C67.6059 180.217 66.5966 179.913 65.5637 179.906C63.6389 179.906 62.7774 180.768 62.7774 181.818C62.7774 184.725 69.2921 182.975 69.2921 186.825C69.2921 188.386 68.0537 189.719 65.3483 189.719C63.9031 189.754 62.4984 189.239 61.418 188.279Z" fill="#407BFF"/>
<path d="M75.6857 189.086C75.2073 189.463 74.6115 189.658 74.0032 189.638C73.691 189.674 73.3748 189.639 73.0778 189.537C72.7808 189.434 72.5106 189.266 72.2872 189.046C72.0637 188.825 71.8927 188.556 71.7866 188.261C71.6806 187.965 71.6423 187.649 71.6746 187.337V182.531H70.3286V181.616H71.6746V179.88H72.7514V181.616H75.1742V182.531H72.7514V187.269C72.7365 187.455 72.7603 187.642 72.8212 187.817C72.8822 187.993 72.979 188.155 73.1055 188.291C73.232 188.428 73.3854 188.537 73.5562 188.611C73.7269 188.685 73.9112 188.724 74.0974 188.723C74.5278 188.734 74.9479 188.591 75.2819 188.319L75.6857 189.086Z" fill="#407BFF"/>
<path d="M84.2731 185.923H77.6238C77.6444 186.311 77.7417 186.691 77.9103 187.041C78.0788 187.391 78.3152 187.704 78.6057 187.962C78.8962 188.22 79.235 188.418 79.6025 188.544C79.97 188.67 80.3589 188.722 80.7465 188.696C81.2048 188.711 81.6606 188.624 82.0817 188.443C82.5027 188.261 82.8787 187.989 83.1828 187.646L83.7885 188.346C83.2194 188.937 82.4902 189.349 81.6903 189.532C80.8904 189.714 80.0547 189.659 79.2857 189.373C78.5167 189.087 77.8479 188.583 77.3614 187.922C76.8749 187.262 76.5918 186.473 76.547 185.654C76.5173 185.129 76.5964 184.603 76.7794 184.109C76.9624 183.616 77.2453 183.165 77.6105 182.786C77.9757 182.407 78.4153 182.107 78.9016 181.906C79.388 181.705 79.9107 181.606 80.4369 181.616C80.9615 181.606 81.4826 181.704 81.967 181.906C82.4514 182.108 82.8885 182.408 83.2505 182.788C83.6126 183.168 83.8917 183.619 84.07 184.112C84.2484 184.606 84.3221 185.131 84.2865 185.654C84.2865 185.681 84.2731 185.829 84.2731 185.923ZM77.6238 185.129H83.2636C83.2142 184.415 82.8956 183.746 82.3722 183.258C81.8488 182.769 81.1596 182.498 80.4437 182.498C79.7278 182.498 79.0385 182.769 78.5151 183.258C77.9917 183.746 77.6732 184.415 77.6238 185.129Z" fill="#407BFF"/>
<path d="M94.5297 185.6C94.5579 186.131 94.4756 186.662 94.2878 187.16C94.1 187.657 93.8109 188.11 93.4388 188.489C93.0667 188.869 92.6198 189.167 92.1263 189.365C91.6329 189.563 91.1037 189.656 90.5724 189.638C89.978 189.659 89.3883 189.527 88.8602 189.253C88.332 188.98 87.8833 188.575 87.5574 188.077V192.559H86.4806V181.67H87.5035V183.137C87.827 182.62 88.2809 182.197 88.8197 181.912C89.3584 181.626 89.9629 181.487 90.5724 181.509C91.1086 181.49 91.6425 181.585 92.1399 181.786C92.6372 181.987 93.0868 182.29 93.4598 182.676C93.8327 183.061 94.1206 183.521 94.3049 184.025C94.4892 184.528 94.5657 185.065 94.5297 185.6ZM93.4663 185.6C93.4426 185.017 93.2478 184.454 92.9062 183.981C92.5646 183.507 92.0914 183.145 91.5454 182.939C90.9994 182.733 90.4049 182.692 89.8357 182.821C89.2665 182.95 88.748 183.244 88.3445 183.665C87.9411 184.087 87.6707 184.618 87.5669 185.193C87.4631 185.767 87.5306 186.359 87.7609 186.895C87.9912 187.432 88.3742 187.888 88.8622 188.209C89.3501 188.529 89.9215 188.698 90.5051 188.696C90.9067 188.701 91.3049 188.622 91.675 188.467C92.0451 188.311 92.3793 188.081 92.6569 187.79C92.9345 187.5 93.1496 187.156 93.2888 186.779C93.428 186.403 93.4885 186.001 93.4663 185.6Z" fill="#407BFF"/>
<path d="M106.98 186.529C106.98 188.306 105.634 189.665 103.144 189.665C101.75 189.714 100.389 189.233 99.3348 188.319L99.8598 187.458C100.755 188.273 101.933 188.708 103.144 188.669C104.894 188.669 105.836 187.862 105.836 186.543C105.836 185.223 104.934 184.443 102.969 184.443H102.215V183.649L105.15 179.974H99.7656V179.005H106.576V179.772L103.575 183.541C105.849 183.649 106.98 184.833 106.98 186.529Z" fill="#407BFF"/>
<path d="M434.368 322.959H379.68C378.349 322.959 377.27 324.038 377.27 325.369V353.487C377.27 354.817 378.349 355.896 379.68 355.896H434.368C435.698 355.896 436.777 354.817 436.777 353.487V325.369C436.777 324.038 435.698 322.959 434.368 322.959Z" fill="#E0E0E0"/>
<path d="M403.76 340.794C403.76 342.315 402.629 343.19 400.381 343.19H396.262V334.212H400.179C402.185 334.212 403.342 335.06 403.342 336.527C403.359 336.965 403.239 337.396 402.997 337.761C402.756 338.125 402.405 338.405 401.996 338.56C402.513 338.651 402.978 338.93 403.303 339.341C403.628 339.753 403.791 340.27 403.76 340.794ZM397.205 334.993V338.25H400.072C401.498 338.25 402.333 337.698 402.333 336.622C402.333 335.545 401.498 334.993 400.072 334.993H397.205ZM402.804 340.713C402.804 339.542 401.956 339.031 400.381 339.031H397.205V342.409H400.381C401.956 342.409 402.871 341.965 402.871 340.713H402.804Z" fill="white"/>
<path d="M410.813 339.004V343.19H409.951V342.14C409.696 342.515 409.346 342.816 408.937 343.012C408.528 343.209 408.075 343.293 407.623 343.257C406.102 343.257 405.159 342.45 405.159 341.292C405.159 340.135 405.832 339.381 407.771 339.381H409.911V338.964C409.911 337.819 409.251 337.187 407.999 337.187C407.18 337.177 406.383 337.458 405.752 337.981L405.348 337.308C406.113 336.701 407.064 336.378 408.04 336.393C408.403 336.333 408.776 336.357 409.128 336.465C409.481 336.572 409.804 336.76 410.072 337.012C410.34 337.265 410.547 337.576 410.675 337.922C410.804 338.267 410.851 338.637 410.813 339.004ZM409.911 341.157V340.054H407.798C406.452 340.054 406.061 340.579 406.061 341.265C406.061 341.952 406.694 342.53 407.771 342.53C408.227 342.558 408.68 342.44 409.065 342.194C409.45 341.947 409.746 341.584 409.911 341.157Z" fill="white"/>
<path d="M412.63 339.811C412.616 339.354 412.697 338.899 412.868 338.475C413.038 338.05 413.295 337.666 413.621 337.345C413.947 337.024 414.335 336.774 414.762 336.61C415.189 336.446 415.646 336.372 416.103 336.393C416.631 336.35 417.162 336.453 417.636 336.69C418.111 336.927 418.511 337.29 418.795 337.739L418.122 338.196C417.903 337.879 417.609 337.622 417.266 337.448C416.923 337.274 416.541 337.189 416.156 337.2C415.562 337.336 415.031 337.669 414.65 338.146C414.27 338.623 414.063 339.215 414.063 339.825C414.063 340.435 414.27 341.027 414.65 341.504C415.031 341.98 415.562 342.314 416.156 342.45C416.54 342.466 416.922 342.385 417.266 342.213C417.61 342.041 417.904 341.784 418.122 341.467L418.795 341.938C418.506 342.382 418.104 342.74 417.631 342.977C417.158 343.213 416.63 343.319 416.103 343.284C415.641 343.303 415.181 343.226 414.751 343.058C414.322 342.891 413.931 342.636 413.605 342.309C413.278 341.983 413.023 341.592 412.855 341.162C412.688 340.733 412.611 340.272 412.63 339.811Z" fill="white"/>
<path d="M422.927 339.798L421.338 341.265V343.19H420.369V333.673H421.285V340.121L425.323 336.446H426.44L423.6 339.273L426.749 343.311H425.646L422.927 339.798Z" fill="white"/>
<path d="M389.021 336.649C388.31 337.575 387.497 338.42 386.598 339.166V338.856C387.503 339.591 388.32 340.426 389.034 341.346C388.057 340.73 387.153 340.003 386.342 339.179L386.181 339.018L386.342 338.87C387.144 338.025 388.043 337.28 389.021 336.649Z" fill="white"/>
<path d="M392.871 339.017C390.74 339.304 388.581 339.304 386.45 339.017C388.581 338.73 390.74 338.73 392.871 339.017Z" fill="white"/>
<path d="M504.185 322.959H449.497C448.166 322.959 447.087 324.038 447.087 325.369V353.487C447.087 354.817 448.166 355.896 449.497 355.896H504.185C505.515 355.896 506.594 354.817 506.594 353.487V325.369C506.594 324.038 505.515 322.959 504.185 322.959Z" fill="#407BFF"/>
<path d="M465.783 334.212V343.19H465.003L459.242 335.908V343.19H458.299V334.212H459.08L464.855 341.494V334.212H465.783Z" fill="white"/>
<path d="M474.384 340.094H468.744C468.763 340.426 468.848 340.751 468.994 341.05C469.141 341.348 469.345 341.615 469.596 341.833C469.847 342.051 470.139 342.217 470.455 342.321C470.771 342.424 471.105 342.463 471.436 342.436C471.825 342.448 472.211 342.376 472.569 342.225C472.926 342.074 473.247 341.848 473.509 341.561L474.021 342.153C473.535 342.659 472.912 343.01 472.228 343.163C471.544 343.317 470.831 343.265 470.176 343.016C469.521 342.766 468.955 342.329 468.547 341.759C468.139 341.189 467.908 340.511 467.883 339.811C467.854 339.363 467.918 338.914 468.069 338.491C468.221 338.069 468.458 337.682 468.765 337.354C469.072 337.027 469.443 336.766 469.855 336.587C470.267 336.409 470.712 336.317 471.161 336.317C471.61 336.317 472.054 336.409 472.466 336.587C472.878 336.766 473.249 337.027 473.556 337.354C473.863 337.682 474.1 338.069 474.252 338.491C474.403 338.914 474.467 339.363 474.438 339.811C474.398 339.892 474.384 340 474.384 340.094ZM468.744 339.421H473.523C473.477 338.818 473.206 338.255 472.763 337.844C472.32 337.433 471.738 337.204 471.134 337.204C470.529 337.204 469.947 337.433 469.504 337.844C469.061 338.255 468.79 338.818 468.744 339.421Z" fill="white"/>
<path d="M480.361 343.19L478.22 340.363L476.067 343.19H475.03L477.722 339.73L475.178 336.446H476.201L478.234 339.138L480.253 336.446H481.249L478.718 339.73L481.41 343.19H480.361Z" fill="white"/>
<path d="M486.458 342.773C486.049 343.13 485.521 343.322 484.977 343.311C484.711 343.341 484.442 343.31 484.19 343.222C483.937 343.134 483.707 342.991 483.518 342.802C483.328 342.614 483.183 342.385 483.093 342.133C483.003 341.881 482.971 341.612 482.999 341.346V337.308H481.801V336.541H482.999V335.06H483.914V336.541H485.96V337.308H483.914V341.346C483.891 341.508 483.905 341.672 483.954 341.828C484.004 341.983 484.089 342.125 484.202 342.243C484.314 342.361 484.452 342.452 484.606 342.509C484.759 342.566 484.923 342.587 485.085 342.571C485.447 342.582 485.8 342.462 486.081 342.234L486.458 342.773Z" fill="white"/>
<path d="M492.649 341.346C493.361 340.419 494.173 339.575 495.072 338.829V339.139C494.168 338.404 493.35 337.569 492.636 336.649C493.616 337.268 494.519 337.999 495.328 338.829L495.503 338.977L495.328 339.139C494.526 339.978 493.627 340.719 492.649 341.346Z" fill="white"/>
<path d="M488.8 338.977C489.86 338.778 490.94 338.711 492.017 338.775C493.089 338.71 494.165 338.778 495.22 338.977C494.167 339.192 493.09 339.265 492.017 339.192C490.94 339.264 489.858 339.192 488.8 338.977Z" fill="white"/>
<path d="M73.9493 145.678C81.2642 145.678 87.194 139.748 87.194 132.433C87.194 125.119 81.2642 119.189 73.9493 119.189C66.6345 119.189 60.7047 125.119 60.7047 132.433C60.7047 139.748 66.6345 145.678 73.9493 145.678Z" fill="#407BFF"/>
<path d="M343.97 133.201C343.857 132.123 343.677 131.053 343.432 129.997C342.664 127.143 340.957 124.63 338.586 122.863C336.981 121.641 335.108 120.82 333.122 120.467C330.844 120.053 328.496 120.257 326.324 121.06C323.924 121.934 321.839 123.504 320.335 125.569C318.709 127.779 317.832 130.45 317.832 133.194C317.832 135.937 318.709 138.609 320.335 140.819C321.083 141.854 321.991 142.763 323.027 143.511C324.021 144.265 325.123 144.865 326.297 145.288C328.472 146.08 330.818 146.279 333.095 145.866C335.081 145.514 336.954 144.693 338.559 143.471C340.93 141.704 342.637 139.191 343.405 136.337C343.648 135.285 343.828 134.22 343.943 133.147C344.029 134.241 343.934 135.341 343.661 136.404C342.977 139.374 341.284 142.015 338.869 143.874C337.205 145.159 335.265 146.039 333.202 146.445C330.817 146.893 328.356 146.703 326.069 145.893C324.837 145.457 323.68 144.835 322.636 144.049C321.528 143.255 320.555 142.287 319.756 141.182C318.027 138.86 317.094 136.042 317.094 133.147C317.094 130.252 318.027 127.434 319.756 125.111C320.551 123.999 321.525 123.026 322.636 122.231C323.68 121.445 324.837 120.823 326.069 120.387C328.356 119.577 330.817 119.387 333.202 119.835C335.265 120.241 337.205 121.121 338.869 122.406C341.284 124.265 342.977 126.906 343.661 129.876C343.949 130.959 344.053 132.083 343.97 133.201Z" fill="#263238"/>
<path d="M472.298 131.666C472.204 131.666 472.298 130.481 471.746 128.462C470.972 125.614 469.272 123.104 466.914 121.328C465.182 120.025 463.151 119.178 461.006 118.862C458.862 118.547 456.672 118.775 454.638 119.525C453.467 119.948 452.365 120.543 451.368 121.288C450.336 122.04 449.427 122.948 448.676 123.98C447.049 126.192 446.171 128.866 446.171 131.612C446.171 134.358 447.049 137.032 448.676 139.244C450.18 141.309 452.265 142.878 454.665 143.753C456.699 144.503 458.888 144.73 461.033 144.415C463.178 144.1 465.209 143.252 466.941 141.949C469.299 140.173 470.999 137.664 471.773 134.815C472.298 132.796 472.231 131.612 472.325 131.612C472.402 132.71 472.307 133.814 472.042 134.883C471.445 137.384 470.14 139.66 468.282 141.438C466.425 143.216 464.095 144.422 461.57 144.91C459.191 145.371 456.731 145.18 454.45 144.358C453.214 143.93 452.052 143.312 451.004 142.528C449.893 141.732 448.919 140.759 448.124 139.647C446.395 137.325 445.462 134.507 445.462 131.612C445.462 128.717 446.395 125.899 448.124 123.576C448.919 122.464 449.893 121.491 451.004 120.696C452.052 119.912 453.214 119.294 454.45 118.865C456.731 118.044 459.191 117.853 461.57 118.313C464.095 118.802 466.425 120.007 468.282 121.786C470.14 123.564 471.445 125.84 472.042 128.341C472.303 129.429 472.389 130.551 472.298 131.666Z" fill="#263238"/>
<path d="M79.468 128.853C77.9309 130.982 76.2056 132.968 74.3128 134.789C73.8417 135.3 73.3706 135.785 72.9668 136.242L72.7245 136.498L72.4822 136.256C70.9996 134.969 69.6471 133.54 68.4442 131.989C70.0657 133.09 71.5679 134.358 72.9264 135.771H72.4553C72.886 135.3 73.3436 134.802 73.8013 134.304C75.5246 132.322 77.421 130.498 79.468 128.853Z" fill="white"/>
<path d="M185.586 129.741H89.6974V135.125H185.586V129.741Z" fill="#407BFF"/>
<path d="M201.981 145.678C209.296 145.678 215.225 139.748 215.225 132.433C215.225 125.119 209.296 119.189 201.981 119.189C194.666 119.189 188.736 125.119 188.736 132.433C188.736 139.748 194.666 145.678 201.981 145.678Z" fill="#407BFF"/>
<path d="M207.499 128.853C205.958 130.978 204.233 132.964 202.344 134.789C201.86 135.3 201.402 135.785 200.998 136.242L200.769 136.498L200.527 136.256C199.036 134.978 197.683 133.548 196.489 131.989C198.102 133.097 199.599 134.364 200.958 135.771H200.487L201.833 134.304C203.554 132.321 205.451 130.496 207.499 128.853Z" fill="white"/>
<path d="M313.604 129.741H217.715V135.125H313.604V129.741Z" fill="#407BFF"/>
<path d="M443.615 131.666C443.615 131.854 422.146 132.016 395.67 132.016C369.194 132.016 347.685 131.854 347.685 131.666C347.685 131.477 369.221 131.316 395.63 131.316C422.038 131.316 443.615 131.477 443.615 131.666Z" fill="#263238"/>
<path d="M533.972 89.7243C533.972 89.9128 416.95 90.0743 272.632 90.0743C128.314 90.0743 11.2794 89.9128 11.2794 89.7243C11.2794 89.5359 128.274 89.3744 272.632 89.3744C416.991 89.3744 533.972 89.5224 533.972 89.7243Z" fill="#E0E0E0"/>
<path d="M467.183 207.459C467.183 207.648 377.917 207.809 267.827 207.809C157.738 207.809 68.4307 207.648 68.4307 207.459C68.4307 207.271 157.684 207.109 267.827 207.109C377.97 207.109 467.183 207.271 467.183 207.459Z" fill="#263238"/>
<path d="M246.21 223.194C246.058 223.211 245.905 223.211 245.753 223.194H244.407L239.225 223.262L220.179 223.369L157.334 223.463L94.4758 223.369L75.4165 223.262L70.2478 223.194H68.9018C68.7453 223.211 68.5873 223.211 68.4307 223.194H68.9018H70.2478L75.4165 223.127L94.4758 223.019L157.334 222.912L220.179 223.019L239.225 223.127L244.407 223.194H245.753H246.21Z" fill="#263238"/>
<path d="M426.467 246.09C426.467 246.278 353.567 246.44 263.601 246.44C173.634 246.44 100.735 246.278 100.735 246.09C100.735 245.901 173.621 245.74 263.601 245.74C353.581 245.74 426.467 245.901 426.467 246.09Z" fill="#263238"/>
<path d="M80.3966 251.285C78.9878 251.285 77.6106 250.867 76.4394 250.084C75.2682 249.301 74.3555 248.189 73.817 246.887C73.2785 245.585 73.1383 244.152 73.4141 242.771C73.6899 241.389 74.3694 240.121 75.3666 239.125C76.3637 238.13 77.6337 237.453 79.0158 237.18C80.3979 236.907 81.83 237.049 83.1308 237.59C84.4316 238.131 85.5428 239.046 86.3235 240.219C87.1043 241.392 87.5196 242.77 87.517 244.178C87.5099 246.063 86.757 247.869 85.4228 249.201C84.0886 250.532 82.2816 251.282 80.3966 251.285ZM80.3966 238.404C79.2546 238.404 78.1382 238.743 77.1886 239.377C76.239 240.012 75.4989 240.914 75.0618 241.969C74.6248 243.024 74.5104 244.185 74.7332 245.305C74.9561 246.425 75.506 247.454 76.3136 248.261C77.1211 249.069 78.15 249.619 79.2701 249.842C80.3902 250.065 81.5513 249.95 82.6064 249.513C83.6615 249.076 84.5633 248.336 85.1978 247.386C85.8323 246.437 86.171 245.32 86.171 244.178C86.1674 242.648 85.5579 241.181 84.4758 240.099C83.3937 239.017 81.927 238.408 80.3966 238.404Z" fill="#E0E0E0"/>
<path d="M360.419 263.534C360.419 263.534 360.203 263.534 359.759 263.534H357.794L350.229 263.601L322.408 263.709L230.583 263.897L138.786 263.789L110.964 263.682L103.413 263.614H101.435H100.775H101.435H103.413L110.964 263.547L138.786 263.439L230.583 263.332L322.354 263.439L350.176 263.547L357.74 263.614H359.705C360.203 263.507 360.419 263.534 360.419 263.534Z" fill="#263238"/>
<path d="M80.3966 270.627C78.9884 270.627 77.6117 270.209 76.4408 269.427C75.2699 268.644 74.3572 267.532 73.8183 266.231C73.2794 264.93 73.1384 263.499 73.4131 262.117C73.6879 260.736 74.366 259.467 75.3618 258.472C76.3576 257.476 77.6263 256.798 79.0075 256.523C80.3888 256.248 81.8204 256.389 83.1215 256.928C84.4226 257.467 85.5346 258.38 86.317 259.551C87.0994 260.722 87.517 262.098 87.517 263.506C87.5134 265.394 86.7621 267.203 85.4276 268.537C84.093 269.872 82.284 270.623 80.3966 270.627ZM80.3966 257.732C79.2546 257.732 78.1382 258.071 77.1886 258.705C76.239 259.34 75.4989 260.242 75.0619 261.297C74.6248 262.352 74.5105 263.513 74.7333 264.633C74.9561 265.753 75.506 266.782 76.3136 267.59C77.1211 268.397 78.15 268.947 79.2701 269.17C80.3902 269.393 81.5513 269.278 82.6064 268.841C83.6615 268.404 84.5633 267.664 85.1978 266.715C85.8323 265.765 86.171 264.649 86.171 263.506C86.1603 261.981 85.5477 260.521 84.4663 259.445C83.385 258.368 81.9224 257.763 80.3966 257.759V257.732Z" fill="#E0E0E0"/>
<path d="M80.3966 266.67C82.1286 266.67 83.5327 265.265 83.5327 263.533C83.5327 261.801 82.1286 260.397 80.3966 260.397C78.6645 260.397 77.2604 261.801 77.2604 263.533C77.2604 265.265 78.6645 266.67 80.3966 266.67Z" fill="#407BFF"/>
<path d="M426.467 284.814C426.467 285.003 353.567 285.164 263.601 285.164C173.634 285.164 100.735 285.003 100.735 284.814C100.735 284.626 173.621 284.464 263.601 284.464C353.581 284.464 426.467 284.612 426.467 284.814Z" fill="#263238"/>
<path d="M80.3966 290.01C78.9884 290.01 77.6117 289.592 76.4408 288.81C75.2699 288.027 74.3572 286.915 73.8183 285.614C73.2794 284.313 73.1384 282.882 73.4131 281.5C73.6879 280.119 74.366 278.85 75.3618 277.855C76.3576 276.859 77.6263 276.181 79.0075 275.906C80.3888 275.631 81.8204 275.772 83.1215 276.311C84.4226 276.85 85.5346 277.763 86.317 278.934C87.0994 280.105 87.517 281.481 87.517 282.889C87.5134 284.777 86.7621 286.586 85.4276 287.92C84.093 289.255 82.284 290.006 80.3966 290.01ZM80.3966 277.129C79.254 277.129 78.1371 277.468 77.1872 278.103C76.2373 278.738 75.4972 279.64 75.0606 280.696C74.6239 281.752 74.5104 282.914 74.7343 284.034C74.9582 285.155 75.5095 286.184 76.3184 286.991C77.1273 287.798 78.1574 288.347 79.2784 288.568C80.3994 288.789 81.5608 288.673 82.6157 288.234C83.6706 287.795 84.5715 287.052 85.2044 286.101C85.8373 285.15 86.1737 284.032 86.171 282.889C86.1674 281.36 85.5575 279.895 84.475 278.815C83.3925 277.735 81.9258 277.129 80.3966 277.129Z" fill="#E0E0E0"/>
<path d="M198.791 287.452C196.492 288.337 194.503 289.876 193.068 291.877C191.633 293.879 190.815 296.257 190.715 298.718C190.621 301.827 190.715 305.448 188.305 307.4C185.896 309.351 182.598 308.382 179.853 309.405C176.353 310.751 174.617 314.614 173.849 318.262C173.082 321.909 172.853 325.813 170.807 328.936C168.762 332.058 165.531 333.727 162.53 335.666C159.528 337.604 156.553 340.309 156.001 343.863C155.207 348.951 159.689 354.146 157.845 358.965C156.661 362.061 153.323 363.649 150.819 365.816C149.188 367.226 147.858 368.951 146.908 370.887C145.958 372.822 145.407 374.93 145.289 377.083C145.171 379.236 145.488 381.39 146.221 383.418C146.953 385.446 148.087 387.306 149.554 388.886C150.672 390.209 152.089 391.247 153.688 391.914C155.286 392.581 157.02 392.858 158.747 392.722C162.085 392.251 164.737 389.815 167.241 387.581C176.433 379.403 186.694 372.512 197.741 367.095C200.594 365.749 203.717 364.201 205.198 361.374C205.854 359.898 206.268 358.325 206.423 356.717C209.509 335.522 212.601 314.327 215.697 293.132" fill="#263238"/>
<path d="M230.26 267.302C229.009 262.631 231.741 257.557 235.792 254.905C239.844 252.254 244.878 251.635 249.71 251.769C254.542 251.904 260.195 253.115 262.941 257.301C264.651 259.899 264.947 263.224 266.481 265.943C270.802 273.615 282.808 273.749 287.492 281.206C291.948 288.286 287.398 297.56 288.461 305.851C289.175 311.41 292.392 316.269 294.909 321.29C297.426 326.311 299.283 332.247 297.157 337.442C294.868 342.988 288.434 346.581 287.735 352.544C286.94 359.934 295.703 366.704 293.011 373.636C291.019 378.778 283.589 380.729 282.741 386.181C282.31 389.102 284.087 391.847 284.827 394.687C286.819 401.902 282.135 409.83 275.405 413.168C268.675 416.506 260.599 415.981 253.533 413.545C247.88 411.586 242.678 408.513 238.235 404.508C233.792 400.503 230.197 395.647 227.664 390.227C225.132 384.808 223.712 378.935 223.49 372.957C223.268 366.979 224.247 361.017 226.37 355.425" fill="#263238"/>
<path d="M154.507 339.192C154.261 338.779 153.895 338.45 153.458 338.249C152.926 338.025 152.336 337.978 151.775 338.115C151.395 338.193 151.042 338.367 150.749 338.622C150.457 338.877 150.235 339.203 150.106 339.568C149.967 340.034 149.934 340.526 150.011 341.006C150.088 341.486 150.272 341.942 150.55 342.341C150.888 342.811 151.339 343.188 151.862 343.437C152.384 343.686 152.96 343.8 153.538 343.768C154.207 343.748 154.865 343.597 155.475 343.322C156.085 343.047 156.634 342.654 157.092 342.166C158.121 341.037 158.86 339.674 159.245 338.196C160.188 335.086 159.918 331.466 160.255 327.603C160.416 325.578 160.954 323.601 161.843 321.774C162.332 320.809 162.983 319.935 163.768 319.19C164.593 318.443 165.559 317.867 166.608 317.494C168.77 316.908 170.983 316.529 173.217 316.363C174.331 316.326 175.426 316.069 176.44 315.607C177.454 315.145 178.367 314.487 179.126 313.671C180.566 311.908 180.687 309.418 180.472 307.049C180.137 304.591 179.975 302.113 179.987 299.633C180.188 297.098 181.041 294.659 182.464 292.553C183.811 290.458 185.805 288.86 188.144 288.003C190.433 287.405 192.821 287.29 195.157 287.667C197.364 287.828 199.693 287.922 201.335 286.63C202.977 285.338 203.421 283.185 203.529 281.246C203.527 279.235 203.726 277.229 204.121 275.257C205.07 271.714 207.197 268.6 210.151 266.427C212.584 264.644 215.508 263.657 218.523 263.6C220.778 263.543 223.019 263.975 225.092 264.865C226.406 265.403 227.628 266.143 228.712 267.059C229.094 267.366 229.449 267.704 229.776 268.069C229.776 268.069 229.385 267.746 228.618 267.167C227.509 266.314 226.286 265.62 224.984 265.108C222.935 264.294 220.74 263.914 218.537 263.991C215.618 264.091 212.8 265.082 210.461 266.831C207.625 268.954 205.594 271.977 204.7 275.405C204.329 277.343 204.149 279.313 204.161 281.287C204.122 282.355 203.946 283.413 203.636 284.436C203.283 285.501 202.623 286.438 201.739 287.128C200.808 287.829 199.697 288.25 198.535 288.34C197.398 288.441 196.254 288.441 195.116 288.34C192.876 287.969 190.583 288.074 188.386 288.649C186.17 289.453 184.279 290.961 183.002 292.943C181.649 294.945 180.838 297.264 180.647 299.673C180.643 302.126 180.801 304.576 181.118 307.009C181.234 308.237 181.203 309.476 181.024 310.697C180.849 311.938 180.352 313.112 179.583 314.102C178.812 315.062 177.799 315.801 176.649 316.242C175.545 316.644 174.398 316.915 173.23 317.05C171.038 317.197 168.865 317.558 166.743 318.127C165.75 318.456 164.834 318.982 164.051 319.675C163.319 320.363 162.714 321.174 162.26 322.07C161.399 323.83 160.87 325.732 160.699 327.683C160.336 331.466 160.578 335.14 159.582 338.357C159.167 339.906 158.371 341.327 157.267 342.489C156.766 343.011 156.167 343.429 155.504 343.718C154.841 344.007 154.127 344.161 153.404 344.172C152.766 344.193 152.134 344.055 151.563 343.77C150.992 343.486 150.501 343.064 150.133 342.543C149.835 342.1 149.642 341.593 149.57 341.064C149.497 340.534 149.547 339.995 149.716 339.488C149.865 339.088 150.116 338.733 150.445 338.459C150.773 338.186 151.166 338.002 151.587 337.926C152.194 337.795 152.827 337.865 153.39 338.128C153.646 338.207 153.88 338.345 154.073 338.529C154.267 338.714 154.416 338.94 154.507 339.192Z" fill="#263238"/>
<path d="M301.598 355.869C301.658 355.983 301.712 356.1 301.76 356.219C301.891 356.567 301.955 356.937 301.948 357.309C301.89 358.034 301.654 358.733 301.262 359.346C300.87 359.958 300.334 360.465 299.7 360.822C298.801 361.394 297.723 361.614 296.672 361.441C295.431 361.185 294.32 360.498 293.536 359.503C292.624 358.382 292.053 357.022 291.894 355.586C291.751 353.98 292.02 352.363 292.674 350.889C293.939 347.739 296.564 345.101 299 342.167C300.279 340.671 301.31 338.98 302.056 337.16C302.802 335.215 303.159 333.144 303.106 331.062C303.057 328.874 302.567 326.717 301.666 324.723C300.693 322.676 299.32 320.845 297.628 319.339C295.918 317.737 293.993 316.27 292.244 314.466C290.377 312.673 289.172 310.301 288.825 307.736C288.715 305.213 289.104 302.693 289.969 300.32C290.755 298.065 291.292 295.732 291.571 293.361C291.841 291.143 291.664 288.893 291.049 286.745C290.434 284.597 289.393 282.595 287.99 280.856C286.647 279.27 284.951 278.02 283.037 277.209C281.208 276.502 279.246 276.203 277.289 276.334C275.386 276.493 273.47 276.254 271.663 275.634C270.03 274.869 268.742 273.52 268.056 271.852C266.71 268.756 266.71 265.673 266.104 263.183C265.867 262.007 265.454 260.872 264.879 259.818C264.39 258.945 263.709 258.195 262.887 257.624C261.764 256.787 260.359 256.42 258.97 256.601C258.505 256.717 258.053 256.884 257.624 257.099C258.011 256.776 258.475 256.559 258.97 256.467C260.386 256.234 261.836 256.568 263.008 257.396C263.876 257.982 264.603 258.755 265.135 259.657C265.756 260.726 266.21 261.883 266.481 263.089C267.127 265.633 267.127 268.702 268.5 271.65C269.153 273.192 270.358 274.435 271.879 275.136C273.612 275.71 275.444 275.92 277.263 275.755C279.368 275.571 281.486 275.9 283.436 276.714C285.386 277.527 287.111 278.801 288.461 280.426C289.931 282.229 291.022 284.309 291.669 286.543C292.317 288.777 292.508 291.119 292.23 293.428C291.963 295.84 291.425 298.215 290.628 300.508C289.792 302.799 289.413 305.232 289.511 307.669C289.846 310.066 290.98 312.28 292.728 313.955C294.397 315.691 296.295 317.171 298.045 318.8C299.816 320.378 301.245 322.302 302.244 324.453C303.18 326.529 303.684 328.773 303.725 331.049C303.769 333.21 303.39 335.359 302.608 337.375C301.827 339.253 300.75 340.993 299.418 342.53C296.928 345.491 294.343 348.062 293.105 351.077C292.47 352.472 292.197 354.004 292.311 355.532C292.449 356.887 292.967 358.174 293.805 359.247C294.522 360.19 295.545 360.851 296.699 361.118C297.679 361.295 298.691 361.104 299.539 360.58C300.146 360.253 300.666 359.786 301.054 359.217C301.443 358.647 301.69 357.993 301.773 357.309C301.78 356.823 301.721 356.339 301.598 355.869Z" fill="#263238"/>
<path d="M196.799 289.08C194.241 289.794 192.855 292.688 192.855 295.339C193.083 297.98 193.663 300.578 194.578 303.065C195.278 305.623 195.614 308.449 194.349 310.805C191.792 315.462 184.617 315.22 181.158 319.258C176.757 324.386 180.862 332.866 177.686 338.829C174.792 344.213 166.702 345.962 165.101 351.912C164.078 355.694 166.231 359.813 165.101 363.582C163.903 367.862 159.151 370.029 156.648 373.703C155.483 375.622 154.804 377.795 154.671 380.035C154.537 382.276 154.952 384.515 155.88 386.558C157.574 390.187 160.112 393.358 163.283 395.805C163.66 396.128 164.051 396.437 164.441 396.747L210.797 385.979L220.085 300.239L196.799 289.08Z" fill="#263238"/>
<path d="M222.225 273.211C220.548 273.023 218.862 273.473 217.501 274.47C216.139 275.467 215.203 276.939 214.875 278.595L199.625 368.682C197.526 379.262 211.645 388.496 222.978 390.663C234.433 392.857 235.994 387.351 238.296 377.364C242.145 360.66 243.478 354.374 243.465 354.482C243.451 354.59 258.378 355.169 265.364 336.984C268.85 327.952 271.636 312.527 273.521 299.848C275.217 288.42 270.694 272.928 259.213 271.797L222.225 273.211Z" fill="#B78876"/>
<path d="M266.723 311.141C266.596 311.77 266.228 312.324 265.697 312.684C265.166 313.044 264.515 313.181 263.883 313.066C263.572 313.027 263.272 312.925 263 312.768C262.729 312.61 262.492 312.399 262.304 312.148C262.115 311.897 261.979 311.61 261.904 311.306C261.828 311.001 261.815 310.684 261.864 310.374C261.995 309.746 262.364 309.193 262.893 308.832C263.423 308.47 264.072 308.328 264.704 308.436C265.016 308.477 265.317 308.58 265.589 308.739C265.86 308.898 266.097 309.11 266.285 309.363C266.473 309.615 266.609 309.902 266.684 310.208C266.76 310.513 266.773 310.831 266.723 311.141Z" fill="#263238"/>
<path d="M268.46 308.705C268.096 308.96 266.562 307.224 263.964 306.672C261.366 306.12 259.199 307.022 258.984 306.672C258.876 306.497 259.294 305.999 260.249 305.569C261.526 305.035 262.936 304.908 264.287 305.205C265.639 305.488 266.865 306.195 267.787 307.224C268.487 307.978 268.635 308.597 268.46 308.705Z" fill="#263238"/>
<path d="M240.894 305.622C240.767 306.252 240.398 306.807 239.868 307.169C239.337 307.531 238.686 307.672 238.054 307.561C237.744 307.518 237.445 307.414 237.176 307.255C236.906 307.096 236.671 306.886 236.483 306.635C236.295 306.385 236.159 306.1 236.082 305.797C236.005 305.494 235.989 305.178 236.035 304.869C236.165 304.241 236.534 303.688 237.064 303.326C237.593 302.965 238.243 302.823 238.875 302.93C239.185 302.972 239.485 303.074 239.755 303.233C240.026 303.391 240.262 303.602 240.45 303.852C240.638 304.103 240.774 304.389 240.85 304.693C240.926 304.997 240.941 305.313 240.894 305.622Z" fill="#263238"/>
<path d="M242.872 302.931C242.509 303.173 240.974 301.437 238.377 300.885C235.779 300.333 233.598 301.235 233.396 300.885C233.289 300.71 233.706 300.212 234.662 299.781C235.94 299.256 237.348 299.129 238.7 299.418C240.05 299.705 241.274 300.412 242.199 301.437C242.899 302.177 243.047 302.796 242.872 302.931Z" fill="#263238"/>
<path d="M248.176 323.416C249.634 323.275 251.104 323.32 252.55 323.551C253.237 323.618 253.896 323.632 254.098 323.201C254.308 322.531 254.308 321.812 254.098 321.142L253.21 315.677C252.025 307.924 251.312 301.598 251.635 301.557C251.958 301.517 253.156 307.762 254.327 315.529C254.596 317.427 254.865 319.257 255.121 320.994C255.368 321.888 255.292 322.842 254.906 323.686C254.755 323.906 254.554 324.087 254.32 324.216C254.087 324.344 253.826 324.416 253.56 324.426C253.172 324.451 252.783 324.424 252.402 324.345C250.96 324.212 249.541 323.9 248.176 323.416Z" fill="#263238"/>
<path d="M243.424 354.469C234.548 352.71 226.336 348.515 219.708 342.355C219.708 342.355 223.221 356.973 242.401 359.221L243.424 354.469Z" fill="#AA6550"/>
<path d="M245.753 329.433C245.4 328.694 244.863 328.059 244.193 327.588C243.524 327.116 242.745 326.825 241.93 326.741C241.349 326.672 240.759 326.721 240.197 326.885C239.635 327.049 239.112 327.325 238.659 327.697C238.211 328.046 237.885 328.529 237.728 329.076C237.57 329.622 237.59 330.204 237.784 330.739C238.1 331.295 238.575 331.745 239.148 332.028C239.722 332.311 240.368 332.415 241.001 332.327C242.321 332.159 243.593 331.729 244.743 331.062C245.077 330.908 245.382 330.698 245.645 330.443C245.772 330.322 245.858 330.167 245.895 329.996C245.931 329.825 245.914 329.648 245.847 329.487" fill="#AA6550"/>
<path d="M240.167 323.578C240.598 323.645 240.005 326.459 241.984 328.962C243.963 331.466 247.032 331.802 246.964 332.193C246.964 332.381 246.184 332.596 244.905 332.368C243.255 332.036 241.773 331.136 240.719 329.824C239.707 328.56 239.225 326.953 239.373 325.341C239.521 324.157 240.005 323.524 240.167 323.578Z" fill="#263238"/>
<path d="M245.012 297.883C244.595 298.543 242.078 297.654 238.969 297.372C235.86 297.089 233.208 297.372 232.939 296.672C232.818 296.335 233.396 295.757 234.527 295.326C236.03 294.775 237.638 294.573 239.23 294.734C240.823 294.894 242.358 295.415 243.72 296.255C244.743 296.901 245.187 297.547 245.012 297.883Z" fill="#263238"/>
<path d="M269.106 304.034C268.527 304.532 266.871 303.536 264.731 303.052C262.591 302.567 260.693 302.594 260.397 301.894C260.276 301.558 260.68 301.033 261.595 300.642C262.805 300.203 264.119 300.132 265.369 300.439C266.62 300.745 267.751 301.416 268.621 302.365C269.254 303.132 269.375 303.792 269.106 304.034Z" fill="#263238"/>
<path d="M235.86 269.752C234.048 267.788 231.835 266.236 229.371 265.203C226.907 264.169 224.249 263.678 221.579 263.762C216.262 264.126 211.134 267.733 209.868 272.807C209.047 276.105 209.707 279.928 207.594 282.606C205.48 285.285 201.873 285.567 198.993 287.102C196.755 288.34 194.996 290.291 193.995 292.645C192.995 294.999 192.812 297.62 193.474 300.091C194.712 304.29 198.427 307.978 197.875 312.312C197.351 316.35 193.259 319.042 191.59 322.784C189.746 326.93 191.186 331.924 193.999 335.544C196.812 339.165 200.823 341.682 204.767 344.132C207.822 346.043 211.12 348.022 214.727 347.981C216.859 347.878 218.912 347.143 220.626 345.871C222.339 344.598 223.636 342.845 224.351 340.834C224.998 338.818 225.201 336.686 224.948 334.583C224.695 332.481 223.991 330.458 222.884 328.653C221.04 325.49 218.146 322.502 218.321 318.867C218.604 313.214 226.074 310.132 226.855 304.519C227.272 301.639 225.765 298.852 224.607 296.147C223.449 293.441 222.615 290.184 224.217 287.734C226.29 284.558 231.054 284.639 234.352 282.687C235.726 281.86 236.843 280.666 237.575 279.239C238.307 277.813 238.627 276.21 238.498 274.611C238.32 273.01 237.71 271.488 236.734 270.207C235.757 268.927 234.449 267.936 232.952 267.343" fill="#263238"/>
<path d="M234.756 265.081C234.339 266.968 234.344 268.922 234.769 270.807C235.194 272.691 236.03 274.458 237.216 275.982C238.403 277.507 239.911 278.751 241.633 279.626C243.355 280.501 245.249 280.985 247.179 281.045C250.154 281.139 253.613 280.358 255.767 282.391C257.921 284.423 257.288 288.515 259.172 291.032C261.864 294.613 267.706 293.051 271.65 295.205C274.678 296.874 276.038 300.4 277.639 303.483C279.241 306.565 281.92 309.728 285.379 309.472C285.913 306.525 286.108 303.526 285.958 300.535C285.785 297.532 284.582 294.679 282.552 292.459C281.408 291.288 279.955 290.426 278.932 289.148C276.697 286.456 276.899 282.418 275.89 279.08C275.216 276.892 274.031 274.895 272.432 273.257C270.834 271.618 268.867 270.385 266.696 269.658C263.089 268.473 259.038 268.769 255.632 267.087C253.115 265.835 251.164 263.601 248.579 262.51C243.545 260.384 237.811 263.103 233.235 266.037" fill="#263238"/>
<path d="M166.043 373.461C165.539 373.376 165.05 373.222 164.589 373.003C163.263 372.37 162.123 371.406 161.278 370.204C159.892 368.304 159.25 365.962 159.474 363.622C159.797 360.529 161.232 357.659 163.512 355.546C164.764 354.375 166.204 353.406 167.698 352.288C169.236 351.237 170.408 349.731 171.05 347.981C171.394 345.999 171.394 343.973 171.05 341.991C170.917 339.761 171.381 337.535 172.396 335.544C173.459 333.45 175.038 331.661 176.986 330.349C179.023 328.982 181.411 328.23 183.864 328.181C186.313 328.06 188.777 328.316 191.213 327.993C192.414 327.848 193.573 327.458 194.618 326.849C195.658 326.188 196.5 325.257 197.054 324.157C198.033 321.847 198.737 319.43 199.154 316.956C199.433 315.719 199.862 314.521 200.433 313.389C201.028 312.252 201.881 311.271 202.923 310.522C205.019 309.293 207.339 308.492 209.747 308.166C211.964 307.857 214.089 307.077 215.979 305.878C216.838 305.279 217.521 304.461 217.958 303.509C218.365 302.568 218.544 301.545 218.483 300.521C218.255 298.51 217.767 296.537 217.029 294.653C216.343 292.827 216.036 290.88 216.127 288.932C216.202 287.982 216.492 287.061 216.975 286.24C217.462 285.475 218.121 284.834 218.9 284.369C220.354 283.619 221.941 283.162 223.571 283.023C224.984 282.871 226.386 282.633 227.77 282.31C229.961 281.712 231.895 280.412 233.275 278.608C234.159 277.481 234.812 276.191 235.2 274.813C235.456 273.857 235.483 273.332 235.523 273.332C235.521 273.84 235.458 274.346 235.335 274.84C235.006 276.27 234.378 277.614 233.491 278.783C232.102 280.668 230.128 282.041 227.878 282.687C226.482 283.035 225.066 283.296 223.638 283.467C222.071 283.622 220.549 284.079 219.156 284.813C218.434 285.249 217.83 285.854 217.396 286.577C216.962 287.3 216.711 288.117 216.666 288.959C216.601 290.837 216.912 292.708 217.581 294.464C218.353 296.388 218.86 298.407 219.088 300.467C219.166 301.59 218.977 302.716 218.537 303.752C218.064 304.828 217.311 305.758 216.356 306.444C214.395 307.702 212.187 308.528 209.882 308.866C207.564 309.176 205.331 309.944 203.313 311.128C201.448 312.645 200.207 314.797 199.827 317.171C199.405 319.702 198.682 322.174 197.674 324.534C197.057 325.733 196.127 326.742 194.982 327.455C193.852 328.119 192.596 328.541 191.294 328.693C188.736 329.029 186.26 328.76 183.877 328.881C181.596 328.943 179.375 329.625 177.452 330.853C175.529 332.082 173.977 333.81 172.961 335.854C171.973 337.733 171.508 339.844 171.615 341.965C171.972 344.017 171.972 346.117 171.615 348.17C170.92 350.027 169.664 351.621 168.021 352.733C166.554 353.863 165.073 354.805 163.849 355.923C161.615 357.932 160.181 360.68 159.811 363.662C159.565 365.92 160.144 368.19 161.439 370.056C162.244 371.264 163.342 372.251 164.629 372.923C165.531 373.313 166.056 373.421 166.043 373.461Z" fill="#455A64"/>
<path d="M277.693 401.983C278.11 401.581 278.501 401.154 278.864 400.704C279.832 399.34 280.371 397.719 280.412 396.047C280.502 393.406 279.884 390.79 278.622 388.469C277.276 385.683 275.176 382.802 273.776 379.047C272.347 374.923 272.347 370.438 273.776 366.314C274.553 364.021 275.759 361.896 277.33 360.055C278.959 358.17 280.937 356.596 282.512 354.59C284.087 352.584 285.204 350.014 284.423 347.51C283.643 345.006 281.381 343.243 279.389 341.278C278.322 340.294 277.413 339.149 276.697 337.886C276.007 336.565 275.59 335.119 275.472 333.633C275.287 330.63 275.789 327.624 276.94 324.843C278.03 322.017 279.47 319.459 280.668 316.767C281.932 314.235 282.747 311.502 283.077 308.691C283.262 306.036 282.834 303.374 281.829 300.91C280.823 298.446 279.266 296.246 277.276 294.478C275.267 292.989 273.158 291.64 270.963 290.44C269.889 289.778 268.971 288.891 268.271 287.842C267.676 286.791 267.292 285.635 267.141 284.436C267.008 283.349 266.655 282.301 266.104 281.354C265.531 280.476 264.743 279.758 263.816 279.268C261.988 278.401 260.056 277.773 258.069 277.397C256.201 277.04 254.39 276.434 252.685 275.593C251.202 274.803 249.841 273.801 248.647 272.619C246.709 270.726 245.215 268.428 244.272 265.889C243.673 264.31 243.324 262.648 243.236 260.962C243.192 260.375 243.192 259.786 243.236 259.199C243.255 261.455 243.679 263.689 244.488 265.794C245.46 268.251 246.958 270.465 248.875 272.282C250.049 273.427 251.387 274.388 252.846 275.136C254.504 275.94 256.259 276.524 258.069 276.872C260.109 277.229 262.091 277.859 263.964 278.743C264.98 279.262 265.843 280.037 266.468 280.991C267.059 282.001 267.447 283.116 267.612 284.275C267.749 285.399 268.11 286.484 268.675 287.465C269.321 288.439 270.171 289.261 271.165 289.874C273.39 291.066 275.527 292.415 277.559 293.912C279.642 295.746 281.272 298.037 282.323 300.605C283.374 303.174 283.816 305.95 283.616 308.718C283.295 311.609 282.466 314.421 281.166 317.023C279.955 319.715 278.474 322.259 277.465 325.005C276.356 327.688 275.864 330.586 276.024 333.485C276.132 334.895 276.525 336.269 277.182 337.523C277.864 338.728 278.732 339.818 279.753 340.753C280.749 341.722 281.812 342.651 282.754 343.687C283.752 344.703 284.507 345.932 284.962 347.281C285.34 348.644 285.298 350.089 284.841 351.427C284.409 352.708 283.752 353.902 282.902 354.953C281.274 357.026 279.268 358.601 277.693 360.418C276.161 362.193 274.982 364.244 274.221 366.462C272.829 370.468 272.829 374.826 274.221 378.831C275.567 382.466 277.64 385.387 278.959 388.253C280.215 390.646 280.801 393.335 280.655 396.033C280.585 397.743 279.988 399.388 278.945 400.744C278.602 401.226 278.179 401.645 277.693 401.983Z" fill="#455A64"/>
<path d="M262.51 385.992C270.109 393.96 274.272 404.595 274.099 415.604C273.75 434.018 276.724 467.412 276.724 467.412L327.67 498.558L313.295 520.579L257.167 495.678L245.389 471.571L262.51 385.992Z" fill="#407BFF"/>
<path d="M278.084 512.166C278.084 512.166 279.981 508.519 274.638 505.732H265.983L249.091 476.565L262.551 385.992L239.507 368.494L188.507 363.958L170.673 455.621L193.461 497.28L238.659 515.841L278.084 512.166Z" fill="#407BFF"/>
<path d="M197.512 364.618L198.535 355.976C198.573 355.582 198.697 355.201 198.899 354.86C199.101 354.519 199.376 354.227 199.704 354.005C200.031 353.782 200.404 353.635 200.796 353.573C201.187 353.512 201.587 353.537 201.967 353.648C214.606 363.554 227.541 368.575 241.324 364.618C242.222 364.867 242.987 365.457 243.457 366.261C243.926 367.065 244.065 368.021 243.841 368.925L238.457 390.569L224.499 394.755L206.073 391.147L197.458 375.238L197.512 364.618Z" fill="#407BFF"/>
<path d="M241.688 370.581C241.172 370.984 240.607 371.319 240.005 371.577C238.457 372.382 236.84 373.049 235.173 373.569C229.645 375.331 223.747 375.586 218.088 374.308C212.428 373.031 207.212 370.266 202.977 366.301C201.701 365.117 200.53 363.824 199.477 362.438C199.068 361.945 198.716 361.407 198.427 360.836C199.96 362.626 201.591 364.329 203.313 365.937C207.558 369.727 212.699 372.372 218.25 373.622C223.801 374.873 229.579 374.688 235.039 373.084C237.302 372.38 239.522 371.545 241.688 370.581Z" fill="#263238"/>
<g opacity="0.2">
<path d="M199.975 362.518C199.649 363.352 199.537 364.254 199.647 365.142C199.758 366.031 200.088 366.877 200.608 367.606C201.677 369.034 202.984 370.268 204.471 371.254C209.424 374.942 214.566 378.589 220.488 380.285C226.411 381.981 233.356 381.335 237.906 377.176C239.252 375.978 240.234 373.717 238.875 372.573C237.852 371.711 236.304 372.236 235.065 372.721C228.967 375.053 222.262 375.272 216.024 373.341C209.787 371.411 204.377 367.443 200.662 362.074" fill="black"/>
</g>
<path d="M192.895 460.574L276.347 505.261L246.278 523.432L188.857 506.607C158.451 498.531 150.146 485.933 150.442 472.957C150.564 468.206 149.998 421.809 152.044 399.129C154.83 368.171 188.494 363.998 188.494 363.998L187.929 390.42L188.305 422.724L189.45 452.336C192.491 450.815 193.245 456.522 193.245 456.522L192.895 460.574Z" fill="#407BFF"/>
<path d="M188.857 455.944C188.669 455.944 188.4 444.732 188.279 430.908C188.157 417.085 188.211 405.859 188.4 405.846C188.588 405.832 188.857 417.058 188.978 430.895C189.1 444.732 189.073 455.944 188.857 455.944Z" fill="#263238"/>
<path d="M192.64 462.095C192.545 462.095 192.815 461.543 192.936 460.749C193.111 459.657 192.912 458.537 192.37 457.573C191.798 456.627 190.919 455.905 189.88 455.527C189.086 455.217 188.534 455.204 188.534 455.083C188.534 454.961 189.1 454.84 190.042 455.083C190.655 455.227 191.232 455.495 191.738 455.87C192.244 456.245 192.668 456.718 192.986 457.262C193.303 457.806 193.506 458.409 193.583 459.034C193.66 459.659 193.609 460.293 193.434 460.897C193.138 461.759 192.707 462.149 192.64 462.095Z" fill="#263238"/>
<path d="M192.64 462.095C192.64 462.095 192.64 462.095 192.788 462.23L193.272 462.539C193.716 462.809 194.376 463.172 195.237 463.643C196.947 464.572 199.45 465.891 202.546 467.493L226.774 479.943L251.083 492.367L258.419 496.189L260.397 497.253C260.639 497.361 260.866 497.502 261.07 497.67C260.818 497.598 260.574 497.499 260.343 497.374L258.298 496.432L250.854 492.811C244.649 489.729 235.967 485.422 226.545 480.603C217.123 475.784 208.496 471.302 202.317 467.964C196.139 464.626 192.424 462.365 192.64 462.095Z" fill="#263238"/>
<path d="M247.179 477.466C245.855 477.279 244.552 476.964 243.29 476.524C240.907 475.837 237.636 474.828 234.056 473.617C230.476 472.405 227.326 471.194 224.97 470.278C223.704 469.847 222.478 469.302 221.309 468.65C222.637 468.935 223.938 469.332 225.199 469.834L234.339 472.957L243.491 476.066C244.759 476.424 245.994 476.892 247.179 477.466Z" fill="#263238"/>
<path d="M226.626 443.116C226.626 443.116 226.532 443.493 226.222 444.099C225.793 444.972 225.279 445.802 224.688 446.575C223.827 447.733 222.853 448.801 221.78 449.765C220.443 450.925 218.991 451.944 217.446 452.807C215.883 453.638 214.236 454.301 212.533 454.786C211.138 455.163 209.709 455.397 208.267 455.486C207.3 455.579 206.326 455.579 205.359 455.486C204.686 455.405 204.309 455.338 204.323 455.284C204.336 455.23 205.83 455.284 208.226 455.042C209.625 454.881 211.007 454.602 212.358 454.207C214 453.697 215.591 453.034 217.11 452.229C218.617 451.399 220.038 450.421 221.35 449.308C222.42 448.398 223.407 447.393 224.297 446.306C225.818 444.395 226.545 443.062 226.626 443.116Z" fill="#263238"/>
<path d="M188.534 398.227C188.427 398.227 188.252 396.356 187.808 393.341C187.312 389.425 186.261 385.6 184.685 381.981C183.074 378.384 180.561 375.263 177.389 372.923C176.028 372.02 174.597 371.228 173.109 370.554C173.574 370.578 174.03 370.688 174.455 370.877C175.607 371.285 176.706 371.832 177.726 372.505C181.073 374.801 183.719 377.978 185.371 381.685C186.984 385.367 187.993 389.285 188.359 393.287C188.521 394.808 188.602 396.047 188.629 396.895C188.667 397.341 188.635 397.791 188.534 398.227Z" fill="#263238"/>
<path d="M277.451 467.291C276.71 467.82 276 468.391 275.324 469C273.772 470.576 272.416 472.334 271.286 474.236C270.137 476.109 269.232 478.122 268.594 480.226C268.137 481.841 268.123 482.918 268.002 482.918C267.815 481.989 267.857 481.028 268.123 480.118C268.628 477.915 269.492 475.809 270.681 473.886C271.819 471.931 273.254 470.165 274.934 468.65C275.607 467.94 276.489 467.464 277.451 467.291Z" fill="#263238"/>
<g opacity="0.2">
<path d="M265.028 500.053C267.8 494.736 267.114 488.288 265.552 482.555C263.991 476.821 261.622 471.127 261.165 465.151C260.774 459.969 261.864 454.8 262.901 449.712C263.937 444.624 264.947 439.442 264.408 434.273C263.87 429.105 261.555 423.869 257.221 421.015C259.126 425.24 260.483 429.691 261.259 434.26C262.009 438.875 260.959 443.602 258.324 447.464C256.884 449.349 254.946 450.897 254.004 453.077C252.765 455.971 252.954 459.255 252.039 462.149C251.029 465.339 249.199 476.026 249.199 476.026C249.077 476.619 252.362 482.662 255.606 486.969C258.849 491.277 262.793 495.167 265.149 500.026" fill="black"/>
</g>
<path d="M265.229 499.689C265.229 499.689 265.108 499.568 264.893 499.299L263.978 498.074L260.599 493.39C257.692 489.271 253.64 483.537 248.822 476.74L248.754 476.632V476.497L253.142 455.029C253.317 454.208 253.479 453.4 253.64 452.606V452.512V452.431C258.503 447.562 261.262 440.98 261.326 434.098C261.141 428.808 259.252 423.719 255.942 419.589V419.521C255.727 416.089 255.552 413.343 255.43 411.378C255.43 410.476 255.35 409.763 255.323 409.211C255.296 408.96 255.296 408.708 255.323 408.457C255.396 408.697 255.437 408.946 255.444 409.197C255.444 409.749 255.565 410.463 255.659 411.351C255.834 413.316 256.077 416.062 256.373 419.427V419.306C259.817 423.493 261.794 428.694 261.999 434.112C262.076 437.459 261.443 440.785 260.141 443.87C258.766 447.26 256.745 450.35 254.192 452.969L254.286 452.794C254.125 453.575 253.963 454.396 253.788 455.217C252.227 462.903 250.773 470.198 249.427 476.565V476.322L260.989 493.12C262.335 495.126 263.439 496.728 264.22 497.899L265.054 499.177C265.162 499.527 265.256 499.689 265.229 499.689Z" fill="#263238"/>
<g opacity="0.2">
<path d="M204.727 455.715C203.906 455.055 202.6 456.078 202.654 457.128C202.742 457.649 202.955 458.141 203.274 458.563C203.592 458.985 204.007 459.323 204.484 459.551C207.03 460.974 209.96 461.558 212.856 461.22C216.481 461.019 219.93 459.595 222.642 457.182C223.975 455.972 224.978 454.442 225.557 452.738C226.136 451.033 226.272 449.209 225.953 447.437C225.907 447.146 225.787 446.873 225.603 446.643C224.917 445.943 223.786 446.724 223.113 447.437C218.437 452.346 212.062 455.283 205.292 455.648" fill="black"/>
</g>
<g opacity="0.2">
<path d="M188.48 455.123C186.923 454.489 185.202 454.372 183.573 454.792C181.944 455.211 180.493 456.144 179.435 457.452C179.053 457.836 178.796 458.327 178.697 458.86C178.599 459.393 178.664 459.944 178.883 460.44C179.149 460.8 179.518 461.07 179.941 461.214C180.365 461.359 180.822 461.37 181.252 461.247C182.112 460.971 182.902 460.512 183.568 459.901C185.115 458.703 186.636 457.465 188.104 456.186C188.334 456.029 188.516 455.81 188.629 455.554C188.682 455.428 188.687 455.286 188.642 455.157C188.597 455.028 188.506 454.92 188.386 454.854" fill="black"/>
</g>
<path d="M181.427 462.162C181.347 462.162 181.427 461.476 181.831 460.48C182.393 459.19 183.232 458.039 184.288 457.108C185.344 456.178 186.591 455.491 187.942 455.096C188.484 454.877 189.077 454.817 189.651 454.921C187.885 455.55 186.23 456.459 184.752 457.613C183.414 458.947 182.292 460.482 181.427 462.162Z" fill="#263238"/>
<path d="M156.648 416.277C156.421 412.274 156.421 408.261 156.648 404.257C156.664 400.249 156.906 396.245 157.374 392.264C157.617 396.263 157.617 400.272 157.374 404.271C157.366 408.284 157.123 412.292 156.648 416.277Z" fill="#FAFAFA"/>
<path d="M162.637 435.054C162.449 435.054 162.274 428.593 162.26 420.639C162.247 412.684 162.408 406.236 162.597 406.236C162.785 406.236 162.96 412.684 162.974 420.639C162.987 428.593 162.826 435.054 162.637 435.054Z" fill="#FAFAFA"/>
<path d="M173.405 387.459C173.56 388.542 173.596 389.639 173.513 390.73C173.513 392.749 173.432 395.535 173.311 398.604C173.19 401.673 173.042 404.459 172.894 406.478C172.899 407.571 172.772 408.66 172.517 409.722C172.361 408.644 172.325 407.551 172.409 406.465C172.409 404.446 172.49 401.66 172.611 398.577C172.732 395.495 172.88 392.709 173.028 390.703C173.022 389.611 173.148 388.521 173.405 387.459Z" fill="#FAFAFA"/>
<path d="M181.279 426.103C180.925 423.021 180.808 419.916 180.929 416.816C180.825 413.719 180.946 410.62 181.293 407.542C181.638 410.62 181.75 413.72 181.629 416.816C181.742 419.916 181.625 423.02 181.279 426.103Z" fill="#FAFAFA"/>
<path d="M172.436 447.276C172.239 444.361 172.271 441.436 172.53 438.527C172.565 435.603 172.826 432.687 173.311 429.805C173.497 435.651 173.204 441.503 172.436 447.303V447.276Z" fill="#FAFAFA"/>
<path d="M154.413 464.949C153.848 459.219 153.749 453.453 154.117 447.707C154.683 453.437 154.782 459.203 154.413 464.949Z" fill="#FAFAFA"/>
<path d="M162.583 466.267C162.353 464.192 162.353 462.097 162.583 460.022C162.585 457.935 162.815 455.854 163.27 453.817C163.501 455.892 163.501 457.987 163.27 460.062C163.275 462.15 163.045 464.231 162.583 466.267Z" fill="#FAFAFA"/>
<path d="M205.804 476.093C202.972 475.104 200.262 473.794 197.728 472.19C195.076 470.787 192.589 469.094 190.311 467.142C190.419 466.967 193.811 469.121 198.078 471.584C202.344 474.047 205.898 475.918 205.804 476.093Z" fill="#FAFAFA"/>
<path d="M233.275 490.496C232.305 490.236 231.373 489.851 230.503 489.352C226.166 487.191 222.099 484.526 218.389 481.41C217.579 480.811 216.854 480.105 216.235 479.311C216.37 479.149 219.869 482.083 224.567 485.152C229.264 488.221 233.41 490.307 233.275 490.496Z" fill="#FAFAFA"/>
<path d="M235.039 498.383C232.752 497.707 230.538 496.805 228.43 495.691C226.223 494.799 224.112 493.685 222.13 492.367C224.412 493.044 226.621 493.946 228.726 495.059C230.931 495.963 233.045 497.076 235.039 498.383Z" fill="#FAFAFA"/>
<path d="M253.654 504.83C253.546 505.005 250.477 503.067 246.48 501.062C242.482 499.056 239.117 497.723 239.184 497.535C244.457 498.948 249.382 501.432 253.654 504.83Z" fill="#FAFAFA"/>
<path d="M249.037 514.064C247.353 513.297 245.733 512.397 244.191 511.372C242.536 510.558 240.943 509.623 239.427 508.572C241.243 508.997 242.97 509.74 244.528 510.766C246.206 511.604 247.731 512.719 249.037 514.064Z" fill="#FAFAFA"/>
<path d="M184.119 458.407C183.705 456.589 183.515 454.726 183.554 452.861C183.368 451.001 183.409 449.126 183.675 447.276C184.107 449.091 184.301 450.955 184.254 452.821C184.448 454.681 184.403 456.558 184.119 458.407Z" fill="#FAFAFA"/>
<path d="M225.199 421.526C224.529 418.999 224.078 416.419 223.853 413.814C223.399 411.246 223.182 408.642 223.207 406.034C223.886 408.555 224.337 411.131 224.553 413.733C225.008 416.305 225.224 418.914 225.199 421.526Z" fill="#FAFAFA"/>
<path d="M229.668 444.435C229.282 441.726 229.125 438.988 229.197 436.252C229.043 433.522 229.124 430.784 229.439 428.068C229.824 430.778 229.977 433.516 229.897 436.252C230.058 438.981 229.982 441.719 229.668 444.435Z" fill="#FAFAFA"/>
<path d="M202.573 447.707C201.199 442.737 200.828 437.544 201.483 432.429C201.685 432.429 201.658 435.862 201.954 440.075C202.25 444.288 202.775 447.666 202.573 447.707Z" fill="#FAFAFA"/>
<path d="M211.847 470.212C211.058 467.902 210.605 465.49 210.501 463.051C210.185 460.637 210.212 458.19 210.582 455.783C210.91 458.176 211.117 460.583 211.201 462.997C211.564 466.968 212.049 470.171 211.847 470.212Z" fill="#FAFAFA"/>
<path d="M215.858 437.881C215.392 432.655 215.392 427.398 215.858 422.173C216.325 427.398 216.325 432.655 215.858 437.881Z" fill="#FAFAFA"/>
<path d="M204.713 410.813C205.198 414.728 205.198 418.688 204.713 422.604C204.246 418.687 204.246 414.729 204.713 410.813Z" fill="#FAFAFA"/>
<path d="M216.1 390.959C216.639 394.425 216.711 397.946 216.316 401.431C215.941 399.712 215.787 397.953 215.858 396.195C215.713 394.447 215.794 392.687 216.1 390.959Z" fill="#FAFAFA"/>
<path d="M236.977 412.791C236.393 409.111 236.042 405.397 235.927 401.673C235.578 397.969 235.456 394.247 235.564 390.528C236.158 394.203 236.513 397.912 236.627 401.632C236.968 405.341 237.085 409.068 236.977 412.791Z" fill="#FAFAFA"/>
<path d="M243.788 452.067C243.441 447.931 243.324 443.779 243.438 439.63C243.324 435.481 243.441 431.329 243.788 427.193C244.143 431.329 244.26 435.481 244.138 439.63C244.26 443.779 244.143 447.932 243.788 452.067Z" fill="#FAFAFA"/>
<path d="M231.566 472.15C231.097 466.326 231.097 460.475 231.566 454.652C232.035 460.475 232.035 466.326 231.566 472.15Z" fill="#FAFAFA"/>
<path d="M242.697 483.941C242.356 482.849 242.237 481.7 242.347 480.562C242.238 479.419 242.357 478.266 242.697 477.17C243.046 478.265 243.165 479.419 243.047 480.562C243.166 481.7 243.047 482.851 242.697 483.941Z" fill="#FAFAFA"/>
<path d="M250.127 401.431C250.594 406.733 250.594 412.065 250.127 417.367C249.661 412.065 249.661 406.733 250.127 401.431Z" fill="#FAFAFA"/>
<path d="M242.482 373.703C242.828 377.223 242.945 380.761 242.832 384.296C242.945 387.831 242.828 391.369 242.482 394.889C242.136 391.369 242.019 387.831 242.132 384.296C242.019 380.761 242.136 377.223 242.482 373.703Z" fill="#FAFAFA"/>
<path d="M228.08 376.544C228.546 381.337 228.546 386.165 228.08 390.959C227.613 386.165 227.613 381.337 228.08 376.544Z" fill="#FAFAFA"/>
<path d="M261.124 409.453C260.192 403.664 260.088 397.773 260.815 391.955C261.016 391.955 260.949 395.899 261.043 400.731C261.138 405.563 261.326 409.426 261.124 409.453Z" fill="#FAFAFA"/>
<path d="M267.45 424.178C266.984 418.251 266.984 412.297 267.45 406.37C267.917 412.297 267.917 418.251 267.45 424.178Z" fill="#FAFAFA"/>
<path d="M271.34 450.048C270.874 443.937 270.874 437.8 271.34 431.689C271.807 437.8 271.807 443.937 271.34 450.048Z" fill="#FAFAFA"/>
<path d="M262.443 464.235C261.977 457.751 261.977 451.242 262.443 444.758C262.91 451.242 262.91 457.751 262.443 464.235Z" fill="#FAFAFA"/>
<path d="M255.484 480.602C255.018 473.746 255.018 466.865 255.484 460.009C255.839 463.429 255.955 466.869 255.834 470.306C255.955 473.742 255.839 477.182 255.484 480.602Z" fill="#FAFAFA"/>
<path d="M270.788 472.028C270.322 468.053 270.322 464.038 270.788 460.063C271.255 464.038 271.255 468.053 270.788 472.028Z" fill="#FAFAFA"/>
<path d="M285.769 501.143C282.267 500.055 278.836 498.747 275.499 497.226C272.075 495.924 268.738 494.399 265.512 492.663C269.01 493.752 272.435 495.06 275.768 496.58C279.197 497.884 282.537 499.408 285.769 501.143Z" fill="#FAFAFA"/>
<path d="M303.59 495.758C299.86 494.807 296.192 493.624 292.607 492.218C288.936 491.039 285.34 489.636 281.839 488.019C285.568 488.978 289.235 490.16 292.822 491.559C296.491 492.746 300.087 494.148 303.59 495.758Z" fill="#FAFAFA"/>
<path d="M291.032 483.846C288.486 482.938 286.023 481.812 283.669 480.481C281.209 479.344 278.853 477.993 276.63 476.443C279.176 477.352 281.639 478.477 283.992 479.808C286.454 480.943 288.81 482.294 291.032 483.846Z" fill="#FAFAFA"/>
<path d="M172.517 373.623C172.665 373.784 170.525 375.723 168.412 378.549C166.298 381.376 164.993 383.933 164.804 383.839C165.417 381.742 166.458 379.794 167.86 378.118C169.081 376.311 170.667 374.779 172.517 373.623Z" fill="#FAFAFA"/>
<path d="M190.944 378.738C190.314 377.417 189.901 376.003 189.719 374.551C189.297 373.152 189.115 371.691 189.18 370.231C189.802 371.55 190.215 372.958 190.405 374.403C190.811 375.811 190.993 377.274 190.944 378.738Z" fill="#FAFAFA"/>
<path d="M267.989 517.793L357.027 474.559C361.493 472.383 366.436 471.365 371.399 471.6C376.362 471.836 381.186 473.316 385.427 475.905C389.084 478.139 392.212 481.141 394.595 484.702C396.979 488.262 398.561 492.298 399.233 496.53C399.905 500.762 399.65 505.09 398.487 509.214C397.323 513.338 395.278 517.16 392.494 520.417L353.917 565.562L255.43 579.184L246.21 523.405L257.167 506.446L267.989 517.793Z" fill="#263238"/>
<path d="M321.775 536.259C321.453 536.607 321.086 536.91 320.684 537.161C319.958 537.7 318.881 538.507 317.548 539.382C314.856 541.213 311.128 543.649 306.888 546.206C302.648 548.764 298.745 550.931 295.878 552.438C294.437 553.192 293.266 553.784 292.445 554.175C292.023 554.413 291.57 554.594 291.099 554.713C291.452 554.4 291.846 554.137 292.27 553.932L295.582 551.994C298.381 550.379 302.244 548.145 306.471 545.601C310.697 543.057 314.479 540.688 317.239 538.965L320.496 536.932C320.89 536.652 321.32 536.425 321.775 536.259Z" fill="#455A64"/>
<path d="M133.671 539.584C133.671 539.584 142.515 496.889 147.131 490.321C151.748 483.752 161.278 469.041 173.405 467.533C185.533 466.026 210.313 480.562 214.822 486.269C226.236 500.739 298.274 576.99 297.385 575.994L274.167 591.998L249.629 584.245H179.233C179.233 584.245 130.468 575.994 133.671 539.584Z" fill="#263238"/>
<path d="M249.629 584.244C249.269 584.255 248.909 584.233 248.552 584.177C247.524 584.089 246.503 583.927 245.497 583.693C241.79 582.795 238.183 581.528 234.729 579.91C223.433 574.535 212.804 567.858 203.058 560.016C193.042 552.535 183.561 544.363 174.684 535.56C172.005 532.878 169.543 529.989 167.321 526.918C166.713 526.08 166.16 525.204 165.666 524.294C165.471 523.996 165.304 523.68 165.168 523.351C165.408 523.618 165.616 523.911 165.787 524.226C166.204 524.805 166.689 525.72 167.537 526.757C169.834 529.751 172.34 532.58 175.034 535.223C183.995 543.895 193.499 551.988 203.488 559.451C213.216 567.246 223.78 573.936 234.985 579.399C238.378 581.061 241.914 582.413 245.551 583.437C246.897 583.733 247.866 583.962 248.566 584.043C248.926 584.077 249.282 584.144 249.629 584.244Z" fill="#455A64"/>
<path d="M218.079 574.702C217.788 574.907 217.482 575.092 217.164 575.253L214.472 576.734C213.301 577.367 211.78 577.959 210.057 578.74C209.195 579.143 208.213 579.399 207.203 579.776C206.144 580.175 205.066 580.521 203.973 580.812C198.617 582.348 193.082 583.176 187.511 583.276C180.657 583.421 173.819 582.536 167.227 580.651C160.633 578.762 154.394 575.802 148.76 571.888C147.495 570.933 146.216 570.085 145.072 569.116C143.962 568.168 142.936 567.128 142.003 566.006C140.328 564.002 138.874 561.823 137.669 559.505C135.865 556.184 134.628 552.586 134.008 548.858C133.836 547.849 133.746 546.827 133.739 545.803C133.709 545.449 133.709 545.093 133.739 544.74C133.819 544.74 133.739 546.207 134.25 548.778C134.961 552.444 136.252 555.975 138.073 559.236C139.298 561.496 140.75 563.624 142.407 565.589C143.334 566.673 144.347 567.682 145.435 568.604C146.566 569.546 147.845 570.381 149.096 571.296C154.697 575.131 160.878 578.04 167.402 579.911C173.923 581.792 180.685 582.699 187.471 582.603C193.01 582.537 198.519 581.768 203.865 580.314C205.023 580.072 206.073 579.641 207.096 579.332C208.119 579.022 209.074 578.726 209.936 578.349C211.659 577.609 213.193 577.003 214.377 576.465L217.069 575.119C217.389 574.943 217.728 574.803 218.079 574.702Z" fill="#455A64"/>
<path d="M295.286 573.477C295.151 573.611 277.68 555.211 256.252 532.383C234.823 509.555 217.594 490.94 217.729 490.819C217.864 490.698 235.348 509.07 256.763 531.912C278.178 554.754 295.434 573.355 295.286 573.477Z" fill="#455A64"/>
<path d="M222.628 573.154C222.628 573.154 206.705 579.641 208.374 587.058C210.043 594.474 218.24 597.92 226.545 597.126C234.85 596.332 250.127 589.494 250.127 589.494L257.988 585.321C257.988 585.321 248.431 585.173 243.599 583.45C238 581.445 222.628 573.154 222.628 573.154Z" fill="#407BFF"/>
<path d="M242.32 586.169L298.852 595.053L418.189 583.154L352.76 565.225L242.388 581.095C241.779 581.182 241.222 581.486 240.819 581.951C240.416 582.416 240.194 583.01 240.194 583.625C240.191 584.232 240.403 584.82 240.792 585.286C241.181 585.751 241.723 586.064 242.32 586.169Z" fill="#455A64"/>
<path d="M314.035 505.153L300.36 586.008C300.19 587.066 300.265 588.149 300.58 589.174C300.894 590.198 301.44 591.137 302.175 591.917C302.91 592.698 303.814 593.299 304.818 593.674C305.822 594.05 306.898 594.19 307.965 594.084L418.162 583.1C419.673 582.95 421.095 582.312 422.212 581.282C423.329 580.252 424.081 578.888 424.353 577.393L439.213 495.61C439.407 494.539 439.349 493.437 439.044 492.393C438.738 491.348 438.194 490.388 437.453 489.59C436.713 488.793 435.797 488.178 434.778 487.795C433.758 487.413 432.664 487.273 431.581 487.386L320.16 499.366C318.65 499.536 317.236 500.193 316.131 501.237C315.027 502.281 314.291 503.655 314.035 505.153Z" fill="#455A64"/>
<path d="M240.153 583.625H240.449L241.324 583.719L244.676 584.191L257.113 586.048L299.229 592.603L298.839 592.886C299.539 588.673 300.252 584.285 300.993 579.803C304.317 559.909 307.319 541.913 309.513 528.816C310.63 522.342 311.532 517.079 312.205 513.391C312.514 511.601 312.77 510.201 312.958 509.191C313.039 508.747 313.12 508.397 313.174 508.115C313.19 507.986 313.222 507.859 313.268 507.738C313.283 507.863 313.283 507.989 313.268 508.115C313.268 508.411 313.187 508.774 313.12 509.218C312.972 510.228 312.757 511.641 312.501 513.431C311.909 517.133 311.074 522.409 310.051 528.897C307.924 542.007 304.99 560.016 301.746 579.91C300.993 584.392 300.279 588.78 299.579 593.007V593.343H299.229L257.099 586.613L244.689 584.554L241.351 583.975L240.49 583.8L240.153 583.625Z" fill="#263238"/>
<path d="M382.87 540.177C382.87 544.565 379.693 548.118 375.776 548.118C371.859 548.118 368.696 544.565 368.696 540.177C368.696 535.789 371.873 532.235 375.776 532.235C379.68 532.235 382.87 535.789 382.87 540.177Z" fill="#FAFAFA"/>
<path d="M216.814 320.025C219.667 324.238 222.548 328.518 224.136 333.35C225.724 338.182 225.899 343.714 223.423 348.156C221.363 351.844 217.581 354.738 216.935 358.924C215.858 366.044 224.405 371.321 225.011 378.495C225.361 382.533 223.032 386.409 220.381 389.546C217.729 392.682 214.633 395.535 212.91 399.264C211.187 402.992 211.282 407.918 214.431 410.61C210.501 409.507 206.423 413.679 202.546 412.387C199.248 411.297 198.374 407.124 198.051 403.665C197.243 404.695 196.689 405.901 196.434 407.185C196.179 408.468 196.23 409.794 196.583 411.055C193.644 407.954 191.742 404.016 191.139 399.786C190.536 395.557 191.263 391.244 193.218 387.446C195.587 383.044 199.625 379.168 199.625 374.268C199.558 368.884 194.511 364.846 193.097 359.557C192.115 355.976 192.922 352.167 193.999 348.614C195.076 345.06 196.449 341.52 196.597 337.846C196.745 334.171 196.408 332.65 193.232 330.739" fill="#263238"/>
<path d="M206.921 409.789H206.625C206.336 409.734 206.056 409.643 205.79 409.52C204.736 409.057 203.845 408.288 203.233 407.313C202.24 405.781 201.746 403.981 201.819 402.157C202.01 399.756 202.863 397.454 204.282 395.508C205.723 393.301 207.742 391.214 209.599 388.778C211.457 386.342 213.26 383.475 213.26 380.083C213.26 376.691 211.416 373.42 209.33 370.351C207.244 367.283 204.807 364.012 204.067 359.92C203.703 357.891 204.005 355.8 204.929 353.957C205.861 352.242 207.045 350.677 208.442 349.313C209.751 348.05 210.974 346.701 212.103 345.275C213.172 343.921 213.897 342.328 214.216 340.632C214.437 339.016 214.064 337.376 213.166 336.015C212.286 334.71 211.31 333.473 210.245 332.313C208.295 330.138 207.026 327.437 206.598 324.547C206.249 322.172 206.518 319.748 207.378 317.507C208.033 315.827 208.996 314.284 210.218 312.958C210.985 312.125 211.853 311.393 212.803 310.777C213.046 310.617 213.298 310.468 213.556 310.333C213.727 310.244 213.821 310.203 213.839 310.212C212.579 311.041 211.43 312.027 210.42 313.146C209.255 314.467 208.343 315.991 207.728 317.642C206.933 319.829 206.706 322.181 207.069 324.48C207.507 327.265 208.757 329.859 210.663 331.937C211.753 333.114 212.756 334.369 213.664 335.692C214.641 337.172 215.052 338.954 214.822 340.713C214.5 342.519 213.742 344.219 212.614 345.666C211.482 347.14 210.245 348.53 208.913 349.825C207.57 351.146 206.427 352.656 205.521 354.307C204.664 356.017 204.39 357.959 204.74 359.839C205.427 363.702 207.782 366.919 209.882 370.015C210.946 371.548 211.878 373.169 212.668 374.861C213.437 376.51 213.85 378.303 213.879 380.123C213.842 381.859 213.419 383.565 212.641 385.117C211.917 386.549 211.046 387.902 210.043 389.155C208.119 391.578 206.113 393.624 204.659 395.777C203.266 397.638 202.41 399.844 202.183 402.157C202.09 403.91 202.526 405.65 203.434 407.151C204.006 408.103 204.831 408.876 205.817 409.385C206.517 409.682 206.934 409.735 206.921 409.789Z" fill="#455A64"/>
<path d="M301.356 532.626C297.479 529.139 301.841 525.061 294.814 518.425C289.565 513.485 279.618 504.965 260.357 498.558L248.243 520.094L269.24 526.824L269.039 540.513C269.028 541.183 269.151 541.848 269.402 542.47C269.653 543.091 270.027 543.656 270.5 544.13C270.973 544.605 271.537 544.979 272.157 545.232C272.778 545.485 273.443 545.61 274.113 545.601L285.016 545.466C285.016 545.466 281.826 558.926 282.324 559.734C282.611 560.189 283.02 560.555 283.505 560.789C283.99 561.024 284.531 561.117 285.066 561.06C285.602 561.002 286.11 560.796 286.534 560.464C286.958 560.132 287.281 559.688 287.465 559.182C287.896 557.378 296.887 535.654 296.887 535.654C296.887 535.654 302.756 540.715 303.617 537.821C303.644 537.888 305.246 536.125 301.356 532.626Z" fill="#B78876"/>
<path d="M272.04 545.991C272.04 545.924 272.538 545.587 273.265 544.874C274.192 543.942 274.9 542.816 275.338 541.576C275.767 540.332 275.91 539.007 275.755 537.7C275.634 536.704 275.405 536.098 275.486 536.058C275.837 536.521 276.06 537.069 276.132 537.646C276.402 539.016 276.3 540.434 275.836 541.751C275.385 543.089 274.586 544.283 273.521 545.21C273.102 545.593 272.592 545.862 272.04 545.991Z" fill="#AA6550"/>
<path d="M279.039 545.547C279.952 544.259 280.66 542.838 281.139 541.334C281.446 539.788 281.51 538.203 281.328 536.637C281.592 537.04 281.754 537.502 281.799 537.983C281.994 539.137 281.943 540.32 281.651 541.454C281.359 542.588 280.831 543.648 280.103 544.565C279.537 545.278 279.039 545.588 279.039 545.547Z" fill="#AA6550"/>
<path d="M287.492 537.659C287.56 537.659 287.694 538.09 287.708 538.844C287.715 539.82 287.517 540.788 287.129 541.684C286.75 542.582 286.191 543.393 285.487 544.066C284.935 544.578 284.518 544.78 284.477 544.726C285.324 543.733 286.051 542.644 286.644 541.482C287.081 540.247 287.366 538.963 287.492 537.659Z" fill="#AA6550"/>
<path d="M573.288 474.707C574.5 470.508 577.084 466.456 581.095 464.72C585.106 462.984 590.1 463.953 594.367 465.501C598.634 467.049 602.833 469.122 607.356 469.404C611.878 469.687 617.006 467.533 618.366 463.199C619.645 459.161 617.181 454.787 614.113 451.825C610.857 448.713 606.873 446.467 602.525 445.293C598.177 444.119 593.604 444.054 589.224 445.106C584.845 446.157 580.799 448.29 577.457 451.31C574.116 454.33 571.586 458.14 570.098 462.392" fill="#407BFF"/>
<g opacity="0.5">
<path d="M573.288 474.707C574.5 470.508 577.084 466.456 581.095 464.72C585.106 462.984 590.1 463.953 594.367 465.501C598.634 467.049 602.833 469.122 607.356 469.404C611.878 469.687 617.006 467.533 618.366 463.199C619.645 459.161 617.181 454.787 614.113 451.825C610.857 448.713 606.873 446.467 602.525 445.293C598.177 444.119 593.604 444.054 589.224 445.106C584.845 446.157 580.799 448.29 577.457 451.31C574.116 454.33 571.586 458.14 570.098 462.392" fill="black"/>
</g>
<path d="M537.377 492.905C530.728 486.592 531.051 475.595 534.376 467.048C537.7 458.501 544.928 451.919 553.018 447.599C560.912 443.452 569.643 441.148 578.555 440.859C587.467 440.57 596.329 442.304 604.475 445.929C600.488 446.1 596.602 447.246 593.16 449.266C589.717 451.286 586.823 454.12 584.73 457.519C581.082 463.576 580.274 470.979 577.259 477.318C573.865 484.523 567.839 490.153 560.422 493.052C553.004 495.951 544.757 495.898 537.377 492.905Z" fill="#407BFF"/>
<path d="M534.174 454.948C526.811 446.266 525.829 432.308 526.919 420.975C528.009 409.642 530.634 398.228 528.844 386.975C527.78 380.312 525.196 373.946 524.321 367.256C523.446 360.566 524.684 352.988 529.867 348.681C535.829 343.714 545.211 344.886 551.403 349.543C557.594 354.2 561.188 361.522 563.813 368.831C569.587 384.862 571.7 402.642 566.962 419.01C562.224 435.377 551.106 449.968 534.806 454.948" fill="#407BFF"/>
<path d="M530.647 526.259C530.609 525.928 530.609 525.594 530.647 525.263C530.647 524.604 530.647 523.635 530.647 522.396C530.741 519.893 530.97 516.299 531.535 511.871C532.195 506.681 533.139 501.532 534.362 496.445C535.891 490.205 538.259 484.201 541.402 478.597C544.553 473.003 548.417 467.84 552.896 463.24C556.541 459.475 560.58 456.113 564.943 453.212C566.787 451.947 568.564 450.978 570.098 450.089C571.633 449.201 573.033 448.582 574.136 448.043L576.828 446.926C577.135 446.789 577.449 446.672 577.771 446.576C577.486 446.751 577.189 446.904 576.882 447.034L574.284 448.259C573.181 448.824 571.835 449.537 570.246 450.385C568.658 451.233 566.989 452.283 565.172 453.575C555.582 460.127 547.625 468.794 541.913 478.907C535.183 490.738 533.299 503.135 531.953 511.924C531.334 516.326 531.037 519.92 530.862 522.41L530.701 525.263C530.706 525.596 530.688 525.929 530.647 526.259Z" fill="#263238"/>
<path d="M467.129 420.666C453.508 428.89 453.548 436.373 455.823 443.426C458.098 450.48 466.47 455.392 473.402 452.754C477.319 451.26 480.132 447.855 482.582 444.436C485.031 441.017 487.279 437.343 490.658 434.893C494.036 432.443 498.989 431.487 502.395 433.924" fill="#407BFF"/>
<g opacity="0.5">
<path d="M467.129 420.666C453.508 428.89 453.548 436.373 455.823 443.426C458.098 450.48 466.47 455.392 473.402 452.754C477.319 451.26 480.132 447.855 482.582 444.436C485.031 441.017 487.279 437.343 490.658 434.893C494.036 432.443 498.989 431.487 502.395 433.924" fill="black"/>
</g>
<path d="M456.94 429.684C460.494 424.757 469.296 423.33 474.855 425.794C480.414 428.257 484.479 433.116 488.127 437.975C491.775 442.834 495.315 447.976 500.362 451.354C505.41 454.733 512.476 455.958 517.483 452.552C519.087 451.358 520.43 449.849 521.429 448.118C522.429 446.387 523.065 444.47 523.298 442.484C523.747 438.507 523.478 434.481 522.504 430.599C521.306 424.892 519.341 418.929 514.764 415.295C509.663 411.257 502.65 411.055 496.095 411.257C488.638 411.499 481.061 412.064 474.061 414.649C467.062 417.233 459.901 422.819 456.94 429.67" fill="#407BFF"/>
<path d="M519.314 515.356C519.314 515.356 519.314 515.249 519.314 515.06V514.172C519.314 513.351 519.247 512.22 519.206 510.793C519.112 507.805 518.991 503.579 518.843 498.356C518.695 493.134 518.466 486.861 518.089 479.929C517.712 472.998 517.187 465.379 516.137 457.451C515.686 453.593 514.93 449.776 513.876 446.037C512.794 442.587 511.397 439.244 509.703 436.05C508.187 433.147 506.422 430.382 504.427 427.785C502.686 425.528 500.764 423.417 498.68 421.473C495.641 418.668 492.208 416.324 488.49 414.514C487.817 414.218 487.239 413.908 486.714 413.706L485.368 413.181L484.547 412.858L484.278 412.724L484.56 412.791L485.408 413.074L486.754 413.531C487.293 413.733 487.885 414.016 488.558 414.298C492.351 416.037 495.856 418.348 498.949 421.15C501.069 423.096 503.027 425.211 504.804 427.476C506.83 430.087 508.631 432.865 510.188 435.781C511.909 439.004 513.328 442.378 514.428 445.862C515.505 449.629 516.271 453.478 516.716 457.37C517.779 465.339 518.277 472.971 518.627 479.903C518.977 486.834 519.152 493.093 519.26 498.343C519.368 503.592 519.408 507.859 519.422 510.793V514.172C519.422 514.535 519.422 514.818 519.422 515.06C519.407 515.165 519.37 515.266 519.314 515.356Z" fill="#263238"/>
<path d="M524.227 521.508C523.576 519.603 523.076 517.65 522.733 515.666C521.783 510.237 521.57 504.704 522.1 499.218C522.944 491.104 524.686 483.109 527.296 475.38C530.095 466.618 533.891 457.236 537.135 447.114C538.732 442.221 540.035 437.236 541.038 432.187C541.939 427.479 542.586 422.725 542.977 417.947C543.587 409.841 543.731 401.706 543.407 393.584C543.178 386.652 542.802 381.039 542.573 377.163C542.465 375.252 542.371 373.757 542.317 372.708C542.317 372.21 542.317 371.833 542.25 371.537C542.235 371.407 542.235 371.276 542.25 371.146C542.256 371.276 542.256 371.407 542.25 371.537C542.25 371.833 542.25 372.21 542.371 372.694C542.452 373.744 542.586 375.238 542.748 377.149C543.044 381.026 543.475 386.571 543.771 393.571C544.167 401.708 544.064 409.862 543.461 417.987C542.738 427.961 540.785 437.808 537.646 447.303C534.389 457.411 530.58 466.766 527.767 475.502C525.136 483.185 523.358 491.133 522.464 499.205C521.9 504.656 522.045 510.158 522.894 515.572C523.231 517.47 523.54 518.951 523.81 519.933C523.917 520.404 524.011 520.781 524.079 521.064L524.227 521.508Z" fill="#263238"/>
<path d="M557.998 527.672H494.036L492.569 515.356H557.998V527.672Z" fill="#455A64"/>
<path d="M500.887 526.259L508.896 563.193H543.65L551.133 526.259H500.887Z" fill="#455A64"/>
<path d="M557.998 527.713C557.998 527.874 543.932 527.968 526.582 527.928C509.232 527.888 495.18 527.699 495.18 527.524C495.18 527.349 509.232 527.268 526.582 527.309C543.932 527.349 557.998 527.497 557.998 527.713Z" fill="#455A64"/>
<path d="M547.015 545.897C545.28 544.593 543.39 543.507 541.388 542.667C539.203 541.815 536.883 541.359 534.537 541.321C531.658 541.321 528.802 541.845 526.111 542.869C523.19 543.851 520.471 544.995 517.82 545.628C515.467 546.142 513.039 546.215 510.659 545.843C509.054 545.618 507.499 545.127 506.056 544.39C505.665 544.182 505.291 543.944 504.939 543.676C504.809 543.595 504.691 543.495 504.589 543.38C504.589 543.38 505.14 543.703 506.163 544.174C507.609 544.812 509.143 545.23 510.713 545.413C513.043 545.712 515.408 545.598 517.699 545.076C520.256 544.444 522.975 543.286 525.923 542.29C528.679 541.251 531.605 540.73 534.551 540.756C536.958 540.833 539.331 541.353 541.55 542.29C543.036 542.918 544.434 543.737 545.709 544.726C546.06 544.991 546.392 545.279 546.705 545.588C546.893 545.763 547.028 545.884 547.015 545.897Z" fill="#263238"/>
<path d="M546.53 548.36C544.864 547.094 543.057 546.024 541.146 545.17C539.043 544.325 536.803 543.869 534.537 543.824C531.758 543.836 529.002 544.332 526.394 545.291C523.581 546.234 520.929 547.324 518.412 547.983C516.175 548.628 513.845 548.887 511.521 548.751C509.953 548.656 508.419 548.249 507.011 547.553C506.637 547.349 506.277 547.12 505.935 546.866C505.706 546.691 505.585 546.597 505.598 546.57C505.612 546.543 506.123 546.88 507.106 547.337C508.514 547.933 510.019 548.266 511.547 548.32C513.823 548.398 516.097 548.102 518.277 547.445C520.754 546.745 523.379 545.641 526.232 544.686C528.904 543.704 531.732 543.216 534.578 543.246C536.898 543.316 539.183 543.832 541.308 544.767C542.756 545.39 544.114 546.205 545.346 547.189C545.684 547.444 546.003 547.723 546.301 548.024C546.436 548.239 546.543 548.347 546.53 548.36Z" fill="white"/>
<path d="M547.647 543.448C545.847 542.106 543.907 540.964 541.859 540.042C539.636 539.08 537.264 538.507 534.847 538.346C531.876 538.288 528.923 538.81 526.152 539.881C523.345 540.978 520.478 541.913 517.564 542.68C515.119 543.106 512.619 543.106 510.175 542.68C508.526 542.42 506.924 541.916 505.423 541.186C505.019 540.975 504.632 540.732 504.266 540.46C504.01 540.285 503.889 540.177 503.902 540.15C503.916 540.123 504.467 540.487 505.517 540.971C507.027 541.624 508.615 542.076 510.242 542.317C512.643 542.66 515.085 542.61 517.47 542.169C520.348 541.375 523.183 540.432 525.963 539.342C528.802 538.246 531.832 537.733 534.874 537.835C537.351 538.018 539.776 538.643 542.034 539.679C543.552 540.366 544.985 541.229 546.301 542.25C546.661 542.524 547.002 542.821 547.324 543.138C547.553 543.313 547.661 543.434 547.647 543.448Z" fill="white"/>
<path d="M558.563 527.712C558.563 527.887 544.174 528.022 526.421 528.022C508.667 528.022 494.292 527.887 494.292 527.712C494.292 527.537 508.68 527.416 526.421 527.416C544.161 527.416 558.563 527.551 558.563 527.712Z" fill="#263238"/>
<path d="M108.989 65.5069L106.259 75.2789H103.949L102.115 68.3209L100.197 75.2789L97.9013 75.2929L95.2693 65.5069H97.3693L99.0913 73.0949L101.079 65.5069H103.263L105.139 73.0529L106.875 65.5069H108.989ZM113.713 75.4049C112.966 75.4049 112.294 75.2415 111.697 74.9149C111.1 74.5789 110.628 74.1075 110.283 73.5009C109.947 72.8942 109.779 72.1942 109.779 71.4009C109.779 70.6075 109.952 69.9075 110.297 69.3009C110.652 68.6942 111.132 68.2275 111.739 67.9009C112.346 67.5649 113.022 67.3969 113.769 67.3969C114.516 67.3969 115.192 67.5649 115.799 67.9009C116.406 68.2275 116.882 68.6942 117.227 69.3009C117.582 69.9075 117.759 70.6075 117.759 71.4009C117.759 72.1942 117.577 72.8942 117.213 73.5009C116.858 74.1075 116.373 74.5789 115.757 74.9149C115.15 75.2415 114.469 75.4049 113.713 75.4049ZM113.713 73.6969C114.068 73.6969 114.399 73.6129 114.707 73.4449C115.024 73.2675 115.276 73.0062 115.463 72.6609C115.65 72.3155 115.743 71.8955 115.743 71.4009C115.743 70.6635 115.547 70.0989 115.155 69.7069C114.772 69.3055 114.301 69.1049 113.741 69.1049C113.181 69.1049 112.71 69.3055 112.327 69.7069C111.954 70.0989 111.767 70.6635 111.767 71.4009C111.767 72.1382 111.949 72.7075 112.313 73.1089C112.686 73.5009 113.153 73.6969 113.713 73.6969ZM121.157 68.7269C121.409 68.3162 121.736 67.9942 122.137 67.7609C122.548 67.5275 123.014 67.4109 123.537 67.4109V69.4689H123.019C122.403 69.4689 121.936 69.6135 121.619 69.9029C121.311 70.1922 121.157 70.6962 121.157 71.4149V75.2789H119.197V67.5229H121.157V68.7269ZM129.449 75.2789L126.817 71.9749V75.2789H124.857V64.9189H126.817V70.8129L129.421 67.5229H131.969L128.553 71.4149L131.997 75.2789H129.449ZM136.589 69.1329H135.231V75.2789H133.243V69.1329H132.361V67.5229H133.243V67.1309C133.243 66.1789 133.513 65.4789 134.055 65.0309C134.596 64.5829 135.413 64.3729 136.505 64.4009V66.0529C136.029 66.0435 135.697 66.1229 135.511 66.2909C135.324 66.4589 135.231 66.7622 135.231 67.2009V67.5229H136.589V69.1329ZM139.819 64.9189V75.2789H137.859V64.9189H139.819ZM145.199 75.4049C144.453 75.4049 143.781 75.2415 143.183 74.9149C142.586 74.5789 142.115 74.1075 141.769 73.5009C141.433 72.8942 141.265 72.1942 141.265 71.4009C141.265 70.6075 141.438 69.9075 141.783 69.3009C142.138 68.6942 142.619 68.2275 143.225 67.9009C143.832 67.5649 144.509 67.3969 145.255 67.3969C146.002 67.3969 146.679 67.5649 147.285 67.9009C147.892 68.2275 148.368 68.6942 148.713 69.3009C149.068 69.9075 149.245 70.6075 149.245 71.4009C149.245 72.1942 149.063 72.8942 148.699 73.5009C148.345 74.1075 147.859 74.5789 147.243 74.9149C146.637 75.2415 145.955 75.4049 145.199 75.4049ZM145.199 73.6969C145.554 73.6969 145.885 73.6129 146.193 73.4449C146.511 73.2675 146.763 73.0062 146.949 72.6609C147.136 72.3155 147.229 71.8955 147.229 71.4009C147.229 70.6635 147.033 70.0989 146.641 69.7069C146.259 69.3055 145.787 69.1049 145.227 69.1049C144.667 69.1049 144.196 69.3055 143.813 69.7069C143.44 70.0989 143.253 70.6635 143.253 71.4009C143.253 72.1382 143.435 72.7075 143.799 73.1089C144.173 73.5009 144.639 73.6969 145.199 73.6969ZM161.435 67.5229L159.167 75.2789H157.053L155.639 69.8609L154.225 75.2789H152.097L149.815 67.5229H151.803L153.175 73.4309L154.659 67.5229H156.731L158.187 73.4169L159.559 67.5229H161.435Z" fill="black"/>
</svg>
