<svg width="1073" height="743" viewBox="0 0 1073 743" fill="none" xmlns="http://www.w3.org/2000/svg">
<path d="M964.832 736.632H893.805V737.168H964.832V736.632Z" fill="#EBEBEB"/>
<path d="M710.317 742.464H691.681V743H710.317V742.464Z" fill="#EBEBEB"/>
<path d="M891.66 716.728H850.506V717.264H891.66V716.728Z" fill="#EBEBEB"/>
<path d="M205.126 720.33H112.503V720.866H205.126V720.33Z" fill="#EBEBEB"/>
<path d="M237.809 720.33H224.234V720.866H237.809V720.33Z" fill="#EBEBEB"/>
<path d="M482.845 729.383H281.944V729.919H482.845V729.383Z" fill="#EBEBEB"/>
<path d="M511.26 606.478H97.1482C93.9005 606.478 90.7859 605.188 88.4894 602.891C86.193 600.595 84.9028 597.48 84.9028 594.233V12.1381C84.9311 8.90908 86.2337 5.82191 88.5271 3.54859C90.8205 1.27528 93.919 -0.000123796 97.1482 9.01256e-09H511.26C512.868 9.01258e-09 514.461 0.316733 515.946 0.93212C517.432 1.54751 518.782 2.4495 519.919 3.58659C521.056 4.72367 521.958 6.0736 522.574 7.55927C523.189 9.04495 523.506 10.6373 523.506 12.2454V594.233C523.506 595.841 523.189 597.433 522.574 598.919C521.958 600.404 521.056 601.754 519.919 602.891C518.782 604.029 517.432 604.931 515.946 605.546C514.461 606.161 512.868 606.478 511.26 606.478ZM97.1482 0.428911C94.0445 0.43458 91.0695 1.67005 88.8748 3.86472C86.6801 6.0594 85.4446 9.0344 85.439 12.1381V594.233C85.4446 597.336 86.6801 600.311 88.8748 602.506C91.0695 604.701 94.0445 605.936 97.1482 605.942H511.26C514.364 605.936 517.339 604.701 519.534 602.506C521.728 600.311 522.964 597.336 522.97 594.233V12.1381C522.964 9.0344 521.728 6.0594 519.534 3.86472C517.339 1.67005 514.364 0.43458 511.26 0.428911H97.1482Z" fill="#EBEBEB"/>
<path d="M975.126 606.478H561.013C557.766 606.478 554.651 605.188 552.355 602.891C550.058 600.595 548.768 597.48 548.768 594.233V12.1381C548.796 8.90908 550.099 5.82191 552.392 3.54859C554.686 1.27528 557.784 -0.000123796 561.013 9.01256e-09H975.126C978.373 9.01259e-09 981.488 1.29013 983.784 3.58659C986.081 5.88304 987.371 8.99769 987.371 12.2454V594.233C987.371 597.48 986.081 600.595 983.784 602.891C981.488 605.188 978.373 606.478 975.126 606.478ZM561.013 0.428911C557.91 0.43458 554.935 1.67005 552.74 3.86472C550.545 6.0594 549.31 9.0344 549.304 12.1381V594.233C549.31 597.336 550.545 600.311 552.74 602.506C554.935 604.701 557.91 605.936 561.013 605.942H975.126C978.229 605.936 981.204 604.701 983.399 602.506C985.594 600.311 986.829 597.336 986.835 594.233V12.1381C986.829 9.0344 985.594 6.0594 983.399 3.86472C981.204 1.67005 978.229 0.43458 975.126 0.428911H561.013Z" fill="#EBEBEB"/>
<path d="M1072.27 702.125H0V702.661H1072.27V702.125Z" fill="#EBEBEB"/>
<path d="M634.1 689.558H808.837V526.744H634.1V689.558Z" fill="#E6E6E6"/>
<path d="M781.044 702.49H803.348V694.706H781.044V702.49Z" fill="#E0E0E0"/>
<path d="M279.306 687.991H634.121V526.743H279.306V687.991Z" fill="#E6E6E6"/>
<path d="M220.03 702.49H274.502V514.757H220.03L220.03 702.49Z" fill="#E6E6E6"/>
<path d="M462.987 680.465H616.815V539.59H462.987V680.465Z" fill="#F5F5F5"/>
<path d="M638.389 680.465H792.217V539.59H638.389V680.465Z" fill="#F5F5F5"/>
<path d="M285.911 680.465H439.739V539.59H285.911V680.465Z" fill="#F5F5F5"/>
<path d="M274.245 514.691V702.425H286.125V697.964H803.304V702.425H815.207V514.691H274.245ZM803.304 599.701H639.868V532.341H803.304V599.701ZM639.868 680.465V609.802H803.304V680.465H639.868ZM462.986 532.341H627.966V680.465H462.986V532.341ZM286.125 609.802H451.105V680.465H286.125V609.802ZM286.125 532.341H451.105V599.766H286.125V532.341Z" fill="#F0F0F0"/>
<path d="M702.425 558.204H728.16C728.818 558.206 729.47 558.079 730.078 557.829C730.687 557.58 731.24 557.212 731.707 556.748C732.173 556.283 732.543 555.732 732.795 555.124C733.048 554.516 733.178 553.865 733.178 553.207C733.178 552.549 733.048 551.897 732.795 551.29C732.543 550.682 732.173 550.13 731.707 549.666C731.24 549.202 730.687 548.834 730.078 548.584C729.47 548.334 728.818 548.207 728.16 548.21H702.425C701.1 548.21 699.829 548.736 698.892 549.674C697.955 550.611 697.428 551.882 697.428 553.207C697.428 554.532 697.955 555.803 698.892 556.74C699.829 557.677 701.1 558.204 702.425 558.204Z" fill="#E6E6E6"/>
<path d="M485.118 620.244V594.51C485.118 593.184 484.592 591.913 483.655 590.976C482.717 590.039 481.447 589.513 480.121 589.513C479.463 589.51 478.811 589.637 478.203 589.887C477.594 590.137 477.04 590.504 476.574 590.969C476.108 591.433 475.738 591.985 475.485 592.592C475.233 593.2 475.103 593.852 475.103 594.51V620.244C475.103 620.902 475.233 621.554 475.485 622.161C475.738 622.769 476.108 623.321 476.574 623.785C477.04 624.249 477.594 624.617 478.203 624.867C478.811 625.117 479.463 625.244 480.121 625.241C481.447 625.241 482.717 624.714 483.655 623.777C484.592 622.84 485.118 621.569 485.118 620.244Z" fill="#E6E6E6"/>
<path d="M702.425 630.497H728.16C728.818 630.499 729.47 630.372 730.078 630.122C730.687 629.873 731.241 629.505 731.707 629.041C732.173 628.576 732.543 628.025 732.795 627.417C733.048 626.809 733.178 626.158 733.178 625.5C733.178 624.169 732.649 622.892 731.708 621.951C730.767 621.01 729.491 620.481 728.16 620.481H702.425C701.767 620.481 701.116 620.611 700.508 620.864C699.9 621.116 699.348 621.486 698.884 621.953C698.42 622.419 698.052 622.972 697.802 623.581C697.553 624.19 697.425 624.842 697.428 625.5C697.428 626.825 697.955 628.096 698.892 629.033C699.829 629.97 701.1 630.497 702.425 630.497Z" fill="#E6E6E6"/>
<path d="M349.968 558.204H375.703C377.028 558.204 378.299 557.677 379.236 556.74C380.173 555.803 380.7 554.532 380.7 553.207C380.7 551.881 380.173 550.611 379.236 549.673C378.299 548.736 377.028 548.21 375.703 548.21H349.968C348.643 548.21 347.372 548.736 346.435 549.673C345.498 550.611 344.972 551.881 344.972 553.207C344.972 554.532 345.498 555.803 346.435 556.74C347.372 557.677 348.643 558.204 349.968 558.204Z" fill="#E6E6E6"/>
<path d="M349.969 630.497H375.703C377.028 630.497 378.299 629.97 379.236 629.033C380.173 628.096 380.7 626.825 380.7 625.5C380.703 624.842 380.576 624.19 380.326 623.581C380.076 622.972 379.708 622.419 379.244 621.953C378.78 621.486 378.228 621.116 377.62 620.864C377.013 620.611 376.361 620.481 375.703 620.481H349.969C349.311 620.481 348.659 620.611 348.051 620.864C347.444 621.116 346.892 621.486 346.428 621.953C345.963 622.419 345.596 622.972 345.346 623.581C345.096 624.19 344.969 624.842 344.972 625.5C344.972 626.825 345.498 628.096 346.435 629.033C347.372 629.97 348.643 630.497 349.969 630.497Z" fill="#E6E6E6"/>
<path d="M152.134 698.778H203.003L203.003 223.246H152.134L152.134 698.778Z" fill="#E0E0E0"/>
<path d="M112.503 219.087V702.94H152.113V219.087H112.503Z" fill="#E6E6E6"/>
<path d="M201.094 219.087V702.94H240.725V219.087H201.094Z" fill="#E6E6E6"/>
<path d="M147.373 219.087V702.94H247.438V219.087H147.373ZM238.045 227.43V314.177H156.873V227.43H238.045ZM156.873 504.398V417.63H238.045V504.398H156.873ZM237.937 512.74V599.509H156.873V512.74H237.937ZM156.873 409.287V322.54H238.045V409.287H156.873ZM156.873 694.512V607.851H238.045V694.598L156.873 694.512Z" fill="#F5F5F5"/>
<path d="M196.848 247.653H185.032V314.97H196.848V247.653Z" fill="#EBEBEB"/>
<path d="M185.031 247.653H175.896V314.97H185.031V247.653Z" fill="#E6E6E6"/>
<path d="M215.12 249.262H196.848V314.992H215.12V249.262Z" fill="#E0E0E0"/>
<path d="M224.255 249.262H215.12V314.992H224.255V249.262Z" fill="#EBEBEB"/>
<path d="M169.784 249.262H157.603V314.992H169.784V249.262Z" fill="#EBEBEB"/>
<path d="M175.896 249.262H169.805V314.992H175.896V249.262Z" fill="#FAFAFA"/>
<path d="M185.032 409.266H196.848V341.948H185.032V409.266Z" fill="#E6E6E6"/>
<path d="M196.848 409.266H205.984V341.948H196.848V409.266Z" fill="#EBEBEB"/>
<path d="M166.76 409.243H185.032V343.513H166.76V409.243Z" fill="#EBEBEB"/>
<path d="M157.624 409.243H166.76V343.513H157.624V409.243Z" fill="#E0E0E0"/>
<path d="M212.096 409.243H224.277V343.513H212.096V409.243Z" fill="#EBEBEB"/>
<path d="M205.984 409.243H212.074V343.513H205.984V409.243Z" fill="#F0F0F0"/>
<path d="M185.032 505.191H196.848V437.874H185.032V505.191Z" fill="#E6E6E6"/>
<path d="M196.848 505.191H205.984V437.874H196.848V505.191Z" fill="#EBEBEB"/>
<path d="M166.76 505.191H185.032V439.461H166.76V505.191Z" fill="#EBEBEB"/>
<path d="M157.624 505.191H166.76V439.461H157.624V505.191Z" fill="#E0E0E0"/>
<path d="M212.096 505.191H224.277V439.461H212.096V505.191Z" fill="#EBEBEB"/>
<path d="M205.984 505.191H212.074V439.461H205.984V505.191Z" fill="#F0F0F0"/>
<path d="M196.848 533.821H185.032V601.139H196.848V533.821Z" fill="#EBEBEB"/>
<path d="M185.031 533.821H175.896V601.139H185.031V533.821Z" fill="#E6E6E6"/>
<path d="M215.12 533.821H196.848V599.552H215.12V533.821Z" fill="#E0E0E0"/>
<path d="M224.255 533.821H215.12V599.552H224.255V533.821Z" fill="#EBEBEB"/>
<path d="M169.784 533.821H157.603V599.552H169.784V533.821Z" fill="#EBEBEB"/>
<path d="M175.896 533.821H169.805V599.552H175.896V533.821Z" fill="#FAFAFA"/>
<path d="M185.032 697.062H196.848V629.745H185.032V697.062Z" fill="#E6E6E6"/>
<path d="M196.848 697.062H205.984V629.745H196.848V697.062Z" fill="#EBEBEB"/>
<path d="M166.76 695.477H185.032V629.746H166.76V695.477Z" fill="#EBEBEB"/>
<path d="M157.624 695.477H166.76V629.746H157.624V695.477Z" fill="#E0E0E0"/>
<path d="M212.096 695.477H224.277V629.746H212.096V695.477Z" fill="#FAFAFA"/>
<path d="M205.984 695.477H212.074V629.746H205.984V695.477Z" fill="#F0F0F0"/>
<path d="M876.862 602.402C876.648 602.638 877.806 604.225 873.131 603.539C861.658 601.802 841.628 597.105 836.073 585.332C828.117 568.454 852.779 574.609 851.921 566.031C851.064 557.453 823.013 558.89 820.032 546.237C817.051 533.584 836.095 539.61 836.331 533.369C836.566 527.129 814.649 531.032 810.296 517.393C805.942 503.753 822.52 513.79 820.632 508.107C818.745 502.424 800.173 476.753 810.253 473.794C820.332 470.834 837.36 497.17 843.922 500.901C850.485 504.633 856.318 483.123 864.145 492.194C871.973 501.266 859.556 533.048 869.528 539.224C876.97 543.813 874.868 531.161 884.669 533.52C898.008 536.736 893.526 583.766 876.862 602.402Z" fill="#EBEBEB"/>
<path d="M841.392 533.477C844.777 533.712 848.117 534.398 851.321 535.515C849.213 532.309 846.854 529.276 844.265 526.443C844.107 526.279 844.018 526.06 844.018 525.832C844.018 525.604 844.107 525.385 844.265 525.221C844.426 525.064 844.641 524.976 844.866 524.976C845.09 524.976 845.306 525.064 845.466 525.221C851.023 531.444 855.778 538.339 859.62 545.744C861.605 531.822 859.667 517.622 854.023 504.74C853.959 504.588 853.955 504.417 854.013 504.262C854.072 504.108 854.187 503.981 854.336 503.909C854.485 503.838 854.656 503.826 854.814 503.877C854.971 503.928 855.103 504.037 855.181 504.183C855.181 504.397 865.003 524.706 860.586 547.546C861.765 549.797 862.945 552.178 864.124 554.751C868.235 563.954 871.487 573.516 873.839 583.317C878.073 575.299 880.393 566.41 880.616 557.346C880.616 557.263 880.632 557.18 880.665 557.103C880.697 557.026 880.745 556.957 880.805 556.899C880.865 556.841 880.936 556.795 881.014 556.765C881.092 556.735 881.175 556.721 881.259 556.724C881.342 556.724 881.425 556.741 881.502 556.774C881.579 556.806 881.648 556.854 881.706 556.914C881.764 556.974 881.81 557.045 881.84 557.123C881.87 557.201 881.884 557.284 881.881 557.368C881.685 567.106 879.069 576.643 874.268 585.118C878.609 604.354 880.055 624.13 878.557 643.793C878.535 644.019 878.427 644.227 878.255 644.375C878.083 644.523 877.861 644.599 877.635 644.586H877.527C877.325 644.545 877.145 644.43 877.022 644.264C876.899 644.097 876.843 643.891 876.863 643.686C878.873 618.739 875.876 593.642 868.049 569.87C864.548 565.802 859.755 563.061 854.474 562.107C854.306 562.081 854.156 561.989 854.056 561.853C853.955 561.716 853.913 561.546 853.937 561.378C853.95 561.296 853.98 561.217 854.024 561.146C854.067 561.076 854.125 561.014 854.193 560.966C854.261 560.918 854.338 560.885 854.419 560.867C854.501 560.849 854.585 560.848 854.667 560.863C859.313 561.653 863.624 563.794 867.062 567.018C863.378 556.654 858.506 546.752 852.543 537.509C848.952 535.995 845.131 535.096 841.242 534.85C841.143 534.842 841.047 534.811 840.961 534.761C840.876 534.711 840.803 534.642 840.747 534.559C840.692 534.477 840.655 534.384 840.641 534.285C840.626 534.187 840.633 534.087 840.663 533.992C840.676 533.91 840.705 533.831 840.749 533.76C840.793 533.69 840.85 533.629 840.918 533.581C840.986 533.533 841.063 533.499 841.145 533.481C841.226 533.463 841.31 533.462 841.392 533.477Z" fill="#F5F5F5"/>
<path d="M891.595 608.923C901.139 609.095 917.437 600.238 923.764 591.616C930.09 582.995 911.99 588.292 913.856 581.408C915.721 574.524 938.261 579.607 942.421 569.764C946.582 559.92 930.326 562.193 930.969 557.154C931.613 552.114 948.469 553.143 953.873 542.678C959.277 532.212 944.458 538.067 946.796 533.735C949.133 529.403 967.684 511.132 959.921 507.336C952.157 503.54 934.722 522.541 928.889 524.664C923.056 526.787 921.705 513.662 914.113 519.946C906.521 526.229 912.204 553.679 903.262 557.304C896.614 560.006 899.444 547.417 891.788 550.591C878.471 556.146 887.714 608.837 891.595 608.923Z" fill="#E0E0E0"/>
<g opacity="0.3">
<path d="M891.595 608.923C901.139 609.095 917.437 600.238 923.764 591.616C930.09 582.995 911.99 588.292 913.856 581.408C915.721 574.524 938.261 579.607 942.421 569.764C946.582 559.92 930.326 562.193 930.969 557.154C931.613 552.114 948.469 553.143 953.873 542.678C959.277 532.212 944.458 538.067 946.796 533.735C949.133 529.403 967.684 511.132 959.921 507.336C952.157 503.54 934.722 522.541 928.889 524.664C923.056 526.787 921.705 513.662 914.113 519.946C906.521 526.229 912.204 553.679 903.262 557.304C896.614 560.006 899.444 547.417 891.788 550.591C878.471 556.146 887.714 608.837 891.595 608.923Z" fill="#EBEBEB"/>
</g>
<path d="M894.748 597.451C894.673 597.434 894.603 597.4 894.543 597.352C894.484 597.303 894.436 597.242 894.405 597.172C890.742 589.172 889.262 580.345 890.116 571.587C890.121 571.503 890.143 571.42 890.181 571.344C890.218 571.268 890.27 571.2 890.334 571.145C890.398 571.089 890.472 571.046 890.552 571.019C890.633 570.992 890.718 570.981 890.802 570.987C890.971 571.003 891.127 571.083 891.238 571.211C891.35 571.338 891.409 571.504 891.403 571.673C890.67 579.981 891.996 588.341 895.263 596.014C899.204 585.352 904.07 575.055 909.803 565.24C909.059 552.155 912.16 539.139 918.724 527.796C918.825 527.679 918.965 527.603 919.118 527.581C919.271 527.559 919.427 527.592 919.557 527.676C919.687 527.759 919.782 527.886 919.826 528.034C919.87 528.182 919.86 528.341 919.796 528.482C913.718 539.048 910.661 551.081 910.961 563.266C917.824 551.491 926.012 540.54 935.366 530.626C935.526 530.469 935.742 530.381 935.966 530.381C936.191 530.381 936.406 530.469 936.567 530.626C936.647 530.704 936.711 530.798 936.755 530.901C936.798 531.004 936.821 531.115 936.821 531.227C936.821 531.339 936.798 531.45 936.755 531.553C936.711 531.656 936.647 531.749 936.567 531.827C929.635 539.119 923.376 547.022 917.866 555.439C923.638 553.273 929.759 552.19 935.923 552.244C936.092 552.254 936.25 552.329 936.366 552.453C936.481 552.576 936.546 552.739 936.545 552.908C936.54 553.075 936.469 553.233 936.349 553.349C936.229 553.466 936.069 553.53 935.902 553.53C929.28 553.461 922.714 554.738 916.601 557.283C912.833 563.057 909.361 569.02 906.2 575.147C908.768 573.369 911.691 572.168 914.767 571.627C917.844 571.087 921.001 571.22 924.021 572.016C924.102 572.036 924.178 572.072 924.245 572.122C924.312 572.172 924.368 572.235 924.41 572.307C924.452 572.379 924.479 572.459 924.49 572.541C924.5 572.624 924.494 572.708 924.471 572.788C924.454 572.871 924.42 572.949 924.371 573.017C924.322 573.086 924.259 573.143 924.186 573.186C924.113 573.228 924.032 573.255 923.948 573.264C923.864 573.273 923.78 573.264 923.699 573.239C920.428 572.389 916.996 572.361 913.711 573.158C910.426 573.955 907.389 575.552 904.87 577.807C893.816 599.566 887.508 623.425 886.363 647.805C886.352 648.025 886.257 648.232 886.097 648.384C885.937 648.535 885.725 648.62 885.505 648.62C885.393 648.617 885.283 648.592 885.181 648.546C885.08 648.5 884.988 648.434 884.912 648.352C884.836 648.27 884.777 648.174 884.739 648.069C884.701 647.963 884.684 647.852 884.69 647.74C885.454 630.562 888.846 613.602 894.748 597.451Z" fill="#F5F5F5"/>
<path d="M864.724 702.189C855.61 685.033 849.712 660.285 849.712 649.434C849.754 644.993 850.773 640.616 852.697 636.613C854.62 632.61 857.401 629.08 860.843 626.272H907.529C910.968 629.081 913.746 632.612 915.665 636.615C917.585 640.618 918.6 644.994 918.638 649.434C918.638 660.285 912.655 685.054 903.626 702.189H864.724Z" fill="#F0F0F0"/>
<path d="M784.904 369.161C784.904 368.604 784.904 368.046 784.904 367.51L788.143 365.709C787.887 364.18 787.485 362.679 786.942 361.227H783.232C782.77 360.22 782.217 359.258 781.58 358.353L783.489 355.2C782.509 353.985 781.402 352.878 780.186 351.898L777.034 353.806C776.128 353.169 775.166 352.617 774.16 352.155V348.445C772.708 347.902 771.207 347.5 769.678 347.244L767.877 350.482C767.341 350.482 766.783 350.482 766.225 350.482C765.668 350.482 765.11 350.482 764.574 350.482L762.773 347.244C761.244 347.5 759.743 347.902 758.291 348.445V352.155C757.284 352.617 756.322 353.169 755.417 353.806L752.243 351.898C751.039 352.884 749.94 353.99 748.962 355.2L750.87 358.353C750.226 359.253 749.672 360.216 749.219 361.227H745.509C744.956 362.676 744.554 364.177 744.308 365.709L747.546 367.51C747.546 368.046 747.546 368.604 747.546 369.161C747.546 369.719 747.546 370.277 747.546 370.813L744.308 372.614C744.554 374.145 744.956 375.647 745.509 377.096H749.219C749.672 378.107 750.226 379.069 750.87 379.97L748.962 383.144C749.946 384.342 751.045 385.441 752.243 386.425L755.417 384.516C756.317 385.161 757.28 385.714 758.291 386.168V389.878C759.74 390.43 761.241 390.833 762.773 391.079L764.574 387.84C765.11 387.84 765.668 387.84 766.225 387.84C766.783 387.84 767.341 387.84 767.877 387.84L769.678 391.079C771.209 390.833 772.711 390.43 774.16 389.878V386.168C775.171 385.714 776.133 385.161 777.034 384.516L780.186 386.425C781.396 385.447 782.503 384.348 783.489 383.144L781.58 379.97C782.217 379.064 782.77 378.103 783.232 377.096H786.942C787.485 375.644 787.887 374.143 788.143 372.614L784.904 370.813C784.904 370.277 784.904 369.719 784.904 369.161ZM766.225 381.857C763.714 381.857 761.26 381.113 759.172 379.718C757.084 378.323 755.457 376.34 754.496 374.02C753.535 371.7 753.284 369.147 753.774 366.685C754.263 364.222 755.473 361.96 757.248 360.184C759.024 358.409 761.286 357.2 763.749 356.71C766.211 356.22 768.764 356.471 771.084 357.432C773.404 358.393 775.386 360.02 776.781 362.108C778.177 364.196 778.921 366.65 778.921 369.161C778.921 370.836 778.59 372.494 777.947 374.04C777.303 375.586 776.36 376.989 775.172 378.169C773.984 379.349 772.575 380.283 771.024 380.915C769.474 381.548 767.814 381.868 766.14 381.857H766.225Z" fill="#F0F0F0"/>
<path d="M760.5 414.991C760.5 414.155 760.5 413.34 760.392 412.525L765.218 409.823C764.87 407.55 764.28 405.322 763.459 403.175L757.947 403.282C757.241 401.785 756.408 400.35 755.46 398.993L758.312 394.253C756.849 392.444 755.196 390.797 753.38 389.342L748.64 392.173C747.286 391.226 745.851 390.4 744.351 389.707V384.174C742.183 383.341 739.933 382.737 737.639 382.373L734.958 387.219C733.311 387.048 731.651 387.048 730.004 387.219L727.323 382.373C725.029 382.737 722.779 383.341 720.611 384.174V389.707C719.111 390.4 717.676 391.226 716.322 392.173L711.561 389.342C709.757 390.803 708.111 392.449 706.65 394.253L709.502 398.993C708.554 400.35 707.721 401.785 707.014 403.282L701.482 403.175C700.651 405.344 700.047 407.593 699.68 409.887L704.527 412.589C704.527 413.404 704.42 414.219 704.42 415.055C704.42 415.892 704.42 416.707 704.527 417.522L699.68 420.224C700.047 422.517 700.651 424.767 701.482 426.936L707.014 426.829C707.717 428.329 708.549 429.764 709.502 431.118L706.65 435.858C708.111 437.662 709.757 439.308 711.561 440.769L716.322 437.938C717.671 438.893 719.107 439.719 720.611 440.404V445.937C722.779 446.77 725.029 447.374 727.323 447.738L730.004 442.892C731.651 443.063 733.311 443.063 734.958 442.892L737.639 447.738C739.933 447.374 742.183 446.77 744.351 445.937V440.404C745.855 439.719 747.291 438.893 748.64 437.938L753.38 440.769C755.196 439.314 756.849 437.667 758.312 435.858L755.417 431.054C756.37 429.7 757.202 428.264 757.905 426.765L763.416 426.872C764.256 424.706 764.86 422.455 765.218 420.159L760.392 417.457C760.457 416.642 760.5 415.827 760.5 414.991ZM732.62 426.014C730.44 426.014 728.309 425.368 726.496 424.156C724.684 422.945 723.271 421.224 722.436 419.209C721.602 417.195 721.384 414.979 721.809 412.841C722.235 410.702 723.284 408.738 724.826 407.197C726.368 405.655 728.332 404.605 730.47 404.18C732.608 403.755 734.825 403.973 736.839 404.807C738.853 405.642 740.574 407.054 741.786 408.867C742.997 410.68 743.643 412.811 743.643 414.991C743.643 416.446 743.356 417.886 742.796 419.229C742.237 420.572 741.417 421.791 740.385 422.816C739.352 423.841 738.127 424.651 736.779 425.2C735.432 425.749 733.989 426.025 732.535 426.014H732.62Z" fill="#F0F0F0"/>
<path d="M326.315 329.982H301.052C298.893 329.982 296.755 330.408 294.76 331.235C292.766 332.062 290.954 333.274 289.428 334.801C287.903 336.329 286.693 338.143 285.869 340.138C285.045 342.134 284.622 344.272 284.625 346.431V371.672C284.625 376.031 286.355 380.212 289.435 383.296C292.515 386.38 296.693 388.115 301.052 388.121H326.315C330.673 388.115 334.852 386.38 337.932 383.296C341.012 380.212 342.742 376.031 342.742 371.672V346.431C342.745 344.272 342.322 342.134 341.497 340.138C340.673 338.143 339.464 336.329 337.938 334.801C336.412 333.274 334.6 332.062 332.606 331.235C330.611 330.408 328.474 329.982 326.315 329.982ZM313.683 377.162C313.683 377.162 300.022 362.279 300.022 354.731C300.022 351.107 301.462 347.633 304.024 345.071C306.585 342.509 310.06 341.07 313.683 341.07C317.306 341.07 320.781 342.509 323.343 345.071C325.905 347.633 327.344 351.107 327.344 354.731C327.344 362.215 313.683 377.098 313.683 377.098V377.162Z" fill="#F0F0F0"/>
<path d="M313.683 348.447C312.448 348.447 311.24 348.814 310.214 349.501C309.187 350.187 308.387 351.163 307.915 352.305C307.444 353.446 307.321 354.702 307.564 355.913C307.806 357.124 308.403 358.236 309.278 359.108C310.153 359.98 311.267 360.573 312.479 360.811C313.691 361.05 314.946 360.923 316.086 360.447C317.226 359.972 318.199 359.169 318.882 358.139C319.565 357.11 319.928 355.902 319.924 354.667C319.924 353.848 319.762 353.037 319.448 352.282C319.134 351.526 318.674 350.839 318.094 350.261C317.515 349.683 316.827 349.226 316.07 348.915C315.313 348.603 314.502 348.444 313.683 348.447Z" fill="#F0F0F0"/>
<path d="M836.373 141.541H809.717C807.724 141.538 805.75 141.928 803.908 142.689C802.066 143.449 800.392 144.566 798.982 145.974C797.571 147.382 796.453 149.054 795.689 150.895C794.926 152.736 794.533 154.71 794.533 156.703V183.381C794.533 185.374 794.926 187.347 795.689 189.188C796.453 191.029 797.571 192.701 798.982 194.109C800.392 195.518 802.066 196.634 803.908 197.395C805.75 198.155 807.724 198.545 809.717 198.543H836.373C838.365 198.545 840.338 198.155 842.179 197.394C844.02 196.633 845.692 195.517 847.101 194.108C848.509 192.7 849.626 191.027 850.387 189.186C851.148 187.345 851.538 185.373 851.535 183.381V156.552C851.501 152.555 849.888 148.734 847.048 145.922C844.208 143.11 840.37 141.535 836.373 141.541ZM839.933 161.034C839.234 161.919 838.419 162.705 837.51 163.372C837.472 163.386 837.441 163.414 837.421 163.449C837.402 163.484 837.395 163.525 837.403 163.565C837.432 164.562 837.375 165.559 837.231 166.546C837.01 168.614 836.46 170.634 835.601 172.529C834.718 174.458 833.53 176.232 832.084 177.783C829.605 180.397 826.388 182.192 822.863 182.93C821.622 183.205 820.358 183.363 819.088 183.402C815.307 183.488 811.582 182.475 808.366 180.486H808.194C811.741 180.848 815.296 179.877 818.166 177.762C816.759 177.728 815.396 177.261 814.264 176.425C813.132 175.588 812.285 174.422 811.84 173.087C812.794 173.29 813.781 173.29 814.735 173.087C813.826 172.896 812.966 172.521 812.206 171.987C811.447 171.452 810.804 170.768 810.317 169.977C809.646 168.911 809.289 167.677 809.288 166.417C810.194 166.904 811.198 167.182 812.226 167.232C810.83 166.255 809.844 164.796 809.459 163.136C809.042 161.489 809.28 159.743 810.124 158.268C811.845 160.34 813.975 162.034 816.381 163.245C818.787 164.455 821.417 165.156 824.107 165.302C824.097 165.047 824.054 164.795 823.978 164.552C823.757 163.016 824.083 161.452 824.9 160.134C825.397 159.339 826.061 158.663 826.846 158.151C827.631 157.64 828.519 157.307 829.446 157.174C830.5 156.989 831.584 157.063 832.603 157.388C833.623 157.712 834.548 158.279 835.301 159.04C835.348 159.094 835.409 159.132 835.478 159.151C835.547 159.171 835.619 159.169 835.687 159.147C837.049 158.856 838.358 158.357 839.569 157.668C839.084 159.096 838.141 160.324 836.888 161.163C838.177 161.012 839.436 160.665 840.62 160.134L839.933 161.034Z" fill="#F0F0F0"/>
<path d="M277.483 124.041H248.939C239.973 124.041 232.705 131.309 232.705 140.275V168.819C232.705 177.785 239.973 185.053 248.939 185.053H277.483C286.449 185.053 293.717 177.785 293.717 168.819V140.275C293.717 131.309 286.449 124.041 277.483 124.041Z" fill="#F0F0F0"/>
<path d="M270.041 144.843V153.421C270.041 154.266 269.875 155.103 269.552 155.884C269.228 156.664 268.754 157.373 268.157 157.971C267.56 158.568 266.85 159.042 266.07 159.365C265.289 159.689 264.453 159.855 263.608 159.855H255.394L246.023 169.227V159.855C244.316 159.855 242.68 159.177 241.473 157.971C240.267 156.764 239.589 155.128 239.589 153.421V144.843C239.589 143.137 240.267 141.501 241.473 140.294C242.68 139.087 244.316 138.41 246.023 138.41H263.608C265.314 138.41 266.951 139.087 268.157 140.294C269.364 141.501 270.041 143.137 270.041 144.843Z" fill="white"/>
<path d="M286.833 157.817V164.422C286.833 165.736 286.311 166.996 285.382 167.925C284.453 168.854 283.193 169.376 281.879 169.376V176.582L274.673 169.419H268.368C267.055 169.419 265.795 168.897 264.866 167.968C263.937 167.039 263.415 165.779 263.415 164.465V157.86C263.412 157.208 263.538 156.561 263.786 155.958C264.033 155.354 264.398 154.806 264.858 154.343C265.318 153.881 265.865 153.514 266.468 153.264C267.07 153.014 267.716 152.885 268.368 152.885H281.879C283.189 152.885 284.446 153.404 285.375 154.328C286.303 155.253 286.827 156.507 286.833 157.817Z" fill="white"/>
<path d="M263.243 145.379H247.331C247.137 145.379 246.952 145.302 246.815 145.165C246.678 145.028 246.602 144.843 246.602 144.65C246.602 144.456 246.678 144.271 246.815 144.134C246.952 143.997 247.137 143.92 247.331 143.92H263.243C263.437 143.92 263.622 143.997 263.759 144.134C263.896 144.271 263.972 144.456 263.972 144.65C263.972 144.843 263.896 145.028 263.759 145.165C263.622 145.302 263.437 145.379 263.243 145.379Z" fill="#EBEBEB"/>
<path d="M263.243 149.089H247.331C247.137 149.089 246.952 149.012 246.815 148.875C246.678 148.738 246.602 148.553 246.602 148.36C246.602 148.166 246.678 147.981 246.815 147.844C246.952 147.707 247.137 147.63 247.331 147.63H263.243C263.437 147.63 263.622 147.707 263.759 147.844C263.896 147.981 263.972 148.166 263.972 148.36C263.972 148.553 263.896 148.738 263.759 148.875C263.622 149.012 263.437 149.089 263.243 149.089Z" fill="#EBEBEB"/>
<path d="M258.804 152.798H247.331C247.137 152.798 246.952 152.721 246.815 152.585C246.678 152.448 246.602 152.262 246.602 152.069C246.602 151.876 246.678 151.69 246.815 151.553C246.952 151.417 247.137 151.34 247.331 151.34H258.804C258.997 151.34 259.183 151.417 259.32 151.553C259.456 151.69 259.533 151.876 259.533 152.069C259.533 152.262 259.456 152.448 259.32 152.585C259.183 152.721 258.997 152.798 258.804 152.798Z" fill="#EBEBEB"/>
<path d="M535.5 700.089C706.618 700.089 845.336 691.99 845.336 682C845.336 672.009 706.618 663.91 535.5 663.91C364.382 663.91 225.664 672.009 225.664 682C225.664 691.99 364.382 700.089 535.5 700.089Z" fill="#F5F5F5"/>
<path opacity="0.6" d="M401.028 284.632H396.57V293.214H401.028V284.632Z" fill="white"/>
<path d="M397.896 217.707C395.543 217.521 393.333 216.501 391.663 214.832C389.994 213.162 388.974 210.952 388.788 208.599H385.464C385.661 211.832 387.034 214.881 389.324 217.171C391.614 219.461 394.663 220.834 397.896 221.031V217.707Z" fill="#407BFF"/>
<path opacity="0.8" d="M397.896 217.707C395.543 217.521 393.333 216.501 391.663 214.832C389.994 213.162 388.974 210.952 388.788 208.599H385.464C385.661 211.832 387.034 214.881 389.324 217.171C391.614 219.461 394.663 220.834 397.896 221.031V217.707Z" fill="white"/>
<path d="M388.788 206.984C388.977 204.632 389.998 202.424 391.667 200.755C393.336 199.086 395.544 198.066 397.896 197.876V194.584C394.663 194.781 391.614 196.154 389.324 198.444C387.034 200.734 385.661 203.784 385.464 207.016L388.788 206.984Z" fill="#407BFF"/>
<path opacity="0.7" d="M388.788 206.984C388.977 204.632 389.998 202.424 391.667 200.755C393.336 199.086 395.544 198.066 397.896 197.876V194.584C394.663 194.781 391.614 196.154 389.324 198.444C387.034 200.734 385.661 203.784 385.464 207.016L388.788 206.984Z" fill="white"/>
<path d="M640.872 393.787H638.708V370.567C638.703 366.096 636.925 361.809 633.766 358.646C630.606 355.482 626.322 353.699 621.85 353.688H579.111C574.062 353.682 569.222 351.674 565.651 348.104C562.081 344.534 560.073 339.693 560.067 334.644V316.77H562.231V334.688C562.237 339.163 564.017 343.453 567.182 346.617C570.346 349.781 574.636 351.561 579.111 351.567H621.85C626.897 351.573 631.736 353.582 635.302 357.152C638.869 360.723 640.872 365.564 640.872 370.611V393.787Z" fill="black"/>
<path d="M656.236 394.24H628.104C625.376 394.24 622.759 395.322 620.828 397.25C618.897 399.177 617.809 401.791 617.803 404.519V432.652C617.809 435.38 618.897 437.994 620.828 439.922C622.759 441.849 625.376 442.931 628.104 442.931H656.236C658.965 442.931 661.581 441.849 663.513 439.922C665.444 437.994 666.531 435.38 666.537 432.652V404.519C666.531 401.791 665.444 399.177 663.513 397.25C661.581 395.322 658.965 394.24 656.236 394.24Z" fill="#407BFF"/>
<g opacity="0.4">
<path d="M656.236 394.24H628.104C625.376 394.24 622.759 395.322 620.828 397.25C618.897 399.177 617.809 401.791 617.803 404.519V432.652C617.809 435.38 618.897 437.994 620.828 439.922C622.759 441.849 625.376 442.931 628.104 442.931H656.236C658.965 442.931 661.581 441.849 663.513 439.922C665.444 437.994 666.531 435.38 666.537 432.652V404.519C666.531 401.791 665.444 399.177 663.513 397.25C661.581 395.322 658.965 394.24 656.236 394.24Z" fill="white"/>
</g>
<path d="M641.954 398.829C638.126 398.825 634.382 399.956 631.198 402.081C628.013 404.205 625.53 407.226 624.063 410.762C622.596 414.298 622.211 418.19 622.957 421.945C623.702 425.699 625.545 429.149 628.252 431.856C630.959 434.562 634.408 436.405 638.163 437.151C641.918 437.897 645.81 437.512 649.346 436.045C652.882 434.578 655.903 432.095 658.027 428.91C660.152 425.726 661.283 421.982 661.279 418.154C661.267 413.032 659.228 408.123 655.606 404.502C651.984 400.88 647.076 398.841 641.954 398.829ZM638.881 400.993C637 402.867 635.475 405.066 634.38 407.485H628.256C630.884 404.077 634.687 401.771 638.924 401.015L638.881 400.993ZM626.936 409.303H633.558C632.601 411.785 632.025 414.397 631.848 417.05V417.505H624.598C624.697 414.628 625.499 411.819 626.936 409.325V409.303ZM627.325 427.589C625.739 425.135 624.794 422.323 624.577 419.409H631.891C632.172 422.234 632.902 424.995 634.055 427.589H627.325ZM628.753 429.493H634.964C636.149 431.731 637.733 433.733 639.638 435.401C635.409 434.847 631.533 432.751 628.753 429.515V429.493ZM641.002 434.06C639.488 432.753 638.194 431.212 637.171 429.493H641.088L641.002 434.06ZM641.002 427.567H636.133C634.896 424.994 634.113 422.227 633.817 419.387H641.088L641.002 427.567ZM641.002 417.483H633.752C633.878 414.66 634.509 411.882 635.613 409.281H641.088L641.002 417.483ZM641.002 407.377H636.501C637.614 405.191 639.143 403.243 641.002 401.642V407.377ZM659.374 417.483H652.103V417.029C651.937 414.373 651.36 411.76 650.394 409.281H657.016C658.481 411.788 659.292 414.624 659.374 417.526V417.483ZM655.652 407.377H649.55C648.439 404.962 646.908 402.763 645.027 400.885C649.258 401.667 653.046 403.997 655.652 407.42V407.377ZM642.906 401.664C644.77 403.252 646.3 405.194 647.407 407.377H642.906V401.664ZM642.906 409.281H648.295C649.404 411.882 650.042 414.659 650.177 417.483H642.906V409.281ZM642.906 419.387H650.091C649.806 422.229 649.022 424.998 647.775 427.567H642.906V419.387ZM642.906 434.038V429.515H646.736C645.726 431.242 644.431 432.786 642.906 434.081V434.038ZM644.269 435.38C646.175 433.712 647.759 431.709 648.944 429.472H655.155C652.386 432.732 648.508 434.852 644.269 435.423V435.38ZM656.583 427.567H649.874C651.027 424.974 651.758 422.212 652.038 419.387H659.353C659.143 422.319 658.189 425.149 656.583 427.611V427.567Z" fill="white"/>
<path d="M728.191 357.886H726.027V334.666C726.027 330.195 724.251 325.908 721.089 322.746C717.928 319.585 713.64 317.809 709.169 317.809H607.178V315.645H709.169C714.212 315.65 719.047 317.656 722.613 321.222C726.179 324.788 728.185 329.623 728.191 334.666V357.886Z" fill="black"/>
<path d="M735.18 341.051H707.048C704.32 341.051 701.703 342.134 699.772 344.061C697.841 345.988 696.753 348.602 696.747 351.33V379.463C696.753 382.191 697.841 384.805 699.772 386.733C701.703 388.66 704.32 389.742 707.048 389.742H735.18C737.908 389.742 740.525 388.66 742.456 386.733C744.387 384.805 745.475 382.191 745.481 379.463V351.395C745.487 350.039 745.224 348.695 744.709 347.44C744.194 346.185 743.436 345.045 742.479 344.084C741.522 343.122 740.385 342.36 739.132 341.84C737.88 341.319 736.537 341.051 735.18 341.051Z" fill="#407BFF"/>
<g opacity="0.4">
<path d="M735.18 341.051H707.048C704.32 341.051 701.703 342.134 699.772 344.061C697.841 345.988 696.753 348.602 696.747 351.33V379.463C696.753 382.191 697.841 384.805 699.772 386.733C701.703 388.66 704.32 389.742 707.048 389.742H735.18C737.908 389.742 740.525 388.66 742.456 386.733C744.387 384.805 745.475 382.191 745.481 379.463V351.395C745.487 350.039 745.224 348.695 744.709 347.44C744.194 346.185 743.436 345.045 742.479 344.084C741.522 343.122 740.385 342.36 739.132 341.84C737.88 341.319 736.537 341.051 735.18 341.051Z" fill="white"/>
</g>
<path opacity="0.9" d="M724.404 351.957C722.817 350.369 720.81 349.266 718.619 348.778C716.428 348.289 714.144 348.434 712.032 349.197C709.921 349.96 708.071 351.308 706.698 353.084C705.325 354.86 704.487 356.991 704.281 359.226C704.075 361.461 704.51 363.709 705.535 365.706C706.561 367.703 708.134 369.367 710.07 370.502C712.006 371.638 714.226 372.198 716.47 372.118C718.713 372.037 720.887 371.32 722.737 370.048C722.826 370.59 723.083 371.09 723.473 371.477L730.809 378.813C731.055 379.059 731.347 379.254 731.668 379.387C731.989 379.52 732.334 379.588 732.681 379.588C733.029 379.588 733.373 379.52 733.694 379.387C734.015 379.254 734.307 379.059 734.553 378.813C734.799 378.567 734.994 378.275 735.127 377.954C735.26 377.633 735.328 377.288 735.328 376.941C735.328 376.593 735.26 376.249 735.127 375.928C734.994 375.607 734.799 375.315 734.553 375.069L727.217 367.733C726.825 367.339 726.317 367.081 725.767 366.997C727.331 364.725 728.051 361.978 727.802 359.231C727.553 356.484 726.351 353.911 724.404 351.957ZM721.893 366.153C720.735 367.314 719.258 368.106 717.65 368.427C716.042 368.748 714.374 368.585 712.859 367.959C711.343 367.332 710.047 366.27 709.136 364.906C708.224 363.543 707.738 361.94 707.738 360.299C707.738 358.659 708.224 357.056 709.136 355.693C710.047 354.329 711.343 353.267 712.859 352.64C714.374 352.013 716.042 351.85 717.65 352.172C719.258 352.493 720.735 353.285 721.893 354.446C722.664 355.214 723.275 356.126 723.692 357.131C724.108 358.135 724.323 359.212 724.323 360.299C724.323 361.387 724.108 362.464 723.692 363.468C723.275 364.473 722.664 365.385 721.893 366.153Z" fill="white"/>
<path d="M735.289 278.768H604.754V280.932H735.289V278.768Z" fill="black"/>
<path d="M755.934 241.633H727.91C726.558 241.633 725.219 241.899 723.971 242.417C722.722 242.935 721.588 243.694 720.633 244.651C719.679 245.608 718.922 246.744 718.407 247.993C717.891 249.243 717.628 250.582 717.63 251.934V279.979C717.628 281.331 717.891 282.67 718.407 283.92C718.922 285.169 719.679 286.305 720.633 287.262C721.588 288.219 722.722 288.978 723.971 289.496C725.219 290.014 726.558 290.28 727.91 290.28H755.934C758.666 290.28 761.286 289.195 763.217 287.263C765.149 285.331 766.234 282.711 766.234 279.979V251.847C766.212 249.13 765.116 246.532 763.187 244.619C761.258 242.706 758.651 241.633 755.934 241.633Z" fill="#407BFF"/>
<g opacity="0.4">
<path d="M755.934 241.633H727.91C726.558 241.633 725.219 241.899 723.971 242.417C722.722 242.935 721.588 243.694 720.633 244.651C719.679 245.608 718.922 246.744 718.407 247.993C717.891 249.243 717.628 250.582 717.63 251.934V279.979C717.628 281.331 717.891 282.67 718.407 283.92C718.922 285.169 719.679 286.305 720.633 287.262C721.588 288.219 722.722 288.978 723.971 289.496C725.219 290.014 726.558 290.28 727.91 290.28H755.934C758.666 290.28 761.286 289.195 763.217 287.263C765.149 285.331 766.234 282.711 766.234 279.979V251.847C766.212 249.13 765.116 246.532 763.187 244.619C761.258 242.706 758.651 241.633 755.934 241.633Z" fill="white"/>
</g>
<path d="M643.252 249.857H600.794V247.693H643.252C647.723 247.693 652.011 245.917 655.172 242.756C658.334 239.594 660.11 235.306 660.11 230.835V207.615H662.274V230.835C662.268 235.878 660.262 240.713 656.696 244.279C653.13 247.845 648.295 249.851 643.252 249.857Z" fill="black"/>
<path d="M676.167 170.546H646.39C641.132 170.546 636.869 174.809 636.869 180.068V209.845C636.869 215.104 641.132 219.367 646.39 219.367H676.167C681.426 219.367 685.689 215.104 685.689 209.845V180.068C685.689 174.809 681.426 170.546 676.167 170.546Z" fill="#407BFF"/>
<g opacity="0.4">
<path d="M676.167 170.546H646.39C641.132 170.546 636.869 174.809 636.869 180.068V209.845C636.869 215.104 641.132 219.367 646.39 219.367H676.167C681.426 219.367 685.689 215.104 685.689 209.845V180.068C685.689 174.809 681.426 170.546 676.167 170.546Z" fill="white"/>
</g>
<path d="M679.781 200.064C679.781 200.583 679.781 202.422 679.673 202.942H662.988V194.978H665.261L660.565 190.26L655.847 194.978H658.119V202.942H642.452C642.452 202.682 642.452 201.081 642.452 200.778C642.453 198.696 643.229 196.689 644.63 195.149C646.03 193.609 647.954 192.645 650.026 192.446V192.122C650.007 189.768 650.834 187.486 652.356 185.691C653.878 183.896 655.994 182.707 658.318 182.34C660.643 181.973 663.022 182.453 665.023 183.692C667.024 184.931 668.513 186.847 669.221 189.092C669.809 189.105 670.395 189.162 670.974 189.265C673.479 189.739 675.736 191.082 677.347 193.058C678.958 195.033 679.821 197.514 679.781 200.064Z" fill="white"/>
<path d="M545.114 194.414H542.95V238.885H545.114V194.414Z" fill="black"/>
<path d="M558.054 152H530.03C527.298 152 524.678 153.085 522.747 155.017C520.815 156.949 519.729 159.569 519.729 162.301V190.325C519.729 193.057 520.815 195.677 522.747 197.609C524.678 199.54 527.298 200.626 530.03 200.626H558.054C559.406 200.626 560.745 200.359 561.993 199.841C563.242 199.323 564.376 198.564 565.331 197.607C566.285 196.651 567.042 195.515 567.557 194.265C568.073 193.016 568.336 191.677 568.334 190.325V162.301C568.336 160.949 568.073 159.61 567.557 158.36C567.042 157.111 566.285 155.975 565.331 155.018C564.376 154.062 563.242 153.302 561.993 152.785C560.745 152.267 559.406 152 558.054 152Z" fill="#407BFF"/>
<g opacity="0.4">
<path d="M558.054 152H530.03C527.298 152 524.678 153.085 522.747 155.017C520.815 156.949 519.729 159.569 519.729 162.301V190.325C519.729 193.057 520.815 195.677 522.747 197.609C524.678 199.54 527.298 200.626 530.03 200.626H558.054C559.406 200.626 560.745 200.359 561.993 199.841C563.242 199.323 564.376 198.564 565.331 197.607C566.285 196.651 567.042 195.515 567.557 194.265C568.073 193.016 568.336 191.677 568.334 190.325V162.301C568.336 160.949 568.073 159.61 567.557 158.36C567.042 157.111 566.285 155.975 565.331 155.018C564.376 154.062 563.242 153.302 561.993 152.785C560.745 152.267 559.406 152 558.054 152Z" fill="white"/>
</g>
<path d="M548.533 179.505C548.533 179.18 548.533 178.856 548.533 178.553L550.502 177.774C550.485 176.876 550.369 175.984 550.156 175.112L547.992 174.874C547.808 174.269 547.569 173.682 547.278 173.121L548.598 171.455C548.127 170.683 547.584 169.958 546.975 169.291L545.027 170.135C544.556 169.703 544.049 169.312 543.512 168.966L543.815 166.802C543.036 166.36 542.208 166.012 541.348 165.763L540.093 167.473L539.379 167.451H538.448L537.648 165.46C536.758 165.489 535.874 165.605 535.007 165.807L534.769 167.971C534.155 168.158 533.561 168.404 532.995 168.706L531.329 167.365C530.552 167.836 529.826 168.387 529.165 169.009L530.009 170.957C529.585 171.43 529.202 171.936 528.862 172.472L526.698 172.147C526.279 172.935 525.939 173.761 525.681 174.614L527.39 175.891C527.39 176.194 527.26 176.497 527.217 176.822C527.195 177.139 527.195 177.457 527.217 177.774L525.226 178.553C525.243 179.45 525.359 180.343 525.572 181.215L527.736 181.453C527.929 182.054 528.168 182.64 528.45 183.205L527.13 184.872C527.601 185.643 528.144 186.368 528.753 187.036L530.723 186.192C531.182 186.628 531.682 187.02 532.216 187.36L531.913 189.524C532.694 189.955 533.522 190.297 534.38 190.542L535.635 188.832L536.587 189.005H537.539L538.318 190.974C539.209 190.958 540.094 190.842 540.959 190.628L541.197 188.464C541.811 188.277 542.405 188.031 542.971 187.728L544.637 189.048C545.419 188.593 546.145 188.048 546.801 187.425L545.957 185.478C546.382 185.006 546.766 184.5 547.104 183.963L549.268 184.288C549.687 183.5 550.027 182.674 550.286 181.821L548.576 180.544C548.424 180.133 548.489 179.808 548.533 179.505ZM537.215 182.297C536.357 182.201 535.548 181.851 534.891 181.291C534.233 180.732 533.758 179.989 533.527 179.157C533.295 178.326 533.317 177.444 533.59 176.626C533.863 175.807 534.375 175.089 535.059 174.563C535.744 174.037 536.57 173.728 537.431 173.675C538.292 173.623 539.15 173.828 539.893 174.267C540.637 174.705 541.232 175.355 541.603 176.135C541.974 176.914 542.104 177.786 541.976 178.639C541.809 179.746 541.22 180.746 540.332 181.428C539.445 182.11 538.327 182.421 537.215 182.297Z" fill="#407BFF"/>
<path d="M548.533 179.505C548.533 179.18 548.533 178.856 548.533 178.553L550.502 177.774C550.485 176.876 550.369 175.984 550.156 175.112L547.992 174.874C547.808 174.269 547.569 173.682 547.278 173.121L548.598 171.455C548.127 170.683 547.584 169.958 546.975 169.291L545.027 170.135C544.556 169.703 544.049 169.312 543.512 168.966L543.815 166.802C543.036 166.36 542.208 166.012 541.348 165.763L540.093 167.473L539.379 167.451H538.448L537.648 165.46C536.758 165.489 535.874 165.605 535.007 165.807L534.769 167.971C534.155 168.158 533.561 168.404 532.995 168.706L531.329 167.365C530.552 167.836 529.826 168.387 529.165 169.009L530.009 170.957C529.585 171.43 529.202 171.936 528.862 172.472L526.698 172.147C526.279 172.935 525.939 173.761 525.681 174.614L527.39 175.891C527.39 176.194 527.26 176.497 527.217 176.822C527.195 177.139 527.195 177.457 527.217 177.774L525.226 178.553C525.243 179.45 525.359 180.343 525.572 181.215L527.736 181.453C527.929 182.054 528.168 182.64 528.45 183.205L527.13 184.872C527.601 185.643 528.144 186.368 528.753 187.036L530.723 186.192C531.182 186.628 531.682 187.02 532.216 187.36L531.913 189.524C532.694 189.955 533.522 190.297 534.38 190.542L535.635 188.832L536.587 189.005H537.539L538.318 190.974C539.209 190.958 540.094 190.842 540.959 190.628L541.197 188.464C541.811 188.277 542.405 188.031 542.971 187.728L544.637 189.048C545.419 188.593 546.145 188.048 546.801 187.425L545.957 185.478C546.382 185.006 546.766 184.5 547.104 183.963L549.268 184.288C549.687 183.5 550.027 182.674 550.286 181.821L548.576 180.544C548.424 180.133 548.489 179.808 548.533 179.505ZM537.215 182.297C536.357 182.201 535.548 181.851 534.891 181.291C534.233 180.732 533.758 179.989 533.527 179.157C533.295 178.326 533.317 177.444 533.59 176.626C533.863 175.807 534.375 175.089 535.059 174.563C535.744 174.037 536.57 173.728 537.431 173.675C538.292 173.623 539.15 173.828 539.893 174.267C540.637 174.705 541.232 175.355 541.603 176.135C541.974 176.914 542.104 177.786 541.976 178.639C541.809 179.746 541.22 180.746 540.332 181.428C539.445 182.11 538.327 182.421 537.215 182.297Z" fill="white"/>
<g opacity="0.5">
<path d="M557.405 172.904C556.165 172.908 554.96 172.494 553.984 171.729C553.007 170.964 552.317 169.892 552.025 168.687C551.732 167.482 551.854 166.213 552.371 165.086C552.888 163.959 553.769 163.038 554.873 162.473V165.957C554.881 166.632 555.153 167.277 555.631 167.753C556.101 168.224 556.74 168.489 557.405 168.489C558.077 168.489 558.721 168.222 559.196 167.748C559.671 167.273 559.937 166.629 559.937 165.957V162.473C561.041 163.038 561.923 163.959 562.44 165.086C562.956 166.213 563.078 167.482 562.786 168.687C562.493 169.892 561.803 170.964 560.827 171.729C559.851 172.494 558.646 172.908 557.405 172.904Z" fill="white"/>
<path d="M554.895 186.689V171.367C554.892 171.036 554.955 170.707 555.08 170.4C555.205 170.093 555.389 169.814 555.623 169.578C555.856 169.343 556.134 169.156 556.44 169.029C556.746 168.901 557.074 168.836 557.405 168.836C557.737 168.836 558.065 168.901 558.371 169.029C558.677 169.156 558.955 169.343 559.188 169.578C559.421 169.814 559.606 170.093 559.731 170.4C559.856 170.707 559.918 171.036 559.916 171.367V186.689C559.916 187.018 559.851 187.345 559.725 187.649C559.598 187.954 559.413 188.231 559.18 188.464C558.947 188.697 558.671 188.882 558.366 189.008C558.061 189.134 557.735 189.199 557.405 189.199C557.076 189.199 556.749 189.134 556.445 189.008C556.14 188.882 555.863 188.697 555.63 188.464C555.397 188.231 555.212 187.954 555.086 187.649C554.96 187.345 554.895 187.018 554.895 186.689Z" fill="white"/>
</g>
<path d="M450.2 393.787H448.036V370.567C448.041 365.518 450.05 360.678 453.62 357.108C457.19 353.538 462.03 351.53 467.079 351.524H509.797C514.272 351.518 518.562 349.738 521.726 346.574C524.891 343.409 526.671 339.119 526.677 334.644V316.77H528.841V334.688C528.835 339.737 526.827 344.577 523.257 348.147C519.686 351.717 514.846 353.725 509.797 353.731H467.079C462.604 353.737 458.314 355.517 455.15 358.681C451.986 361.846 450.205 366.136 450.2 370.611V393.787Z" fill="black"/>
<path d="M462.058 391.06H433.926C431.194 391.06 428.574 392.145 426.642 394.077C424.71 396.009 423.625 398.629 423.625 401.361V429.298C423.625 430.65 423.892 431.989 424.41 433.237C424.927 434.486 425.687 435.62 426.643 436.575C427.6 437.529 428.736 438.286 429.986 438.801C431.235 439.317 432.574 439.58 433.926 439.578H462.058C464.777 439.566 467.38 438.478 469.299 436.552C471.217 434.625 472.294 432.017 472.294 429.298V401.361C472.294 398.64 471.218 396.03 469.3 394.1C467.382 392.17 464.779 391.077 462.058 391.06Z" fill="#407BFF"/>
<g opacity="0.4">
<path d="M462.058 391.06H433.926C431.194 391.06 428.574 392.145 426.642 394.077C424.71 396.009 423.625 398.629 423.625 401.361V429.298C423.625 430.65 423.892 431.989 424.41 433.237C424.927 434.486 425.687 435.62 426.643 436.575C427.6 437.529 428.736 438.286 429.986 438.801C431.235 439.317 432.574 439.58 433.926 439.578H462.058C464.777 439.566 467.38 438.478 469.299 436.552C471.217 434.625 472.294 432.017 472.294 429.298V401.361C472.294 398.64 471.218 396.03 469.3 394.1C467.382 392.17 464.779 391.077 462.058 391.06Z" fill="white"/>
</g>
<path d="M467.966 249.857H425.443C420.396 249.857 415.555 247.854 411.985 244.287C408.414 240.72 406.405 235.882 406.399 230.835V207.615H408.563V230.835C408.569 235.308 410.35 239.596 413.515 242.757C416.68 245.918 420.97 247.693 425.443 247.693H467.966V249.857Z" fill="black"/>
<path d="M425.551 168.316H397.548C391.859 168.316 387.248 172.928 387.248 178.617V206.62C387.248 212.309 391.859 216.921 397.548 216.921H425.551C431.24 216.921 435.852 212.309 435.852 206.62V178.617C435.852 172.928 431.24 168.316 425.551 168.316Z" fill="#407BFF"/>
<path opacity="0.4" d="M425.551 168.316H397.548C391.859 168.316 387.248 172.928 387.248 178.617V206.62C387.248 212.309 391.859 216.921 397.548 216.921H425.551C431.24 216.921 435.852 212.309 435.852 206.62V178.617C435.852 172.928 431.24 168.316 425.551 168.316Z" fill="white"/>
<path d="M411.55 178.271C415.878 178.271 418.042 181.69 418.042 185.931C418.042 190.173 415.77 193.592 411.55 193.592C407.33 193.592 405.058 190.151 405.058 185.931C405.058 181.711 407.373 178.271 411.55 178.271Z" fill="white"/>
<path d="M428.473 206.987H394.627C394.359 206.982 394.103 206.874 393.913 206.684L396.077 200.755C396.76 198.894 397.998 197.288 399.624 196.154C401.249 195.02 403.184 194.412 405.166 194.414H417.934C419.917 194.409 421.853 195.015 423.479 196.15C425.105 197.284 426.343 198.892 427.023 200.755L429.187 206.684C428.997 206.874 428.741 206.982 428.473 206.987Z" fill="white"/>
<path d="M369.676 357.886H367.512V334.666C367.517 329.619 369.526 324.781 373.097 321.215C376.668 317.648 381.508 315.645 386.555 315.645H488.524V317.809H386.555C382.082 317.809 377.792 319.584 374.627 322.745C371.462 325.906 369.681 330.193 369.676 334.666V357.886Z" fill="black"/>
<path d="M383.439 340.725H355.437C349.748 340.725 345.136 345.337 345.136 351.026V379.028C345.136 384.717 349.748 389.329 355.437 389.329H383.439C389.128 389.329 393.74 384.717 393.74 379.028V351.026C393.74 345.337 389.128 340.725 383.439 340.725Z" fill="#407BFF"/>
<path opacity="0.4" d="M383.439 340.725H355.437C349.748 340.725 345.136 345.337 345.136 351.026V379.028C345.136 384.717 349.748 389.329 355.437 389.329H383.439C389.128 389.329 393.74 384.717 393.74 379.028V351.026C393.74 345.337 389.128 340.725 383.439 340.725Z" fill="white"/>
<path opacity="0.6" d="M376.557 365.546H370.52V381.084H376.557V365.546Z" fill="white"/>
<path d="M367.685 361.63H361.647V381.085H367.685V361.63Z" fill="white"/>
<path d="M385.148 357.715H379.111V381.086H385.148V357.715Z" fill="white"/>
<path d="M496.683 278.768H366.148V280.932H496.683V278.768Z" fill="black"/>
<path d="M370.325 241.028H342.301C339.569 241.028 336.949 242.113 335.017 244.045C333.085 245.977 332 248.597 332 251.329V279.353C332 282.085 333.085 284.705 335.017 286.637C336.949 288.568 339.569 289.654 342.301 289.654H370.325C371.677 289.654 373.015 289.387 374.264 288.869C375.512 288.351 376.646 287.592 377.601 286.635C378.556 285.678 379.313 284.543 379.828 283.293C380.343 282.043 380.607 280.704 380.604 279.353V251.394C380.616 250.036 380.358 248.69 379.847 247.433C379.335 246.176 378.58 245.033 377.624 244.069C376.669 243.105 375.532 242.34 374.279 241.818C373.026 241.296 371.682 241.028 370.325 241.028Z" fill="#407BFF"/>
<g opacity="0.4">
<path d="M370.325 241.028H342.301C339.569 241.028 336.949 242.113 335.017 244.045C333.085 245.977 332 248.597 332 251.329V279.353C332 282.085 333.085 284.705 335.017 286.637C336.949 288.568 339.569 289.654 342.301 289.654H370.325C371.677 289.654 373.015 289.387 374.264 288.869C375.512 288.351 376.646 287.592 377.601 286.635C378.556 285.678 379.313 284.543 379.828 283.293C380.343 282.043 380.607 280.704 380.604 279.353V251.394C380.616 250.036 380.358 248.69 379.847 247.433C379.335 246.176 378.58 245.033 377.624 244.069C376.669 243.105 375.532 242.34 374.279 241.818C373.026 241.296 371.682 241.028 370.325 241.028Z" fill="white"/>
</g>
<path d="M357.384 247.52V252.021C360.197 252.251 362.869 253.356 365.023 255.181L368.204 252C365.201 249.337 361.39 247.759 357.384 247.52Z" fill="#407BFF"/>
<path opacity="0.6" d="M357.384 247.52V252.021C360.197 252.251 362.869 253.356 365.023 255.181L368.204 252C365.201 249.337 361.39 247.759 357.384 247.52Z" fill="white"/>
<path d="M369.74 253.492L366.559 256.673C368.163 258.563 369.215 260.859 369.599 263.308C369.983 265.757 369.684 268.264 368.736 270.554C367.788 272.844 366.226 274.829 364.224 276.289C362.221 277.75 359.854 278.63 357.384 278.833V283.334C360.746 283.131 363.983 281.986 366.725 280.031C369.468 278.076 371.605 275.389 372.894 272.277C374.182 269.165 374.57 265.754 374.012 262.432C373.455 259.111 371.974 256.013 369.74 253.492Z" fill="white"/>
<path d="M471.147 239.144L477.228 238.885L485.776 333.258H479.284C476.06 332.955 475.302 329.32 474.415 322.438L468.442 256.543C467.057 241.027 469.719 239.144 471.147 239.144Z" fill="#407BFF"/>
<path opacity="0.3" d="M471.147 239.144L477.228 238.885L485.776 333.258H479.284C476.06 332.955 475.302 329.32 474.415 322.438L468.442 256.543C467.057 241.027 469.719 239.144 471.147 239.144Z" fill="black"/>
<path d="M480.95 333.258H608.866C609.219 333.234 609.562 333.135 609.873 332.968C610.185 332.801 610.457 332.57 610.672 332.289C610.887 332.009 611.04 331.686 611.12 331.342C611.201 330.997 611.207 330.64 611.138 330.293L603.153 241.828C603.114 241.078 602.806 240.367 602.285 239.827C601.764 239.286 601.066 238.952 600.318 238.885H472.294C471.942 238.906 471.598 239.003 471.286 239.167C470.974 239.332 470.7 239.561 470.483 239.839C470.266 240.117 470.111 240.438 470.028 240.781C469.945 241.124 469.935 241.481 470 241.828L478.007 330.293C478.039 331.066 478.358 331.799 478.903 332.347C479.448 332.896 480.178 333.221 480.95 333.258Z" fill="#407BFF"/>
<path d="M485.754 322.071H601.92L595.471 248.429H479.306L485.754 322.071Z" fill="#407BFF"/>
<path d="M487.442 327.849H601.898C602.652 327.863 603.399 327.715 604.092 327.417C604.784 327.119 605.405 326.677 605.913 326.12C606.421 325.563 606.804 324.904 607.037 324.187C607.27 323.47 607.348 322.712 607.265 321.963L600.881 248.775C600.724 247.164 599.972 245.67 598.771 244.585C597.57 243.5 596.007 242.903 594.389 242.911H479.933C479.18 242.894 478.433 243.038 477.74 243.333C477.048 243.629 476.427 244.069 475.919 244.625C475.41 245.18 475.027 245.838 474.793 246.554C474.56 247.269 474.483 248.027 474.566 248.775L480.95 321.963C481.102 323.577 481.852 325.077 483.053 326.166C484.255 327.256 485.82 327.856 487.442 327.849Z" fill="#263238"/>
<path d="M485.754 322.071H601.92L595.471 248.429H479.306L485.754 322.071Z" fill="#407BFF"/>
<path opacity="0.4" d="M485.754 322.071H601.92L595.471 248.429H479.306L485.754 322.071Z" fill="white"/>
<path opacity="0.1" d="M519.167 242.932L496.488 327.805H504.127L526.568 242.932H519.167Z" fill="white"/>
<path opacity="0.1" d="M530.961 242.932L508.26 327.805H523.408L545.849 242.932H530.961Z" fill="white"/>
<path d="M479.306 248.429L479.89 255.029H596.055L595.471 248.429H479.306Z" fill="#407BFF"/>
<path d="M484.651 251.371C484.67 251.54 484.652 251.71 484.599 251.872C484.546 252.033 484.46 252.181 484.345 252.306C484.23 252.431 484.09 252.53 483.934 252.597C483.778 252.663 483.609 252.695 483.439 252.691C483.078 252.688 482.73 252.551 482.462 252.308C482.195 252.064 482.027 251.731 481.989 251.371C481.971 251.201 481.989 251.03 482.042 250.867C482.094 250.705 482.181 250.556 482.295 250.429C482.409 250.302 482.549 250.201 482.705 250.132C482.862 250.063 483.031 250.028 483.201 250.029C483.565 250.038 483.913 250.179 484.18 250.426C484.447 250.673 484.614 251.009 484.651 251.371Z" fill="white"/>
<path d="M488.157 251.371C488.175 251.54 488.157 251.71 488.105 251.872C488.052 252.033 487.965 252.181 487.85 252.306C487.735 252.431 487.595 252.53 487.439 252.597C487.283 252.663 487.114 252.695 486.945 252.691C486.583 252.688 486.235 252.551 485.968 252.308C485.7 252.064 485.532 251.731 485.495 251.371C485.476 251.201 485.494 251.03 485.547 250.867C485.6 250.705 485.686 250.556 485.8 250.429C485.915 250.302 486.055 250.201 486.211 250.132C486.367 250.063 486.536 250.028 486.707 250.029C487.07 250.038 487.418 250.179 487.685 250.426C487.952 250.673 488.12 251.009 488.157 251.371Z" fill="white"/>
<path d="M491.77 251.371C491.789 251.54 491.771 251.71 491.718 251.872C491.665 252.033 491.579 252.181 491.464 252.306C491.349 252.431 491.209 252.53 491.053 252.597C490.897 252.663 490.728 252.695 490.558 252.691C490.197 252.688 489.849 252.551 489.582 252.308C489.314 252.064 489.146 251.731 489.109 251.371C489.09 251.201 489.108 251.03 489.161 250.867C489.213 250.705 489.3 250.556 489.414 250.429C489.528 250.302 489.668 250.201 489.825 250.132C489.981 250.063 490.15 250.028 490.32 250.029C490.684 250.038 491.032 250.179 491.299 250.426C491.566 250.673 491.733 251.009 491.77 251.371Z" fill="white"/>
<path d="M612.783 333.519H482.4C480.871 333.519 479.63 334.759 479.63 336.289V337.955C479.63 339.485 480.871 340.725 482.4 340.725H612.783C614.313 340.725 615.553 339.485 615.553 337.955V336.289C615.553 334.759 614.313 333.519 612.783 333.519Z" fill="#407BFF"/>
<path d="M531.351 333.519H666.148V335.164C666.148 336.639 665.562 338.053 664.519 339.096C663.476 340.139 662.062 340.725 660.587 340.725H536.912C535.437 340.725 534.023 340.139 532.98 339.096C531.937 338.053 531.351 336.639 531.351 335.164V333.519Z" fill="#407BFF"/>
<path opacity="0.3" d="M531.351 333.519H666.148V335.164C666.148 336.639 665.562 338.053 664.519 339.096C663.476 340.139 662.062 340.725 660.587 340.725H536.912C535.437 340.725 534.023 340.139 532.98 339.096C531.937 338.053 531.351 336.639 531.351 335.164V333.519Z" fill="white"/>
<path opacity="0.3" d="M587.767 333.713C587.772 334.668 588.156 335.582 588.833 336.255C589.51 336.928 590.426 337.306 591.381 337.306H607.87C608.823 337.306 609.737 336.927 610.411 336.254C611.084 335.58 611.463 334.666 611.463 333.713H587.767Z" fill="black"/>
<path d="M755.714 253H728.286C727.023 253 726 254.032 726 255.306V273.75C726 274.362 726.241 274.948 726.669 275.381C727.098 275.813 727.68 276.056 728.286 276.056H755.714C756.32 276.056 756.902 275.813 757.331 275.381C757.759 274.948 758 274.362 758 273.75V255.306C758 254.694 757.759 254.108 757.331 253.675C756.902 253.243 756.32 253 755.714 253ZM749.383 257.611L742 263.836L734.617 257.611H749.383ZM730.571 271.445V260.216L740.537 268.609C740.948 268.953 741.466 269.14 742 269.139C742.534 269.14 743.052 268.953 743.463 268.609L753.428 260.24V271.445H730.571Z" fill="white"/>
<path d="M464.999 421.71C464.999 417.521 461.594 414.114 457.413 414.114C454.162 414.114 451.385 416.17 450.306 419.052L448.749 417.975C448.908 417.687 448.997 417.356 448.997 417.005C448.997 416.011 448.276 415.185 447.332 415.019V413.185C448.758 413.12 450.081 412.66 451.196 411.91C453.226 410.546 454.567 408.227 454.567 405.599C454.57 401.406 451.167 398 446.983 398C442.799 398 439.397 401.407 439.397 405.596C439.397 409.786 442.612 413.001 446.632 413.184V415.017C445.687 415.184 444.967 416.011 444.967 417.003C444.967 417.341 445.052 417.657 445.199 417.938L443.673 418.994C442.579 416.142 439.816 414.112 436.589 414.112C432.405 414.115 429 417.521 429 421.711C429 424.339 430.339 426.658 432.372 428.022C433.578 428.833 435.027 429.307 436.587 429.307C440.771 429.307 444.173 425.9 444.173 421.71C444.173 421.012 444.077 420.337 443.9 419.692L445.63 418.496C445.988 418.822 446.464 419.023 446.983 419.023C447.503 419.023 447.953 418.834 448.309 418.522L450.084 419.75C449.918 420.376 449.826 421.033 449.826 421.71C449.826 424.339 451.166 426.657 453.198 428.022C454.404 428.831 455.853 429.304 457.413 429.304C458.973 429.304 460.422 428.831 461.628 428.02C463.658 426.655 465 424.336 465 421.708L464.999 421.71ZM432.919 427.539C432.884 427.305 432.863 427.065 432.863 426.826C432.863 425.237 433.652 423.788 434.888 423.066C435.373 423.396 435.958 423.591 436.586 423.591C437.213 423.591 437.801 423.396 438.284 423.066C439.52 423.788 440.309 425.237 440.309 426.826C440.309 427.065 440.288 427.305 440.253 427.539C439.19 428.212 437.935 428.601 436.586 428.601C435.237 428.601 433.982 428.21 432.919 427.539H432.919ZM436.586 422.89C435.307 422.89 434.268 421.849 434.268 420.569C434.268 419.289 435.307 418.248 436.586 418.248C437.864 418.248 438.904 419.289 438.904 420.569C438.904 421.849 437.864 422.89 436.586 422.89ZM441.005 426.99C441.005 426.936 441.012 426.883 441.012 426.829C441.012 425.075 440.169 423.462 438.834 422.583C439.314 422.048 439.606 421.342 439.606 420.569C439.606 418.902 438.251 417.544 436.586 417.544C434.921 417.544 433.565 418.902 433.565 420.569C433.565 421.342 433.86 422.046 434.338 422.583C433.003 423.462 432.16 425.075 432.16 426.829C432.16 426.883 432.165 426.936 432.167 426.99C430.662 425.724 429.701 423.828 429.701 421.71C429.701 417.91 432.79 414.818 436.586 414.818C440.382 414.818 443.47 417.91 443.47 421.71C443.47 423.828 442.51 425.727 441.005 426.99H441.005ZM443.318 411.427C443.283 411.193 443.262 410.956 443.262 410.715C443.262 409.125 444.051 407.676 445.287 406.954C445.772 407.285 446.358 407.479 446.985 407.479C447.613 407.479 448.2 407.285 448.685 406.954C449.922 407.676 450.708 409.125 450.708 410.715C450.708 410.954 450.687 411.191 450.652 411.427C449.589 412.1 448.334 412.49 446.985 412.49C445.636 412.49 444.381 412.098 443.318 411.427H443.318ZM446.985 406.778C445.706 406.778 444.667 405.737 444.667 404.457C444.667 403.177 445.706 402.136 446.985 402.136C448.264 402.136 449.303 403.177 449.303 404.457C449.303 405.737 448.264 406.778 446.985 406.778ZM440.101 405.599C440.101 401.798 443.189 398.706 446.985 398.706C450.781 398.706 453.869 401.798 453.869 405.599C453.869 407.716 452.909 409.615 451.404 410.879C451.404 410.825 451.411 410.771 451.411 410.717C451.411 408.963 450.568 407.35 449.233 406.471C449.713 405.937 450.006 405.231 450.006 404.457C450.006 402.79 448.65 401.433 446.985 401.433C445.32 401.433 443.964 402.79 443.964 404.457C443.964 405.231 444.259 405.934 444.737 406.471C443.402 407.35 442.559 408.963 442.559 410.717C442.559 410.771 442.564 410.825 442.566 410.879C441.061 409.613 440.101 407.716 440.101 405.599H440.101ZM446.985 418.323C446.261 418.323 445.671 417.732 445.671 417.007C445.671 416.283 446.261 415.692 446.985 415.692C447.709 415.692 448.299 416.283 448.299 417.007C448.299 417.732 447.709 418.323 446.985 418.323ZM453.75 427.541C453.715 427.307 453.694 427.07 453.694 426.828C453.694 425.239 454.483 423.79 455.719 423.068C456.204 423.398 456.789 423.593 457.417 423.593C458.045 423.593 458.632 423.398 459.115 423.068C460.351 423.79 461.14 425.239 461.14 426.828C461.14 427.067 461.119 427.304 461.084 427.541C460.021 428.214 458.766 428.603 457.417 428.603C456.068 428.603 454.813 428.212 453.75 427.541H453.75ZM457.417 422.892C456.138 422.892 455.099 421.851 455.099 420.571C455.099 419.291 456.138 418.25 457.417 418.25C458.696 418.25 459.735 419.291 459.735 420.571C459.735 421.851 458.696 422.892 457.417 422.892ZM461.836 426.993C461.836 426.938 461.843 426.885 461.843 426.831C461.843 425.077 461 423.464 459.665 422.585C460.145 422.05 460.438 421.344 460.438 420.571C460.438 418.904 459.082 417.546 457.417 417.546C455.752 417.546 454.396 418.904 454.396 420.571C454.396 421.344 454.691 422.048 455.169 422.585C453.834 423.464 452.991 425.077 452.991 426.831C452.991 426.885 452.996 426.938 452.998 426.993C451.493 425.726 450.533 423.83 450.533 421.712C450.533 417.912 453.621 414.82 457.417 414.82C461.213 414.82 464.301 417.912 464.301 421.712C464.301 423.83 463.341 425.729 461.836 426.993H461.836Z" fill="white"/>
<path d="M458.328 407.866H459.592V409.132C459.592 409.327 459.749 409.484 459.944 409.484C460.138 409.484 460.295 409.327 460.295 409.132V407.866H461.559C461.754 407.866 461.91 407.709 461.91 407.514C461.91 407.32 461.754 407.163 461.559 407.163H460.295V405.897C460.295 405.702 460.138 405.545 459.944 405.545C459.749 405.545 459.592 405.702 459.592 405.897V407.163H458.328C458.134 407.163 457.977 407.32 457.977 407.514C457.977 407.709 458.134 407.866 458.328 407.866Z" fill="white"/>
<path d="M448.416 430.48H447.151V429.214C447.151 429.019 446.994 428.862 446.8 428.862C446.606 428.862 446.449 429.019 446.449 429.214V430.48H445.184C444.99 430.48 444.833 430.637 444.833 430.832C444.833 431.026 444.99 431.183 445.184 431.183H446.449V432.449C446.449 432.644 446.606 432.801 446.8 432.801C446.994 432.801 447.151 432.644 447.151 432.449V431.183H448.416C448.61 431.183 448.767 431.026 448.767 430.832C448.767 430.637 448.61 430.48 448.416 430.48Z" fill="white"/>
<path d="M494.487 283.09V285.078H497.693V286.926H494.487V289.082H498.113V291H492.093V281.172H498.113V283.09H494.487ZM508.459 291H506.065L502.061 284.938V291H499.667V281.172H502.061L506.065 287.262V281.172H508.459V291ZM516.718 284.28C516.541 283.953 516.284 283.706 515.948 283.538C515.622 283.361 515.234 283.272 514.786 283.272C514.012 283.272 513.391 283.529 512.924 284.042C512.458 284.546 512.224 285.223 512.224 286.072C512.224 286.977 512.467 287.687 512.952 288.2C513.447 288.704 514.124 288.956 514.982 288.956C515.57 288.956 516.065 288.807 516.466 288.508C516.877 288.209 517.176 287.78 517.362 287.22H514.324V285.456H519.532V287.682C519.355 288.279 519.052 288.835 518.622 289.348C518.202 289.861 517.666 290.277 517.012 290.594C516.359 290.911 515.622 291.07 514.8 291.07C513.83 291.07 512.962 290.86 512.196 290.44C511.44 290.011 510.848 289.418 510.418 288.662C509.998 287.906 509.788 287.043 509.788 286.072C509.788 285.101 509.998 284.238 510.418 283.482C510.848 282.717 511.44 282.124 512.196 281.704C512.952 281.275 513.816 281.06 514.786 281.06C515.962 281.06 516.952 281.345 517.754 281.914C518.566 282.483 519.103 283.272 519.364 284.28H516.718ZM526.976 289.264H523.308L522.72 291H520.214L523.77 281.172H526.542L530.098 291H527.564L526.976 289.264ZM526.36 287.416L525.142 283.818L523.938 287.416H526.36ZM537.704 284.28C537.527 283.953 537.271 283.706 536.935 283.538C536.608 283.361 536.221 283.272 535.773 283.272C534.998 283.272 534.377 283.529 533.91 284.042C533.444 284.546 533.211 285.223 533.211 286.072C533.211 286.977 533.453 287.687 533.939 288.2C534.433 288.704 535.11 288.956 535.969 288.956C536.557 288.956 537.051 288.807 537.453 288.508C537.863 288.209 538.162 287.78 538.349 287.22H535.311V285.456H540.519V287.682C540.341 288.279 540.038 288.835 539.609 289.348C539.189 289.861 538.652 290.277 537.999 290.594C537.345 290.911 536.608 291.07 535.787 291.07C534.816 291.07 533.948 290.86 533.183 290.44C532.427 290.011 531.834 289.418 531.405 288.662C530.985 287.906 530.774 287.043 530.774 286.072C530.774 285.101 530.985 284.238 531.405 283.482C531.834 282.717 532.427 282.124 533.183 281.704C533.939 281.275 534.802 281.06 535.773 281.06C536.949 281.06 537.938 281.345 538.741 281.914C539.553 282.483 540.089 283.272 540.351 284.28H537.704ZM544.239 283.09V285.078H547.445V286.926H544.239V289.082H547.865V291H541.845V281.172H547.865V283.09H544.239ZM560.549 281.172V291H558.155V285.106L555.957 291H554.025L551.813 285.092V291H549.419V281.172H552.247L555.005 287.976L557.735 281.172H560.549ZM564.664 283.09V285.078H567.87V286.926H564.664V289.082H568.29V291H562.27V281.172H568.29V283.09H564.664ZM578.637 291H576.243L572.239 284.938V291H569.845V281.172H572.239L576.243 287.262V281.172H578.637V291ZM587.442 281.172V283.09H584.838V291H582.444V283.09H579.84V281.172H587.442Z" fill="white"/>
</svg>
