<svg width="802" height="704" viewBox="0 0 802 704" fill="none" xmlns="http://www.w3.org/2000/svg">
<path d="M630.629 388.05C630.529 387.85 640.381 382.299 652.634 375.664C664.887 369.029 674.939 363.811 675.055 363.995C675.172 364.178 665.32 369.746 653.051 376.381C640.781 383.015 630.746 388.266 630.629 388.05Z" fill="#E0E0E0"/>
<path d="M704.662 374.831C704.896 374.831 708.28 385.433 712.214 398.686C716.148 411.939 719.149 422.708 718.882 422.775C718.615 422.841 715.265 412.172 711.331 398.919C707.396 385.667 704.479 374.898 704.662 374.831Z" fill="#E0E0E0"/>
<path d="M362.772 578.775C362.66 579.167 362.521 579.552 362.355 579.925L361.022 583.176C359.805 586.076 358.088 590.127 356.021 595.078L339.05 634.337L338.9 634.653H338.55L337.717 634.47L295.374 625.285L282.555 622.401L279.087 621.567C278.68 621.483 278.279 621.372 277.887 621.234C278.304 621.24 278.718 621.296 279.121 621.4L282.622 622.067L295.491 624.684L337.917 633.553L338.75 633.736L338.267 633.987C344.935 618.717 351.053 604.914 355.471 594.845C357.688 589.927 359.488 585.91 360.772 583.042C361.388 581.725 361.872 580.658 362.239 579.858C362.377 579.479 362.556 579.116 362.772 578.775Z" fill="#E0E0E0"/>
<path d="M306.426 678.396C306.193 678.396 308.66 667.31 311.928 653.757C315.195 640.204 318.062 629.252 318.279 629.319C318.496 629.385 316.045 640.404 312.778 653.957C309.51 667.51 306.643 678.446 306.426 678.396Z" fill="#E0E0E0"/>
<path d="M346.151 614.515C346.251 614.299 356.453 618.933 368.923 624.868C381.392 630.802 391.444 635.803 391.261 636.003C391.077 636.203 380.975 631.586 368.489 625.651C356.003 619.717 346.051 614.715 346.151 614.515Z" fill="#E0E0E0"/>
<path d="M222.675 363.377C254.949 341.839 262.817 301.097 262.134 264.356C262.017 258.222 262.8 251.77 259.933 246.336C257.066 240.901 250.214 237.134 244.613 239.668C239.962 241.751 237.945 247.019 235.228 251.337C231.672 257.147 226.546 261.833 220.441 264.856C216.457 266.823 211.539 267.99 207.672 265.807C202.354 262.806 201.837 255.488 201.971 249.386L202.721 215.296C202.854 209.211 202.971 202.976 201.054 197.158C199.137 191.341 195.069 185.906 189.218 184.206C183.367 182.505 176.032 185.723 174.698 191.674C174.148 194.141 174.698 196.675 174.415 199.259C174.131 201.843 172.964 204.577 170.514 205.244C168.063 205.91 165.596 204.16 163.846 202.343C157.561 196.092 153.36 188.09 149.443 180.155C145.525 172.22 141.708 164.068 136.106 157.267C130.505 150.465 122.504 145.031 113.652 144.397C104.8 143.764 95.3144 149.015 92.9305 157.567C90.5467 166.118 95.5144 174.92 100.932 181.955C109.002 192.424 118.548 201.666 129.272 209.394C131.205 210.795 133.289 212.295 133.989 214.562C135.273 218.646 131.305 222.631 127.221 223.914C122.587 225.348 117.602 224.814 112.785 225.298C107.967 225.781 102.783 227.798 100.799 232.266C98.1816 238.467 103.366 245.069 108.484 249.436C118.764 258.15 130.449 265.056 143.041 269.857C147.559 271.524 152.327 273.075 155.944 276.275C159.562 279.476 161.679 284.994 159.395 289.262C157.111 293.529 151.41 294.813 146.659 293.879C141.908 292.946 137.69 290.312 133.189 288.561C124.754 285.227 113.768 285.677 108.184 292.846C104.55 297.547 104.116 304.181 105.85 309.883C107.836 315.512 110.937 320.683 114.969 325.086C128.237 341.276 145.547 353.675 165.146 361.027C184.734 368.062 202.954 370.162 222.642 363.377" fill="#EBEBEB"/>
<path d="M213.34 340.24C207.459 320.142 200.424 300.399 192.268 281.111C190.135 275.954 188.029 270.875 185.95 265.874C183.85 260.873 181.783 255.872 179.466 251.221C174.956 242.165 169.947 233.366 164.462 224.865C159.311 216.714 154.093 209.162 149.192 202.127C144.291 195.092 139.524 188.658 134.973 182.94C127.819 173.892 119.959 165.424 111.468 157.618C108.467 154.85 106.066 152.767 104.433 151.383L102.549 149.816L101.899 149.316C101.899 149.316 102.082 149.516 102.499 149.899L104.316 151.566C105.983 153 108.267 155.1 111.234 157.901C119.627 165.787 127.417 174.29 134.539 183.34C139.057 189.058 143.741 195.542 148.642 202.561C153.543 209.579 158.644 217.18 163.829 225.332C169.26 233.815 174.218 242.592 178.682 251.621C180.999 256.322 183.05 261.223 185.133 266.241C187.217 271.259 189.318 276.243 191.451 281.461C199.596 300.717 206.642 320.42 212.556 340.474" fill="#E0E0E0"/>
<path d="M179.232 251.138C179.507 250.29 179.708 249.42 179.832 248.537C180.166 246.87 180.583 244.403 181.049 241.369C182 235.318 183.05 226.899 184.167 217.631C185.284 208.362 186.467 199.96 187.501 193.942C188.034 190.925 188.501 188.491 188.834 186.807C189.048 185.948 189.193 185.073 189.268 184.19C188.927 185.014 188.665 185.868 188.484 186.741C188.034 188.408 187.484 190.808 186.817 193.826C185.567 199.827 184.283 208.229 183.166 217.514C182.05 226.799 181.083 235.034 180.333 241.286C179.949 244.186 179.632 246.604 179.399 248.471C179.263 249.353 179.207 250.246 179.232 251.138Z" fill="#E0E0E0"/>
<path d="M100.032 235.301C100.3 235.368 100.573 235.413 100.849 235.434L103.199 235.667C105.233 235.867 108.2 236.151 111.818 236.601C119.069 237.468 129.071 239.035 140.024 241.235C150.976 243.436 160.778 245.903 167.83 247.903C171.364 248.87 174.198 249.72 176.165 250.304L178.432 250.971C178.696 251.065 178.97 251.126 179.249 251.154C179.016 251.003 178.764 250.885 178.499 250.804L176.281 249.97C174.348 249.27 171.547 248.303 167.946 247.27C160.928 245.119 151.109 242.585 140.14 240.352C129.171 238.118 119.119 236.684 111.801 235.984C108.15 235.601 105.133 235.417 103.132 235.334H100.765C100.524 235.288 100.277 235.277 100.032 235.301Z" fill="#E0E0E0"/>
<path d="M212.473 338.757C212.691 338.464 212.87 338.145 213.007 337.807C213.373 337.073 213.84 336.14 214.407 334.973C215.59 332.522 217.241 328.921 219.208 324.454C223.159 315.535 228.243 303.033 233.678 289.163C239.112 275.293 244.097 262.774 247.881 253.789L252.432 243.17L253.649 240.269C253.81 239.938 253.938 239.592 254.032 239.236C253.812 239.53 253.627 239.848 253.482 240.186L252.098 243.02C250.898 245.47 249.264 249.071 247.297 253.539C243.33 262.457 238.262 274.96 232.828 288.83C227.393 302.699 222.409 315.219 218.608 324.204L214.073 334.823L212.84 337.723C212.678 338.052 212.555 338.399 212.473 338.757Z" fill="#E0E0E0"/>
<path d="M107.451 303.616C107.788 303.784 108.14 303.924 108.501 304.032L111.552 305.066L122.871 308.817C132.373 312.001 145.442 316.552 159.879 321.62C174.315 326.687 187.418 331.138 196.987 334.172C201.754 335.673 205.638 336.873 208.339 337.64L211.44 338.507C211.795 338.634 212.164 338.718 212.54 338.757C212.206 338.579 211.854 338.44 211.49 338.34L208.439 337.29L197.187 333.539C187.685 330.371 174.615 325.82 160.179 320.753C145.742 315.685 132.639 311.234 123.087 308.2C118.303 306.683 114.419 305.499 111.718 304.733L108.618 303.849C108.239 303.725 107.848 303.647 107.451 303.616Z" fill="#E0E0E0"/>
<path d="M224.259 0.00012207H130.205C123.724 0.00012207 118.469 5.25444 118.469 11.736V58.196C118.469 64.6775 123.724 69.9318 130.205 69.9318H224.259C230.74 69.9318 235.994 64.6775 235.994 58.196V11.736C235.994 5.25444 230.74 0.00012207 224.259 0.00012207Z" fill="#E0E0E0"/>
<path d="M189.951 67.715L217.74 92.3869L220.024 68.1484" fill="#E0E0E0"/>
<path d="M161.945 35.9747C161.945 37.3298 161.543 38.6544 160.79 39.7812C160.038 40.9079 158.968 41.786 157.716 42.3046C156.464 42.8232 155.086 42.9589 153.757 42.6945C152.428 42.4301 151.207 41.7776 150.249 40.8194C149.291 39.8612 148.638 38.6404 148.374 37.3113C148.109 35.9823 148.245 34.6047 148.764 33.3527C149.282 32.1008 150.16 31.0307 151.287 30.2779C152.414 29.525 153.739 29.1232 155.094 29.1232C156.911 29.1232 158.653 29.8451 159.938 31.13C161.223 32.4149 161.945 34.1576 161.945 35.9747Z" fill="white"/>
<path d="M185.484 35.9747C185.484 37.3305 185.081 38.6558 184.328 39.7829C183.574 40.91 182.503 41.7881 181.25 42.3062C179.997 42.8243 178.619 42.959 177.289 42.6933C175.96 42.4276 174.739 41.7734 173.782 40.8135C172.824 39.8536 172.173 38.6313 171.91 37.3011C171.648 35.971 171.786 34.5928 172.307 33.3412C172.828 32.0895 173.709 31.0206 174.838 30.2698C175.967 29.519 177.293 29.1199 178.649 29.1232C179.548 29.1232 180.438 29.3006 181.268 29.6451C182.099 29.9896 182.853 30.4945 183.488 31.131C184.123 31.7674 184.626 32.5228 184.968 33.354C185.311 34.1852 185.486 35.0757 185.484 35.9747Z" fill="white"/>
<path d="M209.039 35.9747C209.039 37.3305 208.637 38.6558 207.883 39.7829C207.129 40.91 206.058 41.7881 204.805 42.3062C203.553 42.8243 202.174 42.959 200.845 42.6933C199.515 42.4276 198.294 41.7734 197.337 40.8135C196.379 39.8536 195.728 38.6313 195.466 37.3011C195.203 35.971 195.341 34.5928 195.862 33.3412C196.383 32.0895 197.264 31.0206 198.393 30.2698C199.522 29.519 200.848 29.1199 202.204 29.1232C204.018 29.1276 205.757 29.8514 207.038 31.1359C208.319 32.4203 209.039 34.1605 209.039 35.9747Z" fill="white"/>
<path d="M564.673 75.0184L541.262 134.544L629.58 169.28L652.992 109.755L564.673 75.0184Z" fill="#E0E0E0"/>
<path d="M652.985 110.524C652.626 110.728 652.246 110.89 651.851 111.008L648.517 112.191L636.314 116.409L595.789 130.062L595.455 130.179L595.272 129.862L594.855 129.128L573.317 91.5036C570.65 86.7359 568.45 82.8517 566.883 80.0511L565.216 76.9171C564.995 76.5645 564.81 76.1902 564.666 75.8002C564.932 76.1215 565.166 76.4676 565.366 76.8338L567.216 79.8844C568.883 82.6517 571.1 86.5525 573.884 91.2035L595.555 128.695L595.972 129.445L595.472 129.245L636.064 115.909L648.384 111.941L651.718 110.908C652.13 110.748 652.553 110.62 652.985 110.524Z" fill="black"/>
<path d="M541.294 135.329C541.177 135.129 551.029 129.578 563.282 122.943C575.534 116.308 585.586 111.091 585.703 111.274C585.82 111.457 575.968 117.025 563.698 123.66C551.429 130.295 541.294 135.546 541.294 135.329Z" fill="black"/>
<path d="M615.293 122.11C615.509 122.11 618.893 132.729 622.828 145.965C626.762 159.201 629.779 170.004 629.496 170.07C629.212 170.137 625.895 159.451 621.961 146.215C618.027 132.979 615.059 122.177 615.293 122.11Z" fill="black"/>
<path d="M630.629 388.05C630.529 387.85 640.381 382.299 652.634 375.664C664.887 369.029 674.939 363.811 675.055 363.995C675.172 364.178 665.32 369.746 653.051 376.381C640.781 383.015 630.746 388.266 630.629 388.05Z" fill="#E0E0E0"/>
<path d="M362.772 578.775C362.66 579.167 362.521 579.552 362.355 579.925L361.022 583.176C359.805 586.076 358.088 590.127 356.021 595.078L339.05 634.337L338.9 634.653H338.55L337.717 634.47L295.374 625.285L282.555 622.401L279.087 621.567C278.68 621.483 278.279 621.372 277.887 621.234C278.304 621.24 278.718 621.296 279.121 621.4L282.622 622.067L295.491 624.684L337.917 633.553L338.75 633.736L338.267 633.987C344.935 618.717 351.053 604.914 355.471 594.845C357.688 589.927 359.488 585.91 360.772 583.042C361.388 581.725 361.872 580.658 362.239 579.858C362.377 579.479 362.556 579.116 362.772 578.775Z" fill="#E0E0E0"/>
<path d="M306.426 678.396C306.193 678.396 308.66 667.31 311.928 653.757C315.195 640.204 318.062 629.252 318.279 629.319C318.496 629.385 316.045 640.404 312.778 653.957C309.51 667.51 306.643 678.446 306.426 678.396Z" fill="#E0E0E0"/>
<path d="M346.151 614.515C346.251 614.299 356.453 618.933 368.923 624.868C381.392 630.802 391.444 635.803 391.261 636.003C391.077 636.203 380.975 631.586 368.489 625.651C356.003 619.717 346.051 614.715 346.151 614.515Z" fill="#E0E0E0"/>
<path d="M222.675 363.377C254.949 341.839 262.817 301.097 262.134 264.356C262.017 258.222 262.8 251.77 259.933 246.336C257.066 240.901 250.214 237.134 244.613 239.668C239.962 241.751 237.945 247.019 235.228 251.337C231.672 257.147 226.546 261.833 220.441 264.856C216.457 266.823 211.539 267.99 207.672 265.807C202.354 262.806 201.837 255.488 201.971 249.386L202.721 215.296C202.854 209.211 202.971 202.976 201.054 197.158C199.137 191.341 195.069 185.906 189.218 184.206C183.367 182.505 176.032 185.723 174.698 191.674C174.148 194.141 174.698 196.675 174.415 199.259C174.131 201.843 172.964 204.577 170.514 205.244C168.063 205.91 165.596 204.16 163.846 202.343C157.561 196.092 153.36 188.09 149.443 180.155C145.525 172.22 141.708 164.068 136.106 157.267C130.505 150.465 122.504 145.031 113.652 144.397C104.8 143.764 95.3144 149.015 92.9305 157.567C90.5467 166.118 95.5144 174.92 100.932 181.955C109.002 192.424 118.548 201.666 129.272 209.394C131.205 210.795 133.289 212.295 133.989 214.562C135.273 218.646 131.305 222.631 127.221 223.914C122.587 225.348 117.602 224.814 112.785 225.298C107.967 225.781 102.783 227.798 100.799 232.266C98.1816 238.467 103.366 245.069 108.484 249.436C118.764 258.15 130.449 265.056 143.041 269.857C147.559 271.524 152.327 273.075 155.944 276.275C159.562 279.476 161.679 284.994 159.395 289.262C157.111 293.529 151.41 294.813 146.659 293.879C141.908 292.946 137.69 290.312 133.189 288.561C124.754 285.227 113.768 285.677 108.184 292.846C104.55 297.547 104.116 304.181 105.85 309.883C107.836 315.512 110.937 320.683 114.969 325.086C128.237 341.276 145.547 353.675 165.146 361.027C184.734 368.062 202.954 370.162 222.642 363.377" fill="#EBEBEB"/>
<path d="M213.34 340.24C207.459 320.142 200.424 300.399 192.268 281.111C190.135 275.954 188.029 270.875 185.95 265.874C183.85 260.873 181.783 255.872 179.466 251.221C174.956 242.165 169.947 233.366 164.462 224.865C159.311 216.714 154.093 209.162 149.192 202.127C144.291 195.092 139.524 188.658 134.973 182.94C127.819 173.892 119.959 165.424 111.468 157.618C108.467 154.85 106.066 152.767 104.433 151.383L102.549 149.816L101.899 149.316C101.899 149.316 102.082 149.516 102.499 149.899L104.316 151.566C105.983 153 108.267 155.1 111.234 157.901C119.627 165.787 127.417 174.29 134.539 183.34C139.057 189.058 143.741 195.542 148.642 202.561C153.543 209.579 158.644 217.18 163.829 225.332C169.26 233.815 174.218 242.592 178.682 251.621C180.999 256.322 183.05 261.223 185.133 266.241C187.217 271.259 189.318 276.243 191.451 281.461C199.596 300.717 206.642 320.42 212.556 340.474" fill="#E0E0E0"/>
<path d="M179.232 251.138C179.507 250.29 179.708 249.42 179.832 248.537C180.166 246.87 180.583 244.403 181.049 241.369C182 235.318 183.05 226.899 184.167 217.631C185.284 208.362 186.467 199.96 187.501 193.942C188.034 190.925 188.501 188.491 188.834 186.807C189.048 185.948 189.193 185.073 189.268 184.19C188.927 185.014 188.665 185.868 188.484 186.741C188.034 188.408 187.484 190.808 186.817 193.826C185.567 199.827 184.283 208.229 183.166 217.514C182.05 226.799 181.083 235.034 180.333 241.286C179.949 244.186 179.632 246.604 179.399 248.471C179.263 249.353 179.207 250.246 179.232 251.138Z" fill="#E0E0E0"/>
<path d="M100.032 235.301C100.3 235.368 100.573 235.413 100.849 235.434L103.199 235.667C105.233 235.867 108.2 236.151 111.818 236.601C119.069 237.468 129.071 239.035 140.024 241.235C150.976 243.436 160.778 245.903 167.83 247.903C171.364 248.87 174.198 249.72 176.165 250.304L178.432 250.971C178.696 251.065 178.97 251.126 179.249 251.154C179.016 251.003 178.764 250.885 178.499 250.804L176.281 249.97C174.348 249.27 171.547 248.303 167.946 247.27C160.928 245.119 151.109 242.585 140.14 240.352C129.171 238.118 119.119 236.684 111.801 235.984C108.15 235.601 105.133 235.417 103.132 235.334H100.765C100.524 235.288 100.277 235.277 100.032 235.301Z" fill="#E0E0E0"/>
<path d="M212.473 338.757C212.691 338.464 212.87 338.145 213.007 337.807C213.373 337.073 213.84 336.14 214.407 334.973C215.59 332.522 217.241 328.921 219.208 324.454C223.159 315.535 228.243 303.033 233.678 289.163C239.112 275.293 244.097 262.774 247.881 253.789L252.432 243.17L253.649 240.269C253.81 239.938 253.938 239.592 254.032 239.236C253.812 239.53 253.627 239.848 253.482 240.186L252.098 243.02C250.898 245.47 249.264 249.071 247.297 253.539C243.33 262.457 238.262 274.96 232.828 288.83C227.393 302.699 222.409 315.219 218.608 324.204L214.073 334.823L212.84 337.723C212.678 338.052 212.555 338.399 212.473 338.757Z" fill="#E0E0E0"/>
<path d="M107.451 303.616C107.788 303.784 108.14 303.924 108.501 304.032L111.552 305.066L122.871 308.817C132.373 312.001 145.442 316.552 159.879 321.62C174.315 326.687 187.418 331.138 196.987 334.172C201.754 335.673 205.638 336.873 208.339 337.64L211.44 338.507C211.795 338.634 212.164 338.718 212.54 338.757C212.206 338.579 211.854 338.44 211.49 338.34L208.439 337.29L197.187 333.539C187.685 330.371 174.615 325.82 160.179 320.753C145.742 315.685 132.639 311.234 123.087 308.2C118.303 306.683 114.419 305.499 111.718 304.733L108.618 303.849C108.239 303.725 107.848 303.647 107.451 303.616Z" fill="#E0E0E0"/>
<path d="M224.259 0.00012207H130.205C123.724 0.00012207 118.469 5.25444 118.469 11.736V58.196C118.469 64.6775 123.724 69.9318 130.205 69.9318H224.259C230.74 69.9318 235.994 64.6775 235.994 58.196V11.736C235.994 5.25444 230.74 0.00012207 224.259 0.00012207Z" fill="#E0E0E0"/>
<path d="M189.951 67.715L217.74 92.3869L220.024 68.1484" fill="#E0E0E0"/>
<path d="M161.945 35.9747C161.945 37.3298 161.543 38.6544 160.79 39.7812C160.038 40.9079 158.968 41.786 157.716 42.3046C156.464 42.8232 155.086 42.9589 153.757 42.6945C152.428 42.4301 151.207 41.7776 150.249 40.8194C149.291 39.8612 148.638 38.6404 148.374 37.3113C148.109 35.9823 148.245 34.6047 148.764 33.3527C149.282 32.1008 150.16 31.0307 151.287 30.2779C152.414 29.525 153.739 29.1232 155.094 29.1232C156.911 29.1232 158.653 29.8451 159.938 31.13C161.223 32.4149 161.945 34.1576 161.945 35.9747Z" fill="white"/>
<path d="M185.484 35.9747C185.484 37.3305 185.081 38.6558 184.328 39.7829C183.574 40.91 182.503 41.7881 181.25 42.3062C179.997 42.8243 178.619 42.959 177.289 42.6933C175.96 42.4276 174.739 41.7734 173.782 40.8135C172.824 39.8536 172.173 38.6313 171.91 37.3011C171.648 35.971 171.786 34.5928 172.307 33.3412C172.828 32.0895 173.709 31.0206 174.838 30.2698C175.967 29.519 177.293 29.1199 178.649 29.1232C179.548 29.1232 180.438 29.3006 181.268 29.6451C182.099 29.9896 182.853 30.4945 183.488 31.131C184.123 31.7674 184.626 32.5228 184.968 33.354C185.311 34.1852 185.486 35.0757 185.484 35.9747Z" fill="white"/>
<path d="M209.039 35.9747C209.039 37.3305 208.637 38.6558 207.883 39.7829C207.129 40.91 206.058 41.7881 204.805 42.3062C203.553 42.8243 202.174 42.959 200.845 42.6933C199.515 42.4276 198.294 41.7734 197.337 40.8135C196.379 39.8536 195.728 38.6313 195.466 37.3011C195.203 35.971 195.341 34.5928 195.862 33.3412C196.383 32.0895 197.264 31.0206 198.393 30.2698C199.522 29.519 200.848 29.1199 202.204 29.1232C204.018 29.1276 205.757 29.8514 207.038 31.1359C208.319 32.4203 209.039 34.1605 209.039 35.9747Z" fill="white"/>
<path d="M564.673 75.0184L541.262 134.544L629.58 169.28L652.992 109.755L564.673 75.0184Z" fill="#E0E0E0"/>
<path d="M652.985 110.524C652.626 110.728 652.246 110.89 651.851 111.008L648.517 112.191L636.314 116.409L595.789 130.062L595.455 130.179L595.272 129.862L594.855 129.128L573.317 91.5036C570.65 86.7359 568.45 82.8517 566.883 80.0511L565.216 76.9171C564.995 76.5645 564.81 76.1902 564.666 75.8002C564.932 76.1215 565.166 76.4676 565.366 76.8338L567.216 79.8844C568.883 82.6517 571.1 86.5525 573.884 91.2035L595.555 128.695L595.972 129.445L595.472 129.245L636.064 115.909L648.384 111.941L651.718 110.908C652.13 110.748 652.553 110.62 652.985 110.524Z" fill="black"/>
<path d="M541.294 135.329C541.177 135.129 551.029 129.578 563.282 122.943C575.534 116.308 585.586 111.091 585.703 111.274C585.82 111.457 575.968 117.025 563.698 123.66C551.429 130.295 541.294 135.546 541.294 135.329Z" fill="black"/>
<path d="M615.293 122.11C615.509 122.11 618.893 132.729 622.828 145.965C626.762 159.201 629.779 170.004 629.496 170.07C629.212 170.137 625.895 159.451 621.961 146.215C618.027 132.979 615.059 122.177 615.293 122.11Z" fill="black"/>
<path d="M243.598 621.824L272.064 679.104L357.051 636.867L328.584 579.587L243.598 621.824Z" fill="#E0E0E0"/>
<path d="M329.151 580.108C329.061 580.51 328.927 580.901 328.75 581.273L327.392 584.54L322.34 596.422L305.298 635.643L305.161 635.968L304.803 635.892L303.98 635.709L261.624 626.463C256.298 625.245 251.941 624.274 248.813 623.558L245.37 622.694C244.96 622.621 244.559 622.507 244.172 622.353C244.589 622.371 245.003 622.429 245.409 622.527L248.913 623.199C252.083 623.818 256.464 624.788 261.781 625.841L304.128 634.899L304.964 635.093L304.48 635.33L321.801 596.272L327.117 584.472L328.586 581.305C328.744 580.892 328.933 580.492 329.151 580.108Z" fill="black"/>
<path d="M272.668 679.606C272.442 679.559 274.929 668.527 278.221 654.988C281.514 641.449 284.382 630.493 284.596 630.529C284.811 630.565 282.336 641.608 279.032 655.16C275.729 668.711 272.829 679.752 272.668 679.606Z" fill="black"/>
<path d="M312.475 615.841C312.62 615.68 322.768 620.289 335.226 626.245C347.684 632.2 357.722 637.204 357.581 637.459C357.441 637.714 347.288 633.011 334.83 627.055C322.372 621.1 312.368 616.059 312.475 615.841Z" fill="black"/>
<path d="M243.598 621.824L272.064 679.104L357.051 636.867L328.584 579.587L243.598 621.824Z" fill="#E0E0E0"/>
<path d="M329.151 580.108C329.061 580.51 328.927 580.901 328.75 581.273L327.392 584.54L322.34 596.422L305.298 635.643L305.161 635.968L304.803 635.892L303.98 635.709L261.624 626.463C256.298 625.245 251.941 624.274 248.813 623.558L245.37 622.694C244.96 622.621 244.559 622.507 244.172 622.353C244.589 622.371 245.003 622.429 245.409 622.527L248.913 623.199C252.083 623.818 256.464 624.788 261.781 625.841L304.128 634.899L304.964 635.093L304.48 635.33L321.801 596.272L327.117 584.472L328.586 581.305C328.744 580.892 328.933 580.492 329.151 580.108Z" fill="black"/>
<path d="M272.668 679.606C272.442 679.559 274.929 668.527 278.221 654.988C281.514 641.449 284.382 630.493 284.596 630.529C284.811 630.565 282.336 641.608 279.032 655.16C275.729 668.711 272.829 679.752 272.668 679.606Z" fill="black"/>
<path d="M312.475 615.841C312.62 615.68 322.768 620.289 335.226 626.245C347.684 632.2 357.722 637.204 357.581 637.459C357.441 637.714 347.288 633.011 334.83 627.055C322.372 621.1 312.368 616.059 312.475 615.841Z" fill="black"/>
<path d="M0.000228417 452.863L42.3862 500.767L113.462 437.879L71.0758 389.975L0.000228417 452.863Z" fill="#E0E0E0"/>
<path d="M71.7581 390.331C71.7764 390.743 71.7481 391.155 71.6737 391.56L71.213 395.068L69.4249 407.855L63.1715 450.158L63.124 450.508L62.7585 450.528L61.9157 450.566L18.6128 452.654C13.1538 452.864 8.69388 453.059 5.48706 453.182L1.93779 453.243C1.52331 453.28 1.10617 453.274 0.692871 453.226C1.09992 453.135 1.51479 453.083 1.93172 453.072L5.49005 452.809C8.71262 452.582 13.1949 452.38 18.6031 452.013L61.8478 449.745L62.7054 449.715L62.3 450.069L68.8658 407.85L70.9296 395.073L71.5239 391.634C71.569 391.194 71.6473 390.759 71.7581 390.331Z" fill="black"/>
<path d="M43.1003 501.096C42.869 501.109 42.401 489.81 42.0586 475.881C41.7162 461.951 41.636 450.626 41.8524 450.605C42.0688 450.584 42.5517 461.891 42.8865 475.835C43.2214 489.779 43.2933 501.194 43.1003 501.096Z" fill="black"/>
<path d="M64.9507 429.171C65.0492 428.978 76.0462 430.789 89.6246 433.299C103.203 435.809 114.197 438.03 114.127 438.313C114.058 438.596 103.032 436.695 89.4534 434.185C75.875 431.675 64.904 429.409 64.9507 429.171Z" fill="black"/>
<path d="M0.000228417 452.863L42.3862 500.767L113.462 437.879L71.0758 389.975L0.000228417 452.863Z" fill="#E0E0E0"/>
<path d="M71.7581 390.331C71.7764 390.743 71.7481 391.155 71.6737 391.56L71.213 395.068L69.4249 407.855L63.1715 450.158L63.124 450.508L62.7585 450.528L61.9157 450.566L18.6128 452.654C13.1538 452.864 8.69388 453.059 5.48706 453.182L1.93779 453.243C1.52331 453.28 1.10617 453.274 0.692871 453.226C1.09992 453.135 1.51479 453.083 1.93172 453.072L5.49005 452.809C8.71262 452.582 13.1949 452.38 18.6031 452.013L61.8478 449.745L62.7054 449.715L62.3 450.069L68.8658 407.85L70.9296 395.073L71.5239 391.634C71.569 391.194 71.6473 390.759 71.7581 390.331Z" fill="black"/>
<path d="M43.1003 501.096C42.869 501.109 42.401 489.81 42.0586 475.881C41.7162 461.951 41.636 450.626 41.8524 450.605C42.0688 450.584 42.5517 461.891 42.8865 475.835C43.2214 489.779 43.2933 501.194 43.1003 501.096Z" fill="black"/>
<path d="M64.9507 429.171C65.0492 428.978 76.0462 430.789 89.6246 433.299C103.203 435.809 114.197 438.03 114.127 438.313C114.058 438.596 103.032 436.695 89.4534 434.185C75.875 431.675 64.904 429.409 64.9507 429.171Z" fill="black"/>
<path d="M564.673 75.0184L541.262 134.544L629.58 169.28L652.992 109.755L564.673 75.0184Z" fill="#E0E0E0"/>
<path d="M652.985 110.524C652.626 110.728 652.246 110.89 651.851 111.008L648.517 112.191L636.314 116.409L595.789 130.062L595.455 130.179L595.272 129.862L594.855 129.128L573.317 91.5036C570.65 86.7359 568.45 82.8517 566.883 80.0511L565.216 76.9171C564.995 76.5645 564.81 76.1902 564.666 75.8002C564.932 76.1215 565.166 76.4676 565.366 76.8338L567.216 79.8844C568.883 82.6517 571.1 86.5525 573.884 91.2035L595.555 128.695L595.972 129.445L595.472 129.245L636.064 115.909L648.384 111.941L651.718 110.908C652.13 110.748 652.553 110.62 652.985 110.524Z" fill="black"/>
<path d="M541.294 135.329C541.177 135.129 551.029 129.578 563.282 122.943C575.534 116.308 585.586 111.091 585.703 111.274C585.82 111.457 575.968 117.025 563.698 123.66C551.429 130.295 541.294 135.546 541.294 135.329Z" fill="black"/>
<path d="M615.293 122.11C615.509 122.11 618.893 132.729 622.828 145.965C626.762 159.201 629.779 170.004 629.496 170.07C629.212 170.137 625.895 159.451 621.961 146.215C618.027 132.979 615.059 122.177 615.293 122.11Z" fill="black"/>
<path d="M564.673 75.0184L541.262 134.544L629.58 169.28L652.992 109.755L564.673 75.0184Z" fill="#E0E0E0"/>
<path d="M652.985 110.524C652.626 110.728 652.246 110.89 651.851 111.008L648.517 112.191L636.314 116.409L595.789 130.062L595.455 130.179L595.272 129.862L594.855 129.128L573.317 91.5036C570.65 86.7359 568.45 82.8517 566.883 80.0511L565.216 76.9171C564.995 76.5645 564.81 76.1902 564.666 75.8002C564.932 76.1215 565.166 76.4676 565.366 76.8338L567.216 79.8844C568.883 82.6517 571.1 86.5525 573.884 91.2035L595.555 128.695L595.972 129.445L595.472 129.245L636.064 115.909L648.384 111.941L651.718 110.908C652.13 110.748 652.553 110.62 652.985 110.524Z" fill="black"/>
<path d="M541.294 135.329C541.177 135.129 551.029 129.578 563.282 122.943C575.534 116.308 585.586 111.091 585.703 111.274C585.82 111.457 575.968 117.025 563.698 123.66C551.429 130.295 541.294 135.546 541.294 135.329Z" fill="black"/>
<path d="M615.293 122.11C615.509 122.11 618.893 132.729 622.828 145.965C626.762 159.201 629.779 170.004 629.496 170.07C629.212 170.137 625.895 159.451 621.961 146.215C618.027 132.979 615.059 122.177 615.293 122.11Z" fill="black"/>
<path d="M713.682 327.181L690.27 386.706L778.588 421.442L802 361.917L713.682 327.181Z" fill="#E0E0E0"/>
<path d="M801.993 362.686C801.634 362.89 801.254 363.052 800.859 363.17L797.525 364.353L785.323 368.571L744.797 382.224L744.464 382.341L744.28 382.024L743.864 381.29L722.326 343.666C719.658 338.898 717.458 335.014 715.891 332.213L714.224 329.079C714.003 328.727 713.819 328.352 713.674 327.962C713.94 328.284 714.174 328.63 714.374 328.996L716.224 332.047C717.891 334.814 720.109 338.715 722.892 343.366L744.564 380.857L744.981 381.607L744.48 381.407L785.073 368.071L797.392 364.103L800.726 363.07C801.138 362.91 801.561 362.782 801.993 362.686Z" fill="black"/>
<path d="M690.302 387.491C690.185 387.291 700.037 381.74 712.29 375.105C724.542 368.471 734.595 363.253 734.711 363.436C734.828 363.62 724.976 369.187 712.707 375.822C700.437 382.457 690.302 387.708 690.302 387.491Z" fill="black"/>
<path d="M764.301 374.272C764.518 374.272 767.902 384.891 771.836 398.127C775.77 411.363 778.787 422.166 778.504 422.232C778.221 422.299 774.903 411.613 770.969 398.377C767.035 385.141 764.068 374.339 764.301 374.272Z" fill="black"/>
<path d="M713.682 327.181L690.27 386.706L778.588 421.442L802 361.917L713.682 327.181Z" fill="#E0E0E0"/>
<path d="M801.993 362.686C801.634 362.89 801.254 363.052 800.859 363.17L797.525 364.353L785.323 368.571L744.797 382.224L744.464 382.341L744.28 382.024L743.864 381.29L722.326 343.666C719.658 338.898 717.458 335.014 715.891 332.213L714.224 329.079C714.003 328.727 713.819 328.352 713.674 327.962C713.94 328.284 714.174 328.63 714.374 328.996L716.224 332.047C717.891 334.814 720.109 338.715 722.892 343.366L744.564 380.857L744.981 381.607L744.48 381.407L785.073 368.071L797.392 364.103L800.726 363.07C801.138 362.91 801.561 362.782 801.993 362.686Z" fill="black"/>
<path d="M690.302 387.491C690.185 387.291 700.037 381.74 712.29 375.105C724.542 368.471 734.595 363.253 734.711 363.436C734.828 363.62 724.976 369.187 712.707 375.822C700.437 382.457 690.302 387.708 690.302 387.491Z" fill="black"/>
<path d="M764.301 374.272C764.518 374.272 767.902 384.891 771.836 398.127C775.77 411.363 778.787 422.166 778.504 422.232C778.221 422.299 774.903 411.613 770.969 398.377C767.035 385.141 764.068 374.339 764.301 374.272Z" fill="black"/>
<path d="M784.846 703.184C784.846 703.418 622.061 703.618 421.284 703.618C220.508 703.618 57.6895 703.418 57.6895 703.184C57.6895 702.951 220.441 702.751 421.284 702.751C622.127 702.751 784.846 702.934 784.846 703.184Z" fill="#263238"/>
<path d="M434.437 357.277C446.314 357.277 455.942 347.649 455.942 335.773C455.942 323.896 446.314 314.268 434.437 314.268C422.561 314.268 412.933 323.896 412.933 335.773C412.933 347.649 422.561 357.277 434.437 357.277Z" fill="#407BFF"/>
<path d="M508.453 357.277C520.33 357.277 529.958 347.649 529.958 335.773C529.958 323.896 520.33 314.268 508.453 314.268C496.577 314.268 486.949 323.896 486.949 335.773C486.949 347.649 496.577 357.277 508.453 357.277Z" fill="#407BFF"/>
<path d="M651.584 224.498C652 224.411 652.427 224.383 652.851 224.415C654.102 224.42 655.348 224.56 656.568 224.831C658.596 225.254 660.547 225.985 662.353 226.998C664.863 228.406 667.063 230.305 668.821 232.583C671.086 235.49 672.551 238.938 673.072 242.585C673.229 243.606 673.318 244.636 673.339 245.669C673.339 246.703 673.339 247.736 673.339 248.803C673.339 250.937 673.339 253.171 673.339 255.471C673.422 264.723 673.489 275.359 673.589 287.278C673.705 311.133 673.839 340.139 674.006 373.53C674.006 381.876 674.039 390.489 674.106 399.369C674.106 403.814 674.106 408.321 674.106 412.888C674.106 415.172 674.106 417.473 674.106 419.79C674.106 420.94 674.106 422.107 674.106 423.274C674.086 424.536 673.974 425.795 673.772 427.041C672.909 432.224 670.279 436.948 666.329 440.412C662.379 443.876 657.352 445.867 652.101 446.046L621.728 446.146L623.528 444.479C621.561 465.833 619.494 488.388 617.327 511.793L616.993 515.444L614.159 513.11L532.625 445.929L533.959 446.396L366.89 446.479H327.665C326.331 446.479 325.114 446.479 323.697 446.479C320.111 446.397 316.594 445.476 313.427 443.792C310.26 442.107 307.532 439.705 305.46 436.777C303.809 434.454 302.594 431.85 301.876 429.092C301.258 426.415 301.006 423.668 301.125 420.923C301.125 415.811 301.125 410.71 301.125 405.62C301.125 395.474 301.125 385.399 301.125 375.397C301.125 335.388 301.209 296.88 301.242 260.156C301.242 255.571 301.242 251.004 301.242 246.486C301.178 244.036 301.487 241.591 302.159 239.234C302.843 236.862 303.895 234.612 305.276 232.566C308.053 228.535 312.041 225.493 316.662 223.881C318.927 223.073 321.309 222.64 323.714 222.597C325.981 222.597 328.098 222.597 330.298 222.597L380.909 222.698L471.745 222.964L603.29 223.648L639.048 224.064L648.35 224.281C649.41 224.259 650.47 224.331 651.517 224.498C650.471 224.676 649.41 224.748 648.35 224.715L639.048 224.931L603.29 225.348L471.745 226.032L380.909 226.298L330.298 226.398C328.148 226.398 325.897 226.398 323.797 226.398C321.795 226.434 319.812 226.8 317.929 227.482C314.102 228.835 310.804 231.368 308.51 234.717C306.192 238.155 305.024 242.241 305.176 246.386C305.176 250.904 305.176 255.471 305.176 260.056C305.176 296.73 305.26 335.322 305.31 375.297C305.31 385.299 305.31 395.373 305.31 405.52V420.823C305.188 423.209 305.401 425.599 305.943 427.925C306.816 431.313 308.614 434.391 311.138 436.814C313.661 439.237 316.809 440.91 320.23 441.645C321.371 441.884 322.531 442.023 323.697 442.061C324.881 442.061 326.264 442.061 327.548 442.061H367.09L534.159 442.145H534.909L535.492 442.628L616.843 510.026L613.659 511.343C615.91 488.005 618.077 465.4 620.144 444.062L620.294 442.395H621.961H652.234C656.702 442.262 660.986 440.588 664.359 437.655C667.732 434.723 669.986 430.713 670.738 426.308C670.908 425.243 671.003 424.168 671.022 423.091C671.022 421.924 671.022 420.757 671.022 419.606C671.022 417.289 671.022 414.989 671.022 412.705C671.022 408.137 671.022 403.631 671.022 399.185C671.022 390.295 671.055 381.682 671.122 373.347C671.288 340.006 671.422 310.95 671.538 287.095C671.638 275.175 671.705 264.54 671.788 255.288C671.788 252.987 671.788 250.754 671.788 248.62C671.788 247.553 671.788 246.519 671.788 245.486C671.787 244.516 671.726 243.547 671.605 242.585C671.177 239.151 669.874 235.885 667.821 233.1C666.202 230.879 664.156 229.003 661.803 227.582C660.091 226.539 658.239 225.748 656.302 225.231C653.301 224.565 651.584 224.665 651.584 224.498Z" fill="black"/>
<path d="M188.968 331.521H513.671C519.595 331.521 525.277 333.874 529.467 338.063C533.656 342.253 536.009 347.934 536.009 353.859V528.996C536.009 534.921 533.656 540.603 529.467 544.792C525.277 548.981 519.595 551.334 513.671 551.334H188.968C183.048 551.334 177.37 548.983 173.184 544.797C168.998 540.611 166.646 534.933 166.646 529.013V353.859C166.644 350.926 167.22 348.022 168.341 345.312C169.462 342.601 171.105 340.139 173.178 338.064C175.251 335.99 177.713 334.344 180.422 333.221C183.131 332.099 186.035 331.521 188.968 331.521Z" fill="#407BFF"/>
<path d="M391.328 544.3L478.664 621.85L485.832 545.683" fill="#407BFF"/>
<path d="M281.771 466.033C293.648 466.033 303.276 456.406 303.276 444.529C303.276 432.652 293.648 423.024 281.771 423.024C269.895 423.024 260.267 432.652 260.267 444.529C260.267 456.406 269.895 466.033 281.771 466.033Z" fill="white"/>
<path d="M355.787 466.033C367.664 466.033 377.292 456.406 377.292 444.529C377.292 432.652 367.664 423.024 355.787 423.024C343.911 423.024 334.283 432.652 334.283 444.529C334.283 456.406 343.911 466.033 355.787 466.033Z" fill="white"/>
<path d="M429.803 466.033C441.68 466.033 451.308 456.406 451.308 444.529C451.308 432.652 441.68 423.024 429.803 423.024C417.926 423.024 408.298 432.652 408.298 444.529C408.298 456.406 417.926 466.033 429.803 466.033Z" fill="white"/>
<g opacity="0.3">
<path d="M522.223 332.404L487.515 331.387H219.125C241.429 353.575 273.319 365.444 304.643 368.178C335.966 370.912 367.456 366.144 398.446 360.776C429.436 355.409 460.56 349.407 492.016 349.641C498.685 349.641 505.536 349.974 511.704 347.507C517.872 345.04 523.14 339.072 522.223 332.404Z" fill="black"/>
</g>
<path d="M582.469 357.277C594.346 357.277 603.974 347.649 603.974 335.773C603.974 323.896 594.346 314.268 582.469 314.268C570.592 314.268 560.964 323.896 560.964 335.773C560.964 347.649 570.592 357.277 582.469 357.277Z" fill="#407BFF"/>
<path d="M397.145 19.5704C388.484 19.7017 380.085 22.5703 373.153 27.7656C366.221 32.9609 361.111 40.2165 358.554 48.4933C356.12 57.0451 356.603 66.1471 355.036 74.9156C353.469 83.6842 349.052 92.8528 340.733 96.0202C335.315 98.0706 329.064 97.2204 323.73 99.3542C321.22 100.36 319.004 101.979 317.283 104.064C315.562 106.148 314.391 108.631 313.878 111.285C313.366 113.939 313.528 116.68 314.349 119.255C315.17 121.831 316.624 124.159 318.579 126.027C315.283 128.866 313.074 132.76 312.327 137.045C311.581 141.33 312.343 145.741 314.484 149.528C316.625 153.314 320.012 156.241 324.069 157.81C328.126 159.379 332.601 159.494 336.732 158.134C333.648 163.135 334.665 169.803 338.283 174.37C342.135 178.798 347.569 181.539 353.419 182.005C359.211 182.439 365.035 181.915 370.656 180.455C383.292 177.654 395.962 173.153 405.464 164.368C415.883 154.733 421.401 141.03 425.585 127.41C433.553 101.488 437.804 73.5654 431.286 47.243" fill="#263238"/>
<path d="M339.05 164.035L324.997 194.758L294.24 126.977C292.79 121.492 291.156 115.308 290.823 114.074C290.327 112.177 290.152 110.211 290.306 108.256C290.408 105.829 290.846 103.428 291.606 101.121C292.523 99.0709 290.473 96.9871 288.706 97.9873C286.938 98.9875 284.288 104.655 284.371 111.774C284.455 118.892 259.666 101.888 255.648 105.922L258.649 129.761C261.366 132.245 269.035 139.096 273.302 142.88L302.308 215.062C303.934 219.505 306.797 223.39 310.56 226.256C314.323 229.123 318.829 230.853 323.543 231.24C328.258 231.628 332.985 230.657 337.166 228.443C341.347 226.229 344.806 222.864 347.135 218.747L365.822 185.806L339.05 164.035Z" fill="#FFBE9D"/>
<path d="M273.886 84.0178C274.007 83.9745 274.136 83.9572 274.264 83.9671C274.393 83.9769 274.518 84.0137 274.631 84.075C274.744 84.1364 274.843 84.2209 274.922 84.323C275 84.4252 275.056 84.5427 275.086 84.668L291.039 132.028C291.19 132.442 291.196 132.894 291.057 133.312C290.918 133.73 290.641 134.088 290.272 134.329L271.335 144.948C271.143 145.047 270.932 145.103 270.716 145.11C270.5 145.118 270.285 145.077 270.087 144.991C269.889 144.904 269.712 144.775 269.571 144.612C269.429 144.448 269.326 144.256 269.268 144.047L251.331 95.0202C251.151 94.5783 251.146 94.0849 251.316 93.6393C251.487 93.1938 251.819 92.8294 252.248 92.6197L273.886 84.0178Z" fill="#263238"/>
<path d="M274.403 87.5022L289.072 129.745L270.318 139.747L254.198 95.5206L274.403 87.5022Z" fill="#F5F5F5"/>
<path d="M257.782 98.3875C258.349 99.8378 259.283 102.172 259.866 103.622C259.934 103.793 260.035 103.948 260.163 104.078C260.292 104.209 260.446 104.312 260.615 104.382C260.785 104.452 260.967 104.488 261.15 104.486C261.334 104.484 261.515 104.445 261.683 104.372L271.685 100.188L275.136 100.688L274.169 98.8709L275.303 98.4042C275.473 98.3367 275.629 98.2355 275.759 98.1068C275.89 97.978 275.993 97.8243 276.063 97.6548C276.133 97.4852 276.168 97.3033 276.167 97.1199C276.165 96.9365 276.126 96.7553 276.053 96.5871L274.019 91.8361C273.876 91.5059 273.609 91.2454 273.275 91.1112C272.941 90.977 272.567 90.9799 272.235 91.1193L258.599 96.6205C258.427 96.6798 258.269 96.7733 258.134 96.8952C258 97.0172 257.891 97.1651 257.815 97.3301C257.738 97.4951 257.696 97.6738 257.691 97.8555C257.685 98.0372 257.716 98.2182 257.782 98.3875Z" fill="#E0E0E0"/>
<path d="M266.234 123.36L268.318 128.578C268.386 128.747 268.486 128.9 268.614 129.029C268.741 129.159 268.893 129.261 269.061 129.331C269.228 129.401 269.408 129.437 269.59 129.436C269.771 129.436 269.951 129.399 270.118 129.328L280.121 125.144L283.571 125.644L282.604 123.827L283.738 123.36C283.909 123.293 284.064 123.192 284.194 123.063C284.325 122.934 284.428 122.781 284.498 122.611C284.568 122.441 284.604 122.26 284.602 122.076C284.6 121.893 284.561 121.712 284.488 121.543L282.454 116.809C282.387 116.645 282.287 116.495 282.162 116.369C282.036 116.243 281.887 116.143 281.723 116.075C281.559 116.007 281.383 115.972 281.205 115.972C281.027 115.972 280.851 116.007 280.687 116.076L267.034 121.577C266.863 121.64 266.707 121.736 266.574 121.86C266.44 121.984 266.333 122.134 266.259 122.3C266.184 122.466 266.144 122.646 266.14 122.828C266.135 123.01 266.167 123.191 266.234 123.36Z" fill="#E0E0E0"/>
<path d="M277.904 104.289C278.537 105.706 279.571 108.023 280.171 109.44C280.245 109.607 280.284 109.787 280.287 109.97C280.29 110.153 280.256 110.334 280.188 110.503C280.119 110.673 280.018 110.827 279.889 110.956C279.76 111.086 279.606 111.188 279.437 111.257L269.435 115.425L267.385 118.242L266.751 116.258L265.634 116.758C265.467 116.83 265.287 116.867 265.105 116.869C264.923 116.871 264.742 116.837 264.574 116.769C264.405 116.7 264.251 116.6 264.121 116.472C263.992 116.344 263.888 116.192 263.817 116.025L261.85 111.24C261.716 110.906 261.718 110.533 261.855 110.2C261.992 109.867 262.253 109.6 262.584 109.457L276.07 103.589C276.236 103.511 276.416 103.468 276.599 103.462C276.782 103.455 276.964 103.485 277.135 103.551C277.306 103.616 277.462 103.715 277.594 103.842C277.726 103.969 277.831 104.121 277.904 104.289Z" fill="#E0E0E0"/>
<path d="M255.648 107.106C258.866 107.639 262.817 107.956 266.034 108.49C266.962 108.57 267.859 108.867 268.651 109.356C269.034 109.616 269.316 110 269.45 110.443C269.583 110.886 269.56 111.362 269.385 111.79C268.868 112.724 267.601 112.791 266.534 112.757C264.167 112.757 261.533 113.191 259.166 113.107C262.2 113.374 265 113.624 268.385 114.024C269.103 114.094 269.776 114.406 270.294 114.909C270.812 115.411 271.144 116.075 271.235 116.791C271.182 117.397 270.918 117.965 270.488 118.395C270.058 118.825 269.49 119.089 268.885 119.142C267.641 119.228 266.394 119.228 265.15 119.142C265.15 119.142 260.266 119.142 260.049 119.842C263.1 119.842 267.118 120.476 270.168 120.759C271.002 120.759 271.368 121.959 271.569 122.776C271.69 123.177 271.67 123.608 271.512 123.996C271.354 124.384 271.068 124.707 270.702 124.91C270.315 125.037 269.906 125.082 269.501 125.043C265.551 124.926 263.5 125.177 259.499 125.043" fill="#FFBE9D"/>
<path d="M328.814 216.696C329.121 212.887 328.987 209.056 328.414 205.277C327.554 201.55 326.262 197.936 324.563 194.508C325.371 195.328 326.031 196.281 326.514 197.326C327.82 199.766 328.747 202.391 329.264 205.111C329.803 207.856 329.91 210.668 329.581 213.446C329.52 214.566 329.261 215.667 328.814 216.696Z" fill="#EB996E"/>
<path d="M270.902 121.259C268.6 121.427 266.287 121.304 264.017 120.892C262.133 120.709 260.399 120.325 259.249 120.325C258.613 120.366 257.994 120.542 257.432 120.842C257.432 120.842 257.432 120.609 257.732 120.342C258.141 119.982 258.656 119.766 259.199 119.725C260.844 119.675 262.49 119.775 264.117 120.025C266.42 120.159 268.699 120.573 270.902 121.259Z" fill="#EB996E"/>
<path d="M269.818 114.341C267.54 114.51 265.249 114.393 263 113.991C261.133 113.807 259.416 113.407 258.299 113.441C257.182 113.474 256.632 114.124 256.532 114.024C256.432 113.924 256.848 113.074 258.199 112.84C258.94 112.74 259.691 112.74 260.433 112.84L263.066 113.124C265.359 113.246 267.627 113.655 269.818 114.341Z" fill="#EB996E"/>
<path d="M364.939 257.155C364.939 257.155 263.484 249.487 234.127 272.458C204.771 295.43 218.824 332.471 218.824 332.471H384.726L391.094 255.955L364.939 257.155Z" fill="#263238"/>
<path d="M384.026 309.85C383.53 309.861 383.033 309.828 382.543 309.75C381.576 309.633 380.142 309.5 378.325 309.25C374.658 308.783 369.357 308.033 362.838 306.932C345.869 304.014 329.082 300.118 312.561 295.263C302.909 292.396 293.74 289.545 285.288 287.395C277.82 285.464 270.183 284.253 262.484 283.778C257.293 283.49 252.086 283.792 246.964 284.678C245.13 284.911 243.763 285.361 242.813 285.528C242.331 285.656 241.841 285.75 241.346 285.811C241.805 285.624 242.279 285.474 242.763 285.361C244.122 284.95 245.502 284.61 246.897 284.344C252.037 283.32 257.282 282.922 262.517 283.161C270.265 283.553 277.954 284.714 285.472 286.628C293.974 288.679 303.159 291.629 312.811 294.413C329.297 299.252 346.023 303.231 362.922 306.332C369.407 307.499 374.691 308.349 378.325 308.916L382.526 309.566C383.526 309.733 384.026 309.833 384.026 309.85Z" fill="#455A64"/>
<path d="M288.272 286.995C285.424 284.61 282.373 282.479 279.153 280.627C275.798 279.026 272.306 277.731 268.718 276.759C269.841 276.68 270.97 276.798 272.052 277.109C274.674 277.68 277.209 278.599 279.587 279.843C281.959 281.094 284.157 282.652 286.121 284.478C286.975 285.189 287.702 286.04 288.272 286.995Z" fill="#455A64"/>
<path d="M438.371 247.603C438.371 247.603 345.568 250.12 316.212 273.092C286.855 296.063 300.908 333.105 300.908 333.105L474.946 335.739V313.317L452.374 310.883L452.208 309.85C460.959 300.264 454.291 266.857 439.722 249.237L438.371 247.603Z" fill="#263238"/>
<path d="M464.427 312.4C463.93 312.399 463.434 312.36 462.943 312.284C461.976 312.184 460.559 312.034 458.725 311.8C455.058 311.333 449.757 310.583 443.255 309.466C426.278 306.559 409.485 302.663 392.961 297.797C383.293 294.93 374.157 292.029 365.689 289.945C358.232 288.001 350.607 286.773 342.917 286.278C337.726 285.99 332.52 286.292 327.397 287.178C325.563 287.412 324.196 287.878 323.246 288.045C322.765 288.174 322.275 288.263 321.779 288.312C322.238 288.126 322.712 287.981 323.196 287.878C324.555 287.462 325.935 287.117 327.33 286.845C332.462 285.847 337.696 285.472 342.917 285.728C350.661 286.074 358.35 287.191 365.872 289.062C374.391 291.129 383.559 294.063 393.211 296.864C409.707 301.69 426.445 305.647 443.355 308.716C449.84 309.9 455.125 310.75 458.775 311.317L462.976 311.967C463.472 312.067 463.957 312.212 464.427 312.4Z" fill="#455A64"/>
<path d="M368.673 289.462C365.823 287.074 362.772 284.938 359.554 283.077C356.192 281.494 352.701 280.2 349.119 279.21C350.243 279.132 351.372 279.256 352.453 279.577C357.725 280.722 362.591 283.267 366.539 286.945C367.385 287.66 368.106 288.511 368.673 289.462Z" fill="#455A64"/>
<path d="M390.394 251.454C389.924 251.577 389.445 251.661 388.961 251.704L384.827 252.287C381.259 252.821 376.091 253.688 369.823 254.955C363.555 256.222 355.954 257.872 347.635 259.856C338.621 261.935 329.979 265.387 322.013 270.091C317.917 272.543 314.166 275.531 310.861 278.977C307.812 282.212 305.215 285.846 303.142 289.779C299.64 296.47 297.783 303.899 297.725 311.45C297.679 316.535 298.421 321.596 299.925 326.453C300.459 328.12 300.959 329.487 301.309 330.371C301.501 330.817 301.668 331.273 301.809 331.738C301.542 331.329 301.319 330.893 301.142 330.438C300.564 329.17 300.052 327.874 299.608 326.553C297.563 320.481 296.759 314.059 297.246 307.67C297.733 301.281 299.5 295.054 302.442 289.362C304.519 285.349 307.139 281.641 310.227 278.343C313.58 274.833 317.394 271.794 321.563 269.308C329.577 264.565 338.284 261.106 347.369 259.056C355.704 257.105 363.255 255.538 369.623 254.338C375.991 253.138 381.193 252.371 384.777 251.937C386.577 251.721 387.977 251.571 388.944 251.504C389.426 251.461 389.91 251.445 390.394 251.454Z" fill="#455A64"/>
<path d="M474.946 314.433L490.816 313.433L501.335 319.551L521.489 321.752C531.141 322.252 532.675 332.637 526.74 332.637C522.023 332.637 493.8 334.471 493.8 334.471L474.946 334.971V314.433Z" fill="#E0E0E0"/>
<path d="M500.735 319.585C500.045 320.183 499.202 320.575 498.301 320.718C496.143 321.259 493.871 321.118 491.796 320.315C489.722 319.512 487.947 318.087 486.715 316.234C486.141 315.528 485.782 314.672 485.682 313.767C485.798 313.767 486.215 314.634 487.215 315.884C488.495 317.506 490.186 318.754 492.112 319.499C494.039 320.244 496.13 320.458 498.168 320.118C499.751 319.868 500.685 319.451 500.735 319.585Z" fill="#455A64"/>
<path d="M525.924 332.405C525.924 332.505 525.123 332.705 523.99 332.121C523.299 331.692 522.705 331.123 522.246 330.451C521.787 329.78 521.472 329.02 521.323 328.221C520.848 326.664 520.998 324.984 521.739 323.536C522.373 322.436 523.14 322.119 523.19 322.219C523.24 322.319 522.706 322.786 522.289 323.886C521.787 325.241 521.746 326.724 522.173 328.104C522.429 329.512 523.187 330.779 524.307 331.671C525.19 332.271 525.94 332.305 525.924 332.405Z" fill="#455A64"/>
<path d="M369.59 121.309C369.59 121.309 349.802 164.802 350.969 172.187C352.136 179.572 357.921 209.045 357.921 209.045L362.105 256.988C362.105 256.988 436.838 247.937 438.388 247.937C439.938 247.937 436.054 208.278 436.054 208.278L447.44 132.062C447.44 132.062 442.222 121.676 418.684 118.075C404.597 115.892 369.59 121.309 369.59 121.309Z" fill="#407BFF"/>
<path d="M424.218 179.923C425.172 187.676 427.563 195.184 431.27 202.061C432.703 204.645 434.037 208.279 436.404 210.046C440.105 212.83 445.423 210.213 448.774 207.029C452.124 203.844 455.525 199.81 460.143 199.644C463.093 199.544 465.827 201.077 468.711 201.694C471.595 202.311 475.379 201.361 475.996 198.493C476.182 196.8 475.782 195.093 474.862 193.659C467.791 179.608 462.375 164.784 458.726 149.483C457.187 145.137 455.221 140.955 452.858 136.997C451.191 134.18 446.89 130.095 442.656 126.661" fill="#407BFF"/>
<path d="M383.693 118.425C363.121 119.141 347.701 132.744 343.317 142.546C338.166 154.049 334.165 167.952 328.131 179.021C326.776 181.082 325.726 183.328 325.013 185.689C324.68 186.885 324.719 188.153 325.124 189.326C325.529 190.499 326.281 191.521 327.28 192.257C330.381 194.091 334.882 191.707 337.733 193.924C339.3 195.124 339.766 197.258 341.067 198.758C342.734 200.542 345.351 200.909 347.735 201.176L361.621 202.676" fill="#407BFF"/>
<path d="M419.601 160.868C419.264 160.349 418.995 159.789 418.801 159.201C418.205 157.637 417.791 156.009 417.567 154.35C416.751 148.801 417.877 143.141 420.753 138.327C423.63 133.512 428.081 129.839 433.354 127.928C434.92 127.346 436.548 126.943 438.205 126.728C438.812 126.633 439.431 126.633 440.039 126.728C437.838 127.186 435.676 127.81 433.57 128.595C428.518 130.581 424.267 134.186 421.483 138.847C418.698 143.508 417.538 148.96 418.184 154.35C418.502 156.553 418.976 158.732 419.601 160.868Z" fill="#263238"/>
<path d="M363.105 143.831C362.816 144.584 362.459 145.31 362.038 145.998C361.655 146.681 361.204 147.515 360.754 148.515C360.304 149.515 359.704 150.616 359.187 151.849C357.904 154.825 356.819 157.883 355.937 161.001C354.879 164.827 354.115 168.728 353.653 172.67C353.239 176.612 353.116 180.579 353.286 184.54C353.448 187.772 353.821 190.991 354.403 194.175C354.62 195.542 354.936 196.742 355.17 197.826C355.403 198.909 355.653 199.809 355.87 200.56C356.116 201.327 356.3 202.113 356.42 202.91C356.052 202.191 355.756 201.437 355.537 200.66C355.212 199.769 354.934 198.862 354.703 197.942C354.42 196.875 354.053 195.659 353.803 194.292C353.128 191.088 352.688 187.84 352.486 184.573C351.985 176.553 352.893 168.507 355.17 160.801C356.096 157.663 357.255 154.598 358.637 151.632C359.136 150.494 359.692 149.381 360.304 148.298C360.732 147.451 361.205 146.627 361.721 145.831C362.119 145.123 362.583 144.453 363.105 143.831Z" fill="#263238"/>
<path d="M474.779 192.608C474.779 192.608 474.779 192.791 474.613 193.091C474.375 193.529 474.052 193.914 473.662 194.225C472.14 195.289 470.26 195.714 468.428 195.408C466.094 195.142 463.677 193.741 460.86 193.241C459.321 193.045 457.758 193.191 456.282 193.669C454.807 194.148 453.455 194.946 452.324 196.009C449.707 198.109 447.573 200.66 445.056 202.377C443.889 203.242 442.564 203.87 441.155 204.227C439.921 204.473 438.66 204.552 437.405 204.46C435.59 204.381 433.825 203.848 432.27 202.91C431.857 202.631 431.491 202.288 431.187 201.893C431.009 201.604 430.925 201.454 430.937 201.443C431.409 201.874 431.916 202.264 432.454 202.61C434.002 203.403 435.714 203.826 437.455 203.844C438.647 203.89 439.84 203.783 441.005 203.527C442.314 203.16 443.541 202.549 444.623 201.726C446.99 200.059 449.074 197.509 451.808 195.325C453.136 194.241 454.634 193.385 456.242 192.791C457.778 192.254 459.43 192.138 461.026 192.458C464.027 193.108 466.377 194.492 468.528 194.792C470.241 195.147 472.024 194.849 473.529 193.958C474.008 193.57 474.43 193.116 474.779 192.608Z" fill="#FAFAFA"/>
<path d="M470.011 182.856C470.01 183.018 469.97 183.178 469.895 183.323C469.707 183.745 469.428 184.121 469.078 184.423C468.394 184.946 467.602 185.309 466.759 185.485C465.917 185.661 465.046 185.645 464.21 185.44C462.076 185.09 459.876 183.689 457.242 183.556C454.322 183.6 451.49 184.556 449.14 186.29C446.54 188.04 444.306 190.107 441.989 191.674C439.969 193.151 437.625 194.122 435.154 194.508C433.459 194.769 431.725 194.543 430.153 193.858C429.574 193.636 429.054 193.283 428.636 192.825C428.636 192.825 429.203 193.158 430.303 193.558C431.826 194.075 433.457 194.189 435.037 193.892C437.391 193.455 439.607 192.466 441.505 191.008C443.739 189.457 445.939 187.373 448.623 185.573C451.12 183.734 454.141 182.746 457.242 182.756C458.58 182.879 459.891 183.211 461.126 183.739C462.153 184.184 463.212 184.552 464.293 184.84C465.054 185.056 465.852 185.107 466.635 184.99C467.417 184.872 468.165 184.587 468.828 184.156C469.286 183.786 469.685 183.347 470.011 182.856Z" fill="#FAFAFA"/>
<path d="M353.219 195.525C353.219 195.525 352.919 195.976 352.019 196.176C351.39 196.274 350.747 196.239 350.132 196.072C349.518 195.906 348.945 195.611 348.452 195.209C347.105 193.963 346.047 192.438 345.351 190.741C344.99 189.771 344.425 188.89 343.694 188.157C342.964 187.424 342.085 186.856 341.117 186.49C339.011 186.156 336.858 186.27 334.799 186.824C332.995 187.263 331.104 187.176 329.348 186.574C328.755 186.342 328.216 185.994 327.76 185.55C327.305 185.107 326.944 184.576 326.697 183.99C326.38 183.139 326.547 182.623 326.58 182.639C326.614 182.656 326.58 183.123 326.997 183.856C327.568 184.857 328.479 185.62 329.564 186.007C331.233 186.469 332.997 186.469 334.665 186.007C336.833 185.388 339.111 185.263 341.334 185.64C342.519 185.958 343.575 186.64 344.351 187.59C345.014 188.444 345.573 189.373 346.018 190.358C346.644 191.982 347.584 193.466 348.785 194.725C349.649 195.483 350.772 195.877 351.919 195.826C352.359 195.757 352.794 195.657 353.219 195.525Z" fill="#FAFAFA"/>
<path d="M350.702 185.707C350.702 185.707 350.335 185.907 349.702 185.707C348.827 185.371 348.093 184.748 347.618 183.94C347.085 182.827 346.324 181.839 345.384 181.039C344.008 180.432 342.463 180.326 341.017 180.739C339.412 181.081 337.754 181.081 336.149 180.739C334.833 180.432 333.592 179.866 332.498 179.072C331.441 178.437 330.594 177.503 330.064 176.388C330.198 176.288 330.998 177.438 332.848 178.572C335.265 180.026 338.149 180.492 340.9 179.872C342.538 179.424 344.283 179.596 345.801 180.356C346.844 181.26 347.65 182.404 348.152 183.69C348.525 184.427 349.104 185.041 349.819 185.457C350.335 185.707 350.702 185.707 350.702 185.707Z" fill="#FAFAFA"/>
<path d="M429.036 194.324C429.036 194.324 427.986 194.108 426.102 193.674C424.218 193.241 421.484 192.591 418.084 192.007C416.417 191.707 414.516 191.39 412.516 191.14C410.396 190.836 408.251 190.753 406.114 190.89C403.778 191.209 401.519 191.949 399.446 193.074C397.246 194.174 395.029 195.508 392.628 196.692C390.295 197.916 387.737 198.653 385.11 198.859C382.672 198.957 380.233 198.687 377.875 198.059C374.016 196.86 370.085 195.908 366.106 195.208C363.423 194.804 360.682 195.062 358.121 195.958C357.219 196.367 356.34 196.823 355.487 197.325C355.487 197.325 355.654 197.125 356.054 196.792C356.657 196.342 357.305 195.957 357.987 195.641C360.577 194.602 363.388 194.241 366.156 194.591C370.183 195.206 374.161 196.108 378.058 197.292C380.345 197.869 382.703 198.116 385.06 198.025C387.571 197.8 390.013 197.081 392.245 195.908C394.595 194.758 396.812 193.424 399.063 192.307C401.229 191.159 403.583 190.408 406.014 190.09C408.209 189.968 410.411 190.08 412.582 190.424C414.616 190.707 416.483 191.057 418.184 191.407C421.518 192.124 424.302 192.857 426.169 193.391C427.102 193.674 427.836 193.891 428.302 194.074C428.769 194.258 429.053 194.291 429.036 194.324Z" fill="#FAFAFA"/>
<path d="M430.753 202.693C430.753 202.693 429.752 202.293 427.985 201.543C426.218 200.793 423.618 199.759 420.35 198.759C418.577 198.195 416.759 197.783 414.916 197.525C412.814 197.345 410.698 197.624 408.715 198.342C404.464 199.793 400.379 202.91 395.378 204.877C392.927 205.812 390.317 206.265 387.693 206.211C385.287 206.159 382.888 205.903 380.525 205.444C376.606 204.549 372.629 203.931 368.623 203.593C365.931 203.423 363.233 203.768 360.671 204.61C358.871 205.26 357.987 205.877 357.937 205.81C357.887 205.744 358.137 205.61 358.554 205.327C359.184 204.926 359.848 204.58 360.538 204.293C363.118 203.3 365.878 202.857 368.639 202.993C372.683 203.235 376.702 203.793 380.659 204.66C385.093 205.41 390.227 206.011 395.062 204.077C399.896 202.143 403.964 199.076 408.398 197.592C410.493 196.858 412.726 196.602 414.933 196.842C416.815 197.114 418.668 197.56 420.467 198.176C423.057 199.046 425.59 200.076 428.052 201.26C428.919 201.676 429.586 202.026 430.019 202.276C430.28 202.384 430.527 202.524 430.753 202.693Z" fill="#FAFAFA"/>
<path d="M408.482 199.709C408.482 199.709 408.065 199.842 407.281 199.909C406.17 200 405.053 199.972 403.947 199.826C402.297 199.63 400.675 199.244 399.113 198.676C397.207 197.968 395.394 197.034 393.712 195.892C392.049 194.708 390.533 193.332 389.194 191.791C388.116 190.527 387.193 189.139 386.444 187.657C385.916 186.671 385.497 185.631 385.193 184.556C384.993 183.806 384.893 183.372 384.96 183.356C385.027 183.339 385.593 185.023 386.977 187.373C387.787 188.762 388.731 190.068 389.794 191.274C391.128 192.724 392.608 194.031 394.212 195.175C395.835 196.282 397.573 197.21 399.396 197.942C400.901 198.52 402.459 198.95 404.047 199.226C406.748 199.676 408.482 199.542 408.482 199.709Z" fill="#263238"/>
<g opacity="0.3">
<path d="M385.01 185.156C386.143 191.358 388.511 197.542 393.028 201.943C397.546 206.344 404.531 208.611 410.399 206.261C411.04 206.085 411.63 205.756 412.117 205.304C412.605 204.851 412.976 204.287 413.199 203.66C413.273 202.898 413.09 202.133 412.679 201.486C412.269 200.84 411.654 200.35 410.932 200.093C409.466 199.636 407.933 199.427 406.398 199.476C402.024 199.184 397.797 197.779 394.119 195.396C390.44 193.012 387.431 189.729 385.377 185.857" fill="black"/>
</g>
<path d="M433.887 209.895C433.566 209.378 433.324 208.816 433.17 208.228C432.753 207.177 432.187 205.644 431.503 203.743C430.17 199.926 428.452 194.641 426.719 188.74C424.985 182.839 423.601 177.438 422.668 173.52C422.201 171.553 421.851 169.969 421.634 168.853C421.487 168.308 421.403 167.749 421.384 167.186C421.655 167.711 421.852 168.272 421.968 168.853C422.334 170.119 422.768 171.636 423.268 173.437C424.335 177.321 425.835 182.672 427.552 188.573C429.269 194.475 430.886 199.776 432.087 203.577C432.62 205.36 433.087 206.911 433.47 208.144C433.673 208.711 433.813 209.298 433.887 209.895Z" fill="#263238"/>
<path d="M358.637 257.622C358.637 257.622 373.04 242.185 385.643 239.151C398.246 236.117 443.389 220.164 443.389 220.164L440.538 211.178C443.443 210.87 446.137 209.519 448.123 207.377L451.04 204.477C455.008 200.143 459.792 197.809 466.727 200.159L471.095 201.46L475.646 214.796C476.707 217.906 477.066 221.212 476.699 224.477C476.331 227.743 475.246 230.886 473.52 233.683C471.795 236.479 469.472 238.859 466.718 240.652C463.964 242.445 460.847 243.606 457.592 244.052L358.637 257.622Z" fill="#FFBE9D"/>
<path d="M462.11 222.081C459.122 221.085 456.055 220.349 452.941 219.88C449.816 219.692 446.681 219.781 443.572 220.147C446.602 219.066 449.836 218.679 453.036 219.013C456.235 219.348 459.319 220.396 462.06 222.081H462.11Z" fill="#EB996E"/>
<path d="M360.804 46.6096C359.588 25.6717 386.86 10.9686 405.481 16.2197C422.968 21.2208 430.486 29.856 433.303 41.5585C436.121 53.261 436.037 65.9304 431.453 77.0828C429.186 82.5673 425.118 88.1518 419.217 88.7519" fill="#263238"/>
<path d="M416.633 33.757C418.111 33.9115 419.477 34.6162 420.459 35.7311C421.441 36.846 421.968 38.2895 421.934 39.7749L418.6 120.042C418.484 129.528 404.631 134.879 394.495 134.662C384.243 134.445 383.893 129.428 383.743 120.409C383.51 105.406 383.51 99.6878 383.51 99.7712C383.51 99.8545 370.523 97.6207 367.923 80.6837C366.589 72.3486 367.006 58.4956 367.723 47.2432C368.356 37.1077 375.074 24.655 385.177 25.7386L416.633 33.757Z" fill="#FFBE9D"/>
<path d="M372.023 58.2294C372.023 58.7916 372.239 59.3324 372.627 59.7392C373.015 60.146 373.546 60.3874 374.107 60.4132C374.383 60.4359 374.66 60.403 374.923 60.3166C375.185 60.2302 375.428 60.092 375.636 59.9101C375.845 59.7283 376.014 59.5065 376.135 59.2579C376.256 59.0092 376.326 58.7389 376.341 58.4628C376.35 57.8964 376.137 57.349 375.748 56.9377C375.358 56.5264 374.823 56.284 374.257 56.2623C373.981 56.2419 373.703 56.2769 373.44 56.3652C373.178 56.4536 372.935 56.5934 372.727 56.7766C372.519 56.9598 372.35 57.1826 372.229 57.4321C372.108 57.6815 372.038 57.9526 372.023 58.2294Z" fill="#263238"/>
<path d="M370.624 54.445C370.89 54.7283 372.541 53.5281 374.858 53.5281C377.175 53.5281 378.909 54.695 379.159 54.4116C379.409 54.1282 379.009 53.7781 378.259 53.228C377.25 52.5307 376.05 52.1637 374.824 52.1778C373.626 52.1729 372.457 52.5527 371.49 53.2614C370.74 53.8115 370.49 54.3283 370.624 54.445Z" fill="#263238"/>
<path d="M394.812 58.2294C394.811 58.7944 395.03 59.3376 395.421 59.7448C395.813 60.1521 396.347 60.3916 396.912 60.4132C397.187 60.4336 397.463 60.3991 397.725 60.3119C397.987 60.2246 398.229 60.0862 398.436 59.9048C398.644 59.7233 398.814 59.5024 398.936 59.2549C399.057 59.0074 399.129 58.7381 399.146 58.4628C399.151 57.8976 398.936 57.3526 398.548 56.9423C398.159 56.5319 397.627 56.2882 397.062 56.2623C396.785 56.2419 396.506 56.2768 396.242 56.3649C395.979 56.453 395.735 56.5926 395.526 56.7756C395.316 56.9586 395.145 57.1813 395.023 57.4309C394.9 57.6804 394.828 57.9519 394.812 58.2294Z" fill="#263238"/>
<path d="M393.545 54.8947C393.812 55.1781 395.462 53.9612 397.779 53.9612C400.096 53.9612 401.83 55.1281 402.08 54.8447C402.33 54.5613 401.93 54.2113 401.18 53.6611C400.168 52.9707 398.971 52.6044 397.746 52.6109C396.547 52.6061 395.379 52.9858 394.412 53.6945C393.662 54.2446 393.412 54.7614 393.545 54.8947Z" fill="#263238"/>
<path d="M385.076 72.1816C383.849 71.7946 382.577 71.5649 381.292 71.4981C380.692 71.4981 380.142 71.3148 380.042 70.9147C379.981 70.3001 380.116 69.682 380.425 69.1476L382.192 64.6133C384.643 58.1619 386.41 52.8441 386.143 52.7441C384.222 56.4529 382.589 60.304 381.259 64.2633C380.675 65.9303 380.108 67.3806 379.592 68.8309C379.211 69.5465 379.105 70.3762 379.292 71.1647C379.373 71.3751 379.503 71.5633 379.671 71.7139C379.839 71.8645 380.04 71.9734 380.258 72.0316C380.591 72.1164 380.932 72.1667 381.275 72.1816C382.537 72.3379 383.814 72.3379 385.076 72.1816Z" fill="#263238"/>
<path d="M383.476 99.7717C391.43 99.8924 399.261 97.8034 406.098 93.737C406.098 93.737 400.613 105.406 383.693 103.739L383.476 99.7717Z" fill="#EB996E"/>
<path d="M386.06 77.8002C386.504 77.2416 387.083 76.8048 387.742 76.5308C388.4 76.2567 389.118 76.1543 389.827 76.2332C390.343 76.2807 390.844 76.4323 391.299 76.6787C391.755 76.9251 392.156 77.2612 392.478 77.6668C392.791 78.0524 392.977 78.5257 393.01 79.0213C393.043 79.5169 392.921 80.0105 392.661 80.4341C392.29 80.8555 391.801 81.1556 391.257 81.2953C390.713 81.435 390.139 81.408 389.611 81.2176C388.508 80.8265 387.493 80.2202 386.627 79.4339C386.368 79.2447 386.143 79.0137 385.96 78.7504C385.879 78.6205 385.835 78.4703 385.835 78.317C385.835 78.1637 385.879 78.0135 385.96 77.8835" fill="#EB996E"/>
<path d="M391.945 73.7993C391.561 73.7993 391.561 76.2999 389.394 78.1003C387.227 79.9006 384.526 79.6173 384.51 79.9673C384.493 80.3174 385.11 80.4674 386.177 80.5008C387.664 80.5159 389.109 80.0085 390.261 79.0671C391.359 78.1677 392.065 76.8765 392.228 75.4664C392.395 74.3995 392.111 73.7827 391.945 73.7993Z" fill="#263238"/>
<path d="M392.495 50.8104C392.729 51.4438 395.046 51.1438 397.78 51.4605C400.514 51.7772 402.781 52.5441 403.098 51.9773C403.264 51.7105 402.881 51.1104 401.981 50.4936C400.793 49.74 399.449 49.2673 398.05 49.1113C396.652 48.9553 395.237 49.1202 393.912 49.5934C392.929 50.0102 392.395 50.5103 392.495 50.8104Z" fill="#263238"/>
<path d="M371.474 47.7101C371.891 48.2268 373.491 47.7101 375.425 47.7101C377.359 47.7101 378.992 48.0601 379.376 47.51C379.542 47.2433 379.276 46.7098 378.559 46.2097C377.607 45.5975 376.489 45.2947 375.358 45.3429C374.221 45.3525 373.117 45.7264 372.208 46.4098C371.524 46.8932 371.257 47.4433 371.474 47.7101Z" fill="#263238"/>
<path d="M393.512 20.1547C387.765 20.4334 382.182 22.1532 377.275 25.1558C374.518 26.5681 372.067 28.5118 370.065 30.875C368.062 33.2382 366.547 35.9742 365.606 38.9254C365.37 39.5351 365.26 40.1862 365.283 40.8395C365.306 41.4928 365.461 42.1347 365.739 42.7263C366.274 43.4064 367.03 43.8784 367.876 44.061C368.722 44.2436 369.605 44.1253 370.373 43.7265C371.888 42.8877 373.179 41.6988 374.141 40.2591C374.551 41.8194 375.471 43.198 376.754 44.1756C378.037 45.1532 379.611 45.6738 381.224 45.6547C382.837 45.6355 384.398 45.0777 385.658 44.0699C386.917 43.062 387.804 41.662 388.177 40.0924C388.305 41.712 389.052 43.2202 390.262 44.3036C391.473 45.3871 393.055 45.9625 394.678 45.9103C396.303 45.7712 397.852 45.1584 399.132 44.148C400.412 43.1376 401.367 41.7739 401.88 40.2257C402.265 43.1835 403.277 46.0251 404.847 48.5609C405.65 49.8011 406.815 50.7651 408.183 51.3226C409.551 51.88 411.058 52.0042 412.499 51.6782C411.886 54.1633 411.926 56.7648 412.616 59.2298C413.499 61.6303 417.617 113.341 420.051 112.575C422.484 111.808 421.818 59.2298 422.368 56.7959C423.563 52.1733 424.168 47.4177 424.168 42.6429C424.327 37.7329 422.739 32.9258 419.686 29.0766C416.634 25.2275 412.315 22.5859 407.498 21.6217C402.68 20.513 397.734 20.0588 392.795 20.2714" fill="#263238"/>
<path d="M334.699 87.0688C334.699 87.0688 334.516 86.7688 334.033 86.302C333.338 85.6148 332.446 85.1605 331.482 85.0017C330.736 84.8579 329.968 84.868 329.225 85.0314C328.483 85.1948 327.782 85.508 327.165 85.9519C326.407 86.6042 325.831 87.4412 325.492 88.3817C325.153 89.3222 325.063 90.3342 325.231 91.3197C325.382 92.4751 325.817 93.5749 326.498 94.5204C327.271 95.5179 328.279 96.3083 329.432 96.8209C330.717 97.3813 332.105 97.6705 333.508 97.6705C334.91 97.6705 336.298 97.3813 337.583 96.8209C340.458 95.5229 342.937 93.4868 344.768 90.9197C346.796 88.1896 348.356 85.142 349.386 81.9011C351.586 75.233 352.187 68.4648 353.103 62.3969C353.787 56.973 355.224 51.6709 357.371 46.6435C358.849 43.2376 361.044 40.1901 363.806 37.7082C364.574 37.0399 365.394 36.4324 366.256 35.8912C366.542 35.695 366.85 35.5327 367.173 35.4077C367.173 35.4077 365.956 36.1746 364.039 37.8916C361.404 40.4151 359.321 43.4575 357.921 46.8269C355.873 51.826 354.515 57.081 353.887 62.4469C353.003 68.4982 352.437 75.2996 350.186 82.1011C349.132 85.4346 347.526 88.5677 345.435 91.3698C343.496 94.0379 340.892 96.1527 337.883 97.5044C336.5 98.1074 335.008 98.4187 333.499 98.4187C331.99 98.4187 330.498 98.1074 329.115 97.5044C327.863 96.924 326.775 96.0419 325.948 94.9372C325.209 93.8969 324.744 92.6871 324.597 91.4198C324.435 90.3365 324.56 89.2298 324.957 88.2093C325.355 87.1888 326.012 86.29 326.864 85.6018C327.537 85.1345 328.299 84.813 329.103 84.6579C329.907 84.5029 330.734 84.5178 331.532 84.7017C332.541 84.9142 333.456 85.4391 334.149 86.202C334.392 86.4485 334.58 86.7441 334.699 87.0688Z" fill="#263238"/>
<path d="M424.318 114.775C424.318 114.675 425.302 114.241 426.936 113.108C429.206 111.462 431.146 109.404 432.653 107.04C434.886 103.531 436.346 99.5874 436.938 95.4708C437.566 90.4021 437.346 85.2641 436.288 80.2675C435.254 74.933 433.72 69.9486 432.403 65.3977C431.086 60.8467 429.953 56.6958 429.286 53.1617C428.741 50.3688 428.418 47.5371 428.319 44.6932C428.319 43.693 428.319 42.9095 428.319 42.376C428.302 42.1065 428.33 41.836 428.403 41.5759C428.486 41.5759 428.403 42.6928 428.619 44.6765C428.835 47.4793 429.242 50.2641 429.836 53.0117C430.586 56.4958 431.737 60.5966 433.17 65.1309C434.751 70.06 436.076 75.0678 437.138 80.1342C438.227 85.218 438.425 90.4526 437.721 95.6041C437.086 99.824 435.533 103.853 433.17 107.407C431.583 109.798 429.524 111.841 427.119 113.408C426.47 113.835 425.783 114.203 425.069 114.508C424.827 114.62 424.576 114.709 424.318 114.775Z" fill="#263238"/>
<path d="M427.336 103.922C427.154 104.056 426.951 104.157 426.736 104.223C426.142 104.438 425.527 104.589 424.902 104.673C422.543 104.915 420.167 104.42 418.1 103.256C415.044 101.496 412.728 98.6892 411.582 95.354C410.208 91.3271 409.758 87.0425 410.265 82.8179C410.666 78.3503 411.482 74.1994 411.849 70.3819C412.216 66.5644 412.433 63.1137 412.499 60.2131C412.566 57.3124 412.499 54.9619 412.499 53.3282C412.427 52.4907 412.427 51.6486 412.499 50.8111C412.684 51.6326 412.79 52.4699 412.816 53.3116C412.949 54.9786 413.083 57.2958 413.099 60.2297C413.115 63.6472 412.959 67.0634 412.633 70.4653C412.299 74.3161 411.516 78.5003 411.116 82.9013C410.619 86.9967 411.029 91.151 412.316 95.0705C413.375 98.2607 415.531 100.972 418.401 102.722C420.343 103.893 422.585 104.472 424.852 104.389C426.469 104.206 427.302 103.839 427.336 103.922Z" fill="#263238"/>
<path d="M318.296 119.159C318.283 118.592 318.373 118.027 318.562 117.492C319.086 116.015 320.053 114.734 321.33 113.825C323.341 112.358 325.743 111.522 328.231 111.424C331.098 111.158 334.349 111.574 337.867 111.424C341.713 111.078 345.421 109.821 348.686 107.757C352.414 105.354 355.604 102.203 358.054 98.5049C360.734 94.3973 362.617 89.8223 363.605 85.0186C364.666 79.8437 365.108 74.5611 364.922 69.2819C364.922 63.8474 364.172 58.5796 363.855 53.4118C363.368 48.4372 363.684 43.4166 364.789 38.542C365.814 34.3876 367.994 30.6081 371.077 27.6405C374.159 24.6728 378.019 22.6382 382.209 21.7717C385.418 21.134 388.729 21.2308 391.895 22.0551C394.263 22.6693 396.516 23.666 398.563 25.0057C399.856 25.8442 401.052 26.8225 402.13 27.923C402.514 28.3064 402.747 28.6232 402.93 28.8232C403.114 29.0233 403.197 29.14 403.181 29.1566C401.721 27.7023 400.111 26.406 398.38 25.2891C396.319 24.017 394.067 23.0827 391.711 22.5219C388.611 21.7731 385.382 21.7218 382.259 22.3718C378.491 23.1959 375.004 24.9886 372.141 27.5729C368.834 30.538 366.508 34.4395 365.472 38.7587C364.42 43.5509 364.127 48.4788 364.606 53.3618C364.956 58.4796 365.622 63.7807 365.722 69.2652C365.89 74.6126 365.432 79.9613 364.356 85.202C363.337 90.1069 361.397 94.7738 358.638 98.955C356.113 102.734 352.825 105.942 348.986 108.374C345.616 110.473 341.791 111.731 337.833 112.041C334.199 112.241 330.982 111.774 328.181 112.041C325.795 112.115 323.48 112.873 321.513 114.225C320.25 115.07 319.273 116.279 318.712 117.692C318.362 118.593 318.362 119.159 318.296 119.159Z" fill="#455A64"/>
<path d="M401.864 16.6035C401.864 16.5201 402.681 16.8869 403.531 17.9038C404.693 19.2577 405.399 20.9434 405.548 22.7215C405.699 24.5018 405.291 26.2851 404.381 27.8226C403.664 28.9728 402.981 29.4896 402.914 29.4896C402.847 29.4896 403.314 28.7561 403.831 27.6059C404.536 26.1365 404.835 24.5054 404.697 22.8815C404.559 21.2576 403.99 19.7001 403.047 18.3705C402.381 17.237 401.78 16.7035 401.864 16.6035Z" fill="#455A64"/>
<path d="M435.154 59.8294C434.945 59.1659 434.794 58.4854 434.704 57.7956C434.454 56.462 434.103 54.5616 433.587 52.2111C433.07 49.8606 432.453 47.06 431.62 44.0093C431.203 42.4757 430.736 40.8753 430.153 39.2583C429.602 37.6018 428.791 36.0432 427.752 34.6407C425.763 31.8869 423.043 29.7446 419.9 28.456C417.331 27.4241 414.519 27.1521 411.799 27.6725C409.952 27.998 408.193 28.7018 406.631 29.7396C406.097 30.1741 405.54 30.5803 404.964 30.9565C404.964 30.9565 405.064 30.7898 405.297 30.5231C405.651 30.1356 406.042 29.7839 406.464 29.4729C408.006 28.2886 409.795 27.468 411.699 27.0724C414.538 26.4379 417.502 26.6583 420.217 27.7058C423.523 29.0158 426.386 31.2424 428.469 34.1239C429.561 35.5937 430.406 37.2324 430.969 38.9749C431.553 40.642 432.003 42.309 432.42 43.7926C433.203 46.8933 433.787 49.7106 434.203 52.1278C434.62 54.5449 434.92 56.4287 435.054 57.779C435.176 58.4552 435.21 59.1445 435.154 59.8294Z" fill="#455A64"/>
<path d="M403.597 30.0557C401.77 29.8542 399.977 29.4172 398.263 28.7555C396.404 28.137 394.497 27.6742 392.562 27.3718C390.217 27.0317 387.824 27.2956 385.61 28.1387C383.396 28.9657 381.432 30.3494 379.909 32.1562C378.669 33.6188 377.744 35.3212 377.192 37.1573C376.745 38.9012 376.504 40.6917 376.475 42.4917C376.284 42.0268 376.193 41.527 376.208 41.0248C376.126 39.6683 376.255 38.3073 376.591 36.9906C377.078 35.0065 378.001 33.1557 379.292 31.5727C380.878 29.6199 382.955 28.124 385.31 27.2385C387.659 26.3519 390.199 26.0934 392.678 26.4883C394.654 26.8622 396.591 27.4203 398.463 28.1553C401.63 29.3723 403.631 29.939 403.597 30.0557Z" fill="#455A64"/>
<path d="M739.203 595.295C740.687 590.194 743.837 585.293 748.738 583.142C753.639 580.992 759.707 582.192 764.909 584.092C770.11 585.993 775.227 588.51 780.745 588.843C786.263 589.177 792.514 586.576 794.165 581.292C795.715 576.291 792.714 571.023 788.98 567.405C785.017 563.599 780.159 560.85 774.855 559.412C769.551 557.973 763.97 557.892 758.626 559.176C753.282 560.459 748.347 563.065 744.274 566.755C740.201 570.445 737.122 575.1 735.319 580.291" fill="#263238"/>
<path d="M695.427 617.466C687.325 609.764 687.725 596.361 691.776 585.926C695.827 575.49 704.646 567.505 714.498 562.221C724.123 557.171 734.767 554.366 745.632 554.017C756.496 553.668 767.298 555.783 777.228 560.204C772.367 560.411 767.632 561.807 763.435 564.268C759.239 566.73 755.71 570.182 753.156 574.323C748.722 581.708 747.722 590.66 744.054 598.462C739.919 607.249 732.572 614.116 723.527 617.652C714.481 621.187 704.425 621.12 695.427 617.466Z" fill="#455A64"/>
<path d="M691.542 571.223C682.557 560.637 681.357 543.633 682.69 529.814C684.024 515.994 687.208 502.074 685.024 488.355C683.741 480.236 680.59 472.485 679.523 464.316C678.456 456.148 679.973 446.946 686.291 441.678C693.559 435.627 704.995 437.06 712.547 442.728C720.098 448.396 724.483 457.348 727.683 466.233C734.668 485.771 737.285 507.442 731.518 527.447C725.75 547.451 712.197 565.238 692.309 571.256" fill="#455A64"/>
<path d="M687.225 658.158C687.181 657.753 687.181 657.345 687.225 656.941C687.225 656.141 687.225 654.957 687.225 653.44C687.325 650.39 687.608 645.989 688.292 640.604C689.075 634.276 690.222 627.997 691.726 621.8C693.585 614.189 696.468 606.865 700.295 600.029C704.14 593.2 708.859 586.901 714.331 581.291C718.774 576.697 723.704 572.6 729.034 569.072C731.268 567.522 733.452 566.355 735.319 565.255C737.186 564.154 738.903 563.438 740.32 562.787L743.554 561.437C743.923 561.262 744.308 561.123 744.704 561.02C744.369 561.246 744.012 561.436 743.637 561.587L740.47 563.088C739.136 563.788 737.486 564.655 735.602 565.688C733.718 566.722 731.635 568.005 729.417 569.589C724.18 573.157 719.33 577.264 714.948 581.842C709.571 587.436 704.922 593.687 701.111 600.446C692.776 614.882 690.592 630.035 688.942 640.671C688.192 646.055 687.808 650.423 687.608 653.457C687.508 654.891 687.442 656.057 687.392 656.941C687.382 657.352 687.327 657.76 687.225 658.158Z" fill="#263238"/>
<path d="M609.808 529.431C593.138 539.433 593.255 548.568 596.039 557.187C598.823 565.805 608.992 571.773 617.443 568.556C622.228 566.722 625.678 562.571 628.646 558.404C631.613 554.236 634.364 549.768 638.515 546.734C642.665 543.7 648.65 542.6 652.818 545.567" fill="#263238"/>
<path d="M597.389 540.416C601.723 534.414 612.392 532.681 619.227 535.681C626.062 538.682 630.896 544.616 635.397 550.534C639.898 556.452 644.165 562.72 650.317 566.838C656.468 570.955 665.053 572.456 671.188 568.305C673.145 566.85 674.784 565.009 676.003 562.896C677.221 560.782 677.994 558.442 678.273 556.019C678.818 551.177 678.49 546.276 677.306 541.549C675.839 534.581 673.438 527.313 667.87 522.878C661.669 517.961 653.051 517.727 645.116 517.977C636.014 518.277 626.778 518.961 618.26 522.112C609.741 525.262 601.006 532.114 597.389 540.449" fill="#455A64"/>
<path d="M673.422 644.856C673.345 644.382 673.306 643.902 673.306 643.422L673.156 639.304C673.056 635.637 672.889 630.486 672.705 624.151C672.522 617.816 672.222 610.131 671.772 601.68C671.322 593.228 670.655 583.942 669.371 574.29C668.837 569.59 667.922 564.94 666.638 560.387C665.318 556.184 663.616 552.111 661.553 548.218C658.123 541.574 653.585 535.565 648.134 530.448C644.44 527.024 640.26 524.165 635.731 521.962C634.506 521.34 633.248 520.783 631.963 520.295C631.506 520.147 631.064 519.951 630.646 519.712C631.11 519.822 631.567 519.961 632.013 520.129C633.336 520.537 634.629 521.038 635.881 521.629C640.51 523.735 644.784 526.547 648.55 529.964C654.117 535.071 658.754 541.106 662.253 547.801C664.363 551.725 666.099 555.838 667.438 560.087C668.759 564.686 669.696 569.386 670.238 574.14C671.522 583.842 672.139 593.144 672.572 601.613C673.006 610.081 673.189 617.683 673.322 624.101C673.456 630.519 673.489 635.687 673.489 639.254V643.389C673.508 643.879 673.486 644.369 673.422 644.856Z" fill="#263238"/>
<path d="M679.406 652.356C678.599 650.037 677.98 647.657 677.556 645.238C676.402 638.635 676.139 631.907 676.773 625.234C677.782 615.337 679.901 605.584 683.091 596.161C686.508 585.475 691.126 574.039 695.077 561.77C697.024 555.807 698.616 549.734 699.844 543.583C700.936 537.844 701.721 532.051 702.195 526.229C702.956 516.352 703.139 506.438 702.745 496.539C702.461 488.088 702.028 481.253 701.745 476.535C701.611 474.235 701.511 472.401 701.445 471.101C701.445 470.517 701.445 470.05 701.445 469.684C701.415 469.524 701.415 469.36 701.445 469.2C701.452 469.356 701.452 469.511 701.445 469.667C701.445 470.034 701.528 470.5 701.595 471.084C701.711 472.384 701.861 474.201 702.061 476.518C702.445 481.236 702.978 488.071 703.345 496.523C703.826 506.445 703.703 516.388 702.978 526.296C702.523 532.151 701.75 537.978 700.661 543.75C699.445 549.953 697.853 556.077 695.893 562.087C691.926 574.406 687.275 585.809 683.841 596.461C680.633 605.825 678.464 615.513 677.373 625.35C676.684 631.985 676.852 638.68 677.873 645.271C678.273 647.605 678.64 649.406 678.973 650.606C679.106 651.173 679.206 651.623 679.306 651.989C679.352 652.108 679.385 652.231 679.406 652.356Z" fill="#263238"/>
<path d="M720.565 659.858H642.599L640.815 644.855H720.565V659.858Z" fill="#263238"/>
<path d="M650.967 658.157L660.719 703.184H703.078L712.197 658.157H650.967Z" fill="#263238"/>
<path d="M720.565 659.858C720.565 660.108 703.428 660.259 682.224 660.192C661.019 660.125 643.882 659.892 643.882 659.642C643.882 659.392 661.019 659.258 682.224 659.325C703.428 659.392 720.565 659.625 720.565 659.858Z" fill="#455A64"/>
<path d="M707.179 682.08C705.047 680.525 702.742 679.222 700.311 678.195C697.653 677.151 694.831 676.587 691.976 676.528C688.474 676.542 685.002 677.179 681.724 678.412C678.173 679.612 674.856 681.013 671.605 681.746C668.728 682.37 665.761 682.455 662.853 681.996C660.893 681.714 658.994 681.105 657.235 680.196C656.765 679.939 656.314 679.649 655.885 679.329C655.601 679.112 655.451 678.979 655.468 678.962C657.788 680.237 660.327 681.063 662.953 681.396C665.784 681.742 668.654 681.601 671.438 680.979C674.539 680.196 677.856 678.779 681.44 677.562C684.82 676.335 688.397 675.741 691.993 675.812C694.931 675.906 697.826 676.551 700.528 677.712C702.35 678.472 704.061 679.475 705.612 680.696C706.036 681.018 706.437 681.369 706.812 681.746C707.079 681.913 707.213 682.063 707.179 682.08Z" fill="#455A64"/>
<path d="M706.596 685.097C704.515 683.583 702.28 682.293 699.928 681.247C697.375 680.202 694.651 679.637 691.893 679.58C688.513 679.591 685.162 680.194 681.991 681.363C678.557 682.513 675.323 683.847 672.239 684.697C669.534 685.484 666.715 685.8 663.904 685.631C661.981 685.517 660.102 685.006 658.386 684.13C657.929 683.891 657.494 683.612 657.086 683.297C656.802 683.08 656.669 682.947 656.685 682.93C656.702 682.914 657.336 683.297 658.536 683.83C660.248 684.553 662.079 684.954 663.937 685.014C666.701 685.098 669.459 684.732 672.105 683.93C675.106 683.08 678.307 681.73 681.774 680.596C685.039 679.393 688.497 678.794 691.976 678.829C696.766 678.959 701.381 680.658 705.113 683.664C705.629 684.097 706.013 684.447 706.263 684.697C706.513 684.947 706.613 685.064 706.596 685.097Z" fill="white"/>
<path d="M707.996 679.145C705.781 677.549 703.413 676.176 700.928 675.044C698.215 673.88 695.323 673.186 692.376 672.994C688.765 672.92 685.175 673.554 681.807 674.861C678.388 676.206 674.893 677.347 671.338 678.278C668.349 678.798 665.293 678.798 662.303 678.278C660.288 677.952 658.333 677.329 656.502 676.428C656.014 676.168 655.546 675.873 655.102 675.545C654.802 675.311 654.652 675.178 654.668 675.161C654.685 675.144 655.368 675.545 656.652 676.128C658.493 676.894 660.427 677.415 662.403 677.678C665.322 678.095 668.289 678.033 671.188 677.495C674.406 676.795 677.857 675.278 681.524 674.044C684.996 672.699 688.705 672.069 692.426 672.194C695.456 672.432 698.419 673.205 701.178 674.478C703.032 675.307 704.773 676.365 706.363 677.628C706.799 677.967 707.216 678.329 707.613 678.712C707.846 678.929 707.996 679.145 707.996 679.145Z" fill="white"/>
<path d="M162.879 631.203C159.545 636.004 152.993 634.403 149.959 631.469C146.925 628.535 145.659 624.301 144.492 620.25C141.824 610.998 139.14 601.296 141.158 591.911C141.615 589.026 142.874 586.329 144.792 584.126C145.749 583.045 146.974 582.236 148.344 581.779C149.713 581.323 151.179 581.235 152.593 581.525C155.927 582.392 157.945 585.609 159.428 588.677C163.773 597.744 166.05 607.662 166.096 617.716C166.096 622.401 165.563 627.302 162.912 631.169" fill="#407BFF"/>
<g opacity="0.2">
<path d="M162.879 631.203C159.545 636.004 152.993 634.403 149.959 631.469C146.925 628.535 145.659 624.301 144.492 620.25C141.824 610.998 139.14 601.296 141.158 591.911C141.615 589.026 142.874 586.329 144.792 584.126C145.749 583.045 146.974 582.236 148.344 581.779C149.713 581.323 151.179 581.235 152.593 581.525C155.927 582.392 157.945 585.609 159.428 588.677C163.773 597.744 166.05 607.662 166.096 617.716C166.096 622.401 165.563 627.302 162.912 631.169" fill="black"/>
</g>
<path d="M150.343 655.507C144.708 652.867 138.377 652.096 132.273 653.307C128.933 653.599 125.787 655.002 123.337 657.291C121.12 659.758 120.687 664.092 123.337 666.209C124.987 667.323 126.975 667.825 128.955 667.626C133.74 667.626 139.041 666.743 142.858 669.61C145.025 671.277 146.476 673.978 149.093 674.778C150.394 675.08 151.758 674.951 152.979 674.41C154.2 673.868 155.212 672.944 155.861 671.777C157.103 669.382 157.378 666.601 156.628 664.009C156.31 662.202 155.576 660.494 154.486 659.018C153.395 657.543 151.977 656.341 150.343 655.507Z" fill="#407BFF"/>
<path d="M172.164 638.086C170.437 635.831 169.286 633.189 168.812 630.388C168.339 627.587 168.557 624.713 169.447 622.016C171.282 616.619 174.577 611.835 178.966 608.196C183.945 603.785 189.738 600.387 196.019 598.194C198.451 597.211 201.067 596.767 203.688 596.894C204.996 596.965 206.267 597.356 207.389 598.034C208.511 598.711 209.45 599.653 210.122 600.778C211.906 604.196 210.122 608.346 208.322 611.731C205.052 617.703 201.311 623.405 197.136 628.784C193.802 633.118 189.935 637.386 184.817 639.336C179.699 641.287 174.381 641.003 171.681 637.519" fill="#407BFF"/>
<path d="M163.162 703.601C162.98 702.892 162.879 702.165 162.862 701.434C162.696 699.767 162.512 697.85 162.279 695.466C162.046 693.082 161.629 689.981 160.945 686.747C160.161 683.228 159.096 679.778 157.761 676.428C156.461 673.089 154.693 669.952 152.51 667.11C150.723 664.796 148.446 662.906 145.842 661.575C144.075 660.726 142.185 660.163 140.241 659.908C139.51 659.867 138.785 659.761 138.074 659.591C138.81 659.501 139.555 659.501 140.291 659.591C142.312 659.738 144.289 660.252 146.125 661.108C148.867 662.399 151.27 664.312 153.144 666.693C155.426 669.57 157.264 672.773 158.595 676.195C159.954 679.59 161.008 683.099 161.745 686.681C162.315 689.599 162.704 692.55 162.912 695.516C163.096 698.05 163.179 700.083 163.212 701.5C163.274 702.2 163.257 702.905 163.162 703.601Z" fill="#263238"/>
<path d="M162.746 699.033C162.703 698.695 162.703 698.354 162.746 698.016V695.115C162.746 692.615 162.746 688.981 162.629 684.48C162.396 675.511 161.629 663.109 160.129 649.472C158.628 635.836 156.628 623.6 154.811 614.798C154.394 612.598 153.961 610.614 153.544 608.88C153.127 607.146 152.827 605.629 152.51 604.429C152.194 603.229 152.01 602.345 151.827 601.612C151.734 601.286 151.678 600.95 151.66 600.612C151.819 600.911 151.936 601.231 152.01 601.562L152.844 604.329C153.227 605.529 153.611 607.03 154.044 608.763C154.477 610.497 154.978 612.464 155.444 614.665C157.928 626.125 159.792 637.711 161.029 649.372C162.529 663.025 163.196 675.461 163.263 684.463C163.263 688.964 163.263 692.598 163.096 695.115C163.096 696.282 162.963 697.249 162.929 697.999C162.916 698.351 162.854 698.698 162.746 699.033Z" fill="#263238"/>
<path d="M162.695 675.061C162.615 674.051 162.615 673.037 162.695 672.027C162.812 670.093 163.079 667.276 163.629 663.842C165.11 654.878 167.68 646.128 171.28 637.786C174.736 629.351 179.701 621.617 185.933 614.965C187.014 613.825 188.166 612.756 189.384 611.764C189.901 611.314 190.368 610.864 190.851 610.514L192.185 609.597C192.987 608.971 193.84 608.413 194.735 607.93C191.811 610.24 189.028 612.722 186.4 615.365C180.391 622.085 175.561 629.773 172.114 638.103C170.143 642.657 168.473 647.334 167.113 652.106C165.812 656.49 164.946 660.524 164.279 663.925C163.612 667.326 163.295 670.11 163.079 672.027C163.018 673.046 162.89 674.059 162.695 675.061Z" fill="#263238"/>
</svg>
