<svg width="863" height="863" viewBox="0 0 863 863" fill="none" xmlns="http://www.w3.org/2000/svg">
<path d="M863 660.022H0V660.454H863V660.022Z" fill="#EBEBEB"/>
<path d="M147.711 676.454H90.5459V676.886H147.711V676.454Z" fill="#EBEBEB"/>
<path d="M391.043 671.776H295.388V672.208H391.043V671.776Z" fill="#EBEBEB"/>
<path d="M190.188 686.706H157.066V687.138H190.188V686.706Z" fill="#EBEBEB"/>
<path d="M739.85 676.247H665.304V676.678H739.85V676.247Z" fill="#EBEBEB"/>
<path d="M766.154 676.247H755.229V676.678H766.154V676.247Z" fill="#EBEBEB"/>
<path d="M559.31 682.305H478.464V682.737H559.31V682.305Z" fill="#EBEBEB"/>
<path d="M409.062 583.043H75.7889C73.178 583.038 70.6757 581.998 68.8312 580.15C66.9867 578.302 65.9507 575.798 65.9507 573.187V104.699C65.9734 102.103 67.0194 99.6213 68.8615 97.7921C70.7036 95.963 73.1929 94.9345 75.7889 94.9301H409.062C411.676 94.9301 414.183 95.9684 416.031 97.8167C417.879 99.6649 418.918 102.172 418.918 104.786V573.187C418.918 575.801 417.879 578.308 416.031 580.156C414.183 582.005 411.676 583.043 409.062 583.043ZM75.7889 95.2753C73.2925 95.2798 70.8999 96.2747 69.1363 98.0416C67.3727 99.8084 66.3822 102.203 66.3822 104.699V573.187C66.3822 575.684 67.3727 578.078 69.1363 579.845C70.8999 581.612 73.2925 582.607 75.7889 582.611H409.062C411.56 582.607 413.955 581.612 415.721 579.846C417.487 578.08 418.482 575.685 418.486 573.187V104.699C418.482 102.201 417.487 99.8069 415.721 98.0405C413.955 96.2742 411.56 95.2798 409.062 95.2753H75.7889Z" fill="#EBEBEB"/>
<path d="M782.413 583.043H449.122C446.51 583.038 444.006 581.999 442.158 580.151C440.311 578.304 439.271 575.8 439.267 573.187V104.699C439.294 102.102 440.344 99.6197 442.188 97.7911C444.033 95.9624 446.524 94.9345 449.122 94.9301H782.413C785.006 94.939 787.491 95.9695 789.329 97.7982C791.167 99.6269 792.211 102.106 792.234 104.699V573.187C792.234 575.795 791.2 578.297 789.359 580.144C787.518 581.991 785.02 583.034 782.413 583.043ZM449.122 95.2753C446.624 95.2798 444.23 96.2742 442.463 98.0405C440.697 99.8069 439.703 102.201 439.698 104.699V573.187C439.703 575.685 440.697 578.08 442.463 579.846C444.23 581.612 446.624 582.607 449.122 582.611H782.413C784.911 582.607 787.305 581.612 789.071 579.846C790.838 578.08 791.832 575.685 791.837 573.187V104.699C791.832 102.201 790.838 99.8069 789.071 98.0405C787.305 96.2742 784.911 95.2798 782.413 95.2753H449.122Z" fill="#EBEBEB"/>
<path d="M514.072 128.397H180.85V367.604H514.072V128.397Z" fill="#FAFAFA"/>
<path d="M495.103 367.621L410.356 128.397H346.753L431.5 367.621H495.103Z" fill="white"/>
<path d="M324.074 367.621L239.327 128.397H216.13L300.876 367.621H324.074Z" fill="white"/>
<path d="M164.971 120.182H529.968C530.162 120.182 530.355 120.22 530.534 120.295C530.713 120.37 530.875 120.479 531.012 120.617C531.148 120.755 531.256 120.919 531.329 121.099C531.402 121.279 531.438 121.472 531.435 121.666C531.435 122.055 531.281 122.428 531.006 122.703C530.731 122.978 530.357 123.133 529.968 123.133H164.971C164.58 123.133 164.206 122.979 163.928 122.704C163.65 122.43 163.491 122.057 163.487 121.666C163.487 121.272 163.643 120.895 163.922 120.616C164.2 120.338 164.578 120.182 164.971 120.182Z" fill="#E0E0E0"/>
<path d="M349.446 127.897H345.494V368.139H349.446V127.897Z" fill="#F0F0F0"/>
<path d="M345.476 127.897H343.508V368.139H345.476V127.897Z" fill="#E0E0E0"/>
<path d="M178.555 246.024V249.977L516.385 249.977V246.024L178.555 246.024Z" fill="#F0F0F0"/>
<path d="M178.555 365.912V125.998H516.367V365.912V369.865H178.555V365.912ZM512.432 365.912V130.054H182.507V365.912H512.432Z" fill="#F0F0F0"/>
<path d="M178.537 126.102H176.569V369.916H178.537V126.102Z" fill="#E0E0E0"/>
<path opacity="0.5" d="M227.538 116.557V397.481H156.22L169.303 116.557H227.538Z" fill="#EBEBEB"/>
<path opacity="0.5" d="M465.416 116.557V397.481H536.734L523.651 116.557H465.416Z" fill="#EBEBEB"/>
<path d="M134.076 431.138H106.874V651.772H134.076V431.138Z" fill="#F0F0F0"/>
<path d="M411.789 651.772H112.104V660.022H411.789V651.772Z" fill="#F0F0F0"/>
<path d="M134.093 651.772H417.019V431.138H134.093V651.772Z" fill="#F5F5F5"/>
<path d="M131.262 423.94H103.457V431.138H131.262V423.94Z" fill="#F0F0F0"/>
<path d="M131.245 431.138L420.419 431.138V423.94L131.245 423.94V431.138Z" fill="#FAFAFA"/>
<path d="M407.233 555.306H143.862V446.24H407.233V555.306ZM145.692 553.477H405.403V448.07H145.692V553.477Z" fill="#E0E0E0"/>
<path d="M407.233 636.652H143.862V566.214H407.233V636.652ZM145.692 634.823H405.403V568.044H145.692V634.823Z" fill="#E0E0E0"/>
<path d="M369.33 447.155H181.766C180.431 447.155 179.349 448.237 179.349 449.571V450.59C179.349 451.924 180.431 453.006 181.766 453.006H369.33C370.664 453.006 371.746 451.924 371.746 450.59V449.571C371.746 448.237 370.664 447.155 369.33 447.155Z" fill="#E0E0E0"/>
<path d="M369.33 567.129H181.766C180.431 567.129 179.349 568.211 179.349 569.546V570.564C179.349 571.898 180.431 572.98 181.766 572.98H369.33C370.664 572.98 371.746 571.898 371.746 570.564V569.546C371.746 568.211 370.664 567.129 369.33 567.129Z" fill="#E0E0E0"/>
<path d="M600.406 649.425H758.646L758.646 166.628H600.406V649.425Z" fill="#F0F0F0"/>
<path d="M600.407 166.645H595.384V649.442H600.407V166.645Z" fill="#E0E0E0"/>
<path d="M626.089 631.008H732.98V185.044H626.089V631.008Z" fill="#FAFAFA"/>
<path d="M431.5 737.969C616.324 737.969 766.154 729.221 766.154 718.43C766.154 707.64 616.324 698.892 431.5 698.892C246.675 698.892 96.8457 707.64 96.8457 718.43C96.8457 729.221 246.675 737.969 431.5 737.969Z" fill="#F5F5F5"/>
<path d="M247.44 703.397L260.954 698.271L252.669 665.615L239.155 670.741L247.44 703.397Z" fill="#B55B52"/>
<path d="M145.898 703.673H160.345L162.52 670.188H148.056L145.898 703.673Z" fill="#B55B52"/>
<path d="M161.795 701.999H144.173C143.89 701.994 143.614 702.091 143.396 702.271C143.178 702.452 143.031 702.704 142.982 702.983L140.772 715.824C140.728 716.144 140.753 716.471 140.845 716.781C140.938 717.091 141.096 717.377 141.308 717.621C141.521 717.865 141.784 718.06 142.078 718.194C142.373 718.327 142.693 718.396 143.016 718.396C148.678 718.292 152.803 717.964 159.948 717.964C164.332 717.964 177.605 718.43 183.681 718.43C189.756 718.43 190.24 712.424 187.72 711.871C176.466 709.438 167.905 706.089 164.177 702.879C163.512 702.313 162.668 702.001 161.795 701.999Z" fill="#263238"/>
<path d="M260.263 696.752L245.506 702.344C245.237 702.446 245.01 702.637 244.863 702.884C244.715 703.132 244.656 703.422 244.694 703.707L246.593 716.721C246.626 717.042 246.733 717.351 246.906 717.624C247.079 717.896 247.312 718.125 247.588 718.292C247.864 718.46 248.175 718.561 248.496 718.588C248.818 718.614 249.141 718.567 249.441 718.447C254.723 716.342 259.227 713.666 265.959 711.25C273.649 708.75 281.045 705.422 288.017 701.326C293.022 698.15 290.917 692.109 288.552 693.058C277.816 697.373 275.176 698.788 263.905 696.614C262.702 696.321 261.441 696.369 260.263 696.752Z" fill="#263238"/>
<path d="M222.136 263.198C226.676 271.241 231.474 279.526 236.307 287.534C241.14 295.543 246.093 303.552 251.358 311.008C252.618 312.889 254.033 314.702 255.31 316.445C255.593 316.952 255.975 317.398 256.432 317.757C257.24 318.171 258.159 318.316 259.056 318.171C260.705 318.002 262.325 317.614 263.871 317.014C267.787 315.478 271.526 313.522 275.021 311.181C276.885 309.955 278.784 308.695 280.631 307.349C282.477 306.003 284.342 304.553 286.033 303.258L294.128 310.473C292.651 312.606 291.067 314.663 289.381 316.635C287.752 318.624 286.023 320.531 284.203 322.348C282.336 324.229 280.359 325.998 278.283 327.647C276.12 329.416 273.81 330.998 271.379 332.376C268.635 333.966 265.685 335.168 262.611 335.949C258.79 336.934 254.782 336.934 250.961 335.949C246.831 334.799 243.129 332.465 240.311 329.234C238.585 327.232 236.859 325.351 235.306 323.366C229.056 315.612 223.242 307.516 217.891 299.116C212.54 290.796 207.535 282.46 202.943 273.588L222.136 263.198Z" fill="#B65B52"/>
<path d="M196.488 263.871C192.604 277.127 220.03 313.269 220.03 313.269L247.646 295.474C242.437 283.979 236.009 273.077 228.47 262.956C217.2 248.544 200.768 249.321 196.488 263.871Z" fill="#D498E4"/>
<path opacity="0.2" d="M196.488 263.871C192.604 277.127 220.03 313.269 220.03 313.269L247.646 295.474C242.437 283.979 236.009 273.077 228.47 262.956C217.2 248.544 200.768 249.321 196.488 263.871Z" fill="black"/>
<path opacity="0.2" d="M213.351 279.422C219.047 281.856 227.418 295.56 231.784 305.726L220.03 313.269C213.478 304.511 207.582 295.28 202.391 285.653C206.102 281.528 210.347 278.145 213.351 279.422Z" fill="black"/>
<path d="M284.324 307.763L289.399 293.558L303.776 300.462C303.776 300.462 300.79 313.114 290.262 313.096L284.324 307.763Z" fill="#B55B52"/>
<path d="M302.188 284.22L308.28 290.934L303.776 300.427L289.398 293.558L302.188 284.22Z" fill="#B55B52"/>
<path opacity="0.2" d="M252.669 665.632L256.933 682.46L243.418 687.587L239.155 670.758L252.669 665.632Z" fill="black"/>
<path opacity="0.2" d="M148.056 670.206H162.52L161.398 687.449H146.934L148.056 670.206Z" fill="black"/>
<path d="M132.074 258.002C147.608 312.907 145.088 371.159 146.054 382.999L223.31 380.1C236.445 298.253 212.954 252.704 212.954 252.704C212.954 252.704 208 251.754 201.252 251.064C199.146 250.84 196.868 250.65 194.486 250.529C193.174 250.443 191.845 250.408 190.499 250.374C179.529 250.559 168.58 251.377 157.705 252.824C155.651 253.083 153.562 253.377 151.526 253.722C149.489 254.067 147.815 254.378 146.072 254.723C138.08 256.294 132.074 258.002 132.074 258.002Z" fill="#D498E4"/>
<path opacity="0.2" d="M132.074 258.002C147.608 312.907 145.088 371.159 146.054 382.999L223.31 380.1C236.445 298.253 212.954 252.704 212.954 252.704C212.954 252.704 208 251.754 201.252 251.064C199.146 250.84 196.868 250.65 194.486 250.529C193.174 250.443 191.845 250.408 190.499 250.374C179.529 250.559 168.58 251.377 157.705 252.824C155.651 253.083 153.562 253.377 151.526 253.722C149.489 254.067 147.815 254.378 146.072 254.723C138.08 256.294 132.074 258.002 132.074 258.002Z" fill="black"/>
<path opacity="0.2" d="M148.522 281.562C149.903 286.861 148.315 311.112 142.774 317.083C142.015 309.316 141.048 301.222 139.667 292.919L148.522 281.562Z" fill="black"/>
<path d="M158.136 215.75C160.984 226.106 164.488 245.299 157.636 252.876C163.798 258.158 171.772 264.182 184.32 263.681C196.868 263.18 194.054 254.74 190.412 250.443C178.434 248.509 178.089 239.776 179.539 231.457L158.136 215.75Z" fill="#B55B52"/>
<path d="M184.647 261.834L186.926 263.37L178.606 265.804L180.747 261.938L184.647 261.834Z" fill="#D498E4"/>
<path d="M187.789 261.023L186.926 263.37L195.28 265.804L194.71 261.334L187.789 261.023Z" fill="#D498E4"/>
<path d="M152.647 251.996L155.927 250.356C156.451 250.094 157.038 249.98 157.622 250.029C158.207 250.078 158.767 250.287 159.241 250.633C166.827 256.135 175.501 259.954 184.682 261.834C178.089 264.976 179.711 273.433 179.711 273.433C179.711 273.433 158.74 266.529 152.095 253.998C151.907 253.659 151.859 253.259 151.963 252.884C152.066 252.51 152.312 252.191 152.647 251.996Z" fill="white"/>
<path d="M194.071 249.838L189.256 249.114C189.131 249.094 189.004 249.111 188.889 249.163C188.775 249.215 188.678 249.3 188.612 249.407C188.545 249.514 188.512 249.638 188.516 249.764C188.52 249.89 188.561 250.012 188.634 250.115C190.36 252.514 193.122 257.778 187.789 261.023C194.382 264.164 196.419 271.879 196.419 271.879C196.419 271.879 205.049 262.611 195.003 250.374C194.763 250.093 194.434 249.904 194.071 249.838Z" fill="white"/>
<path opacity="0.2" d="M166.852 222.067L179.503 231.284C179.138 233.231 178.947 235.206 178.934 237.187C174.394 236.876 167.853 232.406 167.024 227.728C166.631 225.867 166.573 223.95 166.852 222.067Z" fill="black"/>
<path d="M194.814 194.365C194.227 199.388 189.411 203.703 186.304 204.721L182.421 182.956C191.137 176.794 195.625 187.323 194.814 194.365Z" fill="#263238"/>
<path d="M153.769 200.389C156.289 214.507 157.031 222.913 165.057 229.385C177.139 239.12 193.933 230.576 195.694 215.992C197.281 202.857 192.897 181.972 178.33 177.916C175.121 177.008 171.733 176.935 168.488 177.704C165.243 178.473 162.248 180.058 159.788 182.309C157.328 184.56 155.483 187.403 154.43 190.567C153.376 193.731 153.149 197.112 153.769 200.389Z" fill="#B55B52"/>
<path d="M156.462 209.916C163.003 213.368 165.869 205.584 165.938 202.408C165.938 197.368 163.832 191.828 161.226 189.808C173.86 189.808 198.852 189.187 192.535 177.157C186.218 165.126 173.549 166.49 164.108 173.083C159.085 176.535 142.827 173.532 146.848 182.904C138.373 187.409 145.726 204.203 156.462 209.916Z" fill="#263238"/>
<path d="M148.229 182.127C145.976 182.116 143.789 181.371 141.998 180.005C142.292 181.266 142.991 182.397 143.988 183.223C144.986 184.049 146.227 184.525 147.521 184.578L148.229 182.127Z" fill="#263238"/>
<path d="M148.435 212.005C150.055 215.253 152.888 217.734 156.323 218.909C160.879 220.376 161.915 216.199 160.81 211.815C159.809 207.845 157.669 202.477 153.026 202.909C148.383 203.34 146.502 208.035 148.435 212.005Z" fill="#B55B52"/>
<path d="M240.138 532.902C234.27 489.183 223.31 380.1 223.31 380.1L172.6 382.015C172.6 382.015 196.557 491.012 205.222 535.215C213.886 579.418 238.015 686.085 238.015 686.085L260.902 677.455C260.902 677.455 246.266 578.365 240.138 532.902Z" fill="#263238"/>
<path opacity="0.2" d="M191.586 411.392C187.41 412.389 183.533 414.372 180.28 417.174C185.079 439.215 191.344 468.229 196.729 493.791C200.319 471.647 200.423 429.86 191.586 411.392Z" fill="black"/>
<path d="M195.918 381.135C195.918 381.135 185.13 499.47 180.194 541.515C174.792 587.582 168.112 684.117 168.112 684.117H141.532C141.532 684.117 140.444 598.732 143.879 553.649C147.797 502.301 146.036 382.999 146.036 382.999L195.918 381.135Z" fill="#263238"/>
<path d="M171.564 684.687H140.393L139.737 675.367L174.533 674.762L171.564 684.687Z" fill="#D498E4"/>
<path d="M263.887 676.868L236.616 687.207L233.285 678.387L263.594 666.374L263.887 676.868Z" fill="#D498E4"/>
<path d="M175.81 201.942C175.931 203.116 176.656 203.979 177.415 203.892C178.175 203.806 178.675 202.788 178.537 201.631C178.399 200.475 177.691 199.612 176.932 199.698C176.172 199.784 175.672 200.716 175.81 201.942Z" fill="#263238"/>
<path d="M188.894 200.371C189.032 201.528 189.757 202.391 190.499 202.305C191.241 202.218 191.776 201.217 191.638 200.061C191.5 198.904 190.775 198.024 190.015 198.11C189.256 198.197 188.755 199.215 188.894 200.371Z" fill="#263238"/>
<path d="M184.802 201.424C186.587 204.805 188.829 207.924 191.465 210.693C190.747 211.36 189.89 211.861 188.956 212.159C188.022 212.458 187.034 212.546 186.062 212.419L184.802 201.424Z" fill="#A02724"/>
<path d="M181.541 216.026C180.23 216.023 178.934 215.752 177.732 215.23C176.53 214.707 175.447 213.944 174.551 212.988C174.517 212.954 174.491 212.913 174.474 212.868C174.458 212.823 174.45 212.775 174.453 212.727C174.456 212.679 174.469 212.632 174.491 212.589C174.513 212.547 174.544 212.509 174.581 212.479C174.619 212.449 174.662 212.427 174.708 212.414C174.755 212.402 174.803 212.399 174.851 212.406C174.898 212.414 174.944 212.431 174.984 212.457C175.024 212.483 175.059 212.517 175.086 212.557C176.095 213.598 177.334 214.387 178.705 214.86C180.075 215.334 181.537 215.479 182.973 215.284C183.018 215.277 183.063 215.279 183.107 215.29C183.151 215.301 183.192 215.32 183.227 215.348C183.263 215.376 183.292 215.41 183.314 215.45C183.336 215.489 183.349 215.532 183.353 215.577C183.363 215.666 183.338 215.756 183.283 215.826C183.228 215.897 183.148 215.944 183.06 215.957C182.556 216.022 182.048 216.045 181.541 216.026Z" fill="#263238"/>
<path d="M171.288 198.11C171.176 198.144 171.056 198.144 170.943 198.11C170.865 198.066 170.797 198.006 170.743 197.935C170.688 197.863 170.649 197.782 170.626 197.695C170.604 197.608 170.599 197.518 170.612 197.429C170.624 197.34 170.655 197.255 170.701 197.178C171.227 196.232 171.972 195.425 172.872 194.825C173.773 194.225 174.804 193.848 175.879 193.726C175.97 193.721 176.061 193.735 176.146 193.765C176.232 193.796 176.311 193.843 176.378 193.904C176.445 193.965 176.5 194.038 176.539 194.12C176.578 194.202 176.6 194.291 176.604 194.382C176.609 194.472 176.596 194.562 176.565 194.646C176.534 194.731 176.487 194.808 176.426 194.874C176.365 194.94 176.291 194.993 176.209 195.03C176.127 195.067 176.038 195.087 175.948 195.09C175.094 195.198 174.276 195.506 173.563 195.989C172.849 196.471 172.259 197.115 171.841 197.869C171.777 197.952 171.692 198.019 171.596 198.061C171.499 198.103 171.393 198.12 171.288 198.11Z" fill="#263238"/>
<path d="M194.02 195.228C193.905 195.223 193.794 195.191 193.694 195.134C193.595 195.077 193.511 194.996 193.45 194.9C193.011 194.159 192.402 193.534 191.672 193.078C190.942 192.621 190.114 192.347 189.256 192.276C189.073 192.276 188.897 192.204 188.768 192.074C188.638 191.945 188.565 191.769 188.565 191.586C188.565 191.403 188.638 191.227 188.768 191.098C188.897 190.968 189.073 190.896 189.256 190.896C190.34 190.983 191.389 191.326 192.316 191.896C193.242 192.466 194.021 193.247 194.589 194.175C194.637 194.25 194.67 194.333 194.685 194.42C194.701 194.508 194.699 194.597 194.679 194.684C194.66 194.771 194.624 194.853 194.573 194.925C194.522 194.998 194.457 195.06 194.382 195.107C194.276 195.182 194.15 195.224 194.02 195.228Z" fill="#263238"/>
<path d="M166.697 704.519C165.411 704.486 164.131 704.313 162.883 704.001C162.817 703.985 162.758 703.95 162.712 703.901C162.666 703.852 162.635 703.791 162.624 703.725C162.607 703.66 162.611 703.591 162.636 703.529C162.66 703.467 162.705 703.414 162.762 703.379C163.262 703.051 167.785 700.186 169.424 700.998C169.605 701.09 169.759 701.227 169.871 701.397C169.983 701.566 170.049 701.762 170.063 701.964C170.124 702.294 170.099 702.634 169.99 702.952C169.881 703.269 169.692 703.553 169.441 703.776C168.642 704.337 167.671 704.6 166.697 704.519ZM163.867 703.518C166.335 704.001 168.216 703.914 169.045 703.259C169.211 703.102 169.336 702.906 169.408 702.689C169.481 702.473 169.498 702.241 169.459 702.016C169.459 701.74 169.303 701.653 169.217 701.619C168.302 701.187 165.696 702.482 163.867 703.518Z" fill="#D498E4"/>
<path d="M162.969 704.001C162.907 704.016 162.841 704.016 162.779 704.001C162.727 703.967 162.684 703.921 162.654 703.867C162.624 703.813 162.608 703.752 162.606 703.69C162.606 703.518 162.762 699.341 164.332 697.977C164.522 697.799 164.749 697.667 164.997 697.589C165.245 697.511 165.508 697.491 165.765 697.528C166.027 697.532 166.281 697.622 166.487 697.784C166.693 697.946 166.84 698.172 166.904 698.426C167.284 700.031 164.557 703.207 163.09 704.018C163.049 704.024 163.007 704.018 162.969 704.001ZM165.592 698.15C165.312 698.152 165.042 698.257 164.833 698.443C163.878 699.765 163.359 701.352 163.349 702.983C164.781 701.843 166.49 699.531 166.266 698.495C166.266 698.409 166.266 698.219 165.748 698.15H165.592Z" fill="#D498E4"/>
<path d="M262.352 698.115C262.287 698.118 262.223 698.101 262.168 698.067C262.113 698.034 262.069 697.984 262.041 697.925C262.004 697.869 261.984 697.803 261.984 697.736C261.984 697.668 262.004 697.602 262.041 697.546C262.542 696.993 266.926 692.178 268.945 692.471C269.133 692.492 269.311 692.562 269.463 692.675C269.614 692.787 269.733 692.937 269.808 693.11C269.945 693.377 270.016 693.673 270.016 693.973C270.016 694.273 269.945 694.569 269.808 694.836C268.824 696.7 264.751 697.649 262.404 698.029L262.352 698.115ZM268.721 693.144C267.564 693.144 265.045 695.406 263.284 697.252C266.46 696.614 268.635 695.63 269.187 694.577C269.281 694.396 269.33 694.194 269.33 693.99C269.33 693.786 269.281 693.585 269.187 693.403C269.16 693.335 269.116 693.275 269.058 693.23C269 693.184 268.932 693.155 268.859 693.144H268.721Z" fill="#D498E4"/>
<path d="M262.352 698.115H262.248C262.191 698.099 262.138 698.069 262.096 698.026C262.053 697.984 262.023 697.931 262.007 697.874C262.007 697.718 260.954 693.938 262.128 691.867C262.293 691.569 262.518 691.309 262.788 691.101C263.058 690.893 263.368 690.743 263.698 690.659C264.613 690.4 265.027 690.762 265.234 691.09C266.063 692.523 263.94 696.683 262.576 697.994C262.551 698.031 262.518 698.061 262.479 698.082C262.44 698.103 262.396 698.115 262.352 698.115ZM264.233 691.211H263.871C263.627 691.269 263.399 691.38 263.203 691.535C263.006 691.69 262.845 691.885 262.732 692.109C262.16 693.665 262.088 695.36 262.525 696.959C263.802 695.233 265.131 692.195 264.63 691.332C264.561 691.367 264.475 691.228 264.182 691.246L264.233 691.211Z" fill="#D498E4"/>
<path d="M147.952 278.438C143.62 287.362 139.201 296.578 134.921 305.657C132.798 310.231 130.658 314.788 128.656 319.362L125.652 326.266L124.272 329.666L123.926 330.529L123.667 331.168C123.495 331.565 123.374 331.996 123.219 332.393C122.148 335.794 121.958 339.41 122.666 342.904C123.512 346.962 125.048 350.844 127.206 354.382C129.582 358.342 132.333 362.064 135.422 365.498C136.992 367.224 138.649 369.053 140.375 370.676C141.238 371.504 142.101 372.402 143.016 373.144C143.931 373.886 144.845 374.87 145.605 375.474L139.806 384.708C137.311 383.44 134.896 382.022 132.574 380.462C130.278 378.96 128.034 377.373 125.859 375.647C121.38 372.098 117.326 368.044 113.777 363.565C109.912 358.756 106.958 353.28 105.061 347.409C103.042 340.934 102.75 334.044 104.215 327.422C104.44 326.611 104.612 325.696 104.871 324.971L105.544 322.831L106.753 319.017C107.616 316.514 108.479 313.994 109.376 311.526C111.188 306.572 113.087 301.67 115.141 296.837C119.094 287.206 123.529 277.886 128.466 268.445L147.952 278.438Z" fill="#B65B52"/>
<path d="M132.073 258.002C118.887 262.128 105.924 306.848 105.924 306.848L136.354 320.207C136.354 320.207 146.226 298.598 151.888 281.666C158.153 263.215 148.039 252.997 132.073 258.002Z" fill="#D498E4"/>
<path opacity="0.2" d="M132.073 258.002C118.887 262.128 105.924 306.848 105.924 306.848L136.354 320.207C136.354 320.207 146.226 298.598 151.888 281.666C158.153 263.215 148.039 252.997 132.073 258.002Z" fill="black"/>
<path d="M142.326 372.678L154.943 380.169L142.671 392.389C142.671 392.389 132.022 384.19 135.197 377.77L142.326 372.678Z" fill="#B55B52"/>
<path d="M163.382 392.13L150.714 401.002L142.67 392.389L154.942 380.169L163.382 392.13Z" fill="#B55B52"/>
<path d="M773.878 369.434L773.276 377.748L774.998 377.873L775.6 369.558L773.878 369.434Z" fill="#D498E4"/>
<path d="M776.152 337.95L774.407 362.068L776.128 362.192L777.874 338.074L776.152 337.95Z" fill="#D498E4"/>
<path d="M728.924 609.278H306.175C303.156 609.313 300.163 608.716 297.388 607.526C294.614 606.335 292.119 604.577 290.064 602.364C288.009 600.152 286.44 597.534 285.458 594.679C284.475 591.824 284.101 588.795 284.358 585.787L306.796 273.726C307.353 267.408 310.225 261.518 314.86 257.188C319.496 252.858 325.568 250.395 331.91 250.27H754.659C757.677 250.232 760.67 250.827 763.445 252.016C766.219 253.205 768.714 254.961 770.769 257.172C772.824 259.383 774.394 262 775.376 264.854C776.359 267.708 776.733 270.736 776.475 273.744L754.037 585.804C753.485 592.126 750.615 598.02 745.979 602.354C741.343 606.687 735.269 609.153 728.924 609.278Z" fill="#D498E4"/>
<path d="M630.594 718.43H493.36L468.902 548.868H606.137L630.594 718.43Z" fill="#D498E4"/>
<path d="M608.794 708.316H460.358L457.407 718.43H605.86L608.794 708.316Z" fill="#D498E4"/>
<path d="M613.369 630.49L479.621 623.189L468.902 548.868H601.597L613.369 630.49Z" fill="#263238"/>
<path d="M724.161 609.278H301.394C298.371 609.312 295.374 608.711 292.597 607.515C289.82 606.319 287.325 604.554 285.272 602.334C283.22 600.114 281.656 597.488 280.681 594.626C279.706 591.764 279.342 588.729 279.612 585.718L302.05 273.657C302.622 267.357 305.496 261.488 310.123 257.174C314.749 252.859 320.804 250.401 327.129 250.27H749.895C752.912 250.235 755.903 250.831 758.676 252.021C761.448 253.211 763.941 254.968 765.994 257.178C768.047 259.389 769.615 262.005 770.597 264.858C771.579 267.711 771.953 270.737 771.695 273.744L749.257 585.804C748.708 592.124 745.842 598.019 741.209 602.352C736.576 606.686 730.503 609.153 724.161 609.278Z" fill="#263238"/>
<path d="M770.601 276.67L757.77 455.68L759.422 455.799L772.254 276.789L770.601 276.67Z" fill="white"/>
<path d="M756.715 471.266L752.271 533.26L753.924 533.379L758.368 471.385L756.715 471.266Z" fill="white"/>
<path d="M723.194 603.375H303.12C300.771 603.401 298.441 602.934 296.283 602.006C294.124 601.078 292.183 599.708 290.585 597.985C288.987 596.262 287.768 594.224 287.004 592.001C286.241 589.778 285.952 587.421 286.154 585.079L308.437 274.296C308.867 269.367 311.106 264.772 314.724 261.397C318.341 258.022 323.08 256.105 328.027 256.018H748.17C750.518 255.992 752.845 256.458 755.003 257.385C757.161 258.313 759.1 259.681 760.698 261.402C762.296 263.123 763.516 265.159 764.28 267.38C765.044 269.6 765.336 271.956 765.136 274.296L742.854 585.114C742.418 590.051 740.167 594.652 736.535 598.025C732.904 601.398 728.15 603.304 723.194 603.375Z" fill="white"/>
<path opacity="0.2" d="M723.194 603.375H303.12C300.771 603.401 298.441 602.934 296.283 602.006C294.124 601.078 292.183 599.708 290.585 597.985C288.987 596.262 287.768 594.224 287.004 592.001C286.241 589.778 285.952 587.421 286.154 585.079L308.437 274.296C308.867 269.367 311.106 264.772 314.724 261.397C318.341 258.022 323.08 256.105 328.027 256.018H748.17C750.518 255.992 752.845 256.458 755.003 257.385C757.161 258.313 759.1 259.681 760.698 261.402C762.296 263.123 763.516 265.159 764.28 267.38C765.044 269.6 765.336 271.956 765.136 274.296L742.854 585.114C742.418 590.051 740.167 594.652 736.535 598.025C732.904 601.398 728.15 603.304 723.194 603.375Z" fill="#D498E4"/>
<path opacity="0.5" d="M410.891 589.602H312.786C311.65 589.616 310.524 589.391 309.48 588.944C308.437 588.496 307.498 587.834 306.726 587.002C305.954 586.169 305.364 585.184 304.996 584.11C304.627 583.035 304.488 581.896 304.587 580.764L326.231 278.714C326.436 276.33 327.518 274.106 329.269 272.473C331.019 270.841 333.314 269.916 335.707 269.877H433.813C434.949 269.861 436.076 270.083 437.121 270.53C438.166 270.977 439.106 271.638 439.879 272.471C440.652 273.305 441.241 274.291 441.608 275.366C441.976 276.442 442.113 277.582 442.011 278.714L420.367 580.764C420.159 583.148 419.075 585.37 417.325 587.001C415.575 588.633 413.284 589.56 410.891 589.602Z" fill="white"/>
<path opacity="0.4" d="M407.094 312.406H356.315C355.293 312.417 354.28 312.214 353.34 311.81C352.401 311.407 351.557 310.811 350.861 310.062C350.165 309.313 349.634 308.426 349.301 307.46C348.968 306.493 348.841 305.468 348.928 304.449L349.48 296.665C349.667 294.52 350.642 292.52 352.217 291.05C353.791 289.581 355.853 288.747 358.007 288.708H408.803C409.825 288.697 410.838 288.9 411.777 289.304C412.717 289.707 413.561 290.303 414.257 291.052C414.952 291.801 415.484 292.688 415.816 293.654C416.149 294.621 416.277 295.646 416.19 296.665L415.62 304.449C415.452 306.602 414.483 308.613 412.905 310.086C411.326 311.559 409.253 312.387 407.094 312.406Z" fill="#D498E4"/>
<path d="M374.801 434.607H297.286C295.508 434.629 293.745 434.28 292.109 433.582C290.474 432.884 289.002 431.852 287.788 430.552C286.574 429.252 285.645 427.713 285.061 426.034C284.476 424.354 284.249 422.571 284.393 420.799L289.968 343.198C290.312 339.468 292.02 335.996 294.766 333.448C297.512 330.9 301.101 329.455 304.846 329.39H382.378C384.155 329.369 385.916 329.72 387.55 330.419C389.184 331.119 390.653 332.151 391.865 333.451C393.077 334.75 394.004 336.288 394.588 337.967C395.171 339.645 395.398 341.427 395.254 343.198L389.696 420.73C389.372 424.476 387.669 427.97 384.918 430.533C382.166 433.097 378.561 434.548 374.801 434.607Z" fill="#D498E4"/>
<path d="M385.916 371.09C384.485 371.119 383.115 371.676 382.07 372.654C381.024 373.632 380.378 374.963 380.255 376.389L379.443 387.642C379.386 388.32 379.47 389.002 379.692 389.645C379.914 390.288 380.268 390.877 380.731 391.374C381.195 391.872 381.757 392.267 382.383 392.534C383.008 392.801 383.683 392.934 384.363 392.924H392.233C392.588 392.92 392.929 392.784 393.188 392.541C393.447 392.298 393.605 391.966 393.631 391.612L395.012 372.402C395.027 372.233 395.005 372.063 394.95 371.903C394.895 371.743 394.807 371.597 394.691 371.473C394.576 371.349 394.435 371.251 394.28 371.185C394.124 371.119 393.956 371.087 393.787 371.09H385.916Z" fill="white"/>
<path d="M356.005 349.049H307.228C306.955 349.052 306.685 348.999 306.434 348.891C306.183 348.784 305.958 348.625 305.772 348.425C305.587 348.224 305.446 347.988 305.357 347.73C305.269 347.471 305.236 347.198 305.26 346.926C305.307 346.352 305.567 345.816 305.988 345.424C306.41 345.031 306.962 344.81 307.538 344.803H356.402C356.674 344.8 356.945 344.853 357.195 344.961C357.446 345.068 357.671 345.227 357.857 345.427C358.042 345.628 358.184 345.864 358.272 346.122C358.36 346.381 358.393 346.654 358.369 346.926C358.317 347.513 358.044 348.059 357.605 348.453C357.166 348.847 356.594 349.06 356.005 349.049Z" fill="white"/>
<path d="M355.245 359.836H306.365C306.092 359.84 305.822 359.786 305.571 359.679C305.32 359.571 305.095 359.412 304.91 359.212C304.724 359.012 304.583 358.775 304.494 358.517C304.406 358.259 304.373 357.985 304.397 357.713C304.449 357.143 304.71 356.611 305.131 356.222C305.552 355.833 306.102 355.614 306.676 355.608H355.556C355.828 355.602 356.098 355.653 356.349 355.759C356.599 355.865 356.825 356.022 357.011 356.221C357.196 356.419 357.338 356.655 357.426 356.912C357.515 357.17 357.548 357.443 357.524 357.713C357.476 358.287 357.217 358.823 356.795 359.216C356.374 359.609 355.821 359.83 355.245 359.836Z" fill="white"/>
<path d="M337.571 370.641H305.588C305.316 370.642 305.047 370.587 304.797 370.478C304.548 370.37 304.324 370.211 304.139 370.011C303.954 369.812 303.812 369.576 303.723 369.319C303.634 369.062 303.599 368.789 303.62 368.518C303.668 367.944 303.927 367.409 304.349 367.016C304.77 366.623 305.323 366.402 305.899 366.395H337.881C338.154 366.392 338.425 366.446 338.675 366.553C338.926 366.661 339.151 366.82 339.337 367.02C339.522 367.22 339.664 367.457 339.752 367.715C339.84 367.973 339.873 368.247 339.849 368.518C339.798 369.091 339.537 369.624 339.117 370.016C338.696 370.408 338.146 370.631 337.571 370.641Z" fill="white"/>
<path opacity="0.5" d="M356.142 422.076H308.953C307.787 422.09 306.63 421.86 305.558 421.399C304.486 420.939 303.522 420.26 302.729 419.404C301.935 418.549 301.33 417.537 300.951 416.434C300.573 415.33 300.429 414.16 300.531 412.997L302.257 388.16C302.466 385.714 303.576 383.433 305.371 381.759C307.166 380.085 309.519 379.137 311.974 379.099H359.249C360.414 379.085 361.569 379.315 362.64 379.774C363.711 380.233 364.674 380.911 365.467 381.764C366.26 382.618 366.866 383.628 367.246 384.729C367.626 385.83 367.771 386.999 367.672 388.16L365.946 412.997C365.732 415.458 364.609 417.751 362.797 419.429C360.984 421.107 358.612 422.051 356.142 422.076Z" fill="white"/>
<path opacity="0.4" d="M400.277 463.638H341.455C340.949 463.645 340.447 463.545 339.981 463.346C339.516 463.147 339.097 462.853 338.752 462.482C338.408 462.111 338.144 461.672 337.98 461.194C337.815 460.715 337.752 460.207 337.796 459.703C337.889 458.64 338.373 457.65 339.154 456.923C339.935 456.196 340.958 455.785 342.024 455.767H400.846C401.351 455.763 401.851 455.864 402.315 456.065C402.778 456.265 403.194 456.56 403.537 456.93C403.88 457.301 404.142 457.739 404.306 458.216C404.469 458.693 404.532 459.2 404.488 459.703C404.399 460.764 403.918 461.754 403.14 462.481C402.362 463.208 401.342 463.62 400.277 463.638Z" fill="#D498E4"/>
<path opacity="0.8" d="M388.349 479.086H351.102C350.596 479.092 350.094 478.993 349.629 478.794C349.163 478.595 348.745 478.3 348.4 477.93C348.055 477.559 347.792 477.12 347.627 476.641C347.462 476.163 347.4 475.655 347.443 475.15C347.533 474.089 348.013 473.099 348.791 472.372C349.569 471.645 350.59 471.233 351.655 471.215H388.988C389.493 471.208 389.995 471.308 390.459 471.507C390.924 471.706 391.342 472.001 391.685 472.372C392.028 472.743 392.29 473.182 392.453 473.661C392.615 474.139 392.676 474.647 392.63 475.15C392.539 476.223 392.049 477.223 391.256 477.952C390.463 478.681 389.426 479.085 388.349 479.086Z" fill="white"/>
<path opacity="0.4" d="M397.222 506.253H338.4C337.895 506.257 337.394 506.156 336.93 505.956C336.465 505.756 336.048 505.461 335.704 505.091C335.36 504.721 335.096 504.283 334.93 503.806C334.765 503.328 334.7 502.822 334.741 502.318C334.835 501.255 335.319 500.265 336.1 499.538C336.88 498.811 337.903 498.4 338.97 498.382H397.792C398.296 498.378 398.796 498.479 399.26 498.68C399.723 498.88 400.14 499.175 400.482 499.545C400.825 499.916 401.087 500.354 401.251 500.831C401.415 501.308 401.477 501.815 401.433 502.318C401.344 503.379 400.863 504.369 400.085 505.096C399.307 505.823 398.287 506.235 397.222 506.253Z" fill="#D498E4"/>
<path opacity="0.8" d="M385.364 521.683H348.048C347.542 521.693 347.041 521.595 346.575 521.398C346.11 521.201 345.691 520.908 345.346 520.539C345.001 520.169 344.737 519.732 344.572 519.254C344.408 518.776 344.345 518.269 344.388 517.765C344.479 516.695 344.967 515.698 345.756 514.97C346.545 514.242 347.578 513.835 348.652 513.83H385.933C386.439 513.823 386.941 513.923 387.407 514.122C387.872 514.321 388.291 514.616 388.636 514.986C388.98 515.357 389.244 515.796 389.408 516.275C389.573 516.753 389.636 517.261 389.592 517.765C389.498 518.826 389.014 519.815 388.232 520.539C387.451 521.262 386.429 521.67 385.364 521.683Z" fill="white"/>
<path opacity="0.4" d="M394.166 548.868H335.344C334.839 548.872 334.338 548.771 333.874 548.571C333.41 548.371 332.992 548.076 332.648 547.706C332.304 547.336 332.041 546.898 331.875 546.421C331.709 545.943 331.644 545.436 331.685 544.933C331.775 543.869 332.258 542.876 333.04 542.149C333.822 541.421 334.846 541.011 335.914 540.997H394.736C395.241 540.99 395.743 541.09 396.207 541.289C396.672 541.488 397.09 541.783 397.433 542.154C397.776 542.525 398.038 542.964 398.201 543.443C398.364 543.922 398.424 544.429 398.378 544.933C398.288 545.994 397.808 546.984 397.03 547.711C396.252 548.438 395.231 548.85 394.166 548.868Z" fill="#D498E4"/>
<path opacity="0.8" d="M382.308 564.298H344.992C344.486 564.305 343.984 564.206 343.519 564.007C343.053 563.807 342.635 563.513 342.29 563.142C341.945 562.772 341.682 562.333 341.517 561.854C341.352 561.375 341.29 560.867 341.333 560.363C341.427 559.303 341.908 558.316 342.685 557.589C343.463 556.863 344.481 556.449 345.545 556.428H382.878C383.383 556.424 383.884 556.525 384.348 556.725C384.813 556.925 385.23 557.22 385.574 557.59C385.918 557.96 386.182 558.398 386.348 558.875C386.513 559.353 386.578 559.859 386.537 560.363C386.447 561.427 385.964 562.42 385.183 563.147C384.401 563.875 383.376 564.285 382.308 564.298Z" fill="white"/>
<path opacity="0.5" d="M727.82 501.006C730.374 497.105 736.225 498.745 735.897 503.25L730.236 582.232C729.943 586.288 726.87 589.602 723.332 589.602H438.87C435.418 589.602 432.794 586.288 433.088 582.232L436.54 535.302C436.655 533.809 437.098 532.361 437.838 531.06C438.578 529.758 439.596 528.637 440.819 527.774C442.042 526.912 443.441 526.33 444.915 526.071C446.389 525.812 447.903 525.881 449.347 526.275C465.381 531.263 479.12 528.329 491.893 521.994C519.198 508.445 542.05 479.345 573.446 479.345C574.654 479.345 575.845 479.345 577.002 479.448C623.707 482.262 637.93 540.29 674.106 540.29C684.808 540.29 694.56 535.664 703.069 529.088C713.39 521.028 721.899 510.033 727.82 501.006Z" fill="#D498E4"/>
<path opacity="0.5" d="M733.723 533.541L730.271 582.231C729.977 586.288 726.905 589.602 723.367 589.602H438.87C435.418 589.602 432.794 586.288 433.088 582.231L439.992 485.472C440.458 478.844 449.14 476.048 452.661 481.416C461.739 495.224 475.703 513.157 491.772 521.994C497.612 525.403 504.222 527.273 510.982 527.431C533.973 527.431 553.528 500.177 576.881 479.448C591.189 466.745 606.931 456.492 625.761 456.492C665.062 456.492 670.862 520.354 702.948 529.088C709.127 530.814 716.29 530.417 724.851 527.138C725.863 526.7 726.972 526.533 728.068 526.652C729.165 526.772 730.211 527.174 731.106 527.819C732 528.465 732.711 529.332 733.17 530.335C733.629 531.338 733.819 532.442 733.723 533.541Z" fill="#D498E4"/>
<g opacity="0.8">
<path d="M735.12 514.659C734.965 514.653 734.818 514.592 734.705 514.486C734.65 514.434 734.608 514.369 734.585 514.296C734.569 514.222 734.569 514.146 734.585 514.072C734.584 513.995 734.599 513.918 734.628 513.847C734.658 513.776 734.702 513.712 734.757 513.658C734.867 513.548 735.016 513.487 735.171 513.487C735.327 513.487 735.476 513.548 735.586 513.658C735.643 513.71 735.688 513.774 735.718 513.846C735.747 513.917 735.761 513.995 735.758 514.072C735.767 514.147 735.767 514.222 735.758 514.296C735.722 514.366 735.676 514.43 735.62 514.486C735.555 514.551 735.477 514.6 735.39 514.63C735.303 514.66 735.211 514.67 735.12 514.659Z" fill="white"/>
<path d="M458.494 555.099C458.338 555.099 458.189 555.037 458.079 554.927C457.968 554.817 457.907 554.668 457.907 554.512C457.911 554.359 457.975 554.215 458.085 554.108C458.194 554.002 458.341 553.942 458.494 553.943C458.649 553.943 458.798 554.004 458.908 554.114C459.018 554.224 459.08 554.374 459.08 554.529C459.08 554.687 459.019 554.838 458.91 554.951C458.8 555.063 458.651 555.129 458.494 555.133V555.099ZM452.573 554.771C452.495 554.767 452.419 554.747 452.349 554.712C452.279 554.677 452.217 554.628 452.167 554.568C452.117 554.508 452.079 554.439 452.057 554.364C452.035 554.289 452.029 554.21 452.038 554.132C452.047 554.055 452.071 553.98 452.108 553.912C452.146 553.844 452.197 553.784 452.258 553.736C452.319 553.688 452.389 553.653 452.464 553.632C452.539 553.611 452.617 553.605 452.694 553.615C452.847 553.632 452.987 553.709 453.084 553.828C453.18 553.947 453.226 554.1 453.212 554.253C453.195 554.398 453.127 554.532 453.019 554.631C452.911 554.729 452.771 554.785 452.625 554.788L452.573 554.771ZM463.741 554.253C463.731 554.176 463.737 554.098 463.758 554.023C463.779 553.948 463.814 553.878 463.862 553.817C463.91 553.756 463.97 553.705 464.038 553.667C464.106 553.63 464.181 553.606 464.258 553.597C464.335 553.588 464.414 553.594 464.489 553.614C464.564 553.635 464.634 553.671 464.695 553.719C464.756 553.767 464.806 553.827 464.844 553.895C464.882 553.963 464.906 554.038 464.914 554.115C464.924 554.192 464.918 554.271 464.897 554.345C464.876 554.42 464.841 554.49 464.792 554.551C464.744 554.612 464.684 554.663 464.616 554.701C464.548 554.739 464.474 554.762 464.396 554.771C464.319 554.781 464.241 554.775 464.166 554.754C464.091 554.733 464.021 554.697 463.96 554.649C463.899 554.601 463.848 554.541 463.811 554.473C463.773 554.405 463.749 554.33 463.741 554.253ZM446.739 553.873C446.587 553.836 446.454 553.743 446.367 553.611C446.281 553.48 446.247 553.321 446.273 553.166C446.311 553.013 446.404 552.88 446.536 552.793C446.667 552.707 446.826 552.674 446.981 552.7C447.134 552.737 447.267 552.831 447.353 552.962C447.44 553.093 447.473 553.252 447.447 553.407C447.416 553.54 447.341 553.658 447.235 553.742C447.128 553.827 446.996 553.873 446.86 553.873H446.739ZM469.505 553.287C469.485 553.211 469.48 553.131 469.49 553.053C469.501 552.975 469.527 552.9 469.567 552.833C469.608 552.765 469.661 552.706 469.725 552.66C469.788 552.613 469.86 552.58 469.937 552.562C470.088 552.53 470.245 552.557 470.376 552.637C470.508 552.717 470.604 552.845 470.645 552.993C470.681 553.146 470.657 553.308 470.576 553.443C470.496 553.579 470.365 553.677 470.213 553.718H470.075C469.939 553.73 469.804 553.693 469.693 553.614C469.582 553.535 469.503 553.419 469.471 553.287H469.505ZM658.278 553.528C658.122 553.528 657.973 553.466 657.863 553.356C657.753 553.246 657.691 553.097 657.691 552.941C657.691 552.786 657.753 552.637 657.863 552.526C657.973 552.416 658.122 552.355 658.278 552.355C658.434 552.355 658.583 552.416 658.693 552.526C658.803 552.637 658.865 552.786 658.865 552.941C658.865 553.097 658.803 553.246 658.693 553.356C658.583 553.466 658.434 553.528 658.278 553.528ZM663.542 552.7C663.533 552.624 663.539 552.546 663.56 552.472C663.581 552.399 663.617 552.33 663.665 552.27C663.713 552.21 663.773 552.161 663.841 552.125C663.909 552.089 663.984 552.068 664.06 552.061C664.138 552.049 664.217 552.053 664.293 552.073C664.369 552.093 664.44 552.128 664.501 552.177C664.563 552.225 664.614 552.286 664.651 552.355C664.688 552.425 664.71 552.501 664.716 552.579C664.73 552.737 664.683 552.894 664.583 553.016C664.482 553.139 664.338 553.217 664.181 553.235C664.026 553.245 663.874 553.195 663.755 553.095C663.636 552.995 663.56 552.854 663.542 552.7ZM652.375 553.166C652.298 553.157 652.224 553.134 652.157 553.096C652.09 553.058 652.031 553.006 651.984 552.945C651.937 552.884 651.904 552.814 651.885 552.739C651.866 552.664 651.862 552.586 651.875 552.51C651.883 552.433 651.907 552.358 651.945 552.29C651.982 552.222 652.033 552.162 652.094 552.114C652.155 552.066 652.225 552.03 652.3 552.009C652.375 551.988 652.453 551.983 652.53 551.992C652.685 552.014 652.825 552.094 652.921 552.216C653.018 552.338 653.063 552.493 653.048 552.648C653.032 552.793 652.963 552.927 652.855 553.026C652.747 553.124 652.607 553.18 652.461 553.183L652.375 553.166ZM441.009 552.458C440.934 552.438 440.864 552.404 440.802 552.356C440.741 552.309 440.689 552.25 440.651 552.182C440.612 552.115 440.587 552.04 440.578 551.963C440.568 551.886 440.574 551.808 440.595 551.733C440.643 551.583 440.746 551.456 440.884 551.379C441.022 551.302 441.184 551.281 441.337 551.319C441.487 551.367 441.612 551.471 441.686 551.61C441.76 551.748 441.777 551.91 441.734 552.061C441.699 552.184 441.624 552.292 441.521 552.367C441.418 552.442 441.292 552.48 441.164 552.475H441.009V552.458ZM669.342 551.889C669.324 551.812 669.322 551.734 669.337 551.657C669.351 551.58 669.381 551.507 669.425 551.442C669.468 551.377 669.525 551.322 669.591 551.28C669.657 551.238 669.731 551.21 669.808 551.198C669.884 551.183 669.962 551.183 670.038 551.199C670.114 551.214 670.186 551.244 670.25 551.287C670.314 551.331 670.369 551.386 670.412 551.451C670.454 551.516 670.484 551.588 670.498 551.664C670.513 551.74 670.513 551.818 670.498 551.894C670.482 551.97 670.452 552.042 670.409 552.106C670.365 552.171 670.31 552.226 670.245 552.268C670.181 552.311 670.108 552.34 670.032 552.355H669.929C669.793 552.354 669.661 552.308 669.554 552.224C669.448 552.139 669.373 552.021 669.342 551.889ZM646.576 552.096C646.498 552.082 646.425 552.052 646.36 552.008C646.296 551.964 646.241 551.906 646.2 551.839C646.159 551.772 646.133 551.697 646.124 551.62C646.114 551.542 646.121 551.463 646.144 551.388C646.181 551.237 646.276 551.107 646.409 551.026C646.541 550.945 646.701 550.92 646.852 550.957C647.003 550.993 647.133 551.088 647.214 551.221C647.295 551.354 647.32 551.513 647.283 551.664C647.252 551.792 647.179 551.906 647.076 551.987C646.973 552.068 646.845 552.113 646.714 552.113H646.576V552.096ZM475.098 551.612C475.067 551.54 475.053 551.462 475.054 551.384C475.055 551.306 475.072 551.229 475.105 551.158C475.137 551.086 475.184 551.022 475.242 550.97C475.3 550.918 475.369 550.878 475.443 550.853C475.587 550.796 475.748 550.799 475.89 550.86C476.032 550.922 476.145 551.037 476.202 551.181C476.23 551.253 476.243 551.331 476.24 551.408C476.238 551.486 476.22 551.562 476.188 551.633C476.156 551.703 476.11 551.767 476.053 551.82C475.997 551.872 475.93 551.913 475.857 551.94C475.789 551.956 475.718 551.956 475.65 551.94C475.536 551.943 475.424 551.914 475.327 551.856C475.229 551.798 475.15 551.713 475.098 551.612ZM675.055 550.594C675.031 550.518 675.023 550.438 675.032 550.359C675.04 550.28 675.064 550.204 675.103 550.134C675.142 550.065 675.194 550.004 675.257 549.955C675.32 549.907 675.392 549.872 675.469 549.852C675.544 549.831 675.622 549.825 675.699 549.835C675.776 549.844 675.851 549.869 675.918 549.908C675.985 549.946 676.044 549.998 676.092 550.059C676.139 550.121 676.174 550.191 676.194 550.266C676.215 550.341 676.221 550.419 676.211 550.496C676.201 550.573 676.177 550.648 676.138 550.715C676.1 550.783 676.048 550.842 675.987 550.889C675.925 550.936 675.855 550.971 675.78 550.991H675.624C675.499 550.994 675.377 550.957 675.274 550.886C675.172 550.814 675.095 550.712 675.055 550.594ZM640.914 550.387C640.768 550.336 640.648 550.229 640.581 550.09C640.513 549.951 640.502 549.791 640.552 549.645C640.607 549.497 640.716 549.377 640.858 549.31C641 549.242 641.163 549.232 641.311 549.282C641.459 549.337 641.579 549.447 641.647 549.589C641.714 549.73 641.724 549.893 641.674 550.042C641.628 550.155 641.55 550.252 641.448 550.32C641.346 550.388 641.227 550.423 641.104 550.421C641.039 550.428 640.973 550.416 640.914 550.387ZM480.396 549.282C480.361 549.213 480.339 549.138 480.333 549.06C480.327 548.983 480.336 548.905 480.36 548.831C480.384 548.757 480.423 548.689 480.473 548.63C480.524 548.571 480.586 548.523 480.655 548.488C480.798 548.422 480.96 548.414 481.108 548.466C481.256 548.517 481.379 548.624 481.449 548.765C481.485 548.832 481.506 548.906 481.512 548.983C481.518 549.059 481.509 549.135 481.484 549.208C481.46 549.28 481.422 549.347 481.371 549.404C481.321 549.462 481.259 549.508 481.19 549.541C481.1 549.567 481.004 549.567 480.914 549.541C480.825 549.535 480.738 549.509 480.66 549.464C480.582 549.419 480.515 549.357 480.465 549.282H480.396ZM680.612 548.868C680.585 548.797 680.572 548.721 680.575 548.644C680.578 548.568 680.596 548.493 680.628 548.424C680.66 548.355 680.706 548.293 680.762 548.241C680.819 548.19 680.885 548.151 680.958 548.126C681.104 548.081 681.263 548.093 681.4 548.16C681.538 548.228 681.645 548.345 681.7 548.488C681.75 548.637 681.74 548.8 681.673 548.942C681.605 549.083 681.485 549.193 681.337 549.248H681.148C681.04 549.235 680.937 549.193 680.852 549.126C680.767 549.059 680.702 548.97 680.664 548.868H680.612ZM635.409 548.143C635.338 548.111 635.275 548.066 635.222 548.01C635.169 547.954 635.128 547.888 635.101 547.816C635.074 547.743 635.061 547.667 635.063 547.59C635.066 547.513 635.083 547.437 635.115 547.366C635.183 547.228 635.301 547.12 635.445 547.065C635.589 547.011 635.749 547.013 635.892 547.073C635.964 547.105 636.03 547.151 636.084 547.208C636.138 547.265 636.18 547.333 636.208 547.407C636.235 547.482 636.247 547.561 636.243 547.64C636.239 547.718 636.22 547.796 636.185 547.867C636.137 547.969 636.061 548.055 635.967 548.116C635.872 548.177 635.763 548.21 635.65 548.212C635.582 548.206 635.517 548.182 635.46 548.143H635.409ZM686.084 546.797C686.053 546.726 686.038 546.649 686.038 546.572C686.038 546.494 686.054 546.418 686.084 546.347C686.115 546.276 686.16 546.211 686.216 546.158C686.273 546.105 686.339 546.064 686.412 546.037C686.481 546.004 686.557 545.985 686.635 545.983C686.712 545.981 686.789 545.995 686.861 546.024C686.932 546.053 686.997 546.097 687.05 546.153C687.104 546.209 687.145 546.275 687.171 546.348C687.202 546.419 687.219 546.496 687.22 546.574C687.222 546.652 687.207 546.729 687.179 546.802C687.15 546.874 687.107 546.94 687.052 546.995C686.997 547.051 686.932 547.095 686.861 547.125C686.787 547.141 686.71 547.141 686.636 547.125C686.531 547.118 686.43 547.085 686.342 547.027C686.255 546.97 686.183 546.89 686.136 546.797H686.084ZM485.523 546.452C485.439 546.316 485.412 546.153 485.447 545.998C485.483 545.843 485.578 545.708 485.713 545.623C485.778 545.582 485.851 545.554 485.928 545.542C486.004 545.529 486.082 545.532 486.158 545.549C486.233 545.567 486.304 545.599 486.367 545.645C486.43 545.69 486.483 545.747 486.524 545.813C486.565 545.879 486.593 545.952 486.605 546.028C486.618 546.105 486.615 546.183 486.598 546.258C486.58 546.334 486.548 546.405 486.502 546.468C486.457 546.53 486.4 546.584 486.334 546.624C486.244 546.692 486.135 546.728 486.023 546.728C485.933 546.718 485.846 546.687 485.768 546.64C485.691 546.592 485.624 546.528 485.574 546.452H485.523ZM630.144 545.502C630.006 545.426 629.903 545.298 629.858 545.146C629.812 544.994 629.829 544.831 629.903 544.691C629.982 544.556 630.111 544.456 630.263 544.414C630.414 544.373 630.576 544.391 630.714 544.467C630.848 544.543 630.947 544.669 630.989 544.818C631.031 544.966 631.013 545.125 630.938 545.261C630.887 545.353 630.812 545.431 630.721 545.485C630.63 545.54 630.526 545.57 630.42 545.571C630.343 545.559 630.267 545.536 630.196 545.502H630.144ZM691.452 544.432C691.386 544.292 691.379 544.133 691.43 543.987C691.482 543.842 691.589 543.723 691.728 543.656C691.87 543.589 692.033 543.581 692.181 543.633C692.329 543.684 692.451 543.792 692.522 543.932C692.554 544.002 692.571 544.078 692.574 544.155C692.576 544.232 692.563 544.309 692.536 544.381C692.509 544.453 692.468 544.519 692.415 544.575C692.362 544.631 692.299 544.677 692.228 544.708H691.97C691.875 544.703 691.784 544.675 691.703 544.627C691.622 544.579 691.553 544.512 691.504 544.432H691.452ZM490.39 543.207C490.301 543.078 490.266 542.919 490.291 542.765C490.317 542.61 490.402 542.472 490.528 542.378C490.655 542.288 490.812 542.249 490.967 542.272C491.121 542.294 491.261 542.376 491.357 542.499C491.445 542.628 491.481 542.787 491.455 542.941C491.429 543.096 491.344 543.234 491.218 543.328C491.118 543.401 490.998 543.443 490.873 543.448C490.788 543.441 490.706 543.415 490.632 543.374C490.557 543.332 490.493 543.275 490.442 543.207H490.39ZM625.018 542.551C624.953 542.512 624.896 542.46 624.851 542.399C624.805 542.338 624.773 542.268 624.755 542.194C624.738 542.12 624.735 542.043 624.748 541.968C624.76 541.893 624.787 541.821 624.828 541.757C624.864 541.688 624.913 541.628 624.974 541.58C625.034 541.531 625.104 541.496 625.179 541.477C625.254 541.457 625.332 541.454 625.408 541.466C625.485 541.479 625.557 541.507 625.622 541.55C625.689 541.589 625.748 541.641 625.795 541.703C625.842 541.766 625.876 541.837 625.896 541.912C625.915 541.988 625.919 542.066 625.908 542.143C625.896 542.22 625.87 542.294 625.829 542.361C625.777 542.448 625.704 542.52 625.616 542.572C625.529 542.623 625.43 542.651 625.329 542.654C625.248 542.635 625.172 542.6 625.104 542.551H625.018ZM696.664 541.809C696.591 541.671 696.575 541.511 696.621 541.362C696.666 541.213 696.769 541.088 696.906 541.015C697.044 540.946 697.203 540.933 697.351 540.978C697.499 541.023 697.623 541.122 697.7 541.256C697.774 541.396 697.79 541.56 697.745 541.711C697.7 541.863 697.597 541.991 697.458 542.068C697.367 542.083 697.273 542.083 697.182 542.068C697.095 542.059 697.012 542.032 696.937 541.987C696.863 541.942 696.799 541.881 696.751 541.809H696.664ZM495.05 539.669C495.001 539.609 494.965 539.539 494.942 539.465C494.92 539.391 494.913 539.313 494.921 539.236C494.929 539.159 494.952 539.085 494.989 539.017C495.026 538.949 495.076 538.889 495.136 538.84C495.259 538.745 495.414 538.701 495.568 538.718C495.722 538.734 495.864 538.808 495.965 538.926C496.072 539.041 496.131 539.192 496.131 539.349C496.131 539.506 496.072 539.657 495.965 539.772C495.855 539.853 495.722 539.895 495.585 539.893C495.498 539.897 495.41 539.878 495.332 539.839C495.253 539.799 495.186 539.741 495.136 539.669H495.05ZM620.047 539.41C619.917 539.325 619.825 539.192 619.793 539.04C619.761 538.888 619.79 538.729 619.875 538.598C619.962 538.467 620.099 538.375 620.253 538.343C620.408 538.31 620.57 538.34 620.703 538.426C620.83 538.513 620.918 538.646 620.95 538.797C620.983 538.948 620.956 539.105 620.876 539.237C620.823 539.322 620.749 539.392 620.661 539.44C620.574 539.488 620.475 539.514 620.375 539.513C620.289 539.494 620.207 539.459 620.133 539.41H620.047ZM701.79 538.978C701.75 538.911 701.723 538.837 701.712 538.76C701.701 538.683 701.705 538.605 701.724 538.529C701.743 538.454 701.777 538.383 701.824 538.32C701.871 538.258 701.93 538.206 701.998 538.167C702.133 538.09 702.294 538.069 702.445 538.107C702.596 538.146 702.727 538.241 702.809 538.374C702.886 538.51 702.907 538.67 702.869 538.821C702.83 538.973 702.734 539.103 702.602 539.185C702.506 539.238 702.4 539.267 702.291 539.272C702.204 539.257 702.122 539.223 702.051 539.172C701.979 539.121 701.919 539.055 701.877 538.978H701.79ZM615.163 536.147C615.034 536.057 614.945 535.92 614.916 535.765C614.887 535.61 614.92 535.45 615.007 535.319C615.1 535.194 615.238 535.108 615.391 535.079C615.545 535.051 615.703 535.081 615.836 535.164C615.961 535.257 616.047 535.394 616.075 535.548C616.104 535.701 616.074 535.86 615.991 535.992C615.935 536.073 615.86 536.138 615.773 536.183C615.686 536.229 615.589 536.252 615.49 536.251C615.403 536.235 615.321 536.199 615.249 536.147H615.163ZM706.796 535.94C706.716 535.804 706.692 535.642 706.727 535.489C706.762 535.335 706.855 535.2 706.986 535.112C707.051 535.071 707.125 535.043 707.201 535.03C707.277 535.018 707.355 535.02 707.431 535.038C707.506 535.055 707.577 535.088 707.64 535.133C707.703 535.178 707.756 535.236 707.797 535.302C707.838 535.367 707.866 535.441 707.878 535.517C707.891 535.593 707.889 535.671 707.871 535.747C707.853 535.822 707.821 535.893 707.776 535.956C707.73 536.019 707.673 536.072 707.607 536.113C707.519 536.183 707.409 536.219 707.296 536.217C707.212 536.202 707.132 536.169 707.06 536.122C706.989 536.074 706.928 536.012 706.882 535.94H706.796ZM499.676 535.94C499.57 535.828 499.511 535.68 499.511 535.526C499.511 535.372 499.57 535.224 499.676 535.112C499.791 535.005 499.942 534.946 500.099 534.946C500.256 534.946 500.407 535.005 500.522 535.112C500.631 535.222 500.693 535.371 500.693 535.526C500.693 535.681 500.631 535.83 500.522 535.94C500.471 535.988 500.411 536.024 500.346 536.048C500.281 536.072 500.211 536.082 500.142 536.078C500.061 536.094 499.978 536.092 499.898 536.075C499.818 536.057 499.742 536.023 499.676 535.975V535.94ZM711.801 532.695C711.712 532.566 711.677 532.408 711.703 532.253C711.729 532.099 711.813 531.96 711.939 531.867C712.004 531.822 712.076 531.79 712.153 531.773C712.23 531.756 712.309 531.755 712.386 531.769C712.464 531.784 712.537 531.814 712.603 531.857C712.668 531.901 712.724 531.957 712.768 532.022C712.854 532.151 712.886 532.308 712.857 532.46C712.828 532.612 712.74 532.746 712.612 532.834C712.516 532.899 712.402 532.935 712.285 532.937C712.193 532.943 712.102 532.927 712.018 532.891C711.935 532.855 711.86 532.8 711.801 532.73V532.695ZM610.399 532.834C610.334 532.792 610.278 532.737 610.235 532.673C610.191 532.609 610.161 532.537 610.147 532.461C610.132 532.385 610.133 532.307 610.15 532.232C610.167 532.156 610.198 532.085 610.243 532.022C610.328 531.892 610.461 531.801 610.613 531.768C610.765 531.736 610.924 531.765 611.055 531.85C611.12 531.893 611.176 531.949 611.22 532.015C611.263 532.08 611.293 532.154 611.308 532.231C611.322 532.308 611.321 532.388 611.304 532.465C611.287 532.541 611.255 532.614 611.21 532.678C611.159 532.76 611.088 532.826 611.003 532.872C610.918 532.917 610.823 532.94 610.727 532.937C610.613 532.945 610.499 532.922 610.399 532.868V532.834ZM504.181 532.178C504.124 532.124 504.079 532.06 504.049 531.989C504.018 531.918 504.002 531.841 504.002 531.763C504.002 531.686 504.018 531.609 504.049 531.538C504.079 531.467 504.124 531.402 504.181 531.349C504.293 531.244 504.441 531.185 504.595 531.185C504.749 531.185 504.897 531.244 505.009 531.349C505.119 531.459 505.18 531.608 505.18 531.763C505.18 531.919 505.119 532.068 505.009 532.178C504.905 532.27 504.769 532.319 504.629 532.316C504.552 532.332 504.471 532.331 504.394 532.313C504.316 532.295 504.244 532.261 504.181 532.212V532.178ZM605.531 529.589C605.465 529.548 605.408 529.495 605.363 529.431C605.318 529.368 605.286 529.296 605.27 529.22C605.254 529.144 605.253 529.066 605.269 528.99C605.284 528.914 605.315 528.841 605.359 528.777C605.399 528.711 605.453 528.654 605.516 528.609C605.579 528.564 605.651 528.532 605.727 528.516C605.803 528.5 605.882 528.499 605.958 528.515C606.034 528.53 606.106 528.561 606.17 528.605C606.3 528.69 606.392 528.823 606.424 528.975C606.457 529.127 606.427 529.286 606.343 529.416C606.292 529.498 606.22 529.564 606.135 529.61C606.051 529.655 605.955 529.678 605.859 529.675C605.747 529.692 605.633 529.674 605.531 529.623V529.589ZM716.6 529.313C716.553 529.252 716.519 529.182 716.5 529.108C716.48 529.034 716.476 528.957 716.488 528.881C716.499 528.805 716.525 528.733 716.565 528.668C716.605 528.602 716.658 528.546 716.72 528.501C716.847 528.41 717.004 528.372 717.159 528.395C717.313 528.417 717.453 528.499 717.549 528.622C717.638 528.751 717.673 528.91 717.647 529.064C717.622 529.219 717.537 529.357 717.411 529.451C717.308 529.518 717.188 529.554 717.066 529.554C716.977 529.561 716.888 529.546 716.806 529.51C716.725 529.473 716.654 529.418 716.6 529.347V529.313ZM508.686 528.432C508.576 528.322 508.514 528.173 508.514 528.018C508.514 527.863 508.576 527.714 508.686 527.604C508.808 527.509 508.963 527.465 509.117 527.481C509.271 527.497 509.413 527.572 509.514 527.69C509.563 527.75 509.6 527.819 509.622 527.893C509.644 527.967 509.651 528.045 509.643 528.122C509.635 528.199 509.612 528.274 509.575 528.342C509.538 528.41 509.488 528.47 509.428 528.519C509.377 528.566 509.317 528.602 509.252 528.626C509.187 528.65 509.117 528.66 509.048 528.657C508.908 528.64 508.779 528.573 508.686 528.467V528.432ZM600.647 526.43C600.581 526.389 600.524 526.336 600.478 526.273C600.433 526.211 600.401 526.139 600.383 526.064C600.365 525.989 600.363 525.91 600.375 525.834C600.388 525.758 600.416 525.684 600.457 525.619C600.498 525.553 600.551 525.496 600.614 525.45C600.676 525.405 600.748 525.373 600.823 525.355C600.898 525.337 600.977 525.335 601.053 525.347C601.129 525.36 601.203 525.388 601.268 525.429C601.334 525.47 601.391 525.523 601.437 525.586C601.482 525.648 601.514 525.72 601.532 525.795C601.55 525.87 601.552 525.949 601.54 526.025C601.527 526.101 601.499 526.175 601.458 526.24C601.406 526.327 601.333 526.4 601.245 526.451C601.158 526.502 601.059 526.531 600.958 526.534C600.845 526.534 600.736 526.497 600.647 526.43ZM721.329 525.809C721.281 525.748 721.245 525.678 721.224 525.603C721.204 525.528 721.198 525.45 721.207 525.373C721.217 525.296 721.242 525.221 721.281 525.154C721.319 525.087 721.371 525.028 721.432 524.98C721.493 524.932 721.563 524.897 721.638 524.876C721.713 524.855 721.791 524.849 721.868 524.859C721.945 524.869 722.02 524.893 722.087 524.932C722.154 524.971 722.213 525.022 722.261 525.084C722.35 525.21 722.388 525.365 722.369 525.518C722.35 525.671 722.274 525.812 722.157 525.912C722.06 525.992 721.938 526.035 721.812 526.033C721.717 526.046 721.62 526.036 721.529 526.003C721.439 525.97 721.358 525.915 721.294 525.843L721.329 525.809ZM513.311 524.808C513.22 524.681 513.182 524.524 513.205 524.369C513.227 524.215 513.309 524.075 513.432 523.979C513.559 523.888 513.716 523.85 513.871 523.873C514.025 523.895 514.165 523.977 514.261 524.1C514.351 524.227 514.389 524.384 514.367 524.539C514.344 524.693 514.263 524.833 514.14 524.928C514.039 525.002 513.919 525.044 513.795 525.049C513.698 525.059 513.6 525.045 513.51 525.009C513.42 524.973 513.34 524.916 513.277 524.842L513.311 524.808ZM595.624 523.444C595.557 523.405 595.498 523.353 595.451 523.291C595.404 523.228 595.37 523.157 595.35 523.082C595.331 523.006 595.327 522.928 595.339 522.851C595.35 522.774 595.377 522.7 595.417 522.633C595.455 522.566 595.505 522.508 595.566 522.461C595.626 522.414 595.696 522.38 595.77 522.36C595.844 522.341 595.921 522.337 595.997 522.348C596.073 522.359 596.146 522.386 596.211 522.426C596.279 522.462 596.34 522.511 596.388 522.571C596.437 522.631 596.472 522.7 596.493 522.775C596.514 522.849 596.52 522.927 596.51 523.003C596.5 523.08 596.475 523.153 596.435 523.22C596.384 523.312 596.309 523.39 596.218 523.444C596.127 523.499 596.024 523.529 595.918 523.53C595.806 523.539 595.693 523.522 595.59 523.479L595.624 523.444ZM725.903 522.15C725.854 522.09 725.817 522.021 725.795 521.946C725.773 521.872 725.765 521.794 725.773 521.717C725.781 521.64 725.805 521.566 725.842 521.498C725.879 521.43 725.929 521.37 725.989 521.321C726.049 521.272 726.118 521.235 726.192 521.213C726.266 521.191 726.344 521.184 726.421 521.192C726.498 521.2 726.573 521.223 726.641 521.26C726.709 521.297 726.769 521.347 726.817 521.407C726.923 521.519 726.982 521.668 726.982 521.822C726.982 521.976 726.923 522.124 726.817 522.236C726.707 522.319 726.575 522.367 726.438 522.374C726.335 522.397 726.227 522.391 726.127 522.357C726.027 522.324 725.937 522.264 725.868 522.184L725.903 522.15ZM518.075 521.39C518.03 521.326 517.998 521.253 517.981 521.176C517.964 521.1 517.963 521.02 517.977 520.943C517.992 520.866 518.022 520.792 518.065 520.727C518.109 520.661 518.165 520.605 518.23 520.562C518.364 520.476 518.525 520.446 518.68 520.479C518.835 520.511 518.971 520.603 519.059 520.734C519.143 520.865 519.173 521.023 519.14 521.176C519.108 521.328 519.017 521.461 518.886 521.546C518.79 521.613 518.676 521.649 518.558 521.649C518.46 521.657 518.362 521.64 518.272 521.601C518.181 521.562 518.102 521.501 518.041 521.425L518.075 521.39ZM590.567 520.665C590.43 520.592 590.327 520.467 590.282 520.318C590.236 520.169 590.252 520.009 590.325 519.871C590.36 519.802 590.408 519.74 590.467 519.689C590.526 519.638 590.594 519.6 590.668 519.576C590.742 519.552 590.82 519.543 590.897 519.549C590.975 519.555 591.05 519.577 591.119 519.612C591.255 519.692 591.356 519.819 591.404 519.969C591.452 520.118 591.442 520.28 591.378 520.424C591.323 520.516 591.244 520.594 591.151 520.648C591.057 520.702 590.951 520.732 590.843 520.734C590.717 520.768 590.582 520.756 590.463 520.7L590.567 520.665ZM730.373 518.37C730.263 518.26 730.202 518.111 730.202 517.955C730.202 517.8 730.263 517.651 730.373 517.541C730.485 517.436 730.633 517.377 730.787 517.377C730.941 517.377 731.089 517.436 731.202 517.541C731.307 517.653 731.366 517.801 731.366 517.955C731.366 518.109 731.307 518.258 731.202 518.37C731.152 518.419 731.092 518.458 731.027 518.485C730.962 518.512 730.892 518.525 730.822 518.525C730.74 518.539 730.656 518.535 730.576 518.515C730.495 518.494 730.42 518.456 730.356 518.404L730.373 518.37ZM522.977 518.301C522.937 518.233 522.911 518.158 522.901 518.08C522.891 518.002 522.897 517.923 522.918 517.848C522.939 517.772 522.974 517.701 523.023 517.64C523.072 517.578 523.132 517.527 523.201 517.489C523.336 517.415 523.496 517.397 523.644 517.439C523.793 517.481 523.919 517.579 523.995 517.714C524.035 517.782 524.061 517.856 524.071 517.934C524.081 518.012 524.075 518.091 524.054 518.167C524.033 518.242 523.998 518.313 523.949 518.375C523.9 518.436 523.84 518.487 523.771 518.525C523.674 518.547 523.574 518.547 523.477 518.525C523.382 518.531 523.287 518.514 523.199 518.475C523.112 518.436 523.036 518.376 522.977 518.301ZM585.199 518.197C585.129 518.165 585.066 518.12 585.013 518.064C584.96 518.008 584.919 517.942 584.891 517.869C584.864 517.797 584.851 517.721 584.854 517.644C584.856 517.566 584.874 517.491 584.906 517.42C584.937 517.35 584.983 517.287 585.039 517.234C585.095 517.181 585.161 517.14 585.233 517.113C585.305 517.085 585.382 517.073 585.459 517.075C585.536 517.078 585.612 517.095 585.682 517.127C585.754 517.157 585.819 517.201 585.873 517.257C585.928 517.313 585.97 517.379 585.997 517.452C586.025 517.525 586.037 517.602 586.033 517.68C586.03 517.758 586.01 517.834 585.976 517.904C585.929 518.007 585.854 518.094 585.759 518.155C585.664 518.216 585.554 518.249 585.441 518.249C585.363 518.246 585.287 518.229 585.216 518.197H585.199ZM579.831 516.074C579.757 516.049 579.689 516.009 579.631 515.957C579.572 515.905 579.526 515.841 579.493 515.77C579.461 515.698 579.444 515.621 579.442 515.543C579.441 515.465 579.456 515.387 579.486 515.315C579.544 515.17 579.655 515.054 579.797 514.99C579.938 514.926 580.099 514.918 580.246 514.969C580.39 515.027 580.506 515.139 580.57 515.28C580.635 515.421 580.642 515.582 580.591 515.729C580.551 515.842 580.476 515.94 580.376 516.009C580.277 516.077 580.159 516.112 580.038 516.109C579.968 516.114 579.896 516.102 579.831 516.074ZM528.155 515.591C528.095 515.448 528.092 515.289 528.147 515.144C528.202 515 528.309 514.882 528.448 514.814C528.519 514.78 528.597 514.76 528.676 514.756C528.755 514.752 528.834 514.764 528.908 514.792C528.982 514.819 529.05 514.861 529.107 514.915C529.165 514.97 529.211 515.035 529.242 515.108C529.273 515.179 529.29 515.256 529.291 515.333C529.293 515.411 529.278 515.489 529.25 515.561C529.221 515.633 529.178 515.699 529.123 515.755C529.068 515.81 529.003 515.854 528.932 515.884C528.852 515.902 528.769 515.902 528.69 515.884C528.582 515.889 528.476 515.864 528.381 515.812C528.287 515.761 528.209 515.684 528.155 515.591ZM574.291 514.193C574.141 514.145 574.016 514.041 573.942 513.902C573.868 513.764 573.85 513.602 573.894 513.451C573.942 513.301 574.046 513.176 574.184 513.102C574.323 513.027 574.485 513.01 574.636 513.054C574.786 513.101 574.911 513.206 574.985 513.344C575.059 513.483 575.076 513.645 575.033 513.796C574.993 513.916 574.917 514.02 574.815 514.094C574.713 514.169 574.59 514.209 574.463 514.21H574.291V514.193ZM533.575 513.382C533.55 513.308 533.541 513.23 533.547 513.153C533.553 513.076 533.574 513 533.61 512.931C533.645 512.862 533.694 512.801 533.753 512.751C533.812 512.701 533.88 512.663 533.954 512.639C534.028 512.615 534.106 512.606 534.183 512.612C534.26 512.618 534.335 512.639 534.404 512.674C534.473 512.71 534.535 512.758 534.585 512.818C534.635 512.877 534.673 512.945 534.696 513.019C534.721 513.093 534.73 513.17 534.724 513.248C534.718 513.325 534.697 513.4 534.661 513.469C534.626 513.538 534.577 513.6 534.518 513.65C534.459 513.7 534.391 513.738 534.317 513.761H534.127C534.01 513.758 533.897 513.721 533.801 513.653C533.706 513.585 533.633 513.491 533.592 513.382H533.575ZM568.664 512.76C568.514 512.727 568.382 512.636 568.298 512.507C568.214 512.378 568.185 512.221 568.215 512.07C568.229 511.992 568.259 511.919 568.303 511.853C568.347 511.788 568.404 511.732 568.471 511.69C568.537 511.648 568.612 511.62 568.69 511.608C568.767 511.596 568.847 511.601 568.923 511.621C568.999 511.635 569.071 511.665 569.134 511.708C569.198 511.75 569.253 511.806 569.295 511.87C569.337 511.935 569.365 512.007 569.378 512.083C569.392 512.159 569.389 512.236 569.372 512.311C569.344 512.445 569.27 512.565 569.162 512.65C569.055 512.735 568.922 512.78 568.785 512.777H568.664V512.76ZM539.184 511.776C539.166 511.699 539.165 511.619 539.179 511.541C539.193 511.463 539.222 511.389 539.266 511.323C539.31 511.257 539.366 511.2 539.432 511.157C539.498 511.113 539.572 511.083 539.65 511.069C539.801 511.038 539.958 511.068 540.087 511.152C540.216 511.236 540.307 511.367 540.34 511.517C540.358 511.593 540.361 511.672 540.348 511.749C540.335 511.826 540.306 511.9 540.265 511.965C540.223 512.031 540.168 512.088 540.104 512.133C540.04 512.177 539.968 512.209 539.892 512.225H539.771C539.64 512.222 539.514 512.177 539.411 512.096C539.308 512.015 539.235 511.903 539.201 511.776H539.184ZM562.951 511.776C562.797 511.751 562.658 511.666 562.565 511.541C562.472 511.415 562.43 511.258 562.45 511.103C562.459 511.026 562.483 510.952 562.521 510.885C562.559 510.818 562.61 510.759 562.671 510.712C562.732 510.666 562.803 510.632 562.877 510.613C562.952 510.594 563.03 510.59 563.106 510.603C563.261 510.628 563.399 510.713 563.493 510.838C563.586 510.964 563.627 511.121 563.607 511.276C563.583 511.415 563.511 511.541 563.404 511.632C563.297 511.723 563.161 511.774 563.02 511.776H562.934H562.951ZM544.949 510.793C544.934 510.639 544.98 510.487 545.077 510.367C545.174 510.248 545.314 510.171 545.467 510.154C545.544 510.142 545.623 510.146 545.699 510.166C545.775 510.186 545.846 510.221 545.908 510.27C545.969 510.318 546.02 510.379 546.057 510.448C546.094 510.517 546.116 510.593 546.123 510.672C546.137 510.829 546.089 510.986 545.989 511.109C545.889 511.232 545.745 511.31 545.587 511.328C545.433 511.333 545.282 511.278 545.167 511.175C545.051 511.073 544.979 510.929 544.966 510.775L544.949 510.793ZM557.169 511.172C557.091 511.17 557.014 511.152 556.944 511.119C556.873 511.086 556.81 511.039 556.758 510.981C556.706 510.923 556.667 510.855 556.643 510.781C556.618 510.707 556.609 510.628 556.617 510.551C556.621 510.474 556.641 510.398 556.674 510.329C556.708 510.259 556.755 510.197 556.813 510.146C556.87 510.094 556.938 510.055 557.011 510.03C557.084 510.004 557.161 509.994 557.238 509.999C557.395 510.012 557.541 510.086 557.644 510.205C557.747 510.325 557.8 510.48 557.79 510.637C557.781 510.787 557.716 510.927 557.607 511.03C557.498 511.133 557.353 511.19 557.203 511.19L557.169 511.172ZM550.783 510.413C550.78 510.335 550.794 510.258 550.823 510.185C550.851 510.113 550.894 510.047 550.949 509.993C551.004 509.938 551.07 509.894 551.142 509.866C551.214 509.837 551.292 509.824 551.37 509.826C551.525 509.826 551.674 509.888 551.785 509.998C551.895 510.108 551.956 510.257 551.956 510.413C551.956 510.568 551.895 510.718 551.785 510.828C551.674 510.938 551.525 511 551.37 511C551.293 510.997 551.217 510.98 551.146 510.948C551.076 510.917 551.012 510.872 550.96 510.816C550.907 510.76 550.865 510.694 550.838 510.621C550.811 510.549 550.798 510.473 550.8 510.396L550.783 510.413Z" fill="white"/>
<path d="M435.382 550.594C435.308 550.61 435.232 550.61 435.158 550.594C435.084 550.564 435.019 550.517 434.968 550.456C434.909 550.407 434.866 550.341 434.847 550.266C434.83 550.192 434.83 550.116 434.847 550.042C434.853 549.887 434.914 549.74 435.02 549.628C435.072 549.572 435.137 549.53 435.21 549.507C435.28 549.473 435.356 549.456 435.434 549.456C435.512 549.456 435.588 549.473 435.658 549.507C435.733 549.526 435.799 549.568 435.848 549.628C435.904 549.681 435.947 549.746 435.977 549.817C436.007 549.888 436.022 549.965 436.021 550.042C436.039 550.115 436.039 550.192 436.021 550.266C435.995 550.342 435.947 550.408 435.883 550.456C435.832 550.517 435.767 550.564 435.693 550.594C435.592 550.628 435.483 550.628 435.382 550.594Z" fill="white"/>
</g>
<path d="M530.02 373.869L525.998 369.519C518.735 376.389 509.138 380.25 499.141 380.324C491.209 380.449 483.486 377.778 477.326 372.779C471.165 367.78 466.961 360.772 465.45 352.984L459.409 354.572L453.886 356.022C455.454 364.176 459.275 371.727 464.915 377.821C482.434 396.704 513.485 396.704 533.713 377.821L530.02 373.869Z" fill="white"/>
<path d="M538.633 309.04L533.334 313.959L529.692 317.411C532.907 320.9 535.364 325.017 536.909 329.503C538.454 333.988 539.052 338.745 538.667 343.474C537.884 353.454 533.359 362.769 525.999 369.554L529.157 373.006L533.714 377.908C543.421 368.944 549.388 356.647 550.421 343.474C550.936 337.232 550.155 330.951 548.126 325.025C546.098 319.099 542.865 313.657 538.633 309.04Z" fill="#263238"/>
<path d="M538.633 309.04C521.114 290.175 490.064 290.175 469.852 309.04C463.455 314.896 458.642 322.273 455.86 330.487C453.078 338.701 452.417 347.484 453.938 356.022L460.842 354.296L465.572 353.053C464.968 349.91 464.782 346.701 465.019 343.509C465.858 333.553 470.367 324.264 477.672 317.447C484.977 310.63 494.555 306.773 504.545 306.624C509.281 306.572 513.976 307.506 518.332 309.366C522.688 311.226 526.61 313.972 529.848 317.429L534.508 313.062L538.633 309.04Z" fill="#D498E4"/>
<path d="M588.221 373.869L592.864 369.519C589.659 366.029 587.211 361.914 585.675 357.431C584.14 352.948 583.549 348.196 583.941 343.474C584.648 335.178 587.899 327.303 593.25 320.924C598.6 314.545 605.789 309.973 613.835 307.832L612.661 301.895L611.608 296.475C603.114 298.739 595.311 303.067 588.894 309.075C568.665 327.94 566.456 358.991 583.958 377.873L588.221 373.869Z" fill="white"/>
<path d="M652.756 377.839L648.182 372.902L645.041 369.45C637.782 376.328 628.184 380.195 618.184 380.272C613.445 380.324 608.747 379.391 604.388 377.531C600.03 375.671 596.105 372.925 592.864 369.467L589.222 372.919L583.958 377.839C588.239 382.385 593.415 385.997 599.159 388.448C604.904 390.898 611.093 392.134 617.338 392.078C630.517 391.965 643.167 386.879 652.756 377.839Z" fill="#263238"/>
<path d="M652.756 377.839C672.968 358.956 675.194 327.905 657.693 309.04C651.877 302.956 644.516 298.569 636.398 296.35C628.279 294.13 619.71 294.161 611.608 296.44L612.92 303.155L613.835 307.797C616.979 306.973 620.216 306.555 623.466 306.555C628.213 306.485 632.922 307.413 637.288 309.28C641.653 311.147 645.577 313.911 648.806 317.392C652.035 320.873 654.496 324.993 656.03 329.487C657.564 333.98 658.136 338.745 657.71 343.474C656.922 353.447 652.397 362.756 645.041 369.537L649.08 373.903L652.756 377.839Z" fill="#D498E4"/>
<path opacity="0.3" d="M734.274 299.133C734.749 299.132 735.218 299.229 735.654 299.417C736.089 299.605 736.481 299.881 736.805 300.228C737.129 300.575 737.378 300.984 737.536 301.431C737.695 301.879 737.76 302.354 737.726 302.827L735.586 332.6C735.486 333.653 735.004 334.632 734.231 335.353C733.459 336.075 732.449 336.489 731.392 336.518H701.601C701.125 336.52 700.654 336.423 700.218 336.233C699.781 336.044 699.388 335.766 699.064 335.417C698.74 335.069 698.491 334.657 698.334 334.208C698.176 333.759 698.114 333.282 698.149 332.807L700.272 303.034C700.373 301.983 700.856 301.006 701.629 300.287C702.402 299.568 703.411 299.158 704.466 299.133H734.24M734.24 297.597H704.501C703.059 297.625 701.678 298.186 700.623 299.17C699.569 300.154 698.915 301.493 698.788 302.93L696.665 332.704C696.607 333.385 696.692 334.071 696.915 334.718C697.137 335.364 697.492 335.958 697.956 336.46C698.421 336.961 698.985 337.361 699.613 337.633C700.24 337.904 700.917 338.042 701.601 338.037H731.375C732.818 338.013 734.201 337.454 735.256 336.469C736.312 335.483 736.964 334.142 737.088 332.704L739.228 302.93C739.286 302.247 739.2 301.56 738.977 300.912C738.753 300.264 738.397 299.67 737.931 299.168C737.464 298.666 736.898 298.267 736.269 297.996C735.639 297.726 734.96 297.59 734.274 297.597H734.24Z" fill="#D498E4"/>
<path opacity="0.3" d="M730.598 350.378C731.073 350.377 731.542 350.473 731.978 350.662C732.413 350.85 732.805 351.126 733.129 351.473C733.453 351.82 733.702 352.229 733.86 352.676C734.019 353.123 734.083 353.598 734.05 354.072L731.927 383.845C731.823 384.896 731.34 385.873 730.568 386.594C729.796 387.315 728.789 387.731 727.733 387.763H697.942C697.466 387.764 696.995 387.667 696.559 387.478C696.122 387.288 695.729 387.011 695.405 386.662C695.081 386.314 694.832 385.902 694.675 385.453C694.517 385.004 694.455 384.527 694.49 384.052L696.631 354.279C696.732 353.228 697.214 352.251 697.987 351.532C698.76 350.813 699.77 350.403 700.825 350.378H730.581M730.581 348.842H700.842C699.399 348.866 698.016 349.425 696.96 350.41C695.905 351.395 695.253 352.737 695.129 354.175L692.989 383.949C692.931 384.632 693.017 385.319 693.24 385.967C693.463 386.615 693.82 387.209 694.286 387.711C694.752 388.213 695.319 388.612 695.948 388.883C696.578 389.153 697.257 389.289 697.942 389.282H727.716C729.158 389.254 730.539 388.693 731.593 387.709C732.648 386.725 733.301 385.386 733.429 383.949L735.552 354.175C735.61 353.492 735.524 352.805 735.301 352.157C735.077 351.509 734.721 350.915 734.255 350.413C733.788 349.911 733.222 349.512 732.592 349.241C731.963 348.971 731.284 348.835 730.598 348.842H730.581Z" fill="#D498E4"/>
<path d="M686.948 515.09C687.348 515.08 687.745 515.155 688.114 515.31C688.483 515.464 688.815 515.695 689.088 515.988C689.359 516.284 689.564 516.634 689.692 517.014C689.82 517.395 689.867 517.797 689.83 518.197C689.754 519.093 689.348 519.93 688.691 520.545C688.035 521.16 687.174 521.51 686.274 521.528C685.873 521.54 685.474 521.466 685.104 521.311C684.733 521.156 684.401 520.924 684.128 520.63C683.855 520.335 683.648 519.986 683.521 519.605C683.394 519.224 683.35 518.821 683.392 518.421C683.465 517.524 683.869 516.685 684.527 516.069C685.184 515.453 686.047 515.104 686.948 515.09ZM686.948 513.571C685.667 513.592 684.439 514.087 683.501 514.961C682.564 515.834 681.984 517.024 681.873 518.301C681.817 518.909 681.89 519.522 682.087 520.1C682.284 520.678 682.6 521.208 683.015 521.656C683.43 522.103 683.935 522.459 684.497 522.698C685.058 522.938 685.664 523.057 686.274 523.047C687.558 523.026 688.788 522.528 689.726 521.651C690.664 520.774 691.242 519.58 691.349 518.301C691.402 517.694 691.327 517.083 691.13 516.507C690.932 515.931 690.615 515.403 690.2 514.957C689.785 514.511 689.281 514.158 688.721 513.919C688.161 513.68 687.557 513.562 686.948 513.571Z" fill="#D498E4"/>
<path d="M687.397 513.589L686.637 513.537L686.758 512.018L687.5 512.07L687.397 513.589Z" fill="#D498E4"/>
<path d="M687.724 508.963H686.965L687.189 505.856H687.949L687.724 508.963ZM688.173 502.715H687.414L687.638 499.608H688.397L688.173 502.715ZM688.622 496.484H687.862L688.087 493.36H688.846L688.622 496.484ZM689.071 490.253H688.311L688.536 487.129H689.295L689.071 490.253ZM689.519 484.022H688.76L688.984 480.898H689.744L689.519 484.022ZM689.968 477.791H689.209L689.433 474.667H690.192L689.968 477.791ZM690.417 471.543H689.657L689.882 468.436H690.641L690.417 471.543ZM690.866 465.312H690.106L690.331 462.188H691.09L690.866 465.312ZM691.314 459.082H690.555L690.779 455.957H691.539L691.314 459.082ZM691.746 452.851H690.986L691.211 449.727H691.97L691.746 452.851ZM692.195 446.62H691.435L691.66 443.496H692.419L692.195 446.62Z" fill="#D498E4"/>
<path d="M691.973 438.809L691.866 440.324L692.623 440.377L692.731 438.862L691.973 438.809Z" fill="#D498E4"/>
<path d="M724.541 439.664H451.246C450.497 439.671 449.756 439.521 449.069 439.224C448.382 438.927 447.766 438.489 447.259 437.938C446.747 437.387 446.355 436.736 446.109 436.026C445.862 435.316 445.766 434.562 445.826 433.813L447.19 415C447.318 413.461 448.015 412.025 449.145 410.972C450.274 409.919 451.756 409.324 453.3 409.304H726.646C727.393 409.299 728.132 409.449 728.817 409.745C729.503 410.042 730.119 410.477 730.627 411.024C731.135 411.571 731.523 412.217 731.768 412.923C732.013 413.628 732.109 414.376 732.049 415.12L730.702 433.934C730.577 435.486 729.875 436.935 728.735 437.996C727.594 439.057 726.098 439.652 724.541 439.664ZM453.3 410.961C452.169 410.978 451.085 411.415 450.259 412.187C449.433 412.959 448.923 414.011 448.829 415.138L447.483 433.951C447.439 434.473 447.504 434.999 447.673 435.495C447.843 435.991 448.113 436.447 448.467 436.833C448.823 437.211 449.255 437.51 449.733 437.712C450.211 437.914 450.727 438.015 451.246 438.007H724.541C725.672 437.993 726.758 437.558 727.585 436.785C728.412 436.012 728.921 434.958 729.011 433.83L730.374 415.017C730.415 414.501 730.349 413.983 730.18 413.495C730.011 413.006 729.743 412.558 729.393 412.177C729.044 411.796 728.619 411.492 728.147 411.283C727.674 411.073 727.163 410.964 726.646 410.961H453.3Z" fill="#D498E4"/>
<path opacity="0.8" fill-rule="evenodd" clip-rule="evenodd" d="M718.672 421.455H459.599C459.269 421.458 458.941 421.393 458.638 421.262C458.335 421.132 458.062 420.939 457.838 420.697C457.613 420.455 457.442 420.168 457.335 419.856C457.228 419.543 457.188 419.212 457.217 418.883C457.281 418.194 457.596 417.553 458.102 417.082C458.608 416.611 459.27 416.342 459.961 416.328H719.051C719.379 416.325 719.704 416.39 720.006 416.519C720.307 416.649 720.578 416.84 720.8 417.081C721.023 417.322 721.193 417.606 721.299 417.917C721.405 418.227 721.445 418.556 721.416 418.883C721.36 419.576 721.048 420.224 720.541 420.699C720.033 421.175 719.367 421.444 718.672 421.455Z" fill="white"/>
<path opacity="0.8" fill-rule="evenodd" clip-rule="evenodd" d="M675.505 432.242H458.823C458.495 432.246 458.17 432.181 457.868 432.051C457.567 431.922 457.296 431.73 457.073 431.49C456.851 431.249 456.681 430.964 456.575 430.654C456.469 430.344 456.429 430.014 456.458 429.688C456.514 428.995 456.826 428.347 457.333 427.872C457.84 427.396 458.507 427.127 459.202 427.116H675.867C676.211 427.101 676.554 427.161 676.873 427.292C677.191 427.423 677.477 427.622 677.71 427.875C677.944 428.129 678.119 428.43 678.224 428.758C678.329 429.086 678.361 429.432 678.318 429.774C678.233 430.459 677.9 431.089 677.381 431.544C676.862 431.999 676.195 432.248 675.505 432.242Z" fill="white"/>
</svg>
